<?xml version="1.0" encoding="utf-8"?>
<!-- Generator: Adobe Illustrator 25.2.3, SVG Export Plug-In . SVG Version: 6.00 Build 0)  -->
<svg version="1.1" id="Camada_1" xmlns="http://www.w3.org/2000/svg" xmlns:xlink="http://www.w3.org/1999/xlink" x="0px" y="0px"
	 viewBox="0 0 256 45" style="enable-background:new 0 0 256 45;" xml:space="preserve">
<style type="text/css">
	.st0{fill:#FFFFFF;}
</style>
<g>
	<path class="st0" d="M9.9,10.1V6.6C10,5.1,8.8,3.9,7.4,3.8c-0.1,0-0.2,0-0.2,0H0v14h2.8v-5h4.3c1.5,0.1,2.7-1.1,2.8-2.5
		C9.9,10.3,9.9,10.2,9.9,10.1z M7.1,9.5c0,0.3-0.2,0.6-0.5,0.7c0,0-0.1,0-0.1,0H2.8V6.4h3.7c0.3,0,0.6,0.2,0.7,0.5c0,0,0,0.1,0,0.1
		V9.5z"/>
	<path class="st0" d="M14.9,12.6h2.2l2.2,5.2h3l-2.3-5.3c1.2-0.3,2-1.4,1.9-2.6V6.6c0.1-1.5-1.1-2.7-2.5-2.8c-0.1,0-0.2,0-0.2,0
		h-7.1v14h2.8V12.6z M14.9,6.4h3.6c0.3,0,0.6,0.2,0.7,0.5c0,0,0,0.1,0,0.1v2.2c0,0.3-0.2,0.6-0.5,0.7c0,0-0.1,0-0.1,0h-3.6V6.4z"/>
	<path class="st0" d="M27.2,17.8h4.7c1.4,0.1,2.7-1,2.8-2.5c0-0.1,0-0.2,0-0.3V6.5c0.1-1.5-1-2.7-2.5-2.8c-0.1,0-0.2,0-0.3,0h-4.7
		c-1.5-0.1-2.7,1.1-2.8,2.5c0,0.1,0,0.2,0,0.3v8.6c-0.1,1.4,1,2.7,2.5,2.8C27,17.8,27.1,17.8,27.2,17.8z M27.2,7
		c0-0.3,0.2-0.6,0.5-0.7c0,0,0.1,0,0.1,0h3.3c0.3,0,0.6,0.2,0.7,0.5c0,0,0,0.1,0,0.1v7.5c0,0.3-0.2,0.6-0.5,0.7c0,0-0.1,0-0.1,0
		h-3.3c-0.3,0-0.6-0.2-0.7-0.5c0,0,0-0.1,0-0.1V7z"/>
	<polygon class="st0" points="39.7,17.8 42.5,17.8 42.5,6.4 46.1,6.4 46.1,3.8 36,3.8 36,6.4 39.7,6.4 	"/>
	<path class="st0" d="M48.5,17.8l0.9-3.1H54l0.9,3.1h3l-4.5-14h-3.3l-4.5,14H48.5z M51.8,6.9l1.5,5.1h-3L51.8,6.9z"/>
	<path class="st0" d="M61.9,17.8h4.6c1.4,0.1,2.7-1,2.8-2.5c0-0.1,0-0.2,0-0.3V10h-5.3v2.5h2.6v2.1c0,0.3-0.2,0.6-0.5,0.7
		c0,0-0.1,0-0.1,0h-3.2c-0.3,0-0.6-0.2-0.7-0.5c0,0,0-0.1,0-0.1V7c0-0.3,0.2-0.6,0.5-0.7c0,0,0.1,0,0.1,0h3.2c0.3,0,0.6,0.2,0.7,0.5
		c0,0,0,0.1,0,0.1v1.3h2.8V6.5c0.1-1.5-1-2.7-2.5-2.8c-0.1,0-0.2,0-0.3,0h-4.6c-1.5-0.1-2.7,1.1-2.8,2.5c0,0.1,0,0.2,0,0.3v8.6
		c-0.1,1.4,1,2.7,2.5,2.8C61.7,17.8,61.8,17.8,61.9,17.8z"/>
	<path class="st0" d="M74.3,17.8H79c1.5,0.1,2.7-1,2.8-2.5c0-0.1,0-0.2,0-0.3V6.5c0.1-1.5-1.1-2.7-2.5-2.8c-0.1,0-0.2,0-0.2,0h-4.7
		c-1.5-0.1-2.7,1.1-2.8,2.5c0,0.1,0,0.2,0,0.3v8.6c-0.1,1.4,1,2.7,2.5,2.8C74.2,17.8,74.3,17.8,74.3,17.8z M74.4,7
		c0-0.3,0.2-0.6,0.5-0.6c0,0,0.1,0,0.1,0h3.3c0.3-0.1,0.6,0.1,0.7,0.4c0,0.1,0,0.1,0,0.2v7.5c0,0.3-0.2,0.6-0.5,0.7c0,0-0.1,0-0.1,0
		H75c-0.3,0-0.6-0.2-0.7-0.5c0,0,0-0.1,0-0.1L74.4,7z"/>
	<polygon class="st0" points="87.1,8.2 92.3,17.8 95.3,17.8 95.3,3.8 92.6,3.8 92.6,13.3 87.5,3.8 84.5,3.8 84.5,17.8 87.1,17.8 	
		"/>
	<rect x="98.3" y="3.8" class="st0" width="2.8" height="14"/>
	<path class="st0" d="M106.6,17.8h4.3c1.4,0.1,2.7-1,2.8-2.5c0-0.1,0-0.2,0-0.3v-2.5c0-1.6-1.3-2.5-2.8-2.8L107.2,9
		c-0.4-0.1-0.7-0.2-0.7-0.7V7c0-0.3,0.2-0.6,0.5-0.7c0,0,0.1,0,0.1,0h2.8c0.3,0,0.6,0.2,0.7,0.5c0,0,0,0.1,0,0.1v1.1h2.7V6.5
		c0.1-1.5-1-2.7-2.5-2.8c-0.1,0-0.2,0-0.3,0h-4.1c-1.5-0.1-2.7,1.1-2.8,2.5c0,0.1,0,0.2,0,0.2v2.4c0,1.6,1.3,2.5,2.8,2.8l3.6,0.8
		c0.4,0.1,0.7,0.2,0.7,0.7v1.5c0,0.3-0.2,0.6-0.5,0.7c0,0-0.1,0-0.1,0h-3c-0.3,0-0.6-0.2-0.7-0.5c0,0,0-0.1,0-0.1v-1.2h-2.7v1.8
		c-0.1,1.5,1.1,2.7,2.5,2.8C106.4,17.8,106.5,17.8,106.6,17.8z"/>
	<polygon class="st0" points="118.9,8.5 122,15.5 124,15.5 127,8.5 127,17.8 129.6,17.8 129.6,3.8 126.6,3.8 123,12 119.4,3.8 
		116.3,3.8 116.3,17.8 118.9,17.8 	"/>
	<path class="st0" d="M135.1,17.8h4.7c1.4,0.1,2.7-1,2.8-2.5c0-0.1,0-0.2,0-0.3V6.5c0.1-1.5-1-2.7-2.5-2.8c-0.1,0-0.2,0-0.3,0h-4.7
		c-1.5-0.1-2.7,1.1-2.8,2.5c0,0.1,0,0.2,0,0.2v8.6c-0.1,1.5,1.1,2.7,2.5,2.8C135,17.8,135,17.8,135.1,17.8z M135.1,7
		c0-0.3,0.2-0.6,0.5-0.7c0,0,0.1,0,0.1,0h3.3c0.3,0,0.6,0.2,0.7,0.5c0,0,0,0.1,0,0.1v7.5c0,0.3-0.2,0.6-0.5,0.7c0,0-0.1,0-0.1,0
		h-3.3c-0.3,0-0.6-0.2-0.7-0.5c0,0,0-0.1,0-0.1V7z"/>
	<polygon class="st0" points="159.5,15.1 153.2,15.1 153.2,11.9 158.3,11.9 158.3,9.3 153.2,9.3 153.2,6.4 159.5,6.4 159.5,3.8 
		150.4,3.8 150.4,17.8 159.5,17.8 	"/>
	<polygon class="st0" points="173.1,17.8 177.3,3.8 174.2,3.8 171.5,14.4 168.8,3.8 165.6,3.8 169.8,17.8 	"/>
	<rect x="179.2" y="3.8" class="st0" width="2.8" height="14"/>
	<polygon class="st0" points="191.4,17.8 195.6,3.8 192.5,3.8 189.8,14.4 187.1,3.8 183.9,3.8 188.1,17.8 	"/>
	<polygon class="st0" points="202.1,1.2 203.8,2.5 206,2.5 203.3,0 200.9,0 198.2,2.5 200.4,2.5 	"/>
	<polygon class="st0" points="206.7,15.1 200.3,15.1 200.3,11.9 205.4,11.9 205.4,9.3 200.3,9.3 200.3,6.4 206.7,6.4 206.7,3.8 
		197.5,3.8 197.5,17.8 206.7,17.8 	"/>
	<polygon class="st0" points="211.7,8.2 216.9,17.8 219.9,17.8 219.9,3.8 217.3,3.8 217.3,13.3 212.1,3.8 209.1,3.8 209.1,17.8 
		211.7,17.8 	"/>
	<path class="st0" d="M225.4,17.8h4.4c1.4,0.1,2.7-1,2.8-2.5c0-0.1,0-0.2,0-0.3v-2.2h-2.8v1.7c0,0.3-0.2,0.6-0.5,0.7
		c0,0-0.1,0-0.1,0h-3c-0.3,0-0.6-0.2-0.7-0.5c0,0,0-0.1,0-0.1V7c0-0.3,0.2-0.6,0.5-0.7c0,0,0.1,0,0.1,0h3c0.3,0,0.6,0.2,0.7,0.5
		c0,0,0,0.1,0,0.1v1.7h2.8V6.5c0.1-1.5-1-2.7-2.5-2.8c-0.1,0-0.2,0-0.3,0h-4.4c-1.5-0.1-2.7,1.1-2.8,2.5c0,0.1,0,0.2,0,0.2v8.6
		c-0.1,1.5,1.1,2.7,2.5,2.8C225.2,17.8,225.3,17.8,225.4,17.8z"/>
	<rect x="235" y="3.8" class="st0" width="2.8" height="14"/>
	<path class="st0" d="M248.9,17.8h3l-4.5-14h-3.3l-4.5,14h2.9l0.9-3.1h4.5L248.9,17.8z M244.2,12l1.5-5.1l1.5,5.1H244.2z"/>
	<rect x="253.3" y="7.3" class="st0" width="2.7" height="2.8"/>
	<rect x="253.3" y="14.9" class="st0" width="2.7" height="2.8"/>
	<polygon class="st0" points="2.8,41 5.6,41 5.6,35.3 10.8,35.3 10.8,32.7 5.6,32.7 5.6,29.7 12,29.7 12,27.1 2.8,27.1 	"/>
	<path class="st0" d="M23.8,38.4v-8.6c0.1-1.4-1-2.7-2.5-2.7c-0.1,0-0.2,0-0.3,0h-4.6c-1.5-0.1-2.7,1-2.8,2.5c0,0.1,0,0.2,0,0.3v8.6
		c-0.1,1.5,1.1,2.7,2.5,2.8c0.1,0,0.2,0,0.3,0H21c1.4,0.1,2.7-1,2.8-2.4C23.8,38.6,23.8,38.5,23.8,38.4z M21,37.8
		c0,0.3-0.2,0.6-0.5,0.7c0,0-0.1,0-0.1,0h-3.3c-0.3,0-0.6-0.2-0.7-0.5c0,0,0-0.1,0-0.1v-7.5c0-0.3,0.2-0.6,0.5-0.7c0,0,0.1,0,0.1,0
		h3.3c0.3,0,0.6,0.2,0.7,0.5c0,0,0,0.1,0,0.1V37.8z"/>
	<path class="st0" d="M36.4,33.1v-3.3c0.1-1.5-1.1-2.7-2.5-2.8c-0.1,0-0.2,0-0.3,0h-7.1V41h2.8v-5.2h2.2l2.2,5.2h3l-2.3-5.3
		C35.7,35.4,36.5,34.3,36.4,33.1z M33.6,32.6c0,0.3-0.2,0.6-0.5,0.7c0,0-0.1,0-0.1,0h-3.6v-3.5h3.6c0.3,0,0.6,0.2,0.7,0.5
		c0,0,0,0.1,0,0.1L33.6,32.6z"/>
	<polygon class="st0" points="52.5,41 52.5,27.1 49.4,27.1 45.8,35.2 42.2,27.1 39.1,27.1 39.1,41 41.8,41 41.8,31.7 44.8,38.8 
		46.8,38.8 49.8,31.7 49.8,41 	"/>
	<path class="st0" d="M57.2,41l0.9-3.1h4.5l0.9,3.1h3l-4.5-14h-3.2l-4.5,14H57.2z M60.4,30.1l1.5,5.1h-3L60.4,30.1z"/>
	<path class="st0" d="M67.8,29.7v8.6c-0.1,1.4,1,2.7,2.5,2.8c0.1,0,0.2,0,0.3,0H72l-0.9,2h2.2c0.2,0,0.2,0.1,0.2,0.3v0.2
		c0,0.2,0,0.3-0.2,0.3h-2.5l1,1.1h1.8c1,0,1.6-0.5,1.6-1.4v-0.2c0-1-0.7-1.4-1.6-1.4H73l0.4-0.9H75c1.5,0.1,2.7-1,2.8-2.5
		c0-0.1,0-0.2,0-0.3v-2.2H75v1.7c0,0.3-0.2,0.6-0.5,0.7c0,0-0.1,0-0.1,0h-3c-0.3,0-0.6-0.2-0.7-0.5c0,0,0-0.1,0-0.1v-7.5
		c0-0.3,0.2-0.6,0.5-0.7c0,0,0.1,0,0.1,0h3c0.3,0,0.6,0.2,0.7,0.5c0,0,0,0.1,0,0.1V32h2.8v-2.3c0.1-1.5-1.1-2.7-2.5-2.7
		c-0.1,0-0.2,0-0.2,0h-4.4c-1.4-0.1-2.7,1-2.7,2.5C67.8,29.6,67.8,29.7,67.8,29.7z"/>
	<path class="st0" d="M83.6,25l2.9,0.8c0.6,0.1,1,0,1.1-0.5l0.4-1.9h-1.3l-0.4,0.8l-2.8-0.7c-0.6-0.1-1,0-1.1,0.5L82,25.8h1.2
		L83.6,25z"/>
	<path class="st0" d="M82.7,37.9h4.5l0.9,3.1h3l-4.5-14h-3.3l-4.5,14h2.9L82.7,37.9z M85,30.1l1.5,5.1h-3L85,30.1z"/>
	<path class="st0" d="M95.1,27c-1.5-0.1-2.7,1-2.8,2.5c0,0.1,0,0.2,0,0.3v8.6c-0.1,1.5,1.1,2.7,2.5,2.8c0.1,0,0.2,0,0.3,0h4.7
		c1.4,0.1,2.7-1,2.8-2.5c0-0.1,0-0.2,0-0.3v-8.6c0.1-1.4-1-2.7-2.5-2.7c-0.1,0-0.2,0-0.3,0H95.1z M99.7,37.8c0,0.3-0.2,0.6-0.5,0.7
		c0,0-0.1,0-0.1,0h-3.3c-0.3,0-0.6-0.2-0.7-0.5c0,0,0-0.1,0-0.1v-7.5c0-0.3,0.2-0.6,0.5-0.7c0,0,0.1,0,0.1,0h3.3
		c0.3,0,0.6,0.2,0.7,0.5c0,0,0,0.1,0,0.1L99.7,37.8z"/>
	<polygon class="st0" points="119.5,29.7 119.5,27.1 110.4,27.1 110.4,41 119.5,41 119.5,38.4 113.2,38.4 113.2,35.2 118.3,35.2 
		118.3,32.6 113.2,32.6 113.2,29.7 	"/>
	<polygon class="st0" points="125,27.1 122,27.1 122,41 124.6,41 124.6,31.7 127.6,38.8 129.6,38.8 132.7,31.7 132.7,41 135.3,41 
		135.3,27.1 132.2,27.1 128.6,35.2 	"/>
	<polygon class="st0" points="150.9,33.8 148.5,29 146.6,27.1 146.4,27.3 150.1,35.5 	"/>
	<polygon class="st0" points="149.1,38.8 151.1,40.7 153.1,40.7 154.3,37.9 154.3,31.3 151,38.6 149.3,38.6 	"/>
	<polygon class="st0" points="148.1,43 148.1,36 145.9,31 145.9,40.8 143.7,40.8 143.5,41 145.4,43 	"/>
	<polygon class="st0" points="158.8,29 156.8,27.1 156.6,27.3 156.6,40.8 154.4,40.8 154.2,41 156.1,43 158.8,43 	"/>
	<path class="st0" d="M162.8,38.7h1.5v-6.4c0-0.3,0.2-0.6,0.5-0.7c0,0,0.1,0,0.1,0h2.2v-1.5c0-0.3-0.2-0.6-0.5-0.7c0,0-0.1,0-0.1,0
		h-3.7c-0.3,0-0.6,0.2-0.7,0.5c0,0,0,0.1,0,0.1V38c0,0.3,0.2,0.6,0.5,0.7C162.7,38.7,162.8,38.7,162.8,38.7z"/>
	<path class="st0" d="M171.7,31.7c0-0.6-0.2-1.3-0.6-1.8l-2-2c0.3,0.6,0.4,1.2,0.4,1.8v8.6c0.2,1.3-0.8,2.4-2,2.6
		c-0.2,0-0.3,0-0.5,0h-4.7c-0.6,0.1-1.3-0.1-1.8-0.4l1.6,1.6c0.5,0.6,1.3,1,2.2,1h4.7c1.5,0.1,2.7-1.1,2.8-2.5c0-0.1,0-0.2,0-0.2
		L171.7,31.7z"/>
	<polygon class="st0" points="174.2,27.1 174,27.3 176.8,37.9 177,37.9 177.7,35.1 176.2,29 	"/>
	<polygon class="st0" points="175.3,41 177.2,43 180.5,43 184.8,29 182.8,27.1 182.6,27.2 178.5,40.8 175.5,40.8 	"/>
	<polygon class="st0" points="189.4,29 187.5,27.1 187.3,27.3 187.3,40.8 184.9,40.8 184.7,41 186.6,43 189.4,43 	"/>
	<polygon class="st0" points="197.9,33.8 195.5,29 193.6,27.1 193.4,27.3 197.2,35.5 	"/>
	<polygon class="st0" points="203.7,40.8 201.4,40.8 201.2,41 203.2,43 205.8,43 205.8,29 203.9,27.1 203.7,27.3 	"/>
	<polygon class="st0" points="193,40.8 190.7,40.8 190.5,41 192.5,43 195.1,43 195.1,36 193,31 	"/>
	<polygon class="st0" points="201.4,37.9 201.4,31.3 198,38.6 196.4,38.6 196.2,38.8 198.1,40.7 200.2,40.7 	"/>
	<polygon class="st0" points="214.7,35 209.5,35 209.5,38.6 211.7,38.6 211.7,37.2 216.8,37.2 216.8,34.5 214.9,32.6 214.7,32.8 	
		"/>
	<polygon class="st0" points="218,43 218,40.3 216.1,38.4 215.9,38.6 215.9,40.8 207.1,40.8 206.9,41 208.9,43 	"/>
	<polygon class="st0" points="218,29 216.1,27.1 215.9,27.3 215.9,29.5 209.5,29.5 209.5,32.8 211.7,32.8 211.7,31.6 218,31.6 	"/>
	<polygon class="st0" points="226.8,36.8 226.8,35.2 223.5,29 221.6,27.1 221.4,27.3 226.6,36.8 	"/>
	<polygon class="st0" points="229.1,27.3 229.1,40.8 226.5,40.8 226.3,41 228.2,43 231.2,43 231.2,29 229.3,27.1 	"/>
	<polygon class="st0" points="218.5,41 220.5,43 223.1,43 223.1,34.9 221,30.9 221,40.8 218.7,40.8 	"/>
	<polygon class="st0" points="235.2,31.6 235.2,29.5 231.5,29.5 231.3,29.7 233.3,31.6 	"/>
	<polygon class="st0" points="241.2,27.3 241.2,29.5 237.6,29.5 237.6,40.8 235.2,40.8 235,41 236.9,43 239.7,43 239.7,31.6 
		243.3,31.6 243.3,29 241.4,27.1 	"/>
	<path class="st0" d="M246.1,29.4c-0.3,0-0.6,0.2-0.7,0.5c0,0,0,0.1,0,0.1V38c0,0.3,0.2,0.6,0.5,0.7c0,0,0.1,0,0.1,0h1.5v-6.4
		c0-0.3,0.2-0.6,0.5-0.7c0,0,0.1,0,0.1,0h2.2v-1.5c0-0.3-0.2-0.6-0.5-0.7c0,0-0.1,0-0.1,0H246.1z"/>
	<path class="st0" d="M252.4,27.9c0.3,0.6,0.4,1.2,0.4,1.8v8.6c0.1,1.3-0.8,2.4-2.1,2.6c-0.2,0-0.3,0-0.5,0h-4.7
		c-0.6,0.1-1.3-0.1-1.8-0.4l1.6,1.6c0.5,0.6,1.3,1,2.2,1h4.7c1.5,0.1,2.7-1,2.8-2.5c0-0.1,0-0.2,0-0.3v-8.6c0-0.6-0.2-1.3-0.6-1.8
		L252.4,27.9z"/>
</g>
</svg>
