<svg xmlns="http://www.w3.org/2000/svg" viewBox="0 0 256 57.6"><defs><style>.cls-1{fill:#fff;}</style></defs><g id="Camada_2" data-name="Camada 2"><g id="Camada_1-2" data-name="Camada 1"><path class="cls-1" d="M12.14,10.84h3.52c1.64,0,2.54-.61,2.54-2.32V2.36C18.2.65,17.3,0,15.66,0H8.43V14.37h3.71Zm0-7.55h2.35V7.57H12.14Z"/><path class="cls-1" d="M28.77,12.1V7.93c0-1.73-.81-2.45-2.53-2.45H23.9V3.29h4.51V0h-5.7c-1.64,0-2.52.65-2.52,2.36V6.53c0,1.26.47,2.25,2.5,2.25h2.38v2.3H20.19v3.29h6.06C27.87,14.37,28.77,13.76,28.77,12.1Z"/><rect class="cls-1" x="30.77" width="3.7" height="14.37"/><path class="cls-1" d="M39.11,14.37h6V11.08H40.35V3.31l4.75,0V0h-6c-1.64,0-2.46.63-2.46,2.28V12.1C36.65,13.76,37.47,14.37,39.11,14.37Z"/><path class="cls-1" d="M49.38,14.37h4.83c1.64,0,2.47-.67,2.47-2.27V2.28C56.68.65,55.78,0,54.21,0H49.38c-1.64,0-2.47.76-2.47,2.28V12.1C46.91,13.74,47.83,14.37,49.38,14.37ZM50.62,3.31H53v7.77H50.62Z"/><polygon class="cls-1" points="67.2 11.08 62.56 11.08 62.56 0 58.85 0 58.85 14.37 67.2 14.37 67.2 11.08"/><path class="cls-1" d="M71.48,14.37h4.83c1.64,0,2.47-.67,2.47-2.27V2.28C78.78.65,77.88,0,76.31,0H71.48C69.84,0,69,.76,69,2.28V12.1C69,13.74,69.93,14.37,71.48,14.37ZM72.72,3.31h2.35v7.77H72.72Z"/><path class="cls-1" d="M83.45,14.37h6.73V6.91H86.47v4.17H84.66V3.31l4.26,0V0H83.47C81.83,0,81,.65,81,2.36V12.1C81,13.76,81.83,14.37,83.45,14.37Z"/><rect class="cls-1" x="92.17" width="3.7" height="14.37"/><path class="cls-1" d="M101.76,10.5h2.35v3.87h3.71v-12c0-1.71-.9-2.36-2.54-2.36h-4.69C99,0,98.05.65,98.05,2.36v12h3.71Zm0-7.21h2.39v4h-2.39Z"/><polygon class="cls-1" points="123.37 11.08 118.73 11.08 118.73 8.76 123.37 8.76 123.37 5.49 118.73 5.49 118.73 3.29 123.37 3.29 123.37 0 115.03 0 115.03 14.37 123.37 14.37 123.37 11.08"/><path class="cls-1" d="M140.18,12.1V2.28c0-1.65-1-2.28-2.48-2.28h-7.3V14.37h7.3C139.3,14.37,140.18,13.65,140.18,12.1Zm-3.7-1H134.1V3.31h2.38Z"/><polygon class="cls-1" points="150.7 11.08 146.06 11.08 146.06 8.76 150.7 8.76 150.7 5.49 146.06 5.49 146.06 3.29 150.7 3.29 150.7 0 142.36 0 142.36 14.37 150.7 14.37 150.7 11.08"/><path class="cls-1" d="M165.19,0H152.7V14.37h3.7V3.29h2V14.37h3.7V3.29h2V14.37h3.71v-12C167.77.65,166.83,0,165.19,0Z"/><path class="cls-1" d="M172.4,14.37h4.84c1.64,0,2.47-.67,2.47-2.27V2.28c0-1.63-.9-2.28-2.47-2.28H172.4c-1.63,0-2.46.76-2.46,2.28V12.1C169.94,13.74,170.86,14.37,172.4,14.37Zm1.25-11.06H176v7.77h-2.35Z"/><path class="cls-1" d="M184.34,14.37h6V11.08h-4.74V3.31l4.74,0V0h-6c-1.63,0-2.46.63-2.46,2.28V12.1C181.88,13.76,182.71,14.37,184.34,14.37Z"/><path class="cls-1" d="M195.85,9.53H198v4.84h3.7V9.62a1.47,1.47,0,0,0-1.33-1.69v0A1.71,1.71,0,0,0,201.66,6V2.36c0-1.71-.9-2.36-2.53-2.36h-7V14.37h3.7Zm0-6.24H198v3h-2.11Z"/><path class="cls-1" d="M207.54,10.5h2.36v3.87h3.7v-12c0-1.71-.9-2.36-2.54-2.36h-4.69c-1.64,0-2.53.65-2.53,2.36v12h3.7Zm0-7.21h2.39v4h-2.39Z"/><path class="cls-1" d="M218.24,14.37h6V11.08h-4.75V3.31l4.75,0V0h-6c-1.64,0-2.46.63-2.46,2.28V12.1C215.78,13.76,216.6,14.37,218.24,14.37Z"/><rect class="cls-1" x="226.04" width="3.7" height="14.37"/><path class="cls-1" d="M235.63,10.5H238v3.87h3.71v-12c0-1.71-.9-2.36-2.54-2.36h-4.69c-1.64,0-2.54.65-2.54,2.36v12h3.71Zm0-7.21H238v4h-2.39Z"/><rect class="cls-1" x="243.86" y="4.17" width="3.7" height="3.29"/><rect class="cls-1" x="243.86" y="11.08" width="3.7" height="3.29"/><path class="cls-1" d="M0,20.4v9.82c0,1.66.83,2.27,2.46,2.27h6V29.2H3.7V21.43l4.75,0V18.12h-6C.83,18.12,0,18.75,0,20.4Z"/><path class="cls-1" d="M12.73,18.12q-2.46,0-2.46,2.28v9.82c0,1.64.91,2.27,2.46,2.27h4.84c1.63,0,2.46-.67,2.46-2.27V20.4c0-1.63-.9-2.28-2.46-2.28Zm3.6,11.08H14V21.43h2.36Z"/><path class="cls-1" d="M22.21,32.49h3.7V21.41h2.36V32.49H32v-12c0-1.71-.9-2.36-2.53-2.36H22.21Z"/><path class="cls-1" d="M42.72,30.22V26.05c0-1.73-.81-2.45-2.53-2.45H37.85V21.41h4.51V18.12h-5.7c-1.63,0-2.51.65-2.51,2.36v4.17c0,1.26.46,2.25,2.5,2.25H39v2.3H34.15v3.29h6.06C41.83,32.49,42.72,31.88,42.72,30.22Z"/><polygon class="cls-1" points="54.14 18.12 44.29 18.12 44.29 21.41 47.36 21.41 47.36 32.49 51.07 32.49 51.07 21.41 54.14 21.41 54.14 18.12"/><path class="cls-1" d="M65.4,24.16V20.48c0-1.71-.9-2.36-2.54-2.36h-7V32.49h3.7V27.65h2.1v4.84H65.4V27.74a1.47,1.47,0,0,0-1.33-1.69v0A1.71,1.71,0,0,0,65.4,24.16Zm-3.71.22h-2.1v-3h2.1Z"/><path class="cls-1" d="M70.09,32.49H74.8c1.64,0,2.54-.63,2.54-2.34v-12H73.63V29.2H71.28V18.12H67.57v12C67.57,31.86,68.46,32.49,70.09,32.49Z"/><path class="cls-1" d="M82,32.49l2,0c-.08.28-.25.77-.36,1,.28,0,.57.09.57.41s-.3.47-.88.47a2.2,2.2,0,0,1-.48,0v.8a7.75,7.75,0,0,0,1.09.08c1,0,1.75-.41,1.75-1.16s-.72-.9-1.12-.9l.24-.7,3.13,0V29.2H83.22V21.43l4.75,0V18.12H82c-1.64,0-2.47.63-2.47,2.28v9.82C79.51,31.88,80.34,32.49,82,32.49Z"/><path class="cls-1" d="M89.78,32.49h3.71V28.62h2.35v3.87h3.71v-12c0-1.71-.9-2.36-2.54-2.36H92.32c-1.64,0-2.54.65-2.54,2.36Zm3.71-11.08h2.39v4H93.49Z"/><path class="cls-1" d="M93.58,16.79a1,1,0,0,1,.43.11c.12.05.23.12.36.19a2,2,0,0,0,1.08.29,2.07,2.07,0,0,0,1.7-1.33l-.79-.54c0,.09-.11.16-.14.22a.56.56,0,0,1-.5.29.82.82,0,0,1-.35-.09l-.36-.2a2.34,2.34,0,0,0-1.22-.31c-.86,0-1.35.76-1.71,1.33l.78.63C93.05,17,93.22,16.79,93.58,16.79Z"/><path class="cls-1" d="M101.7,20.4v9.82c0,1.64.92,2.27,2.47,2.27H109c1.64,0,2.47-.67,2.47-2.27V20.4c0-1.63-.9-2.28-2.47-2.28h-4.83C102.53,18.12,101.7,18.88,101.7,20.4Zm3.71,1h2.35V29.2h-2.35Z"/><path class="cls-1" d="M122.38,21.41h2.36V32.49h3.7v-12c0-1.71-.9-2.36-2.53-2.36h-7.23V32.49h3.7Z"/><path class="cls-1" d="M140.38,32.49v-12c0-1.71-.9-2.36-2.53-2.36h-4.7c-1.63,0-2.53.65-2.53,2.36v12h3.7V28.62h2.36v3.87Zm-6.06-7.12v-4h2.39v4Z"/><path class="cls-1" d="M157.1,32.49V27.74a1.47,1.47,0,0,0-1.33-1.69v0a1.71,1.71,0,0,0,1.33-1.85V20.48c0-1.71-.9-2.36-2.53-2.36h-7V32.49h3.71V27.65h2.1v4.84Zm-5.8-8.11v-3h2.1v3Z"/><polygon class="cls-1" points="159.28 32.49 167.62 32.49 167.62 29.2 162.98 29.2 162.98 26.88 167.62 26.88 167.62 23.61 162.98 23.61 162.98 21.41 167.62 21.41 167.62 18.12 159.28 18.12 159.28 32.49"/><path class="cls-1" d="M178.2,26.05c0-1.73-.81-2.45-2.54-2.45h-2.34V21.41h4.52V18.12h-5.7c-1.64,0-2.52.65-2.52,2.36v4.17c0,1.26.47,2.25,2.5,2.25h2.37v2.3h-4.87v3.29h6.06c1.62,0,2.52-.61,2.52-2.27Z"/><rect class="cls-1" x="180.19" y="18.12" width="3.7" height="14.37"/><path class="cls-1" d="M186.07,29.2v3.29h6.06c1.62,0,2.52-.61,2.52-2.27V26.05c0-1.73-.81-2.45-2.54-2.45h-2.34V21.41h4.52V18.12h-5.7c-1.64,0-2.52.65-2.52,2.36v4.17c0,1.26.47,2.25,2.5,2.25h2.37v2.3Z"/><polygon class="cls-1" points="202.99 32.49 202.99 21.41 206.07 21.41 206.07 18.12 196.21 18.12 196.21 21.41 199.29 21.41 199.29 32.49 202.99 32.49"/><polygon class="cls-1" points="216.15 21.41 216.15 18.12 207.81 18.12 207.81 32.49 216.15 32.49 216.15 29.2 211.51 29.2 211.51 26.88 216.15 26.88 216.15 23.61 211.51 23.61 211.51 21.41 216.15 21.41"/><polygon class="cls-1" points="211.41 15.26 209.25 17.27 210.9 17.27 212 16.3 213.1 17.27 214.77 17.27 212.59 15.26 211.41 15.26"/><path class="cls-1" d="M218.15,32.49h3.7V21.41h2.36V32.49h3.7v-12c0-1.71-.9-2.36-2.53-2.36h-7.23Z"/><path class="cls-1" d="M232.55,32.49h6V29.2h-4.75V21.43l4.75,0V18.12h-6c-1.63,0-2.46.63-2.46,2.28v9.82C230.09,31.88,230.92,32.49,232.55,32.49Z"/><rect class="cls-1" x="240.36" y="18.12" width="3.7" height="14.37"/><path class="cls-1" d="M253.46,18.12h-4.69c-1.64,0-2.53.65-2.53,2.36v12h3.7V28.62h2.36v3.87H256v-12C256,18.77,255.1,18.12,253.46,18.12Zm-1.13,7.25h-2.39v-4h2.39Z"/><path class="cls-1" d="M12.6,42.49c1,0,1.52-.37,1.52-1.39V38.22c0-1-.54-1.36-1.5-1.36H9v2h2.94v1.69h-1.7c-1,0-1.51.39-1.51,1.41v3.49h5.42v-2H10.91v-1Z"/><path class="cls-1" d="M21.45,44V38.26c0-1-.54-1.4-1.51-1.4H17.13c-1,0-1.5.38-1.5,1.4v2.89c0,1,.53,1.39,1.51,1.39h2.1v.92H16.06v2h3.87A1.34,1.34,0,0,0,21.45,44Zm-2.21-3.44h-1.4V38.82h1.4Z"/><path class="cls-1" d="M32.44,44.07V38.22c0-1-.57-1.36-1.48-1.36H26.6v8.56H31C31.91,45.42,32.44,45,32.44,44.07Zm-2.21-.61H28.81V38.83h1.42Z"/><polygon class="cls-1" points="39.14 38.82 39.14 36.86 34.16 36.86 34.16 45.42 39.14 45.42 39.14 43.46 36.37 43.46 36.37 42.08 39.14 42.08 39.14 40.13 36.37 40.13 36.37 38.82 39.14 38.82"/><path class="cls-1" d="M50,44.07V38.22c0-1-.54-1.36-1.47-1.36H45.65c-1,0-1.47.45-1.47,1.36v5.85c0,1,.55,1.35,1.47,1.35h2.89C49.51,45.42,50,45,50,44.07Zm-2.21-.61H46.39V38.83H47.8Z"/><path class="cls-1" d="M56,45.42c1,0,1.51-.37,1.51-1.39V36.86H55.34v6.6h-1.4v-6.6H51.73V44c0,1,.53,1.39,1.5,1.39Z"/><polygon class="cls-1" points="60.85 45.42 63.06 45.42 63.06 38.82 64.89 38.82 64.89 36.86 59.02 36.86 59.02 38.82 60.85 38.82 60.85 45.42"/><path class="cls-1" d="M70.67,45.42c1,0,1.51-.37,1.51-1.39V36.86H70v6.6H68.57v-6.6H66.36V44c0,1,.53,1.39,1.5,1.39Z"/><path class="cls-1" d="M79.58,44v-1.9c0-.64-.3-.93-.74-1v0a1,1,0,0,0,.74-1.1V38.26c0-1-.54-1.4-1.51-1.4H73.91v8.56h4.15A1.34,1.34,0,0,0,79.58,44Zm-2.21-.57H76.12V42.08h1.25Zm0-3.33H76.12V38.82h1.25Z"/><path class="cls-1" d="M87,45.42V42.59a.87.87,0,0,0-.8-1v0a1,1,0,0,0,.8-1.1v-2.2c0-1-.54-1.4-1.51-1.4H81.31v8.56h2.21V42.54h1.25v2.88Zm-3.46-4.83V38.82h1.25v1.77Z"/><path class="cls-1" d="M94.52,44.07V38.22c0-1-.53-1.36-1.46-1.36H90.17c-1,0-1.47.45-1.47,1.36v5.85c0,1,.55,1.35,1.47,1.35h2.89C94,45.42,94.52,45,94.52,44.07Zm-2.2-.61H90.91V38.83h1.41Z"/><path class="cls-1" d="M99.68,38.26v7.16h2.21v-2.3h1.41v2.3h2.21V36.86h-4.32C100.22,36.86,99.68,37.24,99.68,38.26Zm2.21.56h1.41v2.36h-1.41Z"/><path class="cls-1" d="M110.83,38.83h2.94v1.69h-1.7c-1,0-1.51.39-1.51,1.41v3.49H116v-2h-3.2v-1h1.69c1,0,1.51-.37,1.51-1.39V38.22c0-1-.53-1.36-1.5-1.36h-3.64Z"/><path class="cls-1" d="M125.38,36.86H121v8.56h4.36c1,0,1.47-.43,1.47-1.35V38.22C126.85,37.23,126.29,36.86,125.38,36.86Zm-.73,6.6h-1.42V38.83h1.42Z"/><polygon class="cls-1" points="128.58 45.42 133.55 45.42 133.55 43.46 130.79 43.46 130.79 42.08 133.55 42.08 133.55 40.13 130.79 40.13 130.79 38.82 133.55 38.82 133.55 36.86 128.58 36.86 128.58 45.42"/><polygon class="cls-1" points="144.91 36.86 142.7 36.86 142.7 40.6 140.53 36.86 138.6 36.86 138.6 45.42 140.81 45.42 140.81 41.5 143.06 45.42 144.91 45.42 144.91 36.86"/><path class="cls-1" d="M151,36.86H148.1c-1,0-1.47.45-1.47,1.36v5.85c0,1,.55,1.35,1.47,1.35H151c1,0,1.47-.39,1.47-1.35V38.22C152.45,37.24,151.92,36.86,151,36.86Zm-.74,6.6h-1.4V38.83h1.4Z"/><path class="cls-1" d="M157.68,40.66a6.55,6.55,0,0,1-.66,2.72,5.91,5.91,0,0,1-.74-2.72v-3.8h-2.21V41a8,8,0,0,0,1.82,4.41h2.19a7.9,7.9,0,0,0,1.81-4.48V36.86h-2.21Z"/><polygon class="cls-1" points="166.49 38.82 166.49 36.86 161.51 36.86 161.51 45.42 166.49 45.42 166.49 43.46 163.72 43.46 163.72 42.08 166.49 42.08 166.49 40.13 163.72 40.13 163.72 38.82 166.49 38.82"/><polygon class="cls-1" points="172.25 41.23 169.83 36.86 168.1 36.86 168.1 45.42 170.28 45.42 170.28 41.6 172.1 44.7 172.39 44.7 174.22 41.62 174.22 45.42 176.4 45.42 176.4 36.86 174.64 36.86 172.25 41.23"/><path class="cls-1" d="M183.8,44v-1.9c0-.64-.3-.93-.74-1v0a1,1,0,0,0,.74-1.1V38.26c0-1-.54-1.4-1.51-1.4h-4.16v8.56h4.14A1.34,1.34,0,0,0,183.8,44Zm-2.21-.57h-1.26V42.08h1.26Zm0-3.33h-1.26V38.82h1.26Z"/><path class="cls-1" d="M187.73,42.54H189v2.88h2.2V42.59a.87.87,0,0,0-.79-1v0a1,1,0,0,0,.79-1.1v-2.2c0-1-.53-1.4-1.51-1.4h-4.16v8.56h2.21Zm0-3.72H189v1.77h-1.26Z"/><path class="cls-1" d="M198.74,44.07V38.22c0-1-.54-1.36-1.47-1.36h-2.88c-1,0-1.47.45-1.47,1.36v5.85c0,1,.55,1.35,1.47,1.35h2.88C198.25,45.42,198.74,45,198.74,44.07Zm-2.21-.61h-1.4V38.83h1.4Z"/><path class="cls-1" d="M208.25,36.86H203.9v8.56h4.35c.95,0,1.48-.43,1.48-1.35V38.22C209.73,37.23,209.16,36.86,208.25,36.86Zm-.73,6.6H206.1V38.83h1.42Z"/><polygon class="cls-1" points="216.43 43.46 213.66 43.46 213.66 42.08 216.43 42.08 216.43 40.13 213.66 40.13 213.66 38.82 216.43 38.82 216.43 36.86 211.45 36.86 211.45 45.42 216.43 45.42 216.43 43.46"/><path class="cls-1" d="M225.28,36.86h-3.64v2h2.93v1.69h-1.69c-1,0-1.51.39-1.51,1.41v3.49h5.41v-2h-3.2v-1h1.69c1,0,1.51-.37,1.51-1.39V38.22C226.78,37.23,226.25,36.86,225.28,36.86Z"/><path class="cls-1" d="M234.22,44V38.26c0-1-.53-1.4-1.51-1.4H229.9c-1,0-1.5.38-1.5,1.4V44c0,1,.53,1.39,1.5,1.39h2.81C233.69,45.42,234.22,45.05,234.22,44ZM232,43.46h-1.4V38.83H232Z"/><polygon class="cls-1" points="239.5 45.42 239.5 36.72 235.84 37.59 235.84 39.55 237.29 39.17 237.29 45.42 239.5 45.42"/><path class="cls-1" d="M247,44V38.26c0-1-.53-1.4-1.51-1.4h-2.81c-1,0-1.5.38-1.5,1.4v2.89c0,1,.54,1.39,1.51,1.39h2.1v.92h-3.18v2h3.87A1.34,1.34,0,0,0,247,44Zm-2.21-3.44h-1.4V38.82h1.4Z"/><path class="cls-1" d="M4.61,55.63H3.21V49H1V56.2c0,1,.53,1.4,1.5,1.4H5.31c1,0,1.51-.38,1.51-1.4V49H4.61Z"/><polygon class="cls-1" points="12.64 52.77 10.48 49.03 8.55 49.03 8.55 57.6 10.76 57.6 10.76 53.67 13.01 57.6 14.85 57.6 14.85 49.03 12.64 49.03 12.64 52.77"/><rect class="cls-1" x="16.58" y="49.03" width="2.21" height="8.57"/><path class="cls-1" d="M24,52.84a6.53,6.53,0,0,1-.67,2.71,5.85,5.85,0,0,1-.74-2.71V49H20.4v4.15a8,8,0,0,0,1.83,4.42h2.18a8,8,0,0,0,1.81-4.49V49H24Z"/><polygon class="cls-1" points="27.84 57.6 32.82 57.6 32.82 55.63 30.05 55.63 30.05 54.25 32.82 54.25 32.82 52.3 30.05 52.3 30.05 50.99 32.82 50.99 32.82 49.03 27.84 49.03 27.84 57.6"/><path class="cls-1" d="M38.59,49H34.44V57.6h2.2V54.71H37.9V57.6h2.21V54.77c0-.65-.31-1-.8-1v0a1,1,0,0,0,.8-1.11V50.44C40.11,49.42,39.57,49,38.59,49Zm-.69,3.73H36.64V51H37.9Z"/><path class="cls-1" d="M45.43,52.3H44V51h2.69V49h-3.4c-1,0-1.5.39-1.5,1.41v2.48c0,.75.28,1.34,1.49,1.34h1.42v1.37H41.83v2h3.61c1,0,1.5-.37,1.5-1.35V53.76C46.94,52.73,46.46,52.3,45.43,52.3Z"/><rect class="cls-1" x="48.56" y="49.03" width="2.21" height="8.57"/><path class="cls-1" d="M56.85,49H52.5V57.6h4.35c.95,0,1.48-.43,1.48-1.35V50.39C58.33,49.41,57.76,49,56.85,49Zm-.73,6.6H54.71V51h1.41Z"/><path class="cls-1" d="M60.06,50.44V57.6h2.2V55.29h1.42V57.6h2.21V49H61.57C60.59,49,60.06,49.42,60.06,50.44Zm2.2.55h1.42v2.36H62.26Z"/><path class="cls-1" d="M72,49H67.61V57.6H72c1,0,1.48-.43,1.48-1.35V50.39C73.44,49.41,72.88,49,72,49Zm-.72,6.6H69.82V51h1.42Z"/><polygon class="cls-1" points="75.17 57.6 80.14 57.6 80.14 55.63 77.38 55.63 77.38 54.25 80.14 54.25 80.14 52.3 77.38 52.3 77.38 50.99 80.14 50.99 80.14 49.03 75.17 49.03 75.17 57.6"/><polygon class="cls-1" points="85.19 57.6 87.4 57.6 87.4 54.7 89.91 54.7 89.91 52.75 87.4 52.75 87.4 50.99 89.91 50.99 89.91 49.03 85.19 49.03 85.19 57.6"/><polygon class="cls-1" points="91.53 57.6 96.5 57.6 96.5 55.63 93.74 55.63 93.74 54.25 96.5 54.25 96.5 52.3 93.74 52.3 93.74 50.99 96.5 50.99 96.5 49.03 91.53 49.03 91.53 57.6"/><path class="cls-1" d="M102.47,49H98.12V57.6h4.35c1,0,1.48-.43,1.48-1.35V50.39C104,49.41,103.38,49,102.47,49Zm-.73,6.6h-1.41V51h1.41Z"/><polygon class="cls-1" points="105.68 57.6 110.65 57.6 110.65 55.63 107.89 55.63 107.89 54.25 110.65 54.25 110.65 52.3 107.89 52.3 107.89 50.99 110.65 50.99 110.65 49.03 105.68 49.03 105.68 57.6"/><path class="cls-1" d="M116.43,49h-4.16V57.6h2.21V54.71h1.25V57.6h2.21V54.77c0-.65-.31-1-.79-1v0a1,1,0,0,0,.79-1.11V50.44C117.94,49.42,117.41,49,116.43,49Zm-.7,3.73h-1.25V51h1.25Z"/><path class="cls-1" d="M119.67,50.44V57.6h2.21V55.29h1.41V57.6h2.21V49h-4.32C120.2,49,119.67,49.42,119.67,50.44Zm2.21.55h1.41v2.36h-1.41Z"/><polygon class="cls-1" points="129.43 49.03 127.22 49.03 127.22 57.6 132.2 57.6 132.2 55.63 129.43 55.63 129.43 49.03"/><path class="cls-1" d="M141.49,49h-4.35V57.6h4.35c1,0,1.48-.43,1.48-1.35V50.39C143,49.41,142.4,49,141.49,49Zm-.73,6.6h-1.41V51h1.41Z"/><polygon class="cls-1" points="144.7 57.6 149.67 57.6 149.67 55.63 146.91 55.63 146.91 54.25 149.67 54.25 149.67 52.3 146.91 52.3 146.91 50.99 149.67 50.99 149.67 49.03 144.7 49.03 144.7 57.6"/><path class="cls-1" d="M158.32,52.3h-1.39V51h2.69V49h-3.4c-1,0-1.5.39-1.5,1.41v2.48c0,.75.28,1.34,1.49,1.34h1.42v1.37h-2.91v2h3.61c1,0,1.5-.37,1.5-1.35V53.76C159.83,52.73,159.35,52.3,158.32,52.3Z"/><path class="cls-1" d="M161.45,50.44V57.6h2.21V55.29h1.42V57.6h2.2V49H163C162,49,161.45,49.42,161.45,50.44Zm2.21.55h1.42v2.36h-1.42Z"/><path class="cls-1" d="M165,47.78a.34.34,0,0,1-.2-.06l-.22-.11a1.37,1.37,0,0,0-.73-.19c-.51,0-.8.45-1,.8l.47.37c.11-.2.21-.35.42-.35a.66.66,0,0,1,.26.06,2.39,2.39,0,0,1,.22.12,1.17,1.17,0,0,0,.64.17,1.24,1.24,0,0,0,1-.79l-.47-.32a.77.77,0,0,0-.09.13A.35.35,0,0,1,165,47.78Z"/><path class="cls-1" d="M173.36,49h-2.88c-1,0-1.47.45-1.47,1.36v5.86c0,1,.55,1.35,1.47,1.35h2.88c1,0,1.47-.4,1.47-1.35V50.39C174.83,49.42,174.29,49,173.36,49Zm-.74,6.6h-1.4V51h1.4Z"/><path class="cls-1" d="M183.25,55.63h-1.16V54.58h-2.21V56.2c0,1,.52,1.4,1.5,1.4h2.56c1,0,1.51-.38,1.51-1.4V49h-2.2Z"/><path class="cls-1" d="M191.53,49h-2.88c-1,0-1.47.45-1.47,1.36v5.86c0,1,.55,1.35,1.47,1.35h2.88c1,0,1.47-.4,1.47-1.35V50.39C193,49.42,192.46,49,191.53,49Zm-.74,6.6h-1.4V51h1.4Z"/><path class="cls-1" d="M194.73,50.44V57.6h2.2V55.29h1.42V57.6h2.21V49h-4.32C195.26,49,194.73,49.42,194.73,50.44Zm2.2.55h1.42v2.36h-1.42Z"/><path class="cls-1" d="M198.56,47.61a.34.34,0,0,1-.3.17.36.36,0,0,1-.2-.06l-.22-.11a1.36,1.36,0,0,0-.72-.19c-.52,0-.81.45-1,.8l.46.37c.12-.2.21-.35.43-.35a.66.66,0,0,1,.25.06,2.39,2.39,0,0,1,.22.12,1.17,1.17,0,0,0,.64.17,1.24,1.24,0,0,0,1-.79l-.47-.32C198.62,47.53,198.58,47.57,198.56,47.61Z"/><path class="cls-1" d="M206.64,49h-2.89c-1,0-1.47.45-1.47,1.36v5.86c0,1,.55,1.35,1.47,1.35h2.89c1,0,1.46-.4,1.46-1.35V50.39C208.1,49.42,207.57,49,206.64,49Zm-.74,6.6h-1.41V51h1.41Z"/><path class="cls-1" d="M217.61,49h-4.35V57.6h4.35c1,0,1.48-.43,1.48-1.35V50.39C219.09,49.41,218.52,49,217.61,49Zm-.73,6.6h-1.41V51h1.41Z"/><polygon class="cls-1" points="220.82 57.6 225.79 57.6 225.79 55.63 223.03 55.63 223.03 54.25 225.79 54.25 225.79 52.3 223.03 52.3 223.03 50.99 225.79 50.99 225.79 49.03 220.82 49.03 220.82 57.6"/><polygon class="cls-1" points="229.62 49.03 227.41 49.03 227.41 57.6 232.38 57.6 232.38 55.63 229.62 55.63 229.62 49.03"/><rect class="cls-1" x="233.63" y="52.29" width="3.19" height="1.96"/><path class="cls-1" d="M242.81,49h-4.16V57.6h2.21V54.71h1.26V57.6h2.21V54.77a.88.88,0,0,0-.8-1v0a1,1,0,0,0,.8-1.11V50.44C244.33,49.42,243.79,49,242.81,49Zm-.69,3.73h-1.26V51h1.26Z"/><polygon class="cls-1" points="246.05 57.6 251.03 57.6 251.03 55.63 248.26 55.63 248.26 54.25 251.03 54.25 251.03 52.3 248.26 52.3 248.26 50.99 251.03 50.99 251.03 49.03 246.05 49.03 246.05 57.6"/><rect class="cls-1" x="252.64" y="49.03" width="2.21" height="8.57"/></g></g></svg>