<?xml version="1.0" encoding="utf-8"?>
<!-- Generator: Adobe Illustrator 25.2.3, SVG Export Plug-In . SVG Version: 6.00 Build 0)  -->
<svg version="1.1" id="Camada_1" xmlns="http://www.w3.org/2000/svg" xmlns:xlink="http://www.w3.org/1999/xlink" x="0px" y="0px"
	 viewBox="0 0 256 35.3" style="enable-background:new 0 0 256 35.3;" xml:space="preserve">
<style type="text/css">
	.st0{fill:#FFFFFF;}
</style>
<g>
	<path class="st0" d="M12.1,10.8h3.5c1.6,0,2.5-0.6,2.5-2.3V2.4c0-1.7-0.9-2.4-2.5-2.4H8.4v14.4h3.7V10.8z M12.1,3.3h2.3v4.3h-2.3
		V3.3z"/>
	<path class="st0" d="M28.8,12.1V7.9c0-1.7-0.8-2.5-2.5-2.5h-2.3V3.3h4.5V0h-5.7c-1.6,0-2.5,0.6-2.5,2.4v4.2c0,1.3,0.5,2.3,2.5,2.3
		h2.4v2.3h-4.9v3.3h6.1C27.9,14.4,28.8,13.8,28.8,12.1z"/>
	<rect x="30.8" class="st0" width="3.7" height="14.4"/>
	<path class="st0" d="M39.1,14.4h6v-3.3h-4.8V3.3h4.8V0h-6c-1.6,0-2.5,0.6-2.5,2.3v9.8C36.7,13.8,37.5,14.4,39.1,14.4z"/>
	<path class="st0" d="M49.4,14.4h4.8c1.6,0,2.5-0.7,2.5-2.3V2.3c0-1.6-0.9-2.3-2.5-2.3h-4.8c-1.6,0-2.5,0.8-2.5,2.3v9.8
		C46.9,13.7,47.8,14.4,49.4,14.4z M50.6,3.3H53v7.8h-2.4V3.3z"/>
	<polygon class="st0" points="67.2,11.1 62.6,11.1 62.6,0 58.8,0 58.8,14.4 67.2,14.4 	"/>
	<path class="st0" d="M71.5,14.4h4.8c1.6,0,2.5-0.7,2.5-2.3V2.3c0-1.6-0.9-2.3-2.5-2.3h-4.8C69.8,0,69,0.8,69,2.3v9.8
		C69,13.7,69.9,14.4,71.5,14.4z M72.7,3.3h2.3v7.8h-2.3V3.3z"/>
	<path class="st0" d="M83.4,14.4h6.7V6.9h-3.7v4.2h-1.8V3.3h4.3V0h-5.5C81.8,0,81,0.6,81,2.4v9.7C81,13.8,81.8,14.4,83.4,14.4z"/>
	<rect x="92.2" class="st0" width="3.7" height="14.4"/>
	<path class="st0" d="M101.8,10.5h2.3v3.9h3.7v-12c0-1.7-0.9-2.4-2.5-2.4h-4.7c-1.6,0-2.5,0.6-2.5,2.3v12h3.7V10.5z M101.8,3.3h2.4
		v4h-2.4V3.3z"/>
	<polygon class="st0" points="123.4,11.1 118.7,11.1 118.7,8.8 123.4,8.8 123.4,5.5 118.7,5.5 118.7,3.3 123.4,3.3 123.4,0 115,0 
		115,14.4 123.4,14.4 	"/>
	<path class="st0" d="M140.2,12.1V2.3c0-1.6-1-2.3-2.5-2.3h-7.3v14.4h7.3C139.3,14.4,140.2,13.6,140.2,12.1z M136.5,11.1h-2.4V3.3
		h2.4L136.5,11.1z"/>
	<polygon class="st0" points="150.7,11.1 146.1,11.1 146.1,8.8 150.7,8.8 150.7,5.5 146.1,5.5 146.1,3.3 150.7,3.3 150.7,0 142.4,0 
		142.4,14.4 150.7,14.4 	"/>
	<path class="st0" d="M165.2,0h-12.5v14.4h3.7V3.3h2v11.1h3.7V3.3h2v11.1h3.7v-12C167.8,0.6,166.8,0,165.2,0z"/>
	<path class="st0" d="M172.4,14.4h4.8c1.6,0,2.5-0.7,2.5-2.3V2.3c0-1.6-0.9-2.3-2.5-2.3h-4.8c-1.6,0-2.5,0.8-2.5,2.3v9.8
		C169.9,13.7,170.9,14.4,172.4,14.4z M173.6,3.3h2.4v7.8h-2.4V3.3z"/>
	<path class="st0" d="M184.3,14.4h6v-3.3h-4.7V3.3h4.7V0h-6c-1.6,0-2.5,0.6-2.5,2.3v9.8C181.9,13.8,182.7,14.4,184.3,14.4z"/>
	<path class="st0" d="M195.9,9.5h2.1v4.8h3.7V9.6c0.1-0.8-0.4-1.6-1.2-1.7c0,0-0.1,0-0.1,0l0,0c0.9-0.2,1.4-1,1.3-1.9V2.4
		c0-1.7-0.9-2.4-2.5-2.4h-7v14.4h3.7L195.9,9.5z M195.9,3.3h2.1v3h-2.1L195.9,3.3z"/>
	<path class="st0" d="M207.5,10.5h2.4v3.9h3.7v-12c0-1.7-0.9-2.4-2.5-2.4h-4.7c-1.6,0-2.5,0.6-2.5,2.4v12h3.7V10.5z M207.5,3.3h2.4
		v4h-2.4V3.3z"/>
	<path class="st0" d="M218.2,14.4h6v-3.3h-4.8V3.3h4.8V0h-6c-1.6,0-2.5,0.6-2.5,2.3v9.8C215.8,13.8,216.6,14.4,218.2,14.4z"/>
	<rect x="226" class="st0" width="3.7" height="14.4"/>
	<path class="st0" d="M235.6,10.5h2.4v3.9h3.7v-12c0-1.7-0.9-2.4-2.5-2.4h-4.7c-1.6,0-2.5,0.6-2.5,2.4v12h3.7L235.6,10.5z
		 M235.6,3.3h2.4v4h-2.4L235.6,3.3z"/>
	<rect x="243.9" y="4.2" class="st0" width="3.7" height="3.3"/>
	<rect x="243.9" y="11.1" class="st0" width="3.7" height="3.3"/>
	<path class="st0" d="M0,20.4v9.8c0,1.7,0.8,2.3,2.5,2.3h6v-3.3H3.7v-7.8h4.8v-3.3h-6C0.8,18.1,0,18.8,0,20.4z"/>
	<path class="st0" d="M12.7,18.1c-1.6,0-2.5,0.8-2.5,2.3v9.8c0,1.6,0.9,2.3,2.5,2.3h4.8c1.6,0,2.5-0.7,2.5-2.3v-9.8
		c0-1.6-0.9-2.3-2.5-2.3L12.7,18.1z M16.3,29.2H14v-7.8h2.4L16.3,29.2z"/>
	<path class="st0" d="M22.2,32.5h3.7V21.4h2.4v11.1H32v-12c0-1.7-0.9-2.4-2.5-2.4h-7.3V32.5z"/>
	<path class="st0" d="M42.7,30.2V26c0-1.7-0.8-2.5-2.5-2.5h-2.3v-2.2h4.5v-3.3h-5.7c-1.6,0-2.5,0.6-2.5,2.4v4.2
		c0,1.3,0.5,2.2,2.5,2.2H39v2.3h-4.8v3.3h6.1C41.8,32.5,42.7,31.9,42.7,30.2z"/>
	<polygon class="st0" points="54.1,18.1 44.3,18.1 44.3,21.4 47.4,21.4 47.4,32.5 51.1,32.5 51.1,21.4 54.1,21.4 	"/>
	<path class="st0" d="M65.4,24.2v-3.7c0-1.7-0.9-2.4-2.5-2.4h-7v14.4h3.7v-4.8h2.1v4.8h3.7v-4.7c0.1-0.8-0.4-1.6-1.2-1.7
		c0,0-0.1,0-0.1,0l0,0C64.9,25.9,65.5,25,65.4,24.2z M61.7,24.4h-2.1v-3h2.1V24.4z"/>
	<path class="st0" d="M70.1,32.5h4.7c1.6,0,2.5-0.6,2.5-2.3v-12h-3.7v11h-2.3V18.1h-3.7v12C67.6,31.9,68.5,32.5,70.1,32.5z"/>
	<path class="st0" d="M82,32.5h2c-0.1,0.3-0.2,0.8-0.4,1c0.3,0,0.6,0.1,0.6,0.4s-0.3,0.5-0.9,0.5c-0.2,0-0.3,0-0.5,0v0.8
		c0.4,0.1,0.7,0.1,1.1,0.1c1,0,1.8-0.4,1.8-1.2s-0.7-0.9-1.1-0.9l0.2-0.7h3.1v-3.3h-4.7v-7.8H88v-3.3h-6c-1.6,0-2.5,0.6-2.5,2.3v9.8
		C79.5,31.9,80.3,32.5,82,32.5z"/>
	<path class="st0" d="M89.8,32.5h3.7v-3.9h2.3v3.9h3.7v-12c0-1.7-0.9-2.4-2.5-2.4h-4.7c-1.6,0-2.5,0.6-2.5,2.4V32.5z M93.5,21.4h2.4
		v4h-2.4V21.4z"/>
	<path class="st0" d="M93.6,16.8c0.1,0,0.3,0,0.4,0.1c0.1,0,0.2,0.1,0.4,0.2c0.3,0.2,0.7,0.3,1.1,0.3c0.8-0.1,1.4-0.6,1.7-1.3
		l-0.8-0.5c0,0.1-0.1,0.2-0.1,0.2c-0.1,0.2-0.3,0.3-0.5,0.3c-0.1,0-0.2,0-0.3-0.1L95,15.7c-0.4-0.2-0.8-0.3-1.2-0.3
		c-0.9,0-1.3,0.8-1.7,1.3l0.8,0.6C93.1,17,93.2,16.8,93.6,16.8z"/>
	<path class="st0" d="M101.7,20.4v9.8c0,1.6,0.9,2.3,2.5,2.3h4.8c1.6,0,2.5-0.7,2.5-2.3v-9.8c0-1.6-0.9-2.3-2.5-2.3h-4.8
		C102.5,18.1,101.7,18.9,101.7,20.4z M105.4,21.4h2.3v7.8h-2.3V21.4z"/>
	<path class="st0" d="M122.4,21.4h2.4v11.1h3.7v-12c0-1.7-0.9-2.4-2.5-2.4h-7.2v14.4h3.7V21.4z"/>
	<path class="st0" d="M140.4,32.5v-12c0-1.7-0.9-2.4-2.5-2.4h-4.7c-1.6,0-2.5,0.6-2.5,2.4v12h3.7v-3.9h2.4v3.9H140.4z M134.3,25.4
		v-4h2.4v4H134.3z"/>
	<path class="st0" d="M157.1,32.5v-4.8c0.1-0.8-0.4-1.6-1.2-1.7c0,0-0.1,0-0.1,0l0,0c0.8-0.2,1.4-1,1.3-1.9v-3.7
		c0-1.7-0.9-2.4-2.5-2.4h-7v14.4h3.7v-4.8h2.1v4.8L157.1,32.5z M151.3,24.4v-3h2.1v3H151.3z"/>
	<polygon class="st0" points="159.3,32.5 167.6,32.5 167.6,29.2 163,29.2 163,26.9 167.6,26.9 167.6,23.6 163,23.6 163,21.4 
		167.6,21.4 167.6,18.1 159.3,18.1 	"/>
	<path class="st0" d="M178.2,26c0-1.7-0.8-2.5-2.5-2.5h-2.3v-2.2h4.5v-3.3h-5.7c-1.6,0-2.5,0.6-2.5,2.4v4.2c0,1.3,0.5,2.2,2.5,2.2
		h2.4v2.3h-4.9v3.3h6.1c1.6,0,2.5-0.6,2.5-2.3L178.2,26z"/>
	<rect x="180.2" y="18.1" class="st0" width="3.7" height="14.4"/>
	<path class="st0" d="M186.1,29.2v3.3h6.1c1.6,0,2.5-0.6,2.5-2.3V26c0-1.7-0.8-2.5-2.5-2.5h-2.3v-2.2h4.5v-3.3h-5.7
		c-1.6,0-2.5,0.6-2.5,2.4v4.2c0,1.3,0.5,2.2,2.5,2.2h2.4v2.3H186.1z"/>
	<polygon class="st0" points="203,32.5 203,21.4 206.1,21.4 206.1,18.1 196.2,18.1 196.2,21.4 199.3,21.4 199.3,32.5 	"/>
	<polygon class="st0" points="216.1,21.4 216.1,18.1 207.8,18.1 207.8,32.5 216.1,32.5 216.1,29.2 211.5,29.2 211.5,26.9 
		216.1,26.9 216.1,23.6 211.5,23.6 211.5,21.4 	"/>
	<polygon class="st0" points="211.4,15.3 209.2,17.3 210.9,17.3 212,16.3 213.1,17.3 214.8,17.3 212.6,15.3 	"/>
	<path class="st0" d="M218.1,32.5h3.7V21.4h2.4v11.1h3.7v-12c0-1.7-0.9-2.4-2.5-2.4h-7.2V32.5z"/>
	<path class="st0" d="M232.6,32.5h6v-3.3h-4.8v-7.8h4.8v-3.3h-6c-1.6,0-2.5,0.6-2.5,2.3v9.8C230.1,31.9,230.9,32.5,232.6,32.5z"/>
	<rect x="240.4" y="18.1" class="st0" width="3.7" height="14.4"/>
	<path class="st0" d="M253.5,18.1h-4.7c-1.6,0-2.5,0.6-2.5,2.4v12h3.7v-3.9h2.4v3.9h3.7v-12C256,18.8,255.1,18.1,253.5,18.1z
		 M252.3,25.4h-2.4v-4h2.4V25.4z"/>
</g>
</svg>
