<svg xmlns="http://www.w3.org/2000/svg" viewBox="0 0 540.47 105.99"><defs><style>.a{fill:#323232}</style></defs><path class="a" d="M110.5 4.18v3.74a14.35 14.35 0 00-8.31-2.83c-3.79 0-7.29 1.92-7.29 6 0 3.51 2.69 5.19 8 7.59 5.52 2.59 9.45 4.9 9.45 10.32 0 6.53-5.37 10.13-11.37 10.13a16 16 0 01-9.7-3.36v-4.13a13.88 13.88 0 009.74 4.22c4.08 0 8-2.3 8-6.62 0-3.65-2.69-5.43-8.11-7.92s-9.31-4.61-9.31-10c0-6.2 5-9.41 10.75-9.41a16.07 16.07 0 018.15 2.27zM117.46 25.48c0-7.64 5.33-13.4 12.57-13.4s12.53 5.76 12.53 13.4-5.33 13.39-12.53 13.39-12.57-5.74-12.57-13.39zm21.84 0c0-6.53-4.51-10.28-9.27-10.28s-9.31 3.75-9.31 10.28 4.56 10.27 9.31 10.27 9.27-3.77 9.27-10.27zM152.74 17.38a10.32 10.32 0 019.21-5.33c6.1 0 11.76 5.14 11.76 13.4s-5.71 13.39-11.8 13.39a10.54 10.54 0 01-9.41-5.57l-.43 5h-2.6V0h3.27zm-.1 8c0 6.14 3.94 10.32 8.88 10.32s8.89-4.11 8.89-10.22-3.94-10.28-8.93-10.28-8.84 4.15-8.84 10.2zM180.67 12.58h2.59l.39 4.18a8.43 8.43 0 017.49-4.47 15.15 15.15 0 011.63.1v3.17a9.21 9.21 0 00-1.68-.15c-3.55 0-7.2 2.36-7.2 7.49v15.41h-3.27zM218.21 26.65h-19.63c.52 5.61 4.17 9.12 9.45 9.12a13.08 13.08 0 008.88-3.65v3.65a14.28 14.28 0 01-9 3.07c-7.63 0-12.58-5.28-12.58-13.3 0-8.4 5.76-13.49 12.19-13.49 6 0 10.81 4.42 10.81 12.87a17.21 17.21 0 01-.12 1.73zm-3.07-2.84c-.15-6-3.84-8.73-7.68-8.73-4.37 0-8.26 3.36-8.84 8.73zM235.92 12.82h2.11l8.38 23.09 8.4-23.09h2.07l-9.41 25.49h-2.21zM262.65 3.56a1.61 1.61 0 013.22 0 1.61 1.61 0 01-3.22 0zm.58 9.26h2v25.49h-2zM271.58 12.82h2.11l8.41 23.09 8.4-23.09h2.07l-9.41 25.49h-2.21zM318.41 26.26h-20.19c.34 6.58 4.47 10.56 10.23 10.56a13.09 13.09 0 009.07-3.69v2.35a14.21 14.21 0 01-9.17 3.26c-7.15 0-12.14-5.08-12.14-13.1 0-8.26 5.66-13.25 11.81-13.25 5.66 0 10.51 4.32 10.51 12.67a7.28 7.28 0 01-.12 1.2zm-1.9-1.78c-.09-6.91-4.17-10.13-8.49-10.13-4.9 0-9.32 3.84-9.75 10.13zm-13.34-16h-2.11l6-7.72h1.64l6.09 7.72h-2.16l-4.75-6.14zM344.88 21.37v16.94h-2V22.18c0-5.13-2.64-7.77-7.24-7.77-4.33 0-7.88 2.88-7.88 7.53v16.37h-2V12.82h1.58l.24 4.51h.05a9 9 0 018.3-4.94c5.4 0 8.95 3.5 8.95 8.98zM364.17 36.82a11.69 11.69 0 006.87-2.11v2.26a13.2 13.2 0 01-6.87 1.77c-6.91 0-12.33-5.52-12.33-13.2 0-7.49 5.37-13.15 12.29-13.15a12.48 12.48 0 016.91 1.82v2.27a11.3 11.3 0 00-7-2.11c-5.33 0-10.23 4.37-10.23 11.18.04 6.93 4.99 11.27 10.36 11.27zM377.71 3.56a1.54 1.54 0 011.58-1.59 1.59 1.59 0 110 3.17 1.53 1.53 0 01-1.58-1.58zm.58 9.26h2v25.49h-2zM387.74 25.59c0-8.16 5.62-13.2 11.62-13.2a10.7 10.7 0 0110 6.82l.29-6.39h1.58v25.49h-1.58l-.24-6.38a10.6 10.6 0 01-10 6.81c-6 0-11.67-5.04-11.67-13.15zm21.6-.05c0-6.81-4.46-11.18-9.79-11.18s-9.79 4.32-9.79 11.23 4.56 11.23 9.84 11.23 9.74-4.34 9.74-11.28zM434.59 14.6v2.3a11.63 11.63 0 00-7.3-2.54c-3.79 0-6.29 1.87-6.29 4.7 0 3 2.69 4 6.73 5.33s8.11 2.69 8.11 7.25c0 4.22-3.46 7.1-8.64 7.1a13.46 13.46 0 01-8.6-3v-2.5a12.34 12.34 0 008.6 3.6c4 0 6.62-2.16 6.62-5.13 0-3.17-2.88-4.32-7-5.67s-7.87-2.64-7.87-6.81c0-3.94 3.41-6.82 8.35-6.82a12.72 12.72 0 017.29 2.19zM0 83.05c0-8.26 5.67-13.4 11.76-13.4a10.62 10.62 0 019.46 5.57l.43-5h2.64v25.69h-2.64l-.43-5a10.62 10.62 0 01-9.46 5.57C5.67 96.48 0 91.25 0 83.05zm21.12 0c0-6-4-10.23-8.92-10.23s-8.93 4.03-8.93 10.23S7.2 93.32 12.2 93.32s8.92-4.18 8.92-10.32zM37.06 70.18h7.53v2.93h-7.53v14c0 4.32 2.45 6.09 5.85 6.09a13 13 0 002.31-.24v2.93a16.3 16.3 0 01-2.74.24c-5.09 0-8.69-3.07-8.69-8.88V73.11h-3.88v-2.93h4v-6h3.17zM50.74 70.18h2.59l.38 4.18h.05a8.45 8.45 0 017.49-4.47 15.15 15.15 0 011.63.1v3.17a9.13 9.13 0 00-1.68-.15c-3.55 0-7.2 2.35-7.2 7.49v15.41h-3.26zM65.33 83.05c0-8.26 5.66-13.4 11.76-13.4a10.63 10.63 0 019.46 5.57l.43-5h2.64v25.69h-2.64l-.43-5a10.63 10.63 0 01-9.46 5.57c-6.1 0-11.76-5.23-11.76-13.43zm21.12 0c0-6-4-10.23-8.93-10.23s-8.93 4.08-8.93 10.28 3.94 10.27 8.93 10.27 8.89-4.23 8.89-10.37zM95.28 70.18h3.46l7.67 21.94h.14l7.63-21.94h3.41l-9.36 25.73h-3.6zM143.67 84.25h-19.64c.53 5.61 4.18 9.12 9.46 9.12a13.08 13.08 0 008.92-3.65v3.65a14.28 14.28 0 01-9 3.07c-7.64 0-12.58-5.28-12.58-13.3 0-8.4 5.76-13.49 12.19-13.49 5.95 0 10.8 4.42 10.8 12.87l-.15 1.73zm-3.08-2.84c-.14-6.05-3.84-8.73-7.68-8.73-4.36 0-8.25 3.36-8.83 8.73zM165.75 71.91v3.57a11.58 11.58 0 00-7.64-2.78c-3.55 0-5.57 1.63-5.57 4 0 2.69 2.45 3.55 6.15 4.7s8.35 2.4 8.35 7.54c0 4.56-3.55 7.49-9.17 7.49a13.55 13.55 0 01-8.78-3v-3.9a12 12 0 008.74 3.84c3.79 0 6-1.83 6-4.37 0-2.88-2.64-3.79-6.48-5-4.32-1.35-8.07-2.6-8.07-7.06 0-4.22 3.46-7.3 8.88-7.3a13 13 0 017.59 2.27zM188.93 71.91v3.57a11.55 11.55 0 00-7.63-2.78c-3.56 0-5.57 1.63-5.57 4 0 2.69 2.45 3.55 6.14 4.7 3.84 1.2 8.36 2.4 8.36 7.54 0 4.56-3.56 7.49-9.17 7.49a13.56 13.56 0 01-8.79-3v-3.9a12 12 0 008.74 3.84c3.79 0 6-1.83 6-4.37 0-2.88-2.64-3.79-6.48-5-4.32-1.35-8.07-2.6-8.07-7.06 0-4.22 3.46-7.3 8.89-7.3a12.93 12.93 0 017.58 2.27zM195.21 83.05c0-8.26 5.67-13.4 11.77-13.4a10.61 10.61 0 019.43 5.57l.44-5h2.63v25.69h-2.63l-.44-5a10.61 10.61 0 01-9.45 5.57c-6.08 0-11.75-5.23-11.75-13.43zm21.13 0c0-6-4-10.23-8.93-10.23s-8.93 4.08-8.93 10.28 3.93 10.22 8.93 10.22 8.93-4.18 8.93-10.32zM226.41 83.05c0-8.26 5.67-13.4 11.77-13.4a10.5 10.5 0 019.23 5.28V57.6h3.26v38.31h-2.64l-.43-5a10.61 10.61 0 01-9.45 5.57c-6.07 0-11.74-5.23-11.74-13.43zm21.13 0c0-6-4-10.23-8.93-10.23s-8.93 4.08-8.93 10.28 3.94 10.27 8.93 10.27 8.93-4.23 8.93-10.37zM257.57 83.05c0-8.26 5.66-13.4 11.76-13.4a10.6 10.6 0 019.45 5.57l.44-5h2.64v25.69h-2.64l-.44-5a10.6 10.6 0 01-9.45 5.57c-6.1 0-11.76-5.23-11.76-13.43zm21.12 0c0-6-4-10.23-8.93-10.23s-8.93 4.08-8.93 10.28 3.94 10.27 8.93 10.27 8.93-4.23 8.93-10.37zM305.62 71.91v3.57a11.58 11.58 0 00-7.64-2.78c-3.55 0-5.57 1.63-5.57 4 0 2.69 2.45 3.55 6.15 4.7s8.35 2.4 8.35 7.54c0 4.56-3.55 7.49-9.17 7.49a13.55 13.55 0 01-8.78-3v-3.9a12 12 0 008.74 3.84c3.79 0 6-1.83 6-4.37 0-2.88-2.64-3.79-6.49-5-4.32-1.35-8.06-2.6-8.06-7.06 0-4.22 3.46-7.3 8.88-7.3a13 13 0 017.59 2.27zM327.12 70.18h2.59l.43 5a10.55 10.55 0 019.41-5.57c6.15 0 11.81 5.19 11.81 13.35s-5.66 13.52-11.81 13.52a10.49 10.49 0 01-9.14-5.32v14.83h-3.26zm21 12.82c0-6.1-3.93-10.23-8.92-10.23s-8.88 4.18-8.88 10.28 3.93 10.27 8.88 10.27 8.89-4.08 8.89-10.32zM379.53 84.25H359.9c.53 5.61 4.18 9.12 9.46 9.12a13.12 13.12 0 008.88-3.65v3.65a14.3 14.3 0 01-9 3.07c-7.63 0-12.57-5.28-12.57-13.3 0-8.4 5.76-13.49 12.19-13.49 5.95 0 10.8 4.42 10.8 12.87a17.21 17.21 0 01-.13 1.73zm-3.07-2.84c-.14-6.05-3.84-8.73-7.68-8.73-4.37 0-8.26 3.36-8.83 8.73zM386.54 57.6h3.26v38.31h-3.26zM396.86 83.05c0-7.64 5.33-13.4 12.58-13.4s12.53 5.76 12.53 13.4-5.33 13.43-12.56 13.43-12.55-5.75-12.55-13.43zm21.84 0c0-6.53-4.51-10.28-9.26-10.28s-9.32 3.75-9.32 10.28 4.56 10.27 9.32 10.27 9.26-3.75 9.26-10.27zM438.33 70.18h3.46l7.68 21.94h.14l7.63-21.94h3.41l-9.36 25.73h-3.6zM475.24 56.88l-6.48 7.92h-2.92l5.66-7.92zm-8.83 13.3h3.27v25.73h-3.27zM478.41 70.18H481l.39 4.18a8.43 8.43 0 017.48-4.47 15.19 15.19 0 011.64.1v3.17a9.21 9.21 0 00-1.68-.15c-3.56 0-7.2 2.35-7.2 7.49v15.41h-3.22zM495.41 86.21v-16h3.27v16.15c0 4.32 2.59 7 6.77 7s7-2.64 7-7V70.18h3.27v16c0 6-3.94 10.23-10.27 10.23s-10.04-4.15-10.04-10.2zM539.18 71.91v3.57a11.55 11.55 0 00-7.63-2.78c-3.56 0-5.57 1.63-5.57 4 0 2.69 2.45 3.55 6.14 4.7s8.36 2.4 8.36 7.54c0 4.56-3.56 7.49-9.17 7.49a13.56 13.56 0 01-8.79-3v-3.9a12 12 0 008.74 3.84c3.79 0 6-1.83 6-4.37 0-2.88-2.64-3.79-6.48-5-4.32-1.35-8.07-2.6-8.07-7.06 0-4.22 3.46-7.3 8.89-7.3a12.93 12.93 0 017.58 2.27z"/></svg>