<svg xmlns="http://www.w3.org/2000/svg" xml:space="preserve" fill-rule="evenodd" stroke-linejoin="round" stroke-miterlimit="2" clip-rule="evenodd" viewBox="0 0 588 154">
  <g transform="translate(-4 -7)">
    <path fill="none" d="M4 7h587.1v154H4z"/>
    <clipPath id="a">
      <path d="M4 7h587.1v154H4z"/>
    </clipPath>
    <g clip-path="url(#a)">
      <path fill="#ffffff" fill-rule="nonzero" d="M75.1127 49.4504c-2.631 0-5.1672-.3255-7.606-.9776-2.4373-.6509-4.4214-1.4967-5.9524-2.5349l2.996-6.7417c1.448.9368 3.1172 1.6983 5.0078 2.282 1.892.585 3.7641.8761 5.6179.8761 1.2713 0 2.2845-.1094 3.0394-.328.755-.2188 1.3083-.5244 1.6614-.9184.3518-.3939.5283-.851.5283-1.3715 0-.726-.332-1.3017-.9947-1.7299-.6627-.4281-1.5362-.78-2.6179-1.0579-1.0816-.278-2.27-.5547-3.5651-.8287-1.2951-.2754-2.5955-.6258-3.9025-1.05-1.3056-.4243-2.4993-.9816-3.581-1.6733-1.083-.6904-1.955-1.602-2.6178-2.7325-.6627-1.1317-.9947-2.556-.9947-4.2726 0-1.9078.527-3.6482 1.5797-5.2226 1.0527-1.5744 2.6363-2.8326 4.7496-3.776 2.1132-.9433 4.76-1.415 7.9392-1.415a27.487 27.487 0 0 1 6.1962.705c2.0408.469 3.8563 1.1738 5.4479 2.1158l-2.7813 6.7232c-1.5375-.826-3.0566-1.44-4.5585-1.8432-1.5006-.4031-2.9618-.6047-4.382-.6047-1.2516 0-2.2608.1291-3.0263.3887-.7668.2608-1.3175.606-1.6535 1.0368-.3373.4295-.5059.9104-.5059 1.44 0 .7036.332 1.2649.9947 1.6812.6627.4176 1.5349.7576 2.6166 1.0197 1.0816.2622 2.2766.5284 3.5823.7971 1.3056.2688 2.606.614 3.9024 1.0343 1.295.419 2.4835.9723 3.5651 1.6587 1.083.6864 1.9552 1.5889 2.618 2.7101.6626 1.1199.9946 2.5243.9946 4.2107 0 1.8775-.5296 3.602-1.5862 5.1765-1.058 1.5744-2.6403 2.8379-4.7483 3.7917-2.1093.954-4.7628 1.4309-7.963 1.4309Zm14.6519-.6364 14.2185-32.1997h8.9735l14.233 32.1997h-9.4531l-11.125-27.7479h3.5757L99.0635 48.814h-9.2989Zm7.7733-6.2687 2.3465-6.706h15.7243l2.361 6.706H97.5379Zm46.4405 6.913c-4.7535 0-8.4636-1.303-11.1315-3.9104-2.668-2.606-4.0026-6.3016-4.0026-11.0854V16.6143h9.1079v17.5715c0 2.7602.5441 4.7377 1.6337 5.934 1.0883 1.1963 2.5836 1.7945 4.4848 1.7945 1.9011 0 3.3886-.5982 4.4623-1.7945 1.0725-1.1963 1.61-3.1738 1.61-5.934V16.6143h8.9696v17.8482c0 4.7838-1.3347 8.4794-4.0026 11.0854-2.668 2.6074-6.378 3.9104-11.1316 3.9104Zm-4.4162-35.4658 6.1646-6.992h8.7403l-8.6481 6.992h-6.2568Zm25.7703 34.8215V16.6143h15.2263c3.5507 0 6.6745.6588 9.37 1.9763 2.6957 1.3175 4.801 3.1751 6.3149 5.5717 1.515 2.3965 2.2713 5.241 2.2713 8.536 0 3.2938-.7562 6.1449-2.2713 8.552-1.5138 2.407-3.6192 4.27-6.3148 5.5875-2.6956 1.3175-5.8194 1.9762-9.37 1.9762h-15.2264Zm9.1144-7.2502h5.71c1.8578 0 3.4678-.3518 4.8314-1.0527 1.3649-.7022 2.4281-1.718 3.191-3.0487.7628-1.3307 1.1435-2.9196 1.1435-4.764 0-1.8551-.3807-3.44-1.1436-4.7562-.7628-1.3149-1.826-2.3241-3.191-3.025-1.3635-.7022-2.9735-1.0527-4.8312-1.0527h-5.71v17.6993Zm37.2787-12.4754h14.9523v6.7772h-14.9523v-6.7772Zm.635 12.6651h16.843v7.0605H203.374V16.6143h25.217v7.0605h-16.2304v18.0787Zm51.4444 7.6969c-2.5374 0-4.8852-.4072-7.0446-1.2187-2.1594-.813-4.0329-1.9684-5.6191-3.4664-1.5863-1.498-2.8195-3.2674-3.6996-5.3082-.8788-2.0395-1.3188-4.2884-1.3188-6.743 0-2.4558.44-4.7034 1.3188-6.7442.8801-2.0395 2.116-3.809 3.7061-5.307 1.5916-1.498 3.4664-2.6534 5.6258-3.4663 2.1594-.8129 4.5085-1.2187 7.046-1.2187 2.9683 0 5.627.5165 7.9735 1.5494 2.3478 1.0316 4.3003 2.5336 5.8563 4.5059l-5.7826 5.2463c-1.0263-1.224-2.1672-2.1607-3.4228-2.8116-1.2543-.6495-2.6456-.975-4.1725-.975-1.3241 0-2.5323.2175-3.6245.6522-1.0909.4348-2.0329 1.0593-2.8247 1.8735-.7931.8155-1.4084 1.7905-1.8485 2.9249-.4387 1.1343-.6587 2.3912-.6587 3.7707 0 1.3794.22 2.6363.6587 3.7706.44 1.1344 1.0554 2.1094 1.8485 2.9236.7918.8155 1.7338 1.44 2.8247 1.8748 1.0922.4347 2.3004.6521 3.6245.6521 1.527 0 2.9182-.3254 4.1725-.975 1.2556-.6508 2.3965-1.5928 3.4228-2.826l5.7826 5.2463c-1.556 1.95-3.5085 3.4492-5.8563 4.498-2.3465 1.0474-5.0092 1.5718-7.988 1.5718Zm33.5304 0c-2.577 0-4.9603-.4137-7.1474-1.2424-2.187-.8274-4.0816-1.996-5.6837-3.5046-1.6008-1.5085-2.8471-3.2819-3.7377-5.3187-.8893-2.0369-1.3347-4.2661-1.3347-6.6864 0-2.4189.4454-4.6402 1.3347-6.6626.8906-2.0236 2.137-3.7917 3.7403-5.3068 1.6021-1.5139 3.4954-2.6851 5.6772-3.5112 2.183-.826 4.5598-1.2398 7.1316-1.2398 2.5902 0 4.9696.4124 7.1408 1.2372 2.1713.8247 4.0566 1.9934 5.6574 3.5045 1.6007 1.5112 2.8458 3.2806 3.7364 5.307.8906 2.0262 1.336 4.2502 1.336 6.6744 0 2.4229-.4454 4.6547-1.336 6.6942-.8906 2.0395-2.1357 3.8128-3.7364 5.32-1.6008 1.5073-3.4861 2.6733-5.6574 3.498-2.1712.8248-4.5453 1.2372-7.121 1.2372Zm-.021-7.515c1.2318 0 2.3728-.2188 3.4241-.6549 1.05-.436 1.9697-1.058 2.7563-1.8655.7865-.8077 1.4005-1.7774 1.8392-2.9104.44-1.133.66-2.3979.66-3.7944 0-1.3979-.22-2.6614-.6574-3.7904-.4387-1.1291-1.0513-2.0975-1.8392-2.9051-.7866-.8077-1.7062-1.4308-2.7562-1.867-1.0514-.436-2.1923-.6547-3.4242-.6547s-2.3741.2187-3.4281.6548c-1.054.4374-1.975 1.0606-2.7642 1.8682-.7891.809-1.403 1.7786-1.8418 2.9077-.44 1.1304-.6588 2.3913-.6588 3.7852s.2187 2.6574.6575 3.7904c.4387 1.1318 1.0526 2.104 1.8405 2.9157.7892.8102 1.7101 1.4334 2.7641 1.8682 1.054.4347 2.1963.6521 3.4282.6521Zm22.7295 6.8786V16.6143h9.1144v24.9811h15.3502v7.2186H320.044Zm36.4802-19.7256h14.9523v6.7772h-14.9523v-6.7772Zm.6364 12.6651h16.8416v7.0605h-25.8296V16.6143h25.217v7.0605h-16.229v18.0787Zm28.7939 7.0605V23.8329h-9.872v-7.2186h28.8585v7.2186h-9.872V48.814h-9.1145Zm22.4529-32.1997h9.1144V48.814h-9.1144zm25.0641 32.1997-13.7731-32.1997h9.8285l11.6138 27.8704h-5.8036l11.8786-27.8704h8.988L442.4448 48.814h-8.9735Zm19.8771 0 14.2185-32.1997h8.9735l14.233 32.1997h-9.4545l-11.1236-27.7479h3.5757L462.646 48.814h-9.2976Zm7.772-6.2687 2.3464-6.706h15.7257l2.3596 6.706h-20.4317Zm54.086-13.4569h14.9523v6.7772h-14.9523v-6.7772Zm.6363 12.6651h16.843v7.0605H506.856V16.6143h25.217v7.0605h-16.2303v18.0787ZM5.0006 103.8144V71.6147h14.6875c2.9486 0 5.4927.4782 7.6336 1.436 2.1396.9579 3.7918 2.3294 4.9538 4.1159 1.1634 1.7865 1.7444 3.9024 1.7444 6.349 0 2.436-.581 4.5428-1.7444 6.3188-1.162 1.776-2.8142 3.1475-4.9538 4.1158-2.141.9684-4.685 1.452-7.6336 1.452H10.056l4.0592-3.975v12.3872H5.0006Zm9.1145-11.3911-4.0592-4.2081h9.1c1.9024 0 3.3227-.4164 4.2634-1.2477.9394-.8314 1.4084-1.9829 1.4084-3.4519 0-1.4795-.469-2.635-1.4084-3.4663-.9407-.8314-2.361-1.2477-4.2634-1.2477h-9.1l4.0592-4.208v17.8297Zm24.3777 11.3911V71.6147h14.6888c2.9486 0 5.4927.4782 7.6323 1.436 2.141.9579 3.7918 2.3294 4.9551 4.1159 1.162 1.7865 1.743 3.9024 1.743 6.349 0 2.436-.581 4.5349-1.743 6.295-1.1633 1.7615-2.8142 3.1093-4.9551 4.046-2.1396.9355-4.6837 1.4045-7.6323 1.4045h-9.6335l4.0592-3.8339v12.3872h-9.1145Zm19.9022 0-7.9973-11.7166h9.6863l8.0763 11.7166H58.395ZM47.6073 92.4233l-4.0592-4.1937h9.1c1.9024 0 3.324-.419 4.2634-1.2542.9393-.8366 1.4097-1.9908 1.4097-3.4598 0-1.4795-.4704-2.635-1.4097-3.4663-.9394-.8314-2.361-1.2477-4.2635-1.2477h-9.1l4.0593-4.208v17.8297Zm21.0931 11.3911L82.915 71.6147h8.9695l14.2606 32.1997h-9.4768L85.5368 76.0757h3.5875l-11.1315 27.7387h-9.2924Zm7.7746-6.2569 2.3465-6.7152h15.731l2.3464 6.7152H76.475Zm6.44-28.566 6.1645-6.992h8.739l-8.648 6.992H82.915Zm31.056 34.8229V78.8332h-9.872v-7.2185h28.8586v7.2185h-9.872v24.9812h-9.1145Zm22.4529-32.1997h9.1145v32.1997h-9.1145zm31.6556 32.836c-2.5375 0-4.8853-.4071-7.0447-1.22-2.1594-.8129-4.0329-1.967-5.6191-3.465-1.5863-1.498-2.8195-3.2674-3.6983-5.3082-.88-2.0408-1.3201-4.2885-1.3201-6.743 0-2.4558.44-4.7035 1.3201-6.7443.8788-2.0408 2.1146-3.8102 3.7062-5.3069 1.5902-1.498 3.465-2.6534 5.6244-3.4663 2.1594-.813 4.5085-1.2187 7.046-1.2187 2.9683 0 5.627.5165 7.9748 1.548 2.3465 1.033 4.299 2.535 5.8563 4.506l-5.7838 5.2475c-1.0264-1.224-2.1673-2.162-3.4216-2.8115-1.2556-.6496-2.6455-.975-4.1725-.975-1.3254 0-2.5336.2174-3.6245.6522-1.0922.4348-2.0342 1.0593-2.826 1.8735-.7931.8155-1.4084 1.7891-1.8484 2.9248-.4388 1.1344-.6588 2.3913-.6588 3.7707 0 1.3781.22 2.635.6588 3.7707.44 1.1344 1.0553 2.1093 1.8484 2.9235.7918.8156 1.7338 1.44 2.826 1.8748 1.091.4335 2.299.6509 3.6245.6509 1.527 0 2.917-.3241 4.1725-.975 1.2543-.6495 2.3952-1.5915 3.4216-2.8247l5.7838 5.2463c-1.5573 1.9499-3.5098 3.4492-5.8563 4.4966-2.3478 1.0487-5.0105 1.5731-7.9893 1.5731Zm13.175-.6363 14.2171-32.1997h8.9735l14.233 32.1997h-9.4531L198.1 76.0664h3.577l-11.125 27.748h-9.2975Zm7.7719-6.2687 2.3465-6.706h15.7257l2.3596 6.706h-20.4318Zm43.5671 6.905c-2.6324 0-5.1686-.3267-7.606-.9776-2.4386-.6521-4.4228-1.4967-5.9537-2.5348l2.996-6.7417c1.448.9367 3.1172 1.6983 5.0091 2.282 1.8906.5836 3.7628.876 5.6178.876 1.2701 0 2.2833-.1093 3.0382-.328.755-.2187 1.3096-.5257 1.6614-.9196.3517-.3926.5283-.8498.5283-1.3702 0-.726-.332-1.303-.9947-1.7299-.6627-.4282-1.535-.7813-2.618-1.058-1.0816-.278-2.27-.5546-3.565-.83-1.2952-.274-2.5955-.6245-3.9012-1.0487-1.307-.4242-2.5006-.9829-3.5823-1.6732-1.0816-.6917-1.9551-1.6021-2.6178-2.7338-.6627-1.1305-.9934-2.5547-.9934-4.2714 0-1.9077.5256-3.6495 1.5783-5.2225 1.0527-1.5745 2.6363-2.8327 4.7496-3.776 2.1146-.9433 4.7601-1.415 7.9393-1.415a27.573 27.573 0 0 1 6.1975.7035c2.0395.4704 3.855 1.1753 5.4465 2.116l-2.7799 6.7245c-1.5375-.8261-3.058-1.4414-4.5585-1.8445-1.502-.4032-2.963-.6048-4.3834-.6048-1.2516 0-2.2608.1305-3.0263.39-.7654.2609-1.3175.606-1.6534 1.0356-.3373.4308-.5046.9104-.5046 1.44 0 .7049.3307 1.2661.9934 1.6825.664.4176 1.5362.7575 2.6178 1.0197 1.0817.2622 2.2754.5283 3.581.797a36.4427 36.4427 0 0 1 3.9024 1.033c1.2951.4203 2.4835.9736 3.5665 1.66 1.0817.6852 1.9539 1.589 2.6166 2.7102.6627 1.1198.9947 2.523.9947 4.2107 0 1.8761-.5283 3.602-1.5863 5.1764-1.058 1.5731-2.6403 2.838-4.7483 3.7918-2.108.9539-4.7627 1.4308-7.9616 1.4308Zm31.9797-.6363V71.6147h15.2263c3.5507 0 6.6732.6587 9.37 1.9762 2.6957 1.3175 4.801 3.1739 6.3149 5.5717 1.5138 2.3965 2.2713 5.241 2.2713 8.5361 0 3.2937-.7575 6.1435-2.2713 8.5506-1.5139 2.4084-3.6192 4.27-6.3148 5.5888-2.697 1.3175-5.8194 1.9763-9.37 1.9763h-15.2264Zm9.1144-7.2516h5.71c1.8578 0 3.4677-.3504 4.8314-1.0513 1.3649-.7023 2.4281-1.718 3.191-3.0487.7628-1.3307 1.1435-2.9196 1.1435-4.7641 0-1.855-.3807-3.44-1.1436-4.7562-.7628-1.3148-1.826-2.324-3.191-3.025-1.3636-.7022-2.9735-1.0526-4.8312-1.0526h-5.71v17.698Zm37.2787-12.4754h14.951v6.7786h-14.951v-6.7786Zm.635 12.6665h16.843v7.0605h-25.8296V71.6147h25.217v7.0591h-16.2304v18.08Zm51.4445 7.6968c-2.5376 0-4.8867-.4071-7.046-1.22-2.1594-.8129-4.0316-1.967-5.6179-3.465-1.5862-1.498-2.8194-3.2674-3.6995-5.3082-.8788-2.0408-1.3188-4.2885-1.3188-6.743 0-2.4558.44-4.7035 1.3188-6.7443.8801-2.0408 2.116-3.8102 3.7061-5.3069 1.5916-1.498 3.4664-2.6534 5.6258-3.4663 2.1593-.813 4.5084-1.2187 7.046-1.2187 2.9683 0 5.627.5165 7.9735 1.548 2.3477 1.033 4.3003 2.535 5.8562 4.506l-5.7825 5.2475c-1.0263-1.224-2.1673-2.162-3.4228-2.8115-1.2543-.6496-2.6456-.975-4.1726-.975-1.324 0-2.5322.2174-3.6244.6522-1.0909.4348-2.0329 1.0593-2.826 1.8735-.7918.8155-1.4084 1.7891-1.8472 2.9248-.44 1.1344-.6587 2.3913-.6587 3.7707 0 1.3781.2187 2.635.6587 3.7707.4388 1.1344 1.0554 2.1093 1.8472 2.9235.7931.8156 1.7351 1.44 2.826 1.8748 1.0922.4335 2.3004.6509 3.6245.6509 1.527 0 2.9182-.3241 4.1725-.975 1.2555-.6495 2.3965-1.5915 3.4228-2.8247l5.7825 5.2463c-1.556 1.9499-3.5085 3.4492-5.8562 4.4966-2.3465 1.0487-5.0105 1.5731-7.988 1.5731Zm32.8149 0c-4.7482 0-8.453-1.3017-11.1184-3.9024-2.6653-2.602-3.9973-6.291-3.9973-11.067V71.6147h9.1145V89.202c0 2.7575.5402 4.7364 1.6192 5.9353 1.079 1.1976 2.5665 1.797 4.4598 1.797 1.913 0 3.4044-.5994 4.4742-1.797 1.0685-1.199 1.6034-3.1778 1.6034-5.9353V71.6147h8.959v17.8666c0 4.776-1.3333 8.465-3.9973 11.067-2.6653 2.6007-6.3714 3.9024-11.117 3.9024Zm21.3553-32.836h9.1146v32.1997h-9.1145zm15.6322 32.1997V71.6147h15.2277c3.5506 0 6.6731.6587 9.37 1.9762 2.6957 1.3175 4.801 3.1739 6.3148 5.5717 1.5138 2.3965 2.2714 5.241 2.2714 8.5361 0 3.2937-.7576 6.1435-2.2714 8.5506-1.5138 2.4084-3.6191 4.27-6.3148 5.5888-2.6969 1.3175-5.8194 1.9763-9.37 1.9763h-15.2277Zm9.1145-7.2516h5.7113c1.8564 0 3.4677-.3504 4.8313-1.0513 1.3636-.7023 2.4269-1.718 3.1897-3.0487.7628-1.3307 1.1449-2.9196 1.1449-4.7641 0-1.855-.382-3.44-1.145-4.7562-.7627-1.3148-1.826-2.324-3.1896-3.025-1.3636-.7022-2.9749-1.0526-4.8313-1.0526h-5.7113v17.698Zm24.5872 7.2516 14.2184-32.1997h8.9735l14.2317 32.1997h-9.4531l-11.1237-27.748h3.5757l-11.125 27.748H466.55Zm7.7719-6.2687 2.3465-6.706h15.7257l2.3596 6.706h-20.4318Zm32.2892 6.2687V71.6147h15.2264c3.5507 0 6.6745.6587 9.3701 1.9762 2.6956 1.3175 4.801 3.1739 6.3148 5.5717 1.5151 2.3965 2.2713 5.241 2.2713 8.5361 0 3.2937-.7562 6.1435-2.2713 8.5506-1.5138 2.4084-3.6192 4.27-6.3148 5.5888-2.6956 1.3175-5.8194 1.9763-9.37 1.9763H506.611Zm9.1146-7.2516h5.71c1.8577 0 3.4677-.3504 4.8313-1.0513 1.365-.7023 2.4281-1.718 3.191-3.0487.7628-1.3307 1.1436-2.9196 1.1436-4.7641 0-1.855-.3808-3.44-1.1436-4.7562-.7629-1.3148-1.826-2.324-3.191-3.025-1.3636-.7022-2.9736-1.0526-4.8313-1.0526h-5.71v17.698Zm45.1718 7.8879c-2.577 0-4.9591-.415-7.1475-1.2424-2.187-.8287-4.0816-1.996-5.6824-3.5045-1.602-1.5086-2.8484-3.282-3.7377-5.3188-.8906-2.0382-1.336-4.266-1.336-6.6863 0-2.419.4454-4.6402 1.336-6.664.8893-2.0223 2.1357-3.7917 3.739-5.3055 1.6035-1.5138 3.4954-2.685 5.6772-3.5111 2.183-.8274 4.5598-1.2398 7.1316-1.2398 2.5902 0 4.971.4124 7.1409 1.2371 2.1712.8248 4.0565 1.9934 5.6573 3.5046 1.6008 1.5112 2.8458 3.2792 3.7364 5.3056.8907 2.0263 1.336 4.2515 1.336 6.6744 0 2.4242-.4453 4.656-1.336 6.6955-.8906 2.0395-2.1356 3.8129-3.7364 5.3201-1.6008 1.506-3.4861 2.6719-5.6573 3.4967-2.17.826-4.5441 1.2384-7.1211 1.2384Zm-.0211-7.5163c1.2318 0 2.3728-.2174 3.4242-.6535 1.0513-.4361 1.9696-1.058 2.7562-1.8656.7878-.8076 1.4005-1.7773 1.8405-2.9103.4388-1.1331.6588-2.3979.6588-3.7958 0-1.3965-.2187-2.66-.6575-3.789-.4387-1.1292-1.0513-2.0976-1.8379-2.9052-.7878-.809-1.7075-1.4308-2.7575-1.8669-1.0514-.436-2.1923-.6548-3.4242-.6548-1.2318 0-2.3741.2187-3.4281.6548-1.0527.4374-1.975 1.0593-2.7641 1.8682-.7892.809-1.4032 1.7773-1.8419 2.9078-.44 1.1304-.6587 2.3912-.6587 3.7851 0 1.394.2187 2.6574.6574 3.7892.4387 1.133 1.0527 2.1053 1.8405 2.9156.7892.8116 1.7101 1.4347 2.7641 1.8695 1.054.4335 2.1963.6509 3.4282.6509Zm25.9811-8.1158c-1.473 0-2.714-.4915-3.726-1.473-1.013-.9815-1.519-2.2226-1.519-3.7259 0-1.5639.506-2.8128 1.519-3.7483 1.012-.9354 2.253-1.4031 3.726-1.4031 1.4716 0 2.714.4677 3.7259 1.4031 1.0118.9355 1.5177 2.1844 1.5177 3.7483 0 1.5033-.5059 2.7444-1.5177 3.7259-1.0119.9815-2.2543 1.473-3.726 1.473Zm0 15.4095c-1.473 0-2.714-.4902-3.726-1.4717-1.013-.9815-1.519-2.224-1.519-3.7259 0-1.5639.506-2.8142 1.519-3.7496 1.012-.9354 2.253-1.4031 3.726-1.4031 1.4716 0 2.714.4677 3.7259 1.4031 1.0118.9354 1.5177 2.1857 1.5177 3.7496 0 1.502-.5059 2.7444-1.5177 3.7259-1.0119.9815-2.2543 1.4717-3.726 1.4717Z"/>
      <path fill="#000473" d="M5 126.0024h587.1v35.0001H5z"/>
      <path fill="#d2d0d3" fill-rule="nonzero" d="M108.665 149.6852v-15.151h6.2196c1.3387 0 2.4891.2153 3.4523.646.962.4297 1.7034 1.0487 2.2218 1.8571.5184.8085.7781 1.7727.7781 2.8907 0 1.106-.2597 2.0594-.7781 2.8592-.5184.7997-1.2597 1.4144-2.2218 1.843-.9632.4286-2.1136.6428-3.4523.6428h-4.6654l1.2543-1.2705v5.6827h-2.8084Zm9.898 0-3.8364-5.4998h3.0183l3.8603 5.4998h-3.0421Zm-7.0895-5.384-1.2543-1.355h4.5485c1.2338 0 2.1656-.265 2.7943-.7965.6277-.5302.9416-1.2716.9416-2.2217 0-.9632-.3139-1.7067-.9416-2.2316-.6287-.5249-1.5605-.7868-2.7943-.7868h-4.5485l1.2543-1.3744v8.766Zm18.3912 5.5248c-1.2792 0-2.4004-.2544-3.3625-.763-.962-.5087-1.7066-1.21-2.2358-2.1028-.5292-.8928-.7933-1.9112-.7933-3.055 0-1.1472.2576-2.1667.7727-3.0584.5162-.8929 1.225-1.592 2.1298-2.0985.9037-.5075 1.9285-.7608 3.0724-.7608 1.131 0 2.1374.2468 3.0194.7392.881.4935 1.5747 1.1883 2.079 2.0854.5043.8961.7565 1.9523.7565 3.1688 0 .1104-.0033.2391-.012.3852a6.4674 6.4674 0 0 1-.0335.4037h-9.621v-1.7932h8.1925l-1.0682.5703c.013-.6623-.1234-1.2467-.409-1.7543-.2847-.5065-.6754-.9036-1.171-1.1904-.4957-.2868-1.0714-.4307-1.7272-.4307-.6548 0-1.2338.1439-1.737.4307-.5032.2868-.894.6872-1.172 1.2002-.2782.513-.4178 1.1136-.4178 1.8019v.434c0 .6936.158 1.305.473 1.8354.3149.5303.7607.9426 1.3365 1.2359.5768.2932 1.2445.4404 2.0043.4404.6493 0 1.2326-.1039 1.7488-.3106.5173-.2078.9762-.5248 1.3788-.9512l1.461 1.671c-.527.6081-1.184 1.0713-1.9718 1.3895-.7879.3181-1.685.4772-2.6926.4772Zm11.8233 0c-.9719 0-1.9015-.1234-2.789-.3713-.8863-.2478-1.5897-.5519-2.107-.9101l1.04-2.0562c.513.3311 1.131.6038 1.855.817.725.2122 1.4469.3182 2.1665.3182.855 0 1.473-.1125 1.8517-.3398.3788-.2262.5682-.54.5682-.9383 0-.3117-.1299-.5508-.3875-.7186-.2575-.1666-.5984-.2943-1.0205-.382a22.0543 22.0543 0 0 0-1.3971-.237 15.8642 15.8642 0 0 1-1.527-.2922c-.5098-.1245-.9762-.303-1.3994-.5379-.422-.2348-.763-.5562-1.0205-.9653-.2576-.408-.3863-.9459-.3863-1.6114 0-.7251.2077-1.3593.6244-1.9026.4177-.5433 1.0043-.9642 1.7618-1.263.7576-.2986 1.6548-.448 2.6937-.448.7781 0 1.5649.0888 2.3614.2663.7965.1774 1.4556.4264 1.975.7456l-1.04 2.0562c-.5432-.3322-1.094-.5595-1.6536-.6818-.5595-.1223-1.1104-.184-1.6536-.184-.8214 0-1.4318.1202-1.8311.3615-.3994.2413-.5996.553-.5996.9361 0 .3366.1288.592.3874.7673.2576.1743.5974.3117 1.0206.4113.4231.0995.8885.185 1.3971.2565a15.4643 15.4643 0 0 1 1.526.2932c.5086.1245.974.3009 1.3971.5292.422.2284.763.5444 1.0205.9459.2576.4026.3864.9307.3864 1.5833 0 .7197-.211 1.3452-.6331 1.8776-.422.5314-1.0216.9437-1.7987 1.236-.777.2921-1.7066.4382-2.7888.4382Zm13.0212 4.199c-1.0692 0-2.1092-.1375-3.1211-.4145-1.0119-.277-1.8473-.6862-2.5086-1.2262l1.2121-2.0335c.5119.4242 1.1536.7619 1.9242 1.0151.7705.2533 1.5551.3799 2.3527.3799 1.2749 0 2.2067-.2911 2.7965-.8734.5898-.5833.8842-1.4599.8842-2.6308v-2.0692l.2164-2.606-.0909-2.6233v-2.8149h2.58v9.8006c0 2.0941-.5335 3.633-1.6028 4.619-1.0681.9847-2.6168 1.4771-4.6427 1.4771Zm-.3311-4.857c-1.1082 0-2.105-.2349-2.9891-.7035-.8853-.4686-1.5844-1.1233-2.0995-1.962-.5152-.8388-.7727-1.8171-.7727-2.9361 0-1.118.2575-2.0963.7727-2.935.5151-.8387 1.2142-1.4891 2.0995-1.9512.8841-.4622 1.8809-.6927 2.989-.6927.974 0 1.8528.196 2.6353.5877.7824.3907 1.4069.9989 1.8755 1.8246.4675.8257.7023 1.8809.7023 3.1666 0 1.2867-.2348 2.3419-.7023 3.1676-.4686.8258-1.093 1.4372-1.8755 1.8355-.7825.3993-1.6612.5984-2.6352.5984Zm.395-2.302c.6904 0 1.3008-.1385 1.83-.4166.5292-.2781.9426-.6656 1.2413-1.1612.2987-.4957.448-1.0703.448-1.7218 0-.6526-.1493-1.2273-.448-1.7218-.2987-.4957-.712-.8777-1.2413-1.1494-.5292-.2705-1.1396-.4058-1.83-.4058-.6775 0-1.2835.1353-1.8203.4058-.5368.2717-.9545.6537-1.2543 1.1494-.2998.4945-.4491 1.0692-.4491 1.7218 0 .6515.1493 1.2261.449 1.7218.2999.4956.7176.883 1.2544 1.1612.5368.2781 1.1428.4167 1.8203.4167Zm17.0655 2.8192v-2.344l-.1385-.4881v-4.0951c0-.7911-.2403-1.407-.7197-1.8485-.4783-.4404-1.2034-.6612-2.173-.6612-.6462 0-1.2825.1017-1.9059.3052-.6233.2034-1.1547.4816-1.5952.8322l-1.0497-1.962c.618-.4708 1.356-.828 2.2164-1.0715.8592-.2435 1.751-.3647 2.6752-.3647 1.6699 0 2.9642.4015 3.8808 1.2035.9178.8019 1.3766 2.041 1.3766 3.7163v6.778h-2.567Zm-3.619.1407c-.8787 0-1.6428-.1471-2.292-.4404-.6494-.2944-1.1494-.7035-1.5-1.2283-.3507-.5238-.526-1.119-.526-1.7846 0-.6515.157-1.2348.4708-1.75.3149-.5151.8246-.9253 1.5313-1.2305.7067-.3062 1.6417-.4588 2.8051-.4588h3.3538v1.7943h-3.1579c-.922 0-1.5422.1483-1.8625.447-.3193.2976-.4794.6623-.4794 1.0952 0 .487.1959.8744.5876 1.1623.3907.2868.9307.4307 1.618.4307.671 0 1.2694-.1494 1.7964-.4491.526-.2998.9048-.7457 1.1353-1.3366l.4578 1.6201c-.263.6796-.7295 1.2034-1.3983 1.5736-.6688.37-1.515.5551-2.54.5551Zm14.1999.0001c-1.2662 0-2.2478-.3269-2.9426-.9816-.6959-.6548-1.0432-1.6212-1.0432-2.8993v-10.3655h2.7055v10.3027c0 .5498.1407.9751.4242 1.2781.2825.302.6807.4535 1.1959.4535.5941 0 1.0941-.158 1.5-.4751l.7726 1.9285c-.3246.2532-.7196.4437-1.1828.5703a5.4507 5.4507 0 0 1-1.4296.1883Zm-5.8732-9.4554v-2.158h7.6956v2.158h-7.6956Zm15.9259 9.4554c-1.2792 0-2.4004-.2544-3.3614-.763-.962-.5087-1.7077-1.21-2.237-2.1028-.528-.8928-.7921-1.9112-.7921-3.055 0-1.1472.2576-2.1667.7727-3.0584.5151-.8929 1.225-1.592 2.1287-2.0985.9048-.5075 1.9285-.7608 3.0725-.7608 1.1309 0 2.1373.2468 3.0193.7392.882.4935 1.5747 1.1883 2.079 2.0854.5054.8961.7575 1.9523.7575 3.1688 0 .1104-.0043.2391-.0119.3852a6.4234 6.4234 0 0 1-.0346.4037h-9.621v-1.7932h8.1925l-1.067.5703c.0118-.6623-.1245-1.2467-.4092-1.7543-.2857-.5065-.6764-.9036-1.172-1.1904-.4957-.2868-1.0714-.4307-1.7272-.4307-.6548 0-1.2338.1439-1.737.4307-.5032.2868-.894.6872-1.172 1.2002-.2782.513-.4167 1.1136-.4167 1.8019v.434c0 .6936.157 1.305.4719 1.8354.316.5303.7608.9426 1.3376 1.2359.5757.2932 1.2434.4404 2.0042.4404.6483 0 1.2316-.1039 1.749-.3106.5161-.2078.976-.5248 1.3776-.9512l1.461 1.671c-.527.6081-1.184 1.0713-1.9718 1.3895-.7868.3181-1.685.4772-2.6926.4772Zm11.8243 0c-.9729 0-1.9025-.1234-2.7888-.3713-.8875-.2478-1.5898-.5519-2.1082-.9101l1.0411-2.0562c.5119.3311 1.131.6038 1.855.817.724.2122 1.4458.3182 2.1654.3182.856 0 1.473-.1125 1.8517-.3398.3788-.2262.5682-.54.5682-.9383 0-.3117-.1288-.5508-.3864-.7186-.2586-.1666-.5984-.2943-1.0216-.382a22.0543 22.0543 0 0 0-1.3971-.237 15.8642 15.8642 0 0 1-1.527-.2922c-.5098-.1245-.9762-.303-1.3983-.5379-.4231-.2348-.763-.5562-1.0216-.9653-.2576-.408-.3863-.9459-.3863-1.6114 0-.7251.2088-1.3593.6255-1.9026.4166-.5433 1.0032-.9642 1.7608-1.263.7575-.2986 1.6558-.448 2.6936-.448.7781 0 1.566.0888 2.3625.2663.7965.1774 1.4545.4264 1.975.7456l-1.041 2.0562c-.5433-.3322-1.0942-.5595-1.6537-.6818-.5595-.1223-1.1103-.184-1.6525-.184-.8214 0-1.4318.1202-1.8322.3615-.3994.2413-.5996.553-.5996.9361 0 .3366.1299.592.3875.7673.2575.1743.5984.3117 1.0205.4113.4231.0995.8896.185 1.3971.2565a15.4643 15.4643 0 0 1 1.526.2932c.5086.1245.974.3009 1.3971.5292.4232.2284.763.5444 1.0205.9459.2587.4026.3875.9307.3875 1.5833 0 .7197-.211 1.3452-.6331 1.8776-.422.5314-1.0227.9437-1.7998 1.236-.777.2921-1.7055.4382-2.7878.4382Zm7.0745 3.134 1.2521-4.8007.3756 1.6158c-.5108 0-.935-.157-1.2738-.4708-.3398-.3138-.5097-.738-.5097-1.2738 0-.5378.171-.9707.5108-1.2986.3398-.328.7575-.4924 1.2532-.4924.5086 0 .9264.1677 1.2543.5021.3279.3344.4913.764.4913 1.289 0 .1547-.0151.3138-.0444.4761-.0303.1613-.0779.3506-.1428.5693-.065.2175-.1645.4934-.2987.829l-1.1201 3.055h-1.7478Zm18.81-3.134c-.949 0-1.8094-.2133-2.581-.6407-.7716-.4275-1.382-1.08-1.8311-1.9567-.4502-.8766-.6743-1.9837-.6743-3.3202 0-1.3528.2165-2.4653.6505-3.3354.434-.8702 1.0367-1.5195 1.8073-1.9459.7705-.4264 1.646-.6396 2.6287-.6396 1.1266 0 2.1287.2457 3.0075.737.8777.4914 1.5703 1.1796 2.0778 2.0649.5065.8853.7608 1.9242.7608 3.119 0 1.1947-.2543 2.2337-.7608 3.119-.5075.8852-1.2001 1.5724-2.0778 2.0626-.8788.4914-1.881.736-3.0075.736Zm-6.412 4.0583v-15.756h2.581v2.7325l-.092 3.066.2165 3.067v6.8905h-2.7056Zm6.0907-6.3592c.6504 0 1.2326-.1471 1.7467-.4393.5151-.2922.9253-.7121 1.2294-1.2597.3052-.5477.4577-1.1862.4577-1.9177 0-.7457-.1525-1.3885-.4577-1.9296-.3041-.5412-.7143-.9578-1.2294-1.251-.514-.2923-1.0963-.4384-1.7467-.4384-.6494 0-1.2316.1461-1.7467.4383-.514.2933-.9243.71-1.2294 1.251-.3052.5412-.4578 1.184-.4578 1.9297 0 .7315.1526 1.37.4578 1.9177.3051.5476.7153.9675 1.2294 1.2597.5151.2922 1.0973.4393 1.7467.4393Zm14.4 2.3009c-1.2792 0-2.4004-.2544-3.3625-.763-.961-.5087-1.7066-1.21-2.2358-2.1028-.5282-.8928-.7933-1.9112-.7933-3.055 0-1.1472.2576-2.1667.7738-3.0584.5151-.8929 1.224-1.592 2.1287-2.0985.9047-.5075 1.9285-.7608 3.0724-.7608 1.131 0 2.1374.2468 3.0194.7392.881.4935 1.5747 1.1883 2.079 2.0854.5043.8961.7575 1.9523.7575 3.1688a6.618 6.618 0 0 1-.013.3852 6.4674 6.4674 0 0 1-.0335.4037h-9.621v-1.7932h8.1925l-1.0682.5703c.013-.6623-.1234-1.2467-.408-1.7543-.2857-.5065-.6764-.9036-1.172-1.1904-.4957-.2868-1.0714-.4307-1.7273-.4307-.6547 0-1.2337.1439-1.737.4307-.5032.2868-.8938.6872-1.172 1.2002-.2781.513-.4177 1.1136-.4177 1.8019v.434c0 .6936.158 1.305.473 1.8354.3149.5303.7607.9426 1.3375 1.2359.5758.2932 1.2435.4404 2.0043.4404.6483 0 1.2316-.1039 1.7478-.3106.5173-.2078.9773-.5248 1.3788-.9512l1.461 1.671c-.527.6081-1.184 1.0713-1.9719 1.3895-.7878.3181-1.685.4772-2.6925.4772Zm8.2476-.1408v-11.557h2.58v3.1763l-.3052-.9231c.3355-.7857.8788-1.381 1.6277-1.7857.75-.4058 1.6742-.6082 2.7726-.6082v2.5757a5.2355 5.2355 0 0 0-.3192-.0357 3.2623 3.2623 0 0 0-.2922-.013c-1.0249 0-1.8409.2987-2.448.894-.6071.5962-.9102 1.489-.9102 2.6784v5.5983h-2.7055Zm14.2777.1408c-1.2056 0-2.2813-.2533-3.2283-.7598-.9458-.5065-1.6871-1.2067-2.224-2.0995-.5356-.8939-.804-1.9134-.804-3.0616 0-1.159.2684-2.1828.804-3.068.5369-.8864 1.2782-1.5823 2.224-2.0888.947-.5075 2.0227-.7608 3.2283-.7608 1.1288 0 2.1244.2284 2.9848.6862.8614.4567 1.5118 1.1265 1.9523 2.0096l-2.0735 1.2208c-.3453-.5487-.7673-.9545-1.2652-1.2186-.4978-.264-1.0378-.396-1.62-.396-.6624 0-1.2587.146-1.7879.4382-.5302.2933-.949.7089-1.2543 1.2489-.3062.5411-.4599 1.184-.4599 1.9285 0 .7457.1537 1.3896.46 1.9307.3051.5411.724.9578 1.2542 1.25.5292.2922 1.1255.4393 1.7879.4393.5822 0 1.1222-.1298 1.62-.3874.4979-.2576.92-.6666 1.2652-1.2283l2.0735 1.2207c-.4405.8712-1.0909 1.5379-1.9523 2.001-.8604.4632-1.856.6948-2.9848.6948Zm12.4012 0c-.9881 0-1.8582-.1819-2.6093-.5444-.751-.3636-1.3376-.9253-1.7575-1.684-.4199-.7586-.6298-1.7174-.6298-2.8754v-6.594h2.7055v6.239c0 1.0379.237 1.8106.7121 2.3192.4751.5076 1.146.7619 2.0108.7619.6287 0 1.1785-.1299 1.6504-.3885.4729-.2576.842-.645 1.107-1.1623.2652-.5162.3983-1.158.3983-1.9231v-5.8462h2.7056v11.557h-2.58v-3.1178l.4588.949c-.3928.7479-.9631 1.3193-1.7099 1.7154-.7467.396-1.5681.5941-2.462.5941Zm10.0689-.1408v-11.557h2.58v3.1763l-.3051-.9231c.3355-.7857.8787-1.381 1.6276-1.7857.75-.4058 1.6742-.6082 2.7727-.6082v2.5757a5.2355 5.2355 0 0 0-.3193-.0357 3.2623 3.2623 0 0 0-.2922-.013c-1.0248 0-1.8408.2987-2.448.894-.607.5962-.9101 1.489-.9101 2.6784v5.5983h-2.7056Zm12.7821.1408c-.9729 0-1.9025-.1234-2.79-.3713-.8863-.2478-1.5886-.5519-2.107-.9101l1.04-2.0562c.513.3311 1.131.6038 1.856.817.724.2122 1.4459.3182 2.1655.3182.855 0 1.473-.1125 1.8517-.3398.3788-.2262.5682-.54.5682-.9383 0-.3117-.1288-.5508-.3874-.7186-.2576-.1666-.5974-.2943-1.0206-.382a22.0543 22.0543 0 0 0-1.3971-.237 15.8642 15.8642 0 0 1-1.527-.2922c-.5098-.1245-.9762-.303-1.3983-.5379-.4231-.2348-.764-.5562-1.0216-.9653-.2576-.408-.3863-.9459-.3863-1.6114 0-.7251.2077-1.3593.6255-1.9026.4166-.5433 1.0032-.9642 1.7608-1.263.7575-.2986 1.6558-.448 2.6936-.448.7781 0 1.5649.0888 2.3614.2663.7976.1774 1.4556.4264 1.975.7456l-1.04 2.0562c-.5432-.3322-1.094-.5595-1.6536-.6818-.5595-.1223-1.1103-.184-1.6536-.184-.8214 0-1.4318.1202-1.8311.3615-.3994.2413-.5996.553-.5996.9361 0 .3366.1288.592.3875.7673.2575.1743.5984.3117 1.0205.4113.4231.0995.8885.185 1.3971.2565a15.4643 15.4643 0 0 1 1.526.2932c.5086.1245.974.3009 1.3971.5292.4232.2284.763.5444 1.0205.9459.2587.4026.3875.9307.3875 1.5833 0 .7197-.211 1.3452-.6342 1.8776-.422.5314-1.0216.9437-1.7987 1.236-.777.2921-1.7066.4382-2.7878.4382Zm12.9943 0c-1.1862 0-2.2424-.2533-3.1699-.7609-.9274-.5086-1.659-1.2099-2.1947-2.1038-.5346-.895-.802-1.9144-.802-3.0594 0-1.157.2685-2.1796.8063-3.066.5368-.8863 1.2673-1.5822 2.1894-2.0887.923-.5064 1.9793-.7597 3.1709-.7597 1.1915 0 2.252.2533 3.1828.7587.9307.5054 1.6601 1.2001 2.1904 2.0854.5292.8853.7933 1.908.7933 3.0713 0 1.1494-.263 2.1699-.7912 3.0616-.528.8918-1.2597 1.592-2.1947 2.1006-.935.5076-1.9956.7608-3.1806.7608Zm0-2.3009c.6623 0 1.251-.1471 1.7661-.4393.5141-.2922.921-.7132 1.2197-1.2608.2987-.5487.448-1.1894.448-1.922 0-.7435-.1493-1.3853-.448-1.9264-.2987-.54-.7056-.9556-1.2197-1.2489-.515-.2922-1.1006-.4383-1.7564-.4383-.6558 0-1.2413.1461-1.7564.4383-.5141.2933-.9243.7089-1.2294 1.2489-.3052.5411-.4578 1.1829-.4578 1.9263 0 .7327.1526 1.3734.4578 1.922.3051.5477.7142.9687 1.2283 1.2609.514.2922 1.0963.4393 1.7478.4393Zm12.5515 2.3009c-.9718 0-1.9014-.1234-2.7888-.3713-.8875-.2478-1.5898-.5519-2.1071-.9101l1.04-2.0562c.513.3311 1.131.6038 1.855.817.725.2122 1.4469.3182 2.1654.3182.856 0 1.473-.1125 1.8517-.3398.3788-.2262.5682-.54.5682-.9383 0-.3117-.1288-.5508-.3864-.7186-.2575-.1666-.5984-.2943-1.0205-.382a22.0543 22.0543 0 0 0-1.3971-.237 15.8011 15.8011 0 0 1-1.527-.2922c-.5098-.1245-.9762-.303-1.3994-.5379-.4231-.2348-.763-.5562-1.0205-.9653-.2576-.408-.3874-.9459-.3874-1.6114 0-.7251.2088-1.3593.6255-1.9026.4166-.5433 1.0043-.9642 1.7618-1.263.7576-.2986 1.6548-.448 2.6937-.448.7781 0 1.5649.0888 2.3614.2663.7965.1774 1.4556.4264 1.975.7456l-1.04 2.0562c-.5432-.3322-1.094-.5595-1.6536-.6818-.5595-.1223-1.1104-.184-1.6536-.184-.8214 0-1.4318.1202-1.8311.3615-.3994.2413-.5996.553-.5996.9361 0 .3366.1288.592.3864.7673.2586.1743.5984.3117 1.0216.4113.4231.0995.8885.185 1.3971.2565a15.4643 15.4643 0 0 1 1.526.2932c.5075.1245.974.3009 1.397.5292.4222.2284.763.5444 1.0206.9459.2576.4026.3864.9307.3864 1.5833 0 .7197-.211 1.3452-.6331 1.8776-.422.5314-1.0216.9437-1.7987 1.236-.777.2921-1.7066.4382-2.7889.4382Zm7.0745 3.134 1.2532-4.8007.3745 1.6158c-.5097 0-.934-.157-1.2738-.4708-.3387-.3138-.5086-.738-.5086-1.2738 0-.5378.1699-.9707.5097-1.2986.3409-.328.7586-.4924 1.2543-.4924.5086 0 .9264.1677 1.2543.5021.3268.3344.4902.764.4902 1.289 0 .1547-.014.3138-.0444.4761-.0292.1613-.0768.3506-.1417.5693-.066.2175-.1656.4934-.2998.829l-1.119 3.055h-1.7489Zm18.8101-3.134c-.9491 0-1.8095-.2133-2.5811-.6407-.7716-.4275-1.382-1.08-1.8311-1.9567-.4491-.8766-.6742-1.9837-.6742-3.3202 0-1.3528.2175-2.4653.6514-3.3354.434-.8702 1.0357-1.5195 1.8063-1.9459.7705-.4264 1.6471-.6396 2.6287-.6396 1.1266 0 2.1298.2457 3.0075.737.8787.4914 1.5714 1.1796 2.0778 2.0649.5076.8853.7608 1.9242.7608 3.119 0 1.1947-.2532 2.2337-.7608 3.119-.5064.8852-1.199 1.5724-2.0778 2.0626-.8777.4914-1.881.736-3.0075.736Zm-6.411 4.0583v-15.756h2.58v2.7325l-.091 3.066.2165 3.067v6.8905h-2.7056Zm6.0906-6.3592c.6494 0 1.2316-.1471 1.7468-.4393.514-.2922.9242-.7121 1.2294-1.2597.3051-.5477.4577-1.1862.4577-1.9177 0-.7457-.1526-1.3885-.4577-1.9296-.3052-.5412-.7154-.9578-1.2294-1.251-.5152-.2923-1.0974-.4384-1.7468-.4384-.6504 0-1.2326.1461-1.7467.4383-.515.2933-.9253.71-1.2304 1.251-.3052.5412-.4567 1.184-.4567 1.9297 0 .7315.1515 1.37.4567 1.9177.3051.5476.7153.9675 1.2304 1.2597.5141.2922 1.0963.4393 1.7467.4393Zm14.4001 2.3009c-1.2803 0-2.4004-.2544-3.3625-.763-.962-.5087-1.7077-1.21-2.2359-2.1028-.5292-.8928-.7932-1.9112-.7932-3.055 0-1.1472.2575-2.1667.7727-3.0584.5151-.8929 1.225-1.592 2.1298-2.0985.9036-.5075 1.9274-.7608 3.0724-.7608 1.131 0 2.1374.2468 3.0183.7392.882.4935 1.5747 1.1883 2.08 2.0854.5044.8961.7565 1.9523.7565 3.1688a7.6196 7.6196 0 0 1-.0454.7889h-9.622v-1.7932h8.1924l-1.0671.5703c.013-.6623-.1234-1.2467-.409-1.7543-.2858-.5065-.6765-.9036-1.1721-1.1904-.4957-.2868-1.0714-.4307-1.7262-.4307-.6558 0-1.2348.1439-1.738.4307-.5033.2868-.894.6872-1.172 1.2002-.2782.513-.4167 1.1136-.4167 1.8019v.434c0 .6936.158 1.305.473 1.8354.3148.5303.7607.9426 1.3365 1.2359.5757.2932 1.2445.4404 2.0042.4404.6494 0 1.2316-.1039 1.7489-.3106.5162-.2078.9762-.5248 1.3787-.9512l1.461 1.671c-.527.6081-1.185 1.0713-1.9718 1.3895-.7878.3181-1.685.4772-2.6925.4772Zm8.2465-.1408v-11.557h2.581v3.1763l-.3051-.9231c.3355-.7857.8777-1.381 1.6277-1.7857.75-.4058 1.673-.6082 2.7715-.6082v2.5757a5.3026 5.3026 0 0 0-.3182-.0357 3.2986 3.2986 0 0 0-.2922-.013c-1.0248 0-1.8408.2987-2.448.894-.607.5962-.9112 1.489-.9112 2.6784v5.5983h-2.7055Zm12.7821.1408c-.9718 0-1.9026-.1234-2.7889-.3713-.8874-.2478-1.5898-.5519-2.1082-.9101l1.0411-2.0562c.512.3311 1.131.6038 1.855.817.724.2122 1.4458.3182 2.1655.3182.856 0 1.4729-.1125 1.8517-.3398.3787-.2262.5681-.54.5681-.9383 0-.3117-.1288-.5508-.3863-.7186-.2576-.1666-.5985-.2943-1.0216-.382a21.9223 21.9223 0 0 0-1.3972-.237 15.9278 15.9278 0 0 1-1.527-.2922c-.5086-.1245-.975-.303-1.3982-.5379-.4232-.2348-.763-.5562-1.0206-.9653-.2586-.408-.3874-.9459-.3874-1.6114 0-.7251.2089-1.3593.6255-1.9026.4167-.5433 1.0043-.9642 1.7619-1.263.7565-.2986 1.6547-.448 2.6936-.448.777 0 1.565.0888 2.3614.2663.7965.1774 1.4545.4264 1.975.7456l-1.04 2.0562c-.5432-.3322-1.0951-.5595-1.6546-.6818-.5585-.1223-1.1104-.184-1.6526-.184-.8214 0-1.4318.1202-1.8311.3615-.4004.2413-.5996.553-.5996.9361 0 .3366.1288.592.3864.7673.2586.1743.5985.3117 1.0216.4113.422.0995.8885.185 1.3972.2565a15.4436 15.4436 0 0 1 1.5248.2932c.5086.1245.975.3009 1.3971.5292.4232.2284.764.5444 1.0217.9459.2575.4026.3863.9307.3863 1.5833 0 .7197-.211 1.3452-.633 1.8776-.4222.5314-1.0217.9437-1.7987 1.236-.777.2921-1.7067.4382-2.789.4382Zm14.2063 0c-.9491 0-1.8095-.2133-2.5811-.6407-.7716-.4275-1.382-1.08-1.8311-1.9567-.4491-.8766-.6742-1.9837-.6742-3.3202 0-1.3528.2175-2.4653.6514-3.3354.434-.8702 1.0357-1.5195 1.8063-1.9459.7705-.4264 1.6471-.6396 2.6287-.6396 1.1266 0 2.1298.2457 3.0075.737.8787.4914 1.5714 1.1796 2.0778 2.0649.5076.8853.7608 1.9242.7608 3.119 0 1.1947-.2532 2.2337-.7608 3.119-.5064.8852-1.199 1.5724-2.0778 2.0626-.8777.4914-1.881.736-3.0075.736Zm-6.411 4.0583v-15.756h2.58v2.7325l-.091 3.066.2165 3.067v6.8905h-2.7056Zm6.0906-6.3592c.6494 0 1.2316-.1471 1.7468-.4393.514-.2922.9242-.7121 1.2294-1.2597.3051-.5477.4577-1.1862.4577-1.9177 0-.7457-.1526-1.3885-.4577-1.9296-.3052-.5412-.7154-.9578-1.2294-1.251-.5152-.2923-1.0974-.4384-1.7468-.4384-.6504 0-1.2326.1461-1.7467.4383-.515.2933-.9253.71-1.2304 1.251-.3052.5412-.4578 1.184-.4578 1.9297 0 .7315.1526 1.37.4578 1.9177.3051.5476.7153.9675 1.2304 1.2597.5141.2922 1.0963.4393 1.7467.4393Zm14.4001 2.3009c-1.2803 0-2.4004-.2544-3.3625-.763-.962-.5087-1.7077-1.21-2.2359-2.1028-.5292-.8928-.7932-1.9112-.7932-3.055 0-1.1472.2575-2.1667.7727-3.0584.5151-.8929 1.225-1.592 2.1287-2.0985.9047-.5075 1.9285-.7608 3.0735-.7608 1.131 0 2.1363.2468 3.0183.7392.882.4935 1.5747 1.1883 2.08 2.0854.5044.8961.7565 1.9523.7565 3.1688 0 .1104-.0043.2391-.0119.3852a6.4234 6.4234 0 0 1-.0346.4037h-9.621v-1.7932h8.1925l-1.0671.5703c.013-.6623-.1234-1.2467-.409-1.7543-.2858-.5065-.6765-.9036-1.1721-1.1904-.4957-.2868-1.0714-.4307-1.7262-.4307-.6558 0-1.2348.1439-1.738.4307-.5033.2868-.894.6872-1.172 1.2002-.2782.513-.4167 1.1136-.4167 1.8019v.434c0 .6936.1569 1.305.473 1.8354.3148.5303.7607.9426 1.3365 1.2359.5757.2932 1.2445.4404 2.0042.4404.6494 0 1.2316-.1039 1.7489-.3106.5162-.2078.9762-.5248 1.3787-.9512l1.461 1.671c-.527.6081-1.185 1.0713-1.9728 1.3895-.7868.3181-1.685.4772-2.6915.4772Zm13.5364 0c-1.2056 0-2.2824-.2533-3.2283-.7598-.947-.5065-1.6882-1.2067-2.224-2.0995-.5367-.8939-.804-1.9134-.804-3.0616 0-1.159.2673-2.1828.804-3.068.5358-.8864 1.277-1.5823 2.224-2.0888.9459-.5075 2.0227-.7608 3.2283-.7608 1.1287 0 2.1233.2284 2.9847.6862.8615.4567 1.5119 1.1265 1.9513 2.0096l-2.0725 1.2208c-.3463-.5487-.7673-.9545-1.2662-1.2186-.4978-.264-1.0378-.396-1.619-.396-.6623 0-1.2586.146-1.7889.4382-.5303.2933-.948.7089-1.2543 1.2489-.3062.5411-.4588 1.184-.4588 1.9285 0 .7457.1526 1.3896.4588 1.9307.3063.5411.724.9578 1.2543 1.25s1.1266.4393 1.789.4393c.581 0 1.1211-.1298 1.619-.3874.4988-.2576.9198-.6666 1.2661-1.2283l2.0725 1.2207c-.4394.8712-1.0898 1.5379-1.9513 2.001-.8614.4632-1.856.6948-2.9847.6948Zm11.9499 0c-1.2662 0-2.2467-.3269-2.9426-.9816-.6959-.6548-1.0433-1.6212-1.0433-2.8993v-10.3655h2.7056v10.3027c0 .5498.1418.9751.4242 1.2781.2825.302.6818.4535 1.1959.4535.5941 0 1.094-.158 1.5-.4751l.7726 1.9285c-.3246.2532-.7186.4437-1.1828.5703a5.4507 5.4507 0 0 1-1.4296.1883Zm-5.8733-9.4554v-2.158h7.6957v2.158h-7.6957Zm10.9305 9.3146v-11.558h2.7055v11.558h-2.7055Zm1.3636-13.4628c-.5054 0-.92-.159-1.2446-.4761-.3247-.3171-.487-.7002-.487-1.1472 0-.4621.1623-.8474.487-1.158.3247-.3106.7392-.4653 1.2446-.4653.5043 0 .9198.1482 1.2445.4437.3247.2954.487.6677.487 1.1147 0 .4761-.159.8766-.4762 1.2012-.3181.3247-.7359.487-1.2553.487Zm8.1945 13.4628-4.9511-11.557h2.7975l4.2748 10.1945h-1.383l4.3991-10.1945h2.6158l-4.9696 11.557h-2.7835Zm16.4335 0v-2.344l-.1385-.4881v-4.0951c0-.7911-.2402-1.407-.7197-1.8485-.4783-.4404-1.2034-.6612-2.173-.6612-.6461 0-1.2825.1017-1.9058.3052-.6234.2034-1.1548.4816-1.5952.8322l-1.0498-1.962c.618-.4708 1.356-.828 2.2164-1.0715.8604-.2435 1.7521-.3647 2.6752-.3647 1.67 0 2.9642.4015 3.8809 1.2035.9177.8019 1.3766 2.041 1.3766 3.7163v6.778h-2.567Zm-3.6189.1407c-.8788 0-1.6428-.1471-2.2921-.4404-.6494-.2944-1.1494-.7035-1.5-1.2283-.3506-.5238-.526-1.119-.526-1.7846 0-.6515.157-1.2348.4708-1.75.315-.5151.8247-.9253 1.5313-1.2305.7067-.3062 1.6418-.4588 2.8062-.4588h3.3528v1.7943h-3.158c-.922 0-1.5421.1483-1.8625.447-.3192.2976-.4794.6623-.4794 1.0952 0 .487.1959.8744.5877 1.1623.3906.2868.9307.4307 1.6179.4307.671 0 1.2694-.1494 1.7965-.4491.526-.2998.9047-.7457 1.1352-1.3366l.4578 1.6201c-.263.6796-.7294 1.2034-1.3982 1.5736-.6688.37-1.5151.5551-2.54.5551Zm13.4379.0001c-.9729 0-1.9025-.1234-2.79-.3713-.8863-.2478-1.5886-.5519-2.107-.9101l1.041-2.0562c.512.3311 1.131.6038 1.855.817.724.2122 1.4458.3182 2.1655.3182.855 0 1.473-.1125 1.8517-.3398.3788-.2262.5682-.54.5682-.9383 0-.3117-.1288-.5508-.3875-.7186-.2575-.1666-.5974-.2943-1.0205-.382a22.0543 22.0543 0 0 0-1.3971-.237 15.8642 15.8642 0 0 1-1.527-.2922c-.5098-.1245-.9762-.303-1.3983-.5379-.4231-.2348-.764-.5562-1.0216-.9653-.2576-.408-.3864-.9459-.3864-1.6114 0-.7251.2078-1.3593.6256-1.9026.4166-.5433 1.0032-.9642 1.7607-1.263.7576-.2986 1.6558-.448 2.6937-.448.7781 0 1.5649.0888 2.3625.2663.7965.1774 1.4545.4264 1.974.7456l-1.04 2.0562c-.5433-.3322-1.0942-.5595-1.6537-.6818-.5595-.1223-1.1104-.184-1.6526-.184-.8214 0-1.4328.1202-1.8322.3615-.3993.2413-.5995.553-.5995.9361 0 .3366.1288.592.3874.7673.2576.1743.5985.3117 1.0206.4113.4231.0995.8885.185 1.3971.2565a15.4643 15.4643 0 0 1 1.526.2932c.5086.1245.974.3009 1.397.5292.4232.2284.763.5444 1.0206.9459.2587.4026.3875.9307.3875 1.5833 0 .7197-.211 1.3452-.6331 1.8776-.4232.5314-1.0227.9437-1.7998 1.236-.777.2921-1.7066.4382-2.7878.4382Z"/>
    </g>
  </g>
</svg>
