<svg xmlns="http://www.w3.org/2000/svg" viewBox="0 0 313.29 109.49">
  <defs>
    <style>
    </style>
  </defs>
  <g fill="#b3b3b3">
    <path d="M94 50l-8.69-8.69 4.14-6.62c2.73-4.37 3.21-8.85 1.3-12.29-1.7-3.06-5-4.81-9.08-4.81H69.32L67.57 10c-1.16-5-4-8.53-7.77-9.61-3.36-1-6.94.14-9.82 3l-8.69 8.69-6.63-4.16c-4.37-2.73-8.85-3.21-12.29-1.3-3.06 1.7-4.81 5-4.81 9.08V28L10 29.75c-5 1.16-8.53 4-9.61 7.77-1 3.36.14 6.94 3 9.82L12.05 56l-4.13 6.66C5.19 67 4.71 71.51 6.62 74.95c1.7 3.06 5 4.81 9.08 4.81H28l1.76 7.61c1.16 5 4 8.53 7.77 9.61a8.74 8.74 0 0 0 2.42.34A10.55 10.55 0 0 0 47.34 94L56 85.26l6.62 4.14a14.69 14.69 0 0 0 7.68 2.45 9.41 9.41 0 0 0 4.61-1.15c3.06-1.7 4.81-5 4.81-9.08v-12.3l7.61-1.76c5-1.16 8.53-4 9.61-7.77 1-3.35-.1-6.93-2.94-9.79zM59.33 63.83L46.9 66.7a12.72 12.72 0 0 1-1.42.23l-10.82-6.76a12.74 12.74 0 0 1-1.17-.84L30.62 46.9a12.73 12.73 0 0 1-.23-1.42l6.76-10.82a12.74 12.74 0 0 1 .85-1.17l12.43-2.87a12.73 12.73 0 0 1 1.42-.23l10.82 6.76a12.74 12.74 0 0 1 1.17.84l2.86 12.43a12.73 12.73 0 0 1 .23 1.42l-6.76 10.82a12.74 12.74 0 0 1-.84 1.17zm22.29-36.32h.2a6.8 6.8 0 0 1-.82 1.88l-3 4.67-6.38-6.38v-.17zM57 10.4l.15-.14a6.8 6.8 0 0 1 .71 1.93l1.24 5.37h-9l-.14-.09zm-29.5 5.3v-.2a6.8 6.8 0 0 1 1.87.86l4.67 2.92-6.38 6.38h-.17zM10.4 40.31l-.14-.15a6.8 6.8 0 0 1 1.93-.71l5.37-1.24v9l-.09.14zm5.3 29.5h-.2a6.8 6.8 0 0 1 .86-1.87l2.92-4.67 6.38 6.38v.17zm24.61 17.11l-.15.14a6.8 6.8 0 0 1-.71-1.93l-1.24-5.37h9l.14.09zm29.5-5.3v.2a6.8 6.8 0 0 1-1.88-.82l-4.67-3 6.38-6.38h.17zm15.32-23.75l-5.37 1.24v-9l.09-.14L86.92 57l.14.15a6.8 6.8 0 0 1-1.93.72z"/>
    <path d="M131.93 77.71H118c-4.25 0-6.34-1.58-6.34-5.9V26.16c0-4.32 2.09-5.9 6.34-5.9h14v8.5h-10.95v40.46h10.87z"/>
    <path d="M160.53 77.71h-9.44V56.55h-6.41v21.16h-9.44V26.4c0-4.39 2.31-6.12 6.56-6.12h18.74zm-9.44-29.58V28.78h-6.41v19.35z"/>
    <path d="M189.89 50.49c0 4.39-2.23 6-6.48 6h-9.29v21.22h-9.43V20.25h18.72c4.25 0 6.48 1.73 6.48 6.12zM180.45 48V28.75h-6.34V48z"/>
    <path d="M217.46 71.81c0 4.32-2.23 5.9-6.41 5.9h-17.28v-8.5H208V53.52h-8.21c-4.39 0-6-2.23-6-6.48V26.37c0-4.39 2.23-6.12 6.48-6.12h15.84v8.5h-12.9v16.42h8.21c4.39 0 6 2.3 6 6.55z"/>
    <path d="M231.07 77.71h-9.43V20.25h9.43z"/>
    <path d="M260.37 71.81c0 4-2.23 5.9-6.34 5.9h-18.86V20.25H254c4 0 6.34 1.58 6.34 5.9zm-9.43-2.59V28.75h-6.34v40.47z"/>
    <path d="M284.78 77.71h-20.31V20.25h20.31v8.5h-10.87v16.42h10.15v8.35h-10.15v15.7h10.87z"/>
    <path d="M313.29 71.81c0 4.1-2 5.9-6.26 5.9h-12.6c-4 0-6.34-1.66-6.34-5.9V26.16c0-4 2.09-5.9 6.34-5.9H307c4.1 0 6.26 1.66 6.26 5.9zm-9.43-2.59V28.75h-6.34v40.47z"/>
    <path d="M123.2 88.65a3.45 3.45 0 0 1 4.5-2c1.23.48 2 1.55 3.35 1.75 3.16.46 4.78-2.54 5.7-5 .67-1.81-2.23-2.6-2.89-.8-.6 1.64-1.2 3-3.46 2.24-.52-.17-1-.72-1.53-1a6.09 6.09 0 0 0-3.4-.39 6.51 6.51 0 0 0-5.17 4.37c-.66 1.82 2.24 2.6 2.89.8z"/>
    <path d="M158.71 90.05l3-3a1.5 1.5 0 0 0-2.12-2.12l-3 3a1.5 1.5 0 0 0 2.12 2.12z"/>
    <path d="M222.1 91.35a8.51 8.51 0 0 0 3.48-3 1.51 1.51 0 0 0-.54-2.05 1.53 1.53 0 0 0-2.05.54 5.7 5.7 0 0 1-2.41 1.88 1.51 1.51 0 0 0-.54 2.05 1.54 1.54 0 0 0 2.05.54z"/>
    <path d="M119.65 91.89l-1.12 6.83c-.57-1.1-1.15-2.19-1.73-3.29-.77-1.46-1.54-2.91-3.29-3.24a1.53 1.53 0 0 0-1.9 1.45l-1.11 11c-.19 1.92 2.81 1.91 3 0l.8-7.91c.49.94.88 2 1.17 2.6l2.52 4.79a1.52 1.52 0 0 0 2.74-.36l1.81-11.09c.32-1.87-2.54-2.67-2.89-.78z"/>
    <path d="M131.82 96.58c-.74-1.51-1.8-4-3.6-4.44-2-.5-2.74 1.41-3.25 2.91-1 2.84-1.87 5.69-2.81 8.54-.6 1.84 2.29 2.63 2.89.8l.84-2.57h.15l3.68-.58a1.13 1.13 0 0 0 .62-.33 26.48 26.48 0 0 1 .86 3.5c.34 1.9 3.23 1.09 2.89-.8a26.24 26.24 0 0 0-2.27-7.03zm-2.89 1.76l-2 .32a20 20 0 0 1 1-3.17 12.57 12.57 0 0 1 1.51 2.85 2.09 2.09 0 0 0-.51 0z"/>
    <path d="M138.66 90.91a1.64 1.64 0 0 0-1.41 1.9 5.39 5.39 0 0 0-3.47 5.8 5.72 5.72 0 0 0 7.2 4.57 6.44 6.44 0 0 0 4.72-7 6.55 6.55 0 0 0-7.04-5.27zm2.6 8.85c-1.44 1-3.72.81-4.4-1s1-3.39 2.79-3.29a1.28 1.28 0 0 0 1.39-1 3.07 3.07 0 0 1 .22 5.29z"/>
    <path d="M161.57 102.85a16.59 16.59 0 0 1-6.43.15v-1.5h3.5a1.5 1.5 0 0 0 0-3h-3.5v-1.38a30.25 30.25 0 0 1 5.5-.65c1.93 0 1.93-3 0-3a34.1 34.1 0 0 0-5.61.61 1.52 1.52 0 0 0-2.89.58V103a1.52 1.52 0 0 0 .13.64 1.4 1.4 0 0 0 .91 2.06 20.18 20.18 0 0 0 9.19.06c1.89-.43 1.09-3.32-.8-2.91z"/>
    <path d="M176.74 94c.35 1.93 2.41 8.29-.6 8.92-3.77.79-3.1-5.23-2.65-7.17s-2.46-2.68-2.89-.8c-.6 2.61-1.06 5.6.37 8a5.91 5.91 0 0 0 5.06 3c6.53-.22 4.31-8.93 3.62-12.77-.36-1.85-3.26-1.05-2.91.82z"/>
    <path d="M193.09 94.52c-2.44-1-3.41 1.44-3.82 3.82-1.52-1.86-2.75-4-5.4-4.46a1.52 1.52 0 0 0-1.85 1 46.81 46.81 0 0 0-.5 10.06c.12 1.92 3.12 1.93 3 0a44.08 44.08 0 0 1 .17-7.49c1.87 1.34 3.19 4 5 5.33a1.51 1.51 0 0 0 2.26-1.3c.05-.95.42-2 .37-2.92a1.1 1.1 0 0 0 .23-.54 7 7 0 0 1 .4.65 9.34 9.34 0 0 1 1.16 5.61c-.14 1.93 2.86 1.92 3 0 .23-2.94-.76-8.46-4.02-9.76z"/>
    <path d="M213.84 95.92a10.23 10.23 0 0 1-4.13 5.51 61 61 0 0 1-3.29-7.16c-.68-1.79-3.58-1-2.89.8a66.78 66.78 0 0 0 4.31 9.2 1.53 1.53 0 0 0 2.05.54 13.37 13.37 0 0 0 6.84-8.09c.59-1.85-2.31-2.64-2.89-.8z"/>
    <path d="M219.21 96.06a28.94 28.94 0 0 1 .25 6.27c-.12 1.93 2.88 1.92 3 0a32.5 32.5 0 0 0-.36-7.07c-.29-1.9-3.19-1.1-2.89.8z"/>
    <path d="M234.94 96.57a4.66 4.66 0 0 0-2.22-3.9c-1.64-.93-3.39-.44-5 .34-.88-.83-2.66-.52-2.54 1a87.39 87.39 0 0 1 .23 11c-.08 1.93 2.92 1.93 3 0 0-1 .06-2.05.07-3.08a10.55 10.55 0 0 1 2.9 3.94c.78 1.76 3.36.24 2.59-1.51a12.81 12.81 0 0 0-2.14-3.32 4.55 4.55 0 0 0 3.11-4.47zm-3.17.72c-.55 1.35-2.11 1.33-3.31.93 0-.72-.06-1.44-.1-2.16h.1c.81-.45 2.12-1.32 3-.53a1.66 1.66 0 0 1 .31 1.75z"/>
    <path d="M242.06 95.43a12 12 0 0 1 .2 5.44c-.22.88-1.24 3.34-2.45 3.19s-1.13-8-1.13-9.4a1.5 1.5 0 0 0-3 0 42.51 42.51 0 0 0 .7 9.58c.46 1.92 1.87 3.3 3.95 2.86 5.43-1.16 5.5-8.31 4.63-12.47-.4-1.88-3.3-1.08-2.9.8z"/>
    <path d="M255.08 98.11c-1.41-.38-2.64 0-4-.1-.9-.05-1.61-.42-.34-1.32a3.24 3.24 0 0 1 3.13-.31c1.75.75 3.28-1.83 1.51-2.59a6.36 6.36 0 0 0-6.65.68c-1.62 1.28-2.77 3.83-1.3 5.66 1.94 2.42 5.32-.31 7.67 1.19 1.61 1 1.07 3.27-.2 4.34-1.93 1.63-4.81.62-6.7-.45a1.5 1.5 0 0 0-1.51 2.59c2.68 1.52 6.13 2.45 9 .9a6.51 6.51 0 0 0 3.41-5.74 5.2 5.2 0 0 0-4.02-4.85z"/>
    <path d="M96.56 100.08a12.14 12.14 0 0 1-7.14-4.51c-1.19-1.52-3.3.62-2.12 2.12a14.63 14.63 0 0 0 3.6 3.31c-10.43 2.68-24.75 1.9-31.9-6.4-1.26-1.47-3.37.66-2.12 2.12 7.66 8.93 22.65 10.1 33.95 7.34a28.26 28.26 0 0 0-1.95 2.19c-1.18 1.5.92 3.64 2.12 2.12a26.86 26.86 0 0 1 5.89-5.56 1.52 1.52 0 0 0-.33-2.73z"/>
  </g>
</svg>
