<svg xmlns="http://www.w3.org/2000/svg" viewBox="0 0 54 32"><title>dinheiro</title><path d="M50.86,2A1.15,1.15,0,0,1,52,3.14V28.86A1.15,1.15,0,0,1,50.86,30H3.14A1.15,1.15,0,0,1,2,28.86V3.14A1.15,1.15,0,0,1,3.14,2H50.86m0-2H3.14A3.15,3.15,0,0,0,0,3.14V28.86A3.15,3.15,0,0,0,3.14,32H50.86A3.15,3.15,0,0,0,54,28.86V3.14A3.15,3.15,0,0,0,50.86,0Z" fill="#0d273f"/><path d="M13.59,22c-2.2-.15-3.76-1.38-3.85-3.41h1.8a2.06,2.06,0,0,0,2.06,1.85l.05-3.84-.5-.15c-1.86-.54-3.08-1.53-3.08-3.15,0-1.83,1.56-3.09,3.66-3.24l0-1.31h1.13l0,1.34a3.46,3.46,0,0,1,3.31,3.26H16.44a1.87,1.87,0,0,0-1.6-1.67l0,3.59.14,0c2.2.65,3.33,1.62,3.33,3.32S16.94,21.75,14.71,22l0,1.3H13.57Zm.08-7.06.05-3.31c-1.16.12-1.91.76-1.91,1.65S12.46,14.52,13.67,14.92Zm1.1,2,0,3.46c1.1-.2,1.81-.88,1.81-1.77S16,17.35,14.77,16.92Z" fill="#0d273f"/></svg>