<svg xmlns="http://www.w3.org/2000/svg" viewBox="0 0 270.9 304.3">
  <defs>
    <style>
      .a{fill:#0d273f}
    </style>
  </defs>
  <path d="M154 69.2a125 125 0 0 0-19.3 31.7 127.3 127.3 0 0 0-9.6 39.7 44 44 0 1 1-8-.2 135.5 135.5 0 0 1 10.2-42.7A132.6 132.6 0 0 1 145.5 67a119.8 119.8 0 1 0 8.6 2.2z" class="a"/>
  <path d="M190.1 39l-6 26.4a4 4 0 0 0 3 4.8 4 4 0 0 0 1 .1 4 4 0 0 0 3.8-3.1l8-35V32v-.5a1.6 1.6 0 0 0 0-.2v-.4-.2a1.6 1.6 0 0 0 0-.2v-.3l-.1-.3-.1-.2a1.1 1.1 0 0 0 0-.1 1.5 1.5 0 0 1-.2-.2v-.1c0-.2-.2-.2-.2-.3a2.8 2.8 0 0 0-.2-.2l-.1-.2-.2-.1-.3-.3h-.1l-.2-.2-.3-.2h-.2a2 2 0 0 0-.2-.2h-.3l-.2-.1a1 1 0 0 0-.3 0l-.3-.1h-.2l-41-2a4 4 0 1 0-.4 8l27.2 1.3a143.5 143.5 0 0 0-36.5 32.4l8.6 2.2A137.3 137.3 0 0 1 190 39zM117.1 140.4a139 139 0 0 0 0 19.1 4 4 0 0 0 4 3.8h.2a4 4 0 0 0 3.7-4.3 132 132 0 0 1 .1-18.4 45.2 45.2 0 0 0-5.1-.3l-2.9.1zM216.2 24.3c-.5 1.4-3 1.3-3.2.2-.5-1.8.1-5.1-.3-7-1.7-.4-1.6.2-2.7-1a1.2 1.2 0 0 1-.2-1.2 2 2 0 0 1 2-1.4c.9 0 .5.2.9-.3s0-1.8.2-2.5a20.4 20.4 0 0 1 1.4-6.4c1-2.3 2.2-4 4.6-4.6s3.7.8 4.6 2.5A4.8 4.8 0 0 1 224 6a1.7 1.7 0 0 1-2.1 1c-.7 0-1-1-1.3-1.7s-.5-2-1.4-2c-1.6 0-2 3.1-2.4 4.7-.2 1-.6 5 0 5.9 1 .4 1.5-.1 3.2.4 1.5.5 1.2 2.8 0 3s-2.5 0-3.4.4c-.5 1 0 5-.4 6.6zM224.2 11.7c-.2-1.3 1-2 2.1-2.4 2.1-1 3.7-1.7 5.8-1.3a4.8 4.8 0 0 1 2.6 3.8 19.5 19.5 0 0 1-.4 6.1 54.7 54.7 0 0 1-1.2 5.6c-.3.6-1.1 1.8-2 1.9a6.4 6.4 0 0 1-2.4-.4 11.7 11.7 0 0 1-4.9-2.9 3.7 3.7 0 0 1-1.3-2 3.8 3.8 0 0 1 1.2-3.6 7.6 7.6 0 0 1 2.5-1.4c1.7-.5 4.5-.3 5-1a2.1 2.1 0 0 0-1-3c-2.5.4-3.9 1.9-5.1 1.8a1.3 1.3 0 0 1-1-1.2zm1.6 7c0 1.9 2.5 2.6 4 2.8 1-.3 1.2-2.6 1.2-3.7-.4-.4-1.7-.2-2.3-.2a3.9 3.9 0 0 0-2.9 1zM242 5.9L240.5 20a29.4 29.4 0 0 1-.7 4.3c-.4 1-1.8 2-2.7 1.4-1.2-.6-.1-5 0-6.5.5-4 .9-7 1.2-11 .2-2.8 0-6.4 2.2-7.1s1.5 2.8 1.3 4.8zM257.1 10.3a2 2 0 0 1-.8 2.2c-1 .6-3.8.4-4.4.9s-.8 4.2-1 5l-.5 3.8c-.2 1.2-.4 4.8-2 5a2.3 2.3 0 0 1-2-.6c-.2-.5.5-3.4.6-4l.5-3.6.4-4.7c-.8-.9-3 .2-4-.3a1.8 1.8 0 0 1-.8-2 2.2 2.2 0 0 1 1.3-1.5c.7-.2 3-.1 3.5-.5s.7-2.4.9-3.1c.3-2 0-4.1 2.6-4.3 1.7 0 1.5.8 1.2 2-.3 1.7-.9 2.6-.5 4.8.8.9 4.7-.6 5 1zM260.3 11.7c-.2-1.3 1-2 2.1-2.4 2-1 3.7-1.7 5.8-1.3a4.8 4.8 0 0 1 2.5 3.8 19.5 19.5 0 0 1-.4 6.1 54.7 54.7 0 0 1-1.2 5.6c-.2.6-1 1.8-1.9 1.9a6.5 6.5 0 0 1-2.4-.4 11.7 11.7 0 0 1-5-2.9 3.6 3.6 0 0 1-1.3-2 3.8 3.8 0 0 1 1.3-3.6 7.5 7.5 0 0 1 2.5-1.4c1.6-.5 4.4-.3 5-1a2.1 2.1 0 0 0-1-3c-2.5.4-3.9 1.9-5 1.8a1.3 1.3 0 0 1-1-1.2zm1.6 7c0 1.9 2.4 2.6 4 2.8 1-.3 1.2-2.6 1.2-3.7-.5-.4-1.7-.2-2.4-.2a3.9 3.9 0 0 0-2.8 1z" class="a"/>
</svg>
