<svg xmlns="http://www.w3.org/2000/svg" viewBox="0 0 400.47 626.14"><defs><style>.a,.b,.c{fill:none;stroke:#0d273f;stroke-linecap:round;stroke-linejoin:round;}.a{stroke-width:5.37px;}.b{stroke-width:5.61px;}.c{stroke-width:4.67px;}</style></defs><title>mascaras</title><path class="a" d="M288.35,396.51c-.14-2.19-.39-4.28-2.31-5.82-4.16-3.31-6.39-8.41-7.82-12.85-3.9-12.15-9.46-23.26-15.8-34.25-4.49-7.8-9.38-16.2-9.24-25.43.19-13.58-3.14-25.27-12.91-34.16,3.76-12.22,8.51-23.65,10.59-35.55,1.91-10.88,6.52-20.39,10.91-30.06,6.36-14,18.48-22.83,30.86-31.75,27.84,14,57.52,19.54,88.48,18.15,13.78,27.11,14.63,34.38,16.06,46.62h0c1.58,15.92-.36,32.31-.81,48.18-.21,7.43-2.77,14.36-4.42,21.4s-2.18,14-3.25,20.95c-1.92,12.52-8.06,23.23-15.76,33-1.57,2-4.11,3.93-4.86,6-3.49,9.58-11,11.81-19.93,12.77a285.33,285.33,0,0,0-36,6.34c-4.17,1-8.16.2-12.33-.09,4.83-5.71,11.88-6.42,17.62-9.68,11.51-6.52,20.21-15.59,27.88-26.18,10.35-14.29,18.28-30.49,32.41-41.86,4.07-3.28,8.41-5.73,13.93-4.64"/><path class="a" d="M395.24,248.54c1.74-.66-8.29-5.79-17.54-11.94-7.86-1.76-18.16-4.54-26.4-6.93a21.5,21.5,0,0,0-5.73,8.88c-1,3.29,25.22,4.11,28.18,4.16a23.18,23.18,0,0,1,3.22.18,53.6,53.6,0,0,1,9.83,2.76c1.56.56,3.11,1.15,4.67,1.71C392.2,247.62,394.44,248.85,395.24,248.54Z"/><path class="a" d="M240.18,286.24c-3,3.75-3.23,8.46-3.92,12.79-2,12.27-4,24.75-1.7,37.09A61.08,61.08,0,0,0,245,361a141.08,141.08,0,0,0,34,32.75c6.4,4.41,13.43,4.15,20.41,5.09"/><path class="a" d="M269.78,334.41c4.23,0,5.26,1.93,7,6.15,2,4.87,7.87,8.75,12.86,11.68,10.38,6.1,38.95,3.35,42.58-6.33"/><path class="a" d="M335.36,340.21a55.35,55.35,0,0,1-13.22-14c-1.92-2.87-4.77-4.22-7.18-6.19-3.18-2.6-4.94,2.82-8.56,2l-3.46-4.37c-9.32,3.95-17.13,9-25.06,13.8-1.49.91-3,1.66-3.46,3.51"/><path class="a" d="M269.19,224.71c1.86,1.87,4.32.65,6.37,1.24,5.85,1.67,11.69,2.88,17,6.67,6.08,4.35,12.77.63,14.37-6.74.28-1.29.76-4,.76-4s-2.56,0-3.68,0c-7,.31-13.57-1.91-20.29-3.11-6-1.06-10.31,1.16-14.57,4.73-2.62,2.2-5.25,5.19-9.25,2.36"/><path class="a" d="M378.89,274.63c-7.78-9.23-23.83-11.48-31.92-5.22"/><path class="a" d="M281.3,251.4c5.59.45,17.6,10,17.6,10-3.41-1.09-4.55-.51-7.78.38-12,3.27-20.3.66-29.75-5.49C261.37,256.34,276.18,251,281.3,251.4Z"/><path class="a" d="M307.77,242.15c-.78,10.6-.59,21.56-3.74,31.83A35.92,35.92,0,0,1,297,287.24c-3.15,3.6-9.56,6.18-9.83,11.51-.25,4.87,3.88,7.68,8.19,8.38"/><path class="a" d="M380.05,274.63c-6.39,5.95-13.83,3.63-20.86,2.16-4.06-.85-7.77-3.32-11.64-5.06"/><path class="a" d="M300.54,299a7.61,7.61,0,0,1,5.26,4c3.95,7.78,8.13,8.24,14.47,1.76"/><path class="a" d="M336.93,254.86c-2.05,9.67-6.54,21.66-4.91,31.53"/><path class="a" d="M290.09,337.31c7.53,7.41,17.9,7.84,27.86,1.16"/><path class="a" d="M337.1,297.84c1.06,2,2,4.32,1.07,6.54-1.83,4.49-6.67,3.41-10.31,2.35"/><path class="a" d="M324.33,289.14a57.45,57.45,0,0,0-12,5.72c-3.44-.88-4.28-4.29-6.53-6.3"/><path class="a" d="M331.88,339.05c-5.05,3.65-10.73,3.36-13.76-1.84s-6.08-5.42-10.64-2.84c-1.72,1-3.36.89-5.26-.47-5.64-4-6.57-4-10.93.55a10.6,10.6,0,0,1-8.17,3.45,15.17,15.17,0,0,0-5.8.57"/><path class="b" d="M141.16,529.9c-.15-3.83,8.81-6.36,10.25-10.5,2.72-7.82-4.7-19.87-8.23-26.57-4.64-8.83-9.81-17.61-11.37-27.61-1.93-12.28,2.72-31.41,17.5-33.21,6.36-.78,21.37-6.23,27.09-2.22,5.1,3.57.19,19.94-2,24.1-9.66,18.71.49,37-2,56.22-2.45,19-14,35.18-21.09,52.6C141.1,588,130.76,626.66,95.55,623.1,85,622,76.47,615.24,67.79,609.73c-11.08-7-22.05-14.29-33.79-20.17-12.75-6.39-25.9-14.64-29.34-29.43-3-12.75-1.54-26-1.3-38.93.2-10.65-.18-22.85,2.77-33.13"/><path class="b" d="M176.36,429.2c.24-4.52-1.13-9-3-13.08a100.76,100.76,0,0,0-5-9.75c-1.29-2.15-2.35-4.88-4.43-6.42-2.51-1.84-7,.94-9.45,1.72-7.57,2.35-15.52,3.16-23.3,4.58-8.64,1.57-17.31,3-26,4.19Q86,413,66.75,414.52c-13.13,1.06-26.46,1.13-39.3-2.23-2.69-.71-5.34-1.34-8-2-3.3-.79-11.74,66.79-13.53,74.26-.33,1.38.36,2.39,2.29,3.12,8.32,3.17,13.07,10.21,15.7,18.46,4.38,13.71,2.48,28.31,5.54,42.24C32.58,562.76,43,574,49.75,586.75c1.79,3.4,3,7.35,2.08,11.08"/><path class="b" d="M32.29,435.18c4.74-4.46,11.53-5.76,17.64-7.21,7-1.67,13.91-4.21,21.25-2.55,7.54,1.69,14.88,4.15,22.49,5.64,3.85.75,7.12.65,10.27-1.87a8,8,0,0,0,2.89-8.44c-.73-3.4-3.78-3.24-6.52-3-4.82.37-9.63.84-14.45,1.18-4.38.32-8.23,1.87-12.59.4-3.42-1.16-6.34-2.81-10-2.83-4.14,0-8.16,1.25-12.27,1.56-4.36.32-8.45.23-11.37,4.12S36,431.69,32.29,435.18Z"/><path class="b" d="M137.63,559.77c-1.13,5.8-5,10.05-8.48,14.41-3.85,4.78-9.91,4.07-14.31,2.74-9-2.72-19.86-7.81-28.91-10.65"/><path class="b" d="M91.06,459.77c-6.27-2.51-13-6.78-19-10.18-4.9-3.74-9.32-1.85-13.88.62-5.29,2.86-9.11,8.64-16.08,8,2.34.43,10.2.19,17.1,1.7C71,462.54,85.76,460.94,91.06,459.77Z"/><path class="b" d="M140.63,459.85c8.58,5.83,17.76,5.2,25.27-1.82,1.78-1.67,2.09-3.59,0-5.4-5.2-4.53-10.35-4.07-17-.82-4.63,2.27-7.22,6.82-11.93,8.65"/><path class="b" d="M85.3,565.64c4.29-2.93,10.76-5.33,15.08-8.18,2.93-2.15,6.81-.75,8.82,1.25,7,6.95,14,4,21.18,1a12,12,0,0,1,9.05-.56"/><path class="b" d="M173.74,421.33c-4.89,2.07-10.15-.16-15.12,1s-9,5.31-12,9.28"/><path class="b" d="M120.17,531.48c1.07-3.22,1.61-6.93-1.79-9.05-3.14-2-6.46-.13-9,1.83"/><path class="b" d="M140.06,521.75c-7.21,2.2-9,6.7-9.25,11.29"/><path class="b" d="M101,511.36c-3.91.46-7.9,2.17-10,5.49-2.26,3.52-1.59,9.49,2.84,11,3.08,1,5.36-.94,8.26-1.13"/><path class="b" d="M120.08,502.65c1.64,3.05,3.59,6.17,6.68,7.74,4.7,2.38,10.71-3.12,15.08-4.45"/><path class="b" d="M130.4,539.31c-1.59,3.48-1.14,7.18-1.2,10.83"/><path class="b" d="M139.22,558.74c-7.31-7.31-8.93-8.68-16.61-6.66-1.27.33-2.81.81-3.59.37-6.12-3.45-11.36-.19-18,4.41"/><line class="b" x1="119.74" y1="540.47" x2="118.97" y2="544.33"/><path class="c" d="M233.55,67.21c-9.29,4.26-18,9.8-24.46,17.5-8.25,9.75-12,22-12.29,34.58A84.72,84.72,0,0,1,185.13,160c-2.84,4.94-8.38,8.9-13.82,11.15-9.41,3.9-19.37,5.36-29.63,2.56a13.47,13.47,0,0,1-6-3.05c-8.56-9.19-17.25-18.06-21.72-30.56-3.37-9.44-10-17.62-16-25.8-7.9-10.8-11.14-23.23-13.87-35.91a27,27,0,0,0-1.52-5.12,217.08,217.08,0,0,1-8.3-23c-2.47-8.3.55-20.1,4.67-27.5C86.63,9,101.56,3.43,116.67,2.52c13.47-.8,27.28,1.1,40.57,3.32,34.15,5.7,64.29,29.4,77.36,61.69,5.16,12.76,6.85,27.07,7.76,40.7.62,9.24-5,15.54-11.15,21.73a96.22,96.22,0,0,1-19,14.91c-4.51,2.69-9.08,5.3-13.43,8.27-3.92,2.68-8.17,8.23-13.39,7.58"/><path class="c" d="M175.88,51.74c-3.22-.5-6.06-2.1-9.22-2.73a38.78,38.78,0,0,0-9.91-.78,20.62,20.62,0,0,0-15.63,8.31c-1.89,2.53-1.65,4.16,1.15,5.65C152.6,67.68,167.89,58,175.88,51.74Z"/><path class="c" d="M126.6,142.8c2,6.24,6.68,10.5,11.76,10.64,4.37.12,11.42-5.22,12.8-10.1a6,6,0,0,1,2.83-4c2.16-1.35,3.29-3.63,4-6.09-5.81-1.62-12.39-.11-17.49-4.9-1.23-1.16-3.6.31-4.95,2.08-2.22,2.9-5,4.12-8.37,1.71-1.87-1.32-3.4-.34-4.42,1.14a44.89,44.89,0,0,1-4.13,4.63c.63,3.86,3.1,2.34,5.15,2.84a26,26,0,0,0,13.51-.12,26.42,26.42,0,0,1,14-.1"/><path class="c" d="M126.68,56a141.18,141.18,0,0,1,2.82,32"/><path class="c" d="M85.17,42.91c4.67,2.83,10.68,2.74,15.81,1.77-2.42-7.8-6.86-8.38-19.31-1.38"/><path class="c" d="M106.44,57.69c-5.5-.31-11-1.7-16.31,1.56C87.71,60.73,86,62.14,86.32,65c.35,3.38,3.07,3,5.55,3.44,6.21,1,10.9-2.26,15.62-5.22,1.58-1,2.05-3.25.07-4.93"/><path class="c" d="M170.11,31.23c-11.59-3.21-20.74-4.75-26.88-3.52-7.17,1.44-11.56,6.48-15.24,9.68,1.52-1.32,7.66-.88,9.81-1.35A92.37,92.37,0,0,1,149,34.77c7.42-.73,13.66-3.43,21.3-3.4Z"/><path class="c" d="M108.5,53.8c3.12,9,3.36,21.17,3.8,26.89a118,118,0,0,1,.19,16.39c-.27,4.36-2.52,10-1.27,14.2.86,2.86,3.64,5,6.42,5.76"/><path class="c" d="M140,113.68c-4,2.35-7.83.11-11.78-.43-2.32-.32-4.92-.84-7.26.43"/><path class="c" d="M134.44,99.12c5.11,2.3,9.74,5,9,11.76"/><path class="c" d="M117.08,101.92c.37.38.77.73,1.12,1.13,4.11,4.76,4.2,4.76,7.84-.57"/><path class="c" d="M118.2,138.88c-.77.11-1.68-.36-2.24.56"/></svg>