<svg xmlns="http://www.w3.org/2000/svg" viewBox="0 0 329.07 132.28">
  <defs>
    <style>
      .a,.b,.d,.e{fill:none;stroke-miterlimit:10;stroke-width:7.78px}.a{stroke:#0d273f}.a,.b,.d,.e{stroke-linecap:round}.b{stroke:#3968ab}.d{stroke:#5d95cd}.e{stroke:#0a4178}.f{fill:#0d273f}
    </style>
  </defs>
  <path d="M37.44 10.4A62.39 62.39 0 0 0 3.89 55.7" class="a"/>
  <path d="M76.71 62.29c15.41-4.08 25-19.42 22.06-34.45C96 13.74 83 3.36 68.07 3.91" class="a"/>
  <path d="M127.47 62.5a61.93 61.93 0 0 0-10.34-30.92" class="a"/>
  <path d="M123.07 89c-4.74 16.29-21.54 25.45-36.45 21.26-13.12-3.68-22.33-17-21.06-31.72" class="a"/>
  <path d="M55.54 127.63a62.9 62.9 0 0 0 25.25-1.18" class="a"/>
  <path d="M21.82 110.7C7.34 96.89 7.6 75.25 19 64.32c8.57-8.2 22.94-9.89 35.41-3.78" class="a"/>
  <path d="M18.74 50.68a49.17 49.17 0 0 0 3.44 38.81" class="b"/>
  <path d="M32.24 29.89c7.16-6.62 17.69-7.73 25.53-3 8.91 5.43 12.53 17.36 7.79 27.51" class="b"/>
  <path d="M107.21 40.64a49.05 49.05 0 0 0-36-23.21" class="b"/>
  <path d="M74.94 73.88a21.19 21.19 0 0 0 38.79-15.49" class="b"/>
  <path d="M63.49 115.12c-11.42.26-21.11-8-22.56-18.73a22.06 22.06 0 0 1 13.86-23.14" class="b"/>
  <path d="M89.74 108.64a49.44 49.44 0 0 0 14.77-13.06" class="b"/>
  <circle cx="65.3" cy="66.11" r="10.9" fill="none" stroke="#3968ab" stroke-miterlimit="10" stroke-width="7.78"/>
  <path d="M88.7 62.07a23.75 23.75 0 0 0-9.41-15.14" class="d"/>
  <path d="M69.92 89.41A23.79 23.79 0 0 0 87 75.8" class="d"/>
  <path d="M66.9 42.43c-.53 0-1.07-.06-1.6-.06a23.68 23.68 0 0 0-16.24 6.42" class="d"/>
  <path d="M41.83 62.5a24 24 0 0 0-.27 3.61 23.73 23.73 0 0 0 9.87 19.28" class="d"/>
  <path d="M93.37 89a36.24 36.24 0 0 0 5.36-36.88" class="e"/>
  <path d="M35.12 86.05a36.27 36.27 0 0 0 40.23 14.86" class="e"/>
  <path d="M40.75 39.54a36.12 36.12 0 0 0-11.61 26.57q0 1.69.15 3.33" class="e"/>
  <path d="M85.42 36a36.29 36.29 0 0 0-29.88-4.74" class="e"/>
  <path d="M150.56 14.19a6.5 6.5 0 0 1 4.44 1.38 5 5 0 0 1 1.56 3.94v.88a4.92 4.92 0 0 1-.38 1.93 6.42 6.42 0 0 1-1 1.63 9.27 9.27 0 0 1-1.44 1.35q-.81.61-1.65 1.14l-2.25 1.39a8.64 8.64 0 0 0-1.19.86 3.86 3.86 0 0 0-.66.74 1.87 1.87 0 0 0-.28.7 5.49 5.49 0 0 0 0 .7v.11h8.1a.85.85 0 0 1 .65.19 1.22 1.22 0 0 1 .16.75v1.33a1.17 1.17 0 0 1-.16.74c-.1.13-.32.19-.65.19h-10.88a1.1 1.1 0 0 1-.71-.16c-.13-.1-.19-.33-.19-.68v-1.42a8.41 8.41 0 0 1 .31-2.35 7.29 7.29 0 0 1 .83-1.83 6 6 0 0 1 1.22-1.39 10.89 10.89 0 0 1 1.48-1.07l2.39-1.42c.37-.23.73-.47 1.07-.71a5.23 5.23 0 0 0 .92-.83 4.19 4.19 0 0 0 .63-1 3.42 3.42 0 0 0 .23-1.27v-.29c0-1.71-.89-2.56-2.69-2.56a2.93 2.93 0 0 0-2 .55 3.11 3.11 0 0 0-.83 1.95.73.73 0 0 1-.24.48 1.1 1.1 0 0 1-.63.13h-1.59a1.11 1.11 0 0 1-.72-.17 1.06 1.06 0 0 1-.18-.73 5.35 5.35 0 0 1 .33-1.82 4.41 4.41 0 0 1 .9-1.5 6.73 6.73 0 0 1 5.1-1.86z" class="f"/>
  <path d="M163 24.11a4.24 4.24 0 0 1-3.1-1.11 4 4 0 0 1-1.13-3v-1.55a4.25 4.25 0 0 1 1.13-3.14 4.21 4.21 0 0 1 3.1-1.12 4.32 4.32 0 0 1 3.11 1.09 4.07 4.07 0 0 1 1.12 3v1.54a4.27 4.27 0 0 1-1.11 3.18 4.21 4.21 0 0 1-3.12 1.11zm0-7.93a1.77 1.77 0 0 0-1.48.58 3 3 0 0 0-.46 1.83v1.12a3 3 0 0 0 .46 1.84 2.19 2.19 0 0 0 2.95 0 3 3 0 0 0 .46-1.84v-1.12a2.89 2.89 0 0 0-.46-1.83 1.76 1.76 0 0 0-1.47-.58z" class="f"/>
  <path d="M186.07 28.26a.75.75 0 0 1 .21-.56 1.21 1.21 0 0 1 .68-.14h1.69a1.18 1.18 0 0 1 .71.15.8.8 0 0 1 .18.6 7.45 7.45 0 0 1-.36 2.51 5.26 5.26 0 0 1-1.18 1.87q-1.84 1.91-5.6 1.9a7.57 7.57 0 0 1-3.92-1 6.12 6.12 0 0 1-2.48-2.81 6.64 6.64 0 0 1-.5-1.79 18.56 18.56 0 0 1-.14-2.64v-4.09a17.55 17.55 0 0 1 .15-2.52 9.72 9.72 0 0 1 .49-1.91 5.9 5.9 0 0 1 2.48-3 8.07 8.07 0 0 1 4.27-1q3.59 0 5.33 1.88a5.25 5.25 0 0 1 1.15 1.88 7.87 7.87 0 0 1 .33 2.44.77.77 0 0 1-.18.6 1.18 1.18 0 0 1-.71.15h-1.74a1.14 1.14 0 0 1-.69-.14.75.75 0 0 1-.24-.64 3.57 3.57 0 0 0-.84-2.52 3.69 3.69 0 0 0-2.6-.76 3.31 3.31 0 0 0-2.89 1.17 6.9 6.9 0 0 0-.84 3.93v4.71a6.8 6.8 0 0 0 .85 3.88 3.25 3.25 0 0 0 2.85 1.19 3.7 3.7 0 0 0 2.62-.81 3.5 3.5 0 0 0 .92-2.53z" class="f"/>
  <path d="M199.58 13.74a8.36 8.36 0 0 1 4.18 1 5.82 5.82 0 0 1 2.51 2.84 6.73 6.73 0 0 1 .51 1.83 20.16 20.16 0 0 1 .14 2.6v4.09a16.53 16.53 0 0 1-.16 2.51 8.43 8.43 0 0 1-.49 1.92 6.17 6.17 0 0 1-2.51 3.06 7.88 7.88 0 0 1-4.18 1 8.38 8.38 0 0 1-4.19-1 5.88 5.88 0 0 1-2.51-2.85 6.66 6.66 0 0 1-.51-1.82 20.22 20.22 0 0 1-.14-2.61v-4.05a16.53 16.53 0 0 1 .16-2.51 8.43 8.43 0 0 1 .49-1.92 6.15 6.15 0 0 1 2.51-3 7.89 7.89 0 0 1 4.19-1.09zm0 3a3.45 3.45 0 0 0-3 1.18 6.59 6.59 0 0 0-.88 3.89v4.71a6.64 6.64 0 0 0 .88 3.9 4.32 4.32 0 0 0 5.91 0 6.64 6.64 0 0 0 .88-3.9v-4.71a6.59 6.59 0 0 0-.88-3.89 3.44 3.44 0 0 0-2.91-1.18z" class="f"/>
  <path d="M213.78 20.66v12.67a.87.87 0 0 1-.18.66 1.18 1.18 0 0 1-.71.15h-1.55a1.18 1.18 0 0 1-.71-.15.87.87 0 0 1-.18-.66V15a.85.85 0 0 1 .18-.65 1.1 1.1 0 0 1 .71-.16H213a1.67 1.67 0 0 1 .77.13 1.53 1.53 0 0 1 .52.66L221 27.67V15a.85.85 0 0 1 .18-.65 1.1 1.1 0 0 1 .71-.16h1.54a1.12 1.12 0 0 1 .72.16.85.85 0 0 1 .18.65v18.33a.87.87 0 0 1-.18.66 1.2 1.2 0 0 1-.72.15h-1.62A1.81 1.81 0 0 1 221 34a1.67 1.67 0 0 1-.52-.66z" class="f"/>
  <path d="M227.82 22.26a11.93 11.93 0 0 1 .65-4.43 6 6 0 0 1 2.62-3 8.54 8.54 0 0 1 4.33-1 10.3 10.3 0 0 1 2.7.35 6.71 6.71 0 0 1 2.23 1.08 5.25 5.25 0 0 1 1.51 1.74 6 6 0 0 1 .56 2.7.61.61 0 0 1-.19.53 1.26 1.26 0 0 1-.71.14h-1.73a1.14 1.14 0 0 1-.69-.14.75.75 0 0 1-.21-.56 3 3 0 0 0-1-2.3 4.37 4.37 0 0 0-2.69-.7 5.63 5.63 0 0 0-1.76.24 2.42 2.42 0 0 0-1.19.83 3.87 3.87 0 0 0-.69 1.57 11.17 11.17 0 0 0-.23 2.46v4.71a6.45 6.45 0 0 0 .94 4 3.55 3.55 0 0 0 2.93 1.15 3.81 3.81 0 0 0 2.8-.95 4.49 4.49 0 0 0 1-3.25v-.54h-2.16a.87.87 0 0 1-.66-.18A1.18 1.18 0 0 1 236 26v-1.22a1.18 1.18 0 0 1 .15-.71.87.87 0 0 1 .66-.18h4.73a1.2 1.2 0 0 1 .72.15.87.87 0 0 1 .18.66v3.17a7.65 7.65 0 0 1-.43 2.59 5.94 5.94 0 0 1-1.33 2.14 6.22 6.22 0 0 1-2.27 1.46 9 9 0 0 1-3.23.53 8.07 8.07 0 0 1-4.3-1A6.58 6.58 0 0 1 228 29a20.06 20.06 0 0 1-.14-2.62z" class="f"/>
  <path d="M249.32 26.35v7a1 1 0 0 1-.17.65 1.13 1.13 0 0 1-.73.16h-1.57a1.11 1.11 0 0 1-.73-.16 1 1 0 0 1-.17-.65V15a.93.93 0 0 1 .17-.64 1.1 1.1 0 0 1 .73-.17h6q3.33 0 4.87 1.39c1 .92 1.54 2.4 1.54 4.44v.53c0 2.84-1.13 4.64-3.39 5.38l4.18 7.4a.93.93 0 0 1 .11.37c0 .29-.24.44-.73.44h-2.1a1.22 1.22 0 0 1-.69-.15 2.12 2.12 0 0 1-.49-.66l-3.78-7zm0-2.91h3.5a3.24 3.24 0 0 0 2.3-.66 3.13 3.13 0 0 0 .67-2.26v-.39a3.32 3.32 0 0 0-.66-2.35 3.17 3.17 0 0 0-2.31-.67h-3.5z" class="f"/>
  <path d="M275.4 33.25a1.18 1.18 0 0 1-.15.71.87.87 0 0 1-.66.18H264a1.2 1.2 0 0 1-.72-.15.87.87 0 0 1-.18-.66V15a.85.85 0 0 1 .18-.65 1.12 1.12 0 0 1 .72-.16h10.45a.87.87 0 0 1 .66.18 1.22 1.22 0 0 1 .15.72v1.23a1.22 1.22 0 0 1-.15.72.87.87 0 0 1-.66.18h-7.93v5.15h7.2c.34 0 .56.06.66.19a1.18 1.18 0 0 1 .15.71v1.23a1.2 1.2 0 0 1-.15.72.87.87 0 0 1-.66.18h-7.2v5.72h8a.87.87 0 0 1 .66.18 1.18 1.18 0 0 1 .15.71z" class="f"/>
  <path d="M281.46 29.27a2.87 2.87 0 0 0 1.09 1.81 5.25 5.25 0 0 0 4.93 0 2.48 2.48 0 0 0 .79-2.06 2.65 2.65 0 0 0-.65-1.84 4.68 4.68 0 0 0-2.07-1.18l-3-.93a6.53 6.53 0 0 1-3.18-2 4.89 4.89 0 0 1-1.11-3.2v-.25a5.44 5.44 0 0 1 1.78-4.35 7.54 7.54 0 0 1 5.06-1.54 6.76 6.76 0 0 1 5.24 1.88 4.8 4.8 0 0 1 1.18 3.25.76.76 0 0 1-.19.6 1.1 1.1 0 0 1-.71.16h-1.6a1.22 1.22 0 0 1-.7-.14.86.86 0 0 1-.22-.56c-.17-1.53-1.26-2.3-3.28-2.3s-3.08.92-3.08 2.77a2.9 2.9 0 0 0 .14 1 1.86 1.86 0 0 0 .47.75 3.85 3.85 0 0 0 .88.59 10.13 10.13 0 0 0 1.36.51l3 .93a6.05 6.05 0 0 1 3.18 2 5.37 5.37 0 0 1 1.06 3.38v.36a5.14 5.14 0 0 1-1.77 4.19 7.59 7.59 0 0 1-5 1.47q-3.81 0-5.57-1.76a5.26 5.26 0 0 1-1.08-1.63 4.65 4.65 0 0 1-.38-1.88.78.78 0 0 1 .18-.6 1.2 1.2 0 0 1 .72-.15h1.56a1.14 1.14 0 0 1 .69.14.94.94 0 0 1 .28.58z" class="f"/>
  <path d="M297.46 29.27a2.87 2.87 0 0 0 1.09 1.81 5.25 5.25 0 0 0 4.93 0 2.48 2.48 0 0 0 .79-2.06 2.65 2.65 0 0 0-.65-1.84 4.68 4.68 0 0 0-2.07-1.18l-3-.93a6.53 6.53 0 0 1-3.18-2 4.89 4.89 0 0 1-1.11-3.2v-.25a5.44 5.44 0 0 1 1.78-4.35 7.54 7.54 0 0 1 5.06-1.54 6.76 6.76 0 0 1 5.24 1.88 4.8 4.8 0 0 1 1.18 3.25.73.73 0 0 1-.19.6 1.08 1.08 0 0 1-.71.16h-1.6a1.22 1.22 0 0 1-.7-.14.92.92 0 0 1-.22-.56c-.17-1.53-1.26-2.3-3.28-2.3s-3.08.92-3.08 2.77a2.9 2.9 0 0 0 .14 1 1.86 1.86 0 0 0 .47.75 3.71 3.71 0 0 0 .89.59 9.18 9.18 0 0 0 1.36.51l3 .93a6.05 6.05 0 0 1 3.18 2 5.43 5.43 0 0 1 1.05 3.38v.36a5.14 5.14 0 0 1-1.77 4.19 7.59 7.59 0 0 1-5 1.47q-3.81 0-5.57-1.76a5.26 5.26 0 0 1-1.08-1.63 4.82 4.82 0 0 1-.38-1.88.78.78 0 0 1 .18-.6 1.2 1.2 0 0 1 .72-.15h1.57a1.13 1.13 0 0 1 .68.14.94.94 0 0 1 .28.58z" class="f"/>
  <path d="M317.78 13.74a8.36 8.36 0 0 1 4.18 1 5.77 5.77 0 0 1 2.51 2.84 6.73 6.73 0 0 1 .51 1.83 20.16 20.16 0 0 1 .14 2.6v4.09a16.53 16.53 0 0 1-.16 2.51 8.43 8.43 0 0 1-.49 1.92 6.12 6.12 0 0 1-2.47 3.03 7.88 7.88 0 0 1-4.18 1 8.38 8.38 0 0 1-4.19-1 5.88 5.88 0 0 1-2.51-2.85 7 7 0 0 1-.51-1.82 20.22 20.22 0 0 1-.14-2.61v-4.02a16.53 16.53 0 0 1 .16-2.51 8.43 8.43 0 0 1 .49-1.92 6.15 6.15 0 0 1 2.51-3 7.89 7.89 0 0 1 4.15-1.09zm0 3a3.45 3.45 0 0 0-3 1.18 6.59 6.59 0 0 0-.88 3.89v4.71a6.64 6.64 0 0 0 .88 3.9 4.32 4.32 0 0 0 5.91 0 6.64 6.64 0 0 0 .88-3.9v-4.71a6.59 6.59 0 0 0-.88-3.89 3.44 3.44 0 0 0-2.91-1.18z" class="f"/>
  <path d="M143.5 44.58a1.25 1.25 0 0 1-.05-.3c0-.34.2-.51.61-.51h2a1.05 1.05 0 0 1 .7.16 1.44 1.44 0 0 1 .31.65l4.29 14.91 4.28-14.91a1.55 1.55 0 0 1 .31-.65 1.05 1.05 0 0 1 .7-.16h1.94c.41 0 .61.17.61.51a2.19 2.19 0 0 1-.05.3l-5.69 18.64a.68.68 0 0 1-.31.42 1.52 1.52 0 0 1-.59.08h-2.49a1.52 1.52 0 0 1-.59-.08.68.68 0 0 1-.31-.42z" class="f"/>
  <path d="M173.91 62.83a1.17 1.17 0 0 1-.16.71.87.87 0 0 1-.66.18h-10.56a1.22 1.22 0 0 1-.72-.15.87.87 0 0 1-.18-.66V44.58a.85.85 0 0 1 .18-.65 1.14 1.14 0 0 1 .72-.16H173a.87.87 0 0 1 .66.18 1.22 1.22 0 0 1 .15.72v1.23a1.22 1.22 0 0 1-.15.72.87.87 0 0 1-.66.18h-7.93V52h7.2c.34 0 .56.06.66.19a1.17 1.17 0 0 1 .16.71v1.23a1.19 1.19 0 0 1-.16.72.87.87 0 0 1-.66.18h-7.2v5.67h8a.87.87 0 0 1 .66.18 1.17 1.17 0 0 1 .16.71z" class="f"/>
  <path d="M180.8 55.93v7a1 1 0 0 1-.17.65 1.1 1.1 0 0 1-.73.16h-1.57a1.08 1.08 0 0 1-.72-.16.91.91 0 0 1-.17-.65V44.58a.88.88 0 0 1 .17-.64 1.07 1.07 0 0 1 .72-.17h6q3.33 0 4.88 1.39a5.71 5.71 0 0 1 1.54 4.44v.53c0 2.84-1.13 4.64-3.39 5.38l4.17 7.4a.83.83 0 0 1 .12.37c0 .29-.25.44-.73.44h-2.11a1.2 1.2 0 0 1-.68-.15 2 2 0 0 1-.49-.66l-3.79-7zm0-2.91h3.5a3.23 3.23 0 0 0 2.3-.66 3.08 3.08 0 0 0 .67-2.26v-.39a3.32 3.32 0 0 0-.66-2.35 3.16 3.16 0 0 0-2.31-.67h-3.5z" class="f"/>
  <path d="M198 46.8h-4.9a.87.87 0 0 1-.66-.18 1.22 1.22 0 0 1-.15-.72v-1.23a1.22 1.22 0 0 1 .15-.72.87.87 0 0 1 .66-.18h13.23a.9.9 0 0 1 .67.23 1.22 1.22 0 0 1 .15.72v1.18a1.22 1.22 0 0 1-.15.72.9.9 0 0 1-.66.18h-4.91v16.11a.87.87 0 0 1-.18.66 1.18 1.18 0 0 1-.71.15h-1.63a1.18 1.18 0 0 1-.71-.15c-.13-.1-.19-.32-.19-.66z" class="f"/>
  <path d="M222 62.83a1.18 1.18 0 0 1-.15.71.88.88 0 0 1-.66.18h-10.55a1.18 1.18 0 0 1-.71-.15.87.87 0 0 1-.18-.66V44.58a.85.85 0 0 1 .18-.65 1.1 1.1 0 0 1 .71-.16h10.46a.9.9 0 0 1 .66.18 1.22 1.22 0 0 1 .15.72v1.23a1.22 1.22 0 0 1-.15.72.9.9 0 0 1-.66.18h-7.93V52h7.2a.85.85 0 0 1 .66.19 1.18 1.18 0 0 1 .15.71v1.23a1.2 1.2 0 0 1-.15.72.9.9 0 0 1-.66.18h-7.2v5.67h8a.88.88 0 0 1 .66.18 1.18 1.18 0 0 1 .15.71z" class="f"/>
  <path d="M228.89 50.24v12.67c0 .34-.06.56-.19.66a1.18 1.18 0 0 1-.71.15h-1.54a1.22 1.22 0 0 1-.72-.15.87.87 0 0 1-.18-.66V44.58a.85.85 0 0 1 .18-.65 1.14 1.14 0 0 1 .72-.16h1.62a1.61 1.61 0 0 1 .77.13 1.46 1.46 0 0 1 .52.66l6.7 12.69V44.58a.85.85 0 0 1 .18-.65 1.12 1.12 0 0 1 .72-.16h1.54a1.1 1.1 0 0 1 .71.16.85.85 0 0 1 .19.65v18.33a.86.86 0 0 1-.19.66 1.18 1.18 0 0 1-.71.15h-1.63a1.84 1.84 0 0 1-.77-.12 1.67 1.67 0 0 1-.52-.66z" class="f"/>
  <path d="M247.69 46.8h-4.9a.87.87 0 0 1-.66-.18 1.14 1.14 0 0 1-.16-.72v-1.23a1.14 1.14 0 0 1 .16-.72.87.87 0 0 1 .66-.18H256a.87.87 0 0 1 .66.18 1.21 1.21 0 0 1 .16.72v1.23a1.21 1.21 0 0 1-.16.72.87.87 0 0 1-.66.18h-4.9v16.11a.87.87 0 0 1-.18.66 1.22 1.22 0 0 1-.72.15h-1.62a1.2 1.2 0 0 1-.72-.15.87.87 0 0 1-.18-.66z" class="f"/>
  <path d="M271.68 62.83a1.1 1.1 0 0 1-.16.71.87.87 0 0 1-.66.18H260.3a1.16 1.16 0 0 1-.71-.15c-.13-.1-.19-.32-.19-.66V44.58c0-.33.06-.55.19-.65a1.08 1.08 0 0 1 .71-.16h10.45a.87.87 0 0 1 .66.18 1.22 1.22 0 0 1 .15.72v1.23a1.22 1.22 0 0 1-.15.72.87.87 0 0 1-.66.18h-7.93V52H270c.34 0 .56.06.66.19a1.1 1.1 0 0 1 .16.71v1.23a1.12 1.12 0 0 1-.16.72.87.87 0 0 1-.66.15h-7.2v5.7h8a.87.87 0 0 1 .66.18 1.1 1.1 0 0 1 .16.71z" class="f"/>
  <path d="M277.73 58.85a2.87 2.87 0 0 0 1.09 1.81 5.25 5.25 0 0 0 4.93 0 2.48 2.48 0 0 0 .79-2.06 2.65 2.65 0 0 0-.65-1.84 4.62 4.62 0 0 0-2.07-1.16l-3-.93a6.47 6.47 0 0 1-3.18-2 4.84 4.84 0 0 1-1.11-3.19v-.25a5.47 5.47 0 0 1 1.78-4.35 7.56 7.56 0 0 1 5.06-1.54 6.76 6.76 0 0 1 5.24 1.88 4.75 4.75 0 0 1 1.18 3.25.77.77 0 0 1-.18.6 1.14 1.14 0 0 1-.72.16h-1.6a1.24 1.24 0 0 1-.7-.14.92.92 0 0 1-.22-.56c-.17-1.53-1.26-2.3-3.28-2.3S278 47.13 278 49a2.9 2.9 0 0 0 .14 1 1.86 1.86 0 0 0 .47.75 3.71 3.71 0 0 0 .89.59 9.18 9.18 0 0 0 1.36.51l3 .93a6.05 6.05 0 0 1 3.18 2 5.43 5.43 0 0 1 1.05 3.38v.36a5.14 5.14 0 0 1-1.77 4.19 7.58 7.58 0 0 1-5 1.47c-2.54 0-4.39-.59-5.57-1.76a5.26 5.26 0 0 1-1.08-1.63 4.82 4.82 0 0 1-.38-1.88.78.78 0 0 1 .18-.6 1.2 1.2 0 0 1 .72-.15h1.57a1.13 1.13 0 0 1 .68.14.89.89 0 0 1 .29.55z" class="f"/>
  <path d="M303.43 43.77a8.78 8.78 0 0 1 2.45.31 7.33 7.33 0 0 1 1.9.83 5.26 5.26 0 0 1 1.39 1.2 6.25 6.25 0 0 1 .9 1.47 9.48 9.48 0 0 1 .49 1.7 14 14 0 0 1 .18 2.53v4a13.72 13.72 0 0 1-.18 2.5 8.92 8.92 0 0 1-.49 1.65 6.59 6.59 0 0 1-.84 1.44 6 6 0 0 1-1.29 1.21 6.47 6.47 0 0 1-1.78.81 8.2 8.2 0 0 1-2.31.29h-6.14a1.18 1.18 0 0 1-.71-.15c-.13-.1-.19-.32-.19-.66V44.58c0-.33.06-.55.19-.65a1.1 1.1 0 0 1 .71-.16zm-3.2 16.93h3.14a5.25 5.25 0 0 0 1.67-.24 2.74 2.74 0 0 0 1.2-.8 3.64 3.64 0 0 0 .75-1.5 9.51 9.51 0 0 0 .25-2.34v-4.15a8.51 8.51 0 0 0-.27-2.31 4.06 4.06 0 0 0-.75-1.5 2.88 2.88 0 0 0-1.21-.81 4.87 4.87 0 0 0-1.64-.25h-3.14z" class="f"/>
  <path d="M329 62.91a1.43 1.43 0 0 1 .06.31c0 .34-.21.5-.62.5h-2a1.07 1.07 0 0 1-.69-.15 1.8 1.8 0 0 1-.32-.66L324.19 59h-7.34l-1.26 4a1.59 1.59 0 0 1-.32.64 1.1 1.1 0 0 1-.69.14h-1.85c-.41 0-.62-.16-.62-.5a1.43 1.43 0 0 1 .06-.31l6.31-18.63a.59.59 0 0 1 .3-.42 1.49 1.49 0 0 1 .59-.09h2.52a1.45 1.45 0 0 1 .59.09.6.6 0 0 1 .31.42zm-11.24-6.86h5.47l-2.75-8.52z" class="f"/>
  <path d="M148.43 85.91v6.58a.87.87 0 0 1-.18.66 1.18 1.18 0 0 1-.71.15H146a1.2 1.2 0 0 1-.72-.15.87.87 0 0 1-.18-.66V74.16a.85.85 0 0 1 .18-.65 1.12 1.12 0 0 1 .72-.16h5.57a12.07 12.07 0 0 1 2.92.32 5.19 5.19 0 0 1 2.1 1 4.53 4.53 0 0 1 1.26 1.88 8.32 8.32 0 0 1 .42 2.83V80a5.56 5.56 0 0 1-1.69 4.49 7.62 7.62 0 0 1-5 1.43zm0-2.92h3.11a4.91 4.91 0 0 0 1.7-.24 2.26 2.26 0 0 0 1-.66 2.32 2.32 0 0 0 .45-1 6.28 6.28 0 0 0 .11-1.17v-.4a7.27 7.27 0 0 0-.11-1.28 2.57 2.57 0 0 0-.45-1 2.24 2.24 0 0 0-1-.7 4.66 4.66 0 0 0-1.7-.25h-3.11z" class="f"/>
  <path d="M163.59 88.43a2.84 2.84 0 0 0 1.1 1.8 4 4 0 0 0 2.38.61 4.08 4.08 0 0 0 2.55-.63 2.5 2.5 0 0 0 .78-2.06 2.64 2.64 0 0 0-.64-1.84 4.68 4.68 0 0 0-2.07-1.16l-3-.93a6.38 6.38 0 0 1-3.18-2 4.84 4.84 0 0 1-1.08-3.22v-.25a5.44 5.44 0 0 1 1.78-4.35 7.52 7.52 0 0 1 5.06-1.54 6.76 6.76 0 0 1 5.24 1.88 4.79 4.79 0 0 1 1.17 3.26.77.77 0 0 1-.18.6 1.1 1.1 0 0 1-.71.16h-1.6a1.2 1.2 0 0 1-.7-.14.92.92 0 0 1-.23-.56c-.16-1.53-1.26-2.3-3.27-2.3s-3.09.92-3.09 2.77a3.17 3.17 0 0 0 .14 1 2 2 0 0 0 .48.75 3.64 3.64 0 0 0 .88.59 10.13 10.13 0 0 0 1.36.51l3 .93a6.05 6.05 0 0 1 3.18 2 5.43 5.43 0 0 1 1.06 3.42v.36a5.17 5.17 0 0 1-1.76 4.19 7.59 7.59 0 0 1-5 1.47q-3.81 0-5.58-1.76a5.64 5.64 0 0 1-1.08-1.63 4.81 4.81 0 0 1-.37-1.88.78.78 0 0 1 .18-.6 1.18 1.18 0 0 1 .71-.15h1.57a1.14 1.14 0 0 1 .69.14.89.89 0 0 1 .23.56z" class="f"/>
  <path d="M180.49 92.49a.87.87 0 0 1-.18.66 1.18 1.18 0 0 1-.71.15H178a1.18 1.18 0 0 1-.71-.15c-.13-.1-.19-.32-.19-.66V74.16c0-.33.06-.55.19-.65a1.1 1.1 0 0 1 .71-.16h1.63a1.1 1.1 0 0 1 .71.16.85.85 0 0 1 .18.65z" class="f"/>
  <path d="M194.76 87.42a.68.68 0 0 1 .21-.56 1.21 1.21 0 0 1 .68-.14h1.68a1.2 1.2 0 0 1 .72.15.8.8 0 0 1 .18.6 7.45 7.45 0 0 1-.36 2.51 5.4 5.4 0 0 1-1.21 1.87q-1.84 1.91-5.6 1.9a7.63 7.63 0 0 1-3.93-1 6.16 6.16 0 0 1-2.46-2.85 7 7 0 0 1-.51-1.79 20.19 20.19 0 0 1-.14-2.64v-4.05a16.05 16.05 0 0 1 .16-2.52 9.07 9.07 0 0 1 .49-1.91 5.9 5.9 0 0 1 2.48-3 8.07 8.07 0 0 1 4.27-1q3.59 0 5.33 1.88a5.09 5.09 0 0 1 1.14 1.88 7.56 7.56 0 0 1 .34 2.44.78.78 0 0 1-.18.6 1.2 1.2 0 0 1-.72.15h-1.73a1.14 1.14 0 0 1-.69-.14.75.75 0 0 1-.21-.56 3.57 3.57 0 0 0-.84-2.52 3.7 3.7 0 0 0-2.61-.76 3.31 3.31 0 0 0-2.88 1.04 6.9 6.9 0 0 0-.84 3.93v4.71a6.8 6.8 0 0 0 .85 3.88 3.25 3.25 0 0 0 2.85 1.19 3.7 3.7 0 0 0 2.62-.81 3.5 3.5 0 0 0 .91-2.48z" class="f"/>
  <path d="M208.26 72.9a8.38 8.38 0 0 1 4.19 1 5.82 5.82 0 0 1 2.55 2.81 7.11 7.11 0 0 1 .51 1.83 20.16 20.16 0 0 1 .14 2.6v4.09a17.94 17.94 0 0 1-.16 2.51 8.43 8.43 0 0 1-.49 1.92 6.17 6.17 0 0 1-2.51 3.06 7.89 7.89 0 0 1-4.19 1 8.4 8.4 0 0 1-4.19-1 5.87 5.87 0 0 1-2.5-2.85 6.32 6.32 0 0 1-.51-1.82 20.22 20.22 0 0 1-.14-2.61v-4.02a16.53 16.53 0 0 1 .16-2.51 8.43 8.43 0 0 1 .49-1.92 6.13 6.13 0 0 1 2.5-3 7.91 7.91 0 0 1 4.15-1.09zm0 3a3.44 3.44 0 0 0-2.95 1.18 6.58 6.58 0 0 0-.89 3.89v4.71a6.63 6.63 0 0 0 .89 3.9 4.32 4.32 0 0 0 5.91 0 6.64 6.64 0 0 0 .88-3.9V81a6.59 6.59 0 0 0-.88-3.89 3.45 3.45 0 0 0-2.96-1.21z" class="f"/>
  <path d="M230.82 92.41a1.18 1.18 0 0 1-.15.71.88.88 0 0 1-.66.18H220a1.18 1.18 0 0 1-.71-.15.87.87 0 0 1-.18-.66V74.16a.85.85 0 0 1 .18-.65 1.1 1.1 0 0 1 .71-.16h1.63a1.1 1.1 0 0 1 .71.16.85.85 0 0 1 .18.65v16.12H230a.88.88 0 0 1 .66.18 1.18 1.18 0 0 1 .15.71z" class="f"/>
  <path d="M240.1 72.9a8.4 8.4 0 0 1 4.19 1 5.8 5.8 0 0 1 2.5 2.84 6.39 6.39 0 0 1 .51 1.83 20.16 20.16 0 0 1 .14 2.6v4.09a16.53 16.53 0 0 1-.16 2.51 8.43 8.43 0 0 1-.49 1.92 6.15 6.15 0 0 1-2.5 3.06 7.91 7.91 0 0 1-4.19 1 8.38 8.38 0 0 1-4.19-1 5.88 5.88 0 0 1-2.51-2.85 6.66 6.66 0 0 1-.5-1.82 18.56 18.56 0 0 1-.14-2.61v-4.05a18.09 18.09 0 0 1 .15-2.51 9 9 0 0 1 .49-1.91 6.15 6.15 0 0 1 2.51-3 7.89 7.89 0 0 1 4.19-1.1zm0 3a3.45 3.45 0 0 0-3 1.18 6.59 6.59 0 0 0-.88 3.89v4.71a6.64 6.64 0 0 0 .88 3.9 4.32 4.32 0 0 0 5.91 0 6.63 6.63 0 0 0 .89-3.9V81a6.58 6.58 0 0 0-.89-3.89 3.43 3.43 0 0 0-2.91-1.21z" class="f"/>
  <path d="M250.47 81.42a12 12 0 0 1 .64-4.43 6 6 0 0 1 2.62-3 8.59 8.59 0 0 1 4.33-1 10.3 10.3 0 0 1 2.7.35 6.61 6.61 0 0 1 2.24.99 5.14 5.14 0 0 1 1.51 1.87 5.91 5.91 0 0 1 .57 2.7.61.61 0 0 1-.2.53 1.22 1.22 0 0 1-.7.14h-1.74a1.16 1.16 0 0 1-.69-.14.75.75 0 0 1-.21-.56 3.05 3.05 0 0 0-1-2.3 4.39 4.39 0 0 0-2.69-.7 5.69 5.69 0 0 0-1.77.24 2.46 2.46 0 0 0-1.19.83 3.87 3.87 0 0 0-.69 1.57A11.24 11.24 0 0 0 254 81v4.71a6.38 6.38 0 0 0 .94 4 3.54 3.54 0 0 0 2.93 1.15 3.83 3.83 0 0 0 2.8-1 4.54 4.54 0 0 0 .95-3.25v-.54h-2.16a.9.9 0 0 1-.66-.18 1.18 1.18 0 0 1-.15-.71v-1.24a1.18 1.18 0 0 1 .15-.71.9.9 0 0 1 .66-.18h4.74a1.18 1.18 0 0 1 .71.15.86.86 0 0 1 .19.66V87a7.66 7.66 0 0 1-.44 2.59 5.81 5.81 0 0 1-1.33 2.14 6.22 6.22 0 0 1-2.33 1.49 9 9 0 0 1-3.22.53 8.05 8.05 0 0 1-4.3-1 6.21 6.21 0 0 1-2.4-2.82 6.59 6.59 0 0 1-.5-1.81 18.44 18.44 0 0 1-.14-2.62z" class="f"/>
  <path d="M272 92.49a.87.87 0 0 1-.18.66 1.18 1.18 0 0 1-.71.15h-1.63a1.18 1.18 0 0 1-.71-.15.87.87 0 0 1-.18-.66V74.16a.85.85 0 0 1 .18-.65 1.1 1.1 0 0 1 .71-.16h1.63a1.1 1.1 0 0 1 .71.16.85.85 0 0 1 .18.65z" class="f"/>
  <path d="M291.21 92.49a1.43 1.43 0 0 1 .06.31c0 .34-.21.5-.62.5h-2a1.05 1.05 0 0 1-.69-.15 1.8 1.8 0 0 1-.32-.66l-1.29-3.95h-7.34l-1.26 4a1.59 1.59 0 0 1-.32.64 1.1 1.1 0 0 1-.69.14h-1.85c-.41 0-.62-.16-.62-.5a1.43 1.43 0 0 1 .06-.31l6.3-18.63a.63.63 0 0 1 .31-.42 1.49 1.49 0 0 1 .59-.09h2.52a1.49 1.49 0 0 1 .59.09.63.63 0 0 1 .31.42zM280 85.63h5.47l-2.75-8.52z" class="f"/>
  <path d="M152.67 114.71c0-.15.11-.22.28-.22h.39a.25.25 0 0 1 .28.28 3.26 3.26 0 0 1-.11.79 4.6 4.6 0 0 1-.28.77 3.44 3.44 0 0 1-1.58 1.64 5.47 5.47 0 0 1-2.57.57 4.51 4.51 0 0 1-3.57-1.39 6.16 6.16 0 0 1-1.2-4.14v-4a6.05 6.05 0 0 1 1.23-4.12 4.57 4.57 0 0 1 3.63-1.4 4.17 4.17 0 0 1 4.12 2.21 2.69 2.69 0 0 1 .25.71 4.78 4.78 0 0 1 .08.84.26.26 0 0 1-.28.29H153c-.17 0-.27-.08-.28-.23a3.21 3.21 0 0 0-1-2.19 3.74 3.74 0 0 0-2.46-.74 3.48 3.48 0 0 0-2.9 1.17 5.8 5.8 0 0 0-.93 3.61v3.72a5.81 5.81 0 0 0 .91 3.61 3.37 3.37 0 0 0 2.83 1.17 3.82 3.82 0 0 0 2.51-.75 3.16 3.16 0 0 0 .99-2.2z" class="f"/>
  <path d="M160.7 103.48q4.81 0 4.82 5.52v4a6.11 6.11 0 0 1-1.22 4.14 4.55 4.55 0 0 1-3.6 1.39c-3.2 0-4.79-1.84-4.79-5.53v-4a6.15 6.15 0 0 1 1.2-4.13 4.48 4.48 0 0 1 3.59-1.39zm0 .89a3.42 3.42 0 0 0-2.86 1.14 5.92 5.92 0 0 0-.9 3.64v3.72a5.87 5.87 0 0 0 .9 3.63 3.39 3.39 0 0 0 2.86 1.15 3.45 3.45 0 0 0 2.88-1.15 5.86 5.86 0 0 0 .91-3.63v-3.72a5.92 5.92 0 0 0-.91-3.64 3.47 3.47 0 0 0-2.88-1.14z" class="f"/>
  <path d="M169.3 105.44v12.49a.24.24 0 0 1-.28.28h-.36c-.19 0-.29-.09-.29-.28v-13.84a.26.26 0 0 1 .29-.29h.48a.38.38 0 0 1 .35.18l7.36 12.61v-12.5a.26.26 0 0 1 .29-.29h.36c.19 0 .28.1.28.29v13.84a.24.24 0 0 1-.28.28h-.5a.36.36 0 0 1-.34-.18z" class="f"/>
  <path d="M179.89 104.27a.94.94 0 0 1-.06-.18.35.35 0 0 1 0-.12c0-.11.06-.17.2-.17h.57a.3.3 0 0 1 .3.25l4.05 12.79 4.05-12.79a.3.3 0 0 1 .3-.25h.51c.13 0 .2.06.2.17v.12a1.89 1.89 0 0 0-.06.18L185.56 118a.32.32 0 0 1-.31.24h-.69a.3.3 0 0 1-.3-.24z" class="f"/>
  <path d="M200 117.93c0 .19-.1.28-.29.28h-7.45a.23.23 0 0 1-.26-.21v-13.91a.26.26 0 0 1 .28-.29h7.29c.19 0 .28.1.28.29v.32a.24.24 0 0 1-.28.28H193v5.67h6.12a.25.25 0 0 1 .28.28v.36a.25.25 0 0 1-.28.28H193v6.07h6.7a.26.26 0 0 1 .29.29z" class="f"/>
  <path d="M203.87 112.3v5.63a.24.24 0 0 1-.28.28h-.45a.24.24 0 0 1-.28-.28v-13.84c0-.19.09-.29.28-.29h3.93q4.34 0 4.33 4.07v.35a4 4 0 0 1-1.09 3 4.55 4.55 0 0 1-3.24 1zm0-7.61v6.72H207a3.74 3.74 0 0 0 2.6-.76 3.18 3.18 0 0 0 .82-2.43v-.35a3.18 3.18 0 0 0-.81-2.42 3.77 3.77 0 0 0-2.61-.76z" class="f"/>
  <path d="M221.68 103.8a4 4 0 0 1 2.88.94 3.46 3.46 0 0 1 1 2.67v.3a3.89 3.89 0 0 1-.67 2.26 7.34 7.34 0 0 1-2.19 1.91L221 113a8.64 8.64 0 0 0-1.24.89 3.85 3.85 0 0 0-1.29 2.08 6 6 0 0 0-.14 1.33h7a.26.26 0 0 1 .29.29v.34a.26.26 0 0 1-.29.29h-7.65c-.19 0-.28-.1-.28-.29v-.65a7.17 7.17 0 0 1 .16-1.6 4.46 4.46 0 0 1 .53-1.32 4.58 4.58 0 0 1 1-1.13 11.24 11.24 0 0 1 1.47-1.07l1.72-1a7.75 7.75 0 0 0 1.12-.8 4.94 4.94 0 0 0 .74-.81 2.67 2.67 0 0 0 .41-.87 3.58 3.58 0 0 0 .13-1v-.12a2.48 2.48 0 0 0-2.77-2.75 3.76 3.76 0 0 0-2.24.57 2.74 2.74 0 0 0-1 1.8c0 .14-.05.22-.09.25a.38.38 0 0 1-.23 0h-.34a.33.33 0 0 1-.23-.06.38.38 0 0 1-.06-.25 2.86 2.86 0 0 1 .16-.82 3.48 3.48 0 0 1 .39-.82 3.26 3.26 0 0 1 1.42-1.22 5 5 0 0 1 1.99-.46z" class="f"/>
  <path d="M232.12 118.5q-4.37 0-4.37-5.38v-3.94a6.21 6.21 0 0 1 1.11-4 4 4 0 0 1 3.26-1.35q4.38 0 4.38 5.38v3.94q0 5.36-4.38 5.35zm0-13.77a2.92 2.92 0 0 0-2.55 1.1 6.22 6.22 0 0 0-.79 3.54V113a6.2 6.2 0 0 0 .79 3.53 3.48 3.48 0 0 0 5.09 0 6.06 6.06 0 0 0 .8-3.52v-3.59a6.08 6.08 0 0 0-.8-3.53 2.91 2.91 0 0 0-2.54-1.16z" class="f"/>
  <path d="M241.47 117.91c0 .19-.09.29-.28.29h-.44a.26.26 0 0 1-.29-.29V105h-2.77c-.19 0-.28-.1-.28-.29v-.34c0-.19.09-.29.28-.29h3.5c.19 0 .28.1.28.29z" class="f"/>
  <path d="M248.6 103.8a4.51 4.51 0 0 1 3 .93 3.23 3.23 0 0 1 1.09 2.62v.46a3.44 3.44 0 0 1-.55 2 3.07 3.07 0 0 1-1.58 1.2 3.44 3.44 0 0 1 1.84 1.24 3.48 3.48 0 0 1 .63 2.12v.48a3.33 3.33 0 0 1-1.17 2.73 6.19 6.19 0 0 1-6.64 0 3.35 3.35 0 0 1-1.15-2.74v-.48a3.44 3.44 0 0 1 .62-2.1 3.48 3.48 0 0 1 1.84-1.24 3.09 3.09 0 0 1-2.1-3.17v-.46a3.24 3.24 0 0 1 1.09-2.6 4.5 4.5 0 0 1 3.08-.99zm-3.48 10.86q0 2.91 3.46 2.91t3.48-2.91v-.28q0-2.94-3.48-2.94t-3.46 2.94zm3.48-9.93c-2.08 0-3.12.92-3.12 2.77v.25c0 1.85 1 2.77 3.12 2.77s3.11-.92 3.11-2.77v-.25c0-1.85-1.03-2.77-3.11-2.77z" class="f"/>
</svg>
