<svg xmlns="http://www.w3.org/2000/svg" viewBox="0 0 54 48"><title>trabalho</title><path d="M32.86,2.05A1.15,1.15,0,0,1,34,3.19V44.81A1.15,1.15,0,0,1,32.86,46H3.14A1.15,1.15,0,0,1,2,44.81V3.19A1.15,1.15,0,0,1,3.14,2.05H32.86m0-2H3.14A3.15,3.15,0,0,0,0,3.19V44.81A3.15,3.15,0,0,0,3.14,48H32.86A3.15,3.15,0,0,0,36,44.81V3.19A3.15,3.15,0,0,0,32.86.05Z" fill="#0d273f"/><path d="M41.86,2.05A1.15,1.15,0,0,1,43,3.19V44.81A1.15,1.15,0,0,1,41.86,46H12.14A1.15,1.15,0,0,1,11,44.81V3.19a1.15,1.15,0,0,1,1.14-1.14H41.86m0-2H12.14A3.15,3.15,0,0,0,9,3.19V44.81A3.15,3.15,0,0,0,12.14,48H41.86A3.15,3.15,0,0,0,45,44.81V3.19A3.15,3.15,0,0,0,41.86.05Z" fill="#0d273f"/><rect x="19" y="1" width="34" height="46" rx="2.14" ry="2.14" fill="#fff"/><path d="M50.86,2A1.15,1.15,0,0,1,52,3.14V44.86A1.15,1.15,0,0,1,50.86,46H21.14A1.15,1.15,0,0,1,20,44.86V3.14A1.15,1.15,0,0,1,21.14,2H50.86m0-2H21.14A3.15,3.15,0,0,0,18,3.14V44.86A3.15,3.15,0,0,0,21.14,48H50.86A3.15,3.15,0,0,0,54,44.86V3.14A3.15,3.15,0,0,0,50.86,0Z" fill="#0d273f"/><line x1="27" y1="7" x2="48" y2="7" fill="none" stroke="#0d273f" stroke-linecap="round" stroke-miterlimit="10" stroke-width="2"/><line x1="24" y1="11" x2="48" y2="11" fill="none" stroke="#0d273f" stroke-linecap="round" stroke-miterlimit="10" stroke-width="2"/><line x1="24" y1="15" x2="48" y2="15" fill="none" stroke="#0d273f" stroke-linecap="round" stroke-miterlimit="10" stroke-width="2"/><line x1="24" y1="19" x2="45" y2="19" fill="none" stroke="#0d273f" stroke-linecap="round" stroke-miterlimit="10" stroke-width="2"/><line x1="27" y1="23" x2="48" y2="23" fill="none" stroke="#0d273f" stroke-linecap="round" stroke-miterlimit="10" stroke-width="2"/><line x1="24" y1="27" x2="48" y2="27" fill="none" stroke="#0d273f" stroke-linecap="round" stroke-miterlimit="10" stroke-width="2"/><line x1="24" y1="31" x2="48" y2="31" fill="none" stroke="#0d273f" stroke-linecap="round" stroke-miterlimit="10" stroke-width="2"/><line x1="24" y1="35" x2="48" y2="35" fill="none" stroke="#0d273f" stroke-linecap="round" stroke-miterlimit="10" stroke-width="2"/><line x1="24" y1="39" x2="36" y2="39" fill="none" stroke="#0d273f" stroke-linecap="round" stroke-miterlimit="10" stroke-width="2"/></svg>