<svg xmlns="http://www.w3.org/2000/svg" viewBox="0 0 127.25 167.02">
  <g fill="#0073ab">
    <path d="M90.32 138.49v27.94h-5v-21.7h-.31c-.4 1.54-.82 3.09-1.21 4.64q-2.07 8.22-4.12 16.43a.83.83 0 0 1-1 .74h-3.63c-.68 0-.94-.22-1.1-.85q-1.71-6.9-3.46-13.8l-1.8-7.11h-.26c0 .35-.08.71-.08 1.07v19.51c0 .91-.23 1.26-1.17 1.18a27.85 27.85 0 0 0-3 0c-.62 0-.87-.23-.84-.82v-25.91c0-1.32 0-1.32 1.34-1.32h6.06a.94.94 0 0 1 1.12.82c1.38 5.34 2.81 10.66 4.23 16a7.56 7.56 0 0 0 .91 2.19c.23-.78.48-1.56.68-2.35 1.38-5.23 2.77-10.46 4.1-15.7.19-.71.44-1 1.2-1 2.4.07 4.79.04 7.34.04zM27.58 138.55H33v15.75a38.53 38.53 0 0 1-.31 5 7.91 7.91 0 0 1-6.69 7.31 19.68 19.68 0 0 1-8.23-.05c-4.24-.95-6.67-3.77-6.83-8.34-.24-6.43-.17-12.86-.23-19.29a1.51 1.51 0 0 1 .11-.43h4.77c.19 0 .5.56.51.87.05 1.48 0 3 0 4.45 0 4.27.09 8.55.08 12.83 0 4.43 3.15 6.06 6.85 5.61 3.07-.37 4.36-2 4.4-5.24.07-5.79.07-11.58.11-17.37zM44.76 166.5H39.9c-.19 0-.5-.39-.53-.63a12.18 12.18 0 0 1 0-1.71V139.8c0-1 .23-1.32 1.28-1.31 5.63.06 11.25 0 16.88 0h1v4c0 .17-.6.44-.92.44H46.39c-1.51 0-1.51 0-1.52 1.55 0 1.38.05 2.76 0 4.14 0 1 .27 1.31 1.25 1.29 3.1-.05 6.2 0 9.3 0 1 0 1.36.25 1.27 1.25a12.5 12.5 0 0 0 0 2.12c.06.82-.25 1.12-1.09 1.11h-9.4c-1 0-1.35.28-1.33 1.32-.07 3.55-.11 7.09-.11 10.79zM116.53 138.64v3.83c0 .2-.55.52-.84.52h-6.17c-1.36 0-1.36 0-1.36 1.41v20.51c0 1.56 0 1.56-1.6 1.56-.91 0-1.83-.07-2.73 0s-1.1-.29-1.1-1.15v-20.51c0-2.08.22-1.83-1.83-1.84h-5.56c-.75 0-1-.23-1-1v-2.83c0-.49.15-.73.7-.73h21.11a1.42 1.42 0 0 1 .38.23zM63.57 127.24a63.62 63.62 0 1 1 63.68-63 63.62 63.62 0 0 1-63.68 63zm0-9.54A54.06 54.06 0 1 0 9.58 63.5a54.12 54.12 0 0 0 53.95 54.2z"/>
    <path d="M63.69 45.91a17.71 17.71 0 1 1-17.78 17.15 17.69 17.69 0 0 1 17.78-17.15zm0 7.79a10 10 0 1 0 9.92 10 9.9 9.9 0 0 0-9.94-10zM92.57 29.22H34.73c15.36-13.8 41.33-14.49 57.84 0zM28.13 36v55.12c-11.57-13.74-13.79-37.73 0-55.12zM99.16 36a44.84 44.84 0 0 1 0 55.17zM89.73 100.23c-15.19 11.29-37.3 11.11-52.21 0zM37 56.23v-18c0-1 .23-1.26 1.22-1.26h16.84C45.81 40.5 39.94 46.85 37 56.23zM72.21 37h17.27c.64 0 .78.28.78.86v18.36C87.35 46.87 81.45 40.5 72.21 37zM54.2 90.22H38.04c-.56 0-1 .06-1-.79 0-6 0-12 .07-18.08a28.7 28.7 0 0 0 6.41 11.41 31 31 0 0 0 10.68 7.46zM72.52 90.22c9.09-3.55 14.84-9.84 17.73-19.11V89.3c0 .7-.21.94-.91.93-5.51-.02-11.03-.01-16.82-.01z"/>
  </g>
</svg>
