<svg xmlns="http://www.w3.org/2000/svg" viewBox="0 0 285.51 322.24"><defs><style>.a{fill:#cf3d4a;}.b{fill:#eb5f3d;}.c{fill:#d79e1b;}.d{fill:#00772f;}.e{fill:#12508a;}.f{fill:#4b2453;}.g{fill:#fff;stroke:#063f20;stroke-linecap:round;stroke-linejoin:round;stroke-width:2.67px;}.h{fill:#063f20;}</style></defs><title>cartaz-6</title><path class="a" d="M266.05,127.65l-14-.89c-2.78-26.69-2.14-58.26-20.1-80a114.21,114.21,0,0,0-16-16.44c-7.29-5.88-15.07-8.52-23.93-11-20.63-5.79-41-10-62.08-8.92C98.45,12.11,58,22.94,42.57,54A163.52,163.52,0,0,0,29.69,89.49c-3.26,13.74-5,28.72-7.11,43.12-6.73.45-11.58.7-13.21.65-.56-3.23.91-7.88,1.38-11.18q.81-5.67,1.64-11.32c1.16-7.74,2.34-15.6,4.09-23.09C20,72.51,24.9,58.11,33,45.24,42.05,30.77,57.59,18,73.86,11.3c38-15.64,77.53-13,117.49-4.47,8.84,1.87,18.81,4.66,26.7,9.26,7.74,4.51,14.74,10.73,20.94,17.06,6.52,6.66,13.17,13.41,16,22.25,4.93,15.28,6.09,32.21,8.07,48.63C263.35,106.22,266.05,127.65,266.05,127.65Z"/><path class="b" d="M252.06,126.76l-15-1q-2-16.19-4.18-32.34c-1.18-8.61-1.87-17.27-5.28-25.11-9.26-21.3-29.71-35.69-51.61-41.68-14-3.83-28.92-7-43.29-6C113.5,22,95.85,25.91,79.44,36,65.7,44.42,54.52,59.84,49.23,74.88,43,92.77,40.36,112.21,37.67,131.55c-5.57.41-10.73.78-15.09,1.06,2.11-14.4,3.85-29.38,7.11-43.12A163.52,163.52,0,0,1,42.57,54C58,23,98.45,12.11,129.93,10.44c21-1.12,41.45,3.13,62.08,8.92,8.86,2.48,16.64,5.12,23.93,11A114.21,114.21,0,0,1,232,46.8C249.92,68.5,249.28,100.07,252.06,126.76Z"/><path class="c" d="M237.09,125.81l-15.43-1c-1-12.4-1.71-24.88-3.87-36.79A70.6,70.6,0,0,0,200,53.17C186,38.35,162.41,33.5,143.32,32.3,126.87,31.27,112,33.43,97,40,85.28,45.11,74.33,54.81,68.26,66.65c-10,19.49-12.71,42.15-15.5,63.78l-15.09,1.12C40.36,112.21,43,92.77,49.23,74.88c5.29-15,16.47-30.46,30.21-38.9,16.41-10.07,34.06-14,53.29-15.33,14.37-1,29.28,2.2,43.29,6,21.9,6,42.34,20.38,51.61,41.68,3.41,7.84,4.1,16.5,5.28,25.11Q235.13,109.61,237.09,125.81Z"/><path class="d" d="M221.66,124.83l-15.75-1c-1.93-22.17-3.26-48.92-20.14-65.27-8.83-8.56-21.19-12.38-33.08-14.48C122.75,38.8,85.43,50.7,75.3,81.5c-5.07,15.42-7,31.47-8.88,47.9-4.5.35-9.12.69-13.66,1,2.79-21.63,5.51-44.29,15.5-63.78C74.33,54.81,85.28,45.11,97,40c15-6.55,29.86-8.71,46.31-7.68C162.41,33.5,186,38.35,200,53.17A70.6,70.6,0,0,1,217.79,88C220,100,220.7,112.43,221.66,124.83Z"/><path class="e" d="M205.91,123.82q-9.45-.6-18.9-1.2c-.79-12.64-1.57-24.29-5.18-35.78C178.27,75.52,169,65,157.66,59.62c-13.95-6.61-32.14-6-44.84,2.14C101.37,69.08,94.09,82.22,91,95.57c-2.45,10.53-3.73,21.6-4.77,32.37-5.95.43-12.75.93-19.79,1.46C68.33,113,70.23,96.92,75.3,81.5c10.13-30.8,47.45-42.7,77.39-37.43,11.89,2.1,24.25,5.92,33.08,14.48C202.65,74.9,204,101.65,205.91,123.82Z"/><path class="f" d="M187,122.62c-7.43-.47-21.28-.19-22.3-1.41-1.69-2-.6-19.48-2-28.86-1.33-8.65-8.66-18.88-17.33-21.3-9.27-2.58-21.7,3.17-27.64,10-10.2,11.71-12,30.65-10.93,45.75,0-.26-8.55.28-20.56,1.15,1-10.77,2.32-21.84,4.77-32.37,3.11-13.35,10.39-26.49,21.84-33.81,12.7-8.13,30.89-8.75,44.84-2.14C169,65,178.27,75.52,181.83,86.84,185.44,98.33,186.22,110,187,122.62Z"/><path class="g" d="M70.08,220.46l9.52,0c.69.4-.41,14.1-.42,15.71,0,5.69.15,11.46.32,17.06.28,9.52-.6,20.7,4,29.06.72,1.32,2.1,2.56,3.45,2.22s2.09-2,2.6-3.43c6-17,6-35.67,6.88-53.58.18-3.34.1-8.24.1-8.24l12.19,1.1c-1.42,19.66-3,39.55-4.08,59-.61,11.49-1.88,28-11.94,34.43-2.75,1.76-6.47,1.72-9.76,1.27-2.89-.39-6.11-1.13-8.3-3.06-6.69-5.86-7-17.7-7.58-26.5-.74-10.9-.51-22.34-.22-33.3.28-10.55.41-21.27.62-31.9Z"/><path class="g" d="M36.14,309.87H69.25c.34-9.41.51-14.12.88-23.53,0,0-14.65-3.13-16.65-2.45.71-4.42,1.07-6.63,1.79-11L69.85,272s-.69-18.89-.52-21.33l-13.77-.12c.33-4.17.5-6.25.84-10.41l12.78-.75q.1-15.27.23-30.52l-28.15,1.29C40.09,224,38.8,238,38.47,251.78,38,271.06,37,290.52,36.14,309.87Z"/><path class="g" d="M1.33,275.1c1.43,4.81.21,10.6.85,15.9,1.16,9.49,6.9,19.75,16.55,22,8.93,2.11,14.32-7.29,16.84-16.56,2.91-10.74,5.13-22.6,3-33.41-.61-3.1-.87-6.54-2.42-9.37-1-1.78-2.6-3.21-4.37-3.21s-3.49,1.64-4.28,3.6c-1.06,2.61-3.71,20.22-7.83,9.72-3.13-8-4.8-21.46.38-27.86,3.6-4.45,5.57,7.36,5.61,10.18l11.44-.4s1-15.6.27-18.94c-2.17-10.23-13.88-11.24-20.55-7.93-14.71,7.32-15.5,29.33-14.36,43.67.25,3.2,1.32,6.08,4,7.32,3.62,1.67,6.2-1.5,9.44-1a4.29,4.29,0,0,1,2.54,2.1c3.37,5.12,4.32,14.86,3.61,20.82A7.43,7.43,0,0,1,21,295.24c-1.49,2-4.43,1.45-6.29-.33a19.19,19.19,0,0,1-5.42-11.16c-.14-1.29-.88-10.41.59-10.79Z"/><path class="g" d="M169,254.78a94.19,94.19,0,0,0-2.7-20.72c-2.45-9.9-4.65-17.26-14.74-18.17a20.94,20.94,0,0,0-11.92,2,23.47,23.47,0,0,0-8.09,7.75c-7.07,10.73-8.8,24.58-10.21,37.23-.3,2.68-.53,5.41-.57,8.13a99.8,99.8,0,0,0,2.56,22.55c2.14,9.74,6.34,21.85,17.9,23.57,3.71.56,7.68.67,11.18-1.27,5.47-3.05,9.56-10.86,11.12-17.69C166.75,284,169.28,269.38,169,254.78ZM146.18,282c-3.22,2.11-6.46-4-6.82-7.85a96.33,96.33,0,0,1-.38-13.5,44.35,44.35,0,0,1,1.45-9.84c.84-2.85,3.41-8.25,6.51-7.83,3.62.5,4.49,7.12,4.77,10.46C152.46,262.43,153.07,277.53,146.18,282Z"/><path class="g" d="M153.5,231.56s8.1-12.46,8.09-11.55,3.57,6.58,3.57,6.58c-3,4.12-4.54,6.18-7.54,10.31C156,234.76,155.16,233.7,153.5,231.56Z"/><path class="g" d="M283.4,261.47c-.91-10.93-1.31-23.75-7.63-33.24-6.17-9.27-17.41-12-27.95-9.76-10.17,2.2-17.62,10.78-19.49,20.94-1.78,9.69-1.72,20.38-1.45,30.11.19,6.88-.07,15.8,1.15,23.64.86,5.5,2.6,10.53,5.2,14.06,4.94,6.68,15.68,15.23,24.2,13.45,12.62-2.64,23.05-17.13,25.61-30.23C284.83,281.26,284.16,270.56,283.4,261.47ZM258.62,285.2c-.37,1.06-.87,2.25-1.78,2.61a1.79,1.79,0,0,1-1.87-.5c-1.49-1.37-1.79-3.92-2-6.25q-.9-10.32-1.84-20.64c-.12-1.32-.24-2.65-.25-4a18.55,18.55,0,0,1,.16-2.88c1.18-8.38,8.4-9.71,11.15-2.63a23.43,23.43,0,0,1,1.07,9A86.7,86.7,0,0,1,258.62,285.2Z"/><path class="g" d="M215.73,244.18a14.73,14.73,0,0,0,3.61-2c6.17-5,9-25.62-4.42-21.92a18.53,18.53,0,0,0-6.17,3.56,23,23,0,0,0-5.28,5.62c-2.47,3.89-3.06,8.62-.76,12.37C205.46,246.29,211.44,246,215.73,244.18Z"/><path class="g" d="M204.77,290.6c0,9.94.28,19.87.44,29.8l20-1q2.79-40.23,5.64-80.46c-10.41,2.67-15.6,4-25.93,6.69Q204.86,268.09,204.77,290.6Z"/><path class="g" d="M206.67,244.61c-4.69-12.4-15.8-27.2-29.11-28.5a35,35,0,0,0-6.09-.09q-2,31.66-3.89,63.35-1.1,18.4-2.15,36.82a32.91,32.91,0,0,0,5.08-.8,51.77,51.77,0,0,0,15.79-6c7.75-4.71,14.87-14.16,18.38-21.92C210.85,273.83,212.33,259.61,206.67,244.61Zm-16.19,19.13c-1.11,9.47-9.45,14.34-9.45,14.34,1-11.12,1.57-16.68,2.64-27.79A13.47,13.47,0,0,1,190.48,263.74Z"/><path class="h" d="M49.53,162.44l25.65-2.92c.26-11.27-.66-24.59-7.88-32.91-6.84-7.87-19.47-9.12-29.53-6.4-13.67,3.68-24.48,15.27-28.62,28.57A97.87,97.87,0,0,0,5.48,190c1.06,8.22,3.36,17.51,8.75,23.67,6.4,7.33,17.51,8.27,25.74,7.66a73.68,73.68,0,0,0,17-3.7c4.91-1.59,9.86-2.85,13.36-7.52,5.12-6.83,6.49-16.25,6.59-25,0-1.64-1.18-19,.28-19.11l-28.35,2s-.13,10.61-.86,14.4c-.84,4.36-5.68,8.48-9.25,4.58-1.57-1.72-2.2-4.25-2.58-6.67-1.31-8.31-1.54-17.91,3.29-24.76,1.68-2.39,4.09-2.8,6.28-.56C46.37,155.57,49.16,162.48,49.53,162.44Z"/><path class="h" d="M82.08,118.26c-1.67,12.13-1.25,24.68-1.83,36.8q-.81,17.15-.56,34.3c.13,9.69-.54,22.75,7.5,29.12,2.94,2.32,7,3.17,10.73,3.63a69.76,69.76,0,0,0,21.34-.42c5.93-1.1,13.8-2.83,18.54-7.14,9.94-9,9.8-24.28,10-36.78.42-20.75,3.32-42.45,1.49-62.93a15.56,15.56,0,0,0-.33-2.2s-24.87,2.53-27.71,1.26c1,.43.41,15.24.45,17,.14,5.42.26,10.85.23,16.28,0,8.05-.17,16.17-1.47,24.15-.63,3.83-3.08,19.29-8.16,11.44-1.26-1.95-1.38-4.54-1.45-7-.61-20.3-1.15-40.55-.6-60.87Z"/><path class="h" d="M197.4,175c8.7-7.1,14.75-18.36,14.08-29.68-.77-13.32-11.6-28.35-24.17-29.93-11.07-1.4-24.29-.88-36.44-1.24,1.71,34.15,3.36,70.87-1.17,104.8,0,0,18,.29,21.69.47q.95-17.7,1.91-35.38,8.85,17.73,17.4,35.62l22.55-1.4Q205.47,196.53,197.4,175Zm-9.08-31.35c-.4,3.15-3.49,6.82-6.51,6.92-1.93.07-10.43-1.17-10.43-1.17.38-6.71.57-10.07.94-16.78,4.77.4,10.39-.08,13.81,3.94A9.33,9.33,0,0,1,188.32,143.6Z"/><path class="h" d="M211.43,115.46c3,33.24,10.13,71.45,4.12,104.5l62.35.87q-1-14.55-2.1-29.09l-27.65-.57c.11-6.45.16-9.68.26-16.12l29-.08C276.5,164.19,276,158.8,275,148l-29.31,1.58c-.23-4.85-.36-7.28-.6-12.14l24.12-.19c-.6-8.13-.9-12.19-1.53-20.31Z"/></svg>