<svg xmlns="http://www.w3.org/2000/svg" viewBox="0 0 370.7 275"><defs><style>.a{fill:#007f48;}.b{fill:#063f20;}</style></defs><title>cartaz-8</title><path class="a" d="M133.5,104.1a112.7,112.7,0,0,1,.7,45.9l7.3,2,.4-2.5c.9-4.7-6.3-6.7-7.2-2l-.5,2.5c-.8,4.7,6.4,6.7,7.3,2a122.8,122.8,0,0,0-.8-49.8c-1-4.7-8.2-2.8-7.2,1.9Z"/><path class="a" d="M134.5,105.1l22.3,46.1c2.1,4.3,8.5.6,6.5-3.8l-22.4-46.1c-2.1-4.3-8.5-.5-6.4,3.8Z"/><path class="a" d="M165.3,151.4a118.4,118.4,0,0,0,5.1-55.7c-.7-4.7-7.9-2.7-7.2,2a110.9,110.9,0,0,1-5.1,51.7c-1.6,4.5,5.7,6.5,7.2,2Z"/><path class="a" d="M171.7,85c-.6-2.5,10.7.7,11.9,1.1,3.9,1.4,7.8,2.8,11.9,2.8,6.3-.1,11.7-3.4,13.7-9.4s-5.7-6.5-7.2-2c-3.1,9.1-19.3-.2-25.3-.8s-14,2.6-12.2,10.3c1.1,4.7,8.3,2.7,7.2-2Z"/><path class="a" d="M180.2,96.2c-2.2,17.3-3.8,36.2-11.5,52.1-2.1,4.4,4.4,8.2,6.5,3.8,8.3-17.2,10.1-37.1,12.5-55.9.6-4.8-6.9-4.7-7.5,0Z"/><path class="a" d="M178.1,133.2h21.8a3.8,3.8,0,0,0,3.2-5.7l-.3-.6c-2.2-4.3-8.7-.5-6.5,3.8l.4.6,3.2-5.6H178.1c-4.8-.1-4.8,7.4,0,7.5Z"/><path class="a" d="M180,96.3a171.6,171.6,0,0,1,18.1,53c.8,4.7,8,2.7,7.2-2a174.8,174.8,0,0,0-18.9-54.8c-2.3-4.3-8.7-.5-6.4,3.8Z"/><path class="a" d="M225.3,86.4c-13.5,2-21.4,17.5-23.3,29.6s2.5,26.6,13.9,33.3,25.3,3.4,32-7.3,6.9-27.6,1.6-38.4c-7.1-14.1-24.3-18.7-38-11.7-4.3,2.2-.5,8.7,3.8,6.5a20.2,20.2,0,0,1,29.3,14.2c2.2,10.7,1.1,28.4-11.6,31.9s-22.8-7.7-23.9-19.4,5.2-29.6,18.2-31.5c4.7-.6,2.7-7.9-2-7.2Z"/><path class="b" d="M10.8,6.2,74.8,5c3.2-.1,3.2-5.1,0-5l-64,1.2c-3.2.1-3.2,5.1,0,5Z"/><path class="b" d="M35.6,5.9a297.4,297.4,0,0,1-3.2,68.6l4.9.7V72.5c.2-3.2-4.8-3.2-5,0v2.7c-.2,2.7,4.4,3.4,4.9.6A302.9,302.9,0,0,0,40.6,5.9c-.2-3.2-5.2-3.2-5,0Z"/><path class="b" d="M62.7,27l-.4-1.1c-1.1-3-5.8-1.8-4.9,1.3a97,97,0,0,1,3.9,38.6h5V63c0-3.2-5-3.2-5,0v2.8c0,3.3,4.7,3.2,5,0a103.6,103.6,0,0,0-4-39.9l-4.9,1.3.4,1.1c1.1,3,5.9,1.7,4.9-1.3Z"/><path class="b" d="M60.2,28.4a39.7,39.7,0,0,1,11.3-2.2,27.9,27.9,0,0,1,5,.2c3.2.4,3.9.1,4.8,3.6s.5,3.2-1.7,5a30.8,30.8,0,0,1-4.8,3.2,30.8,30.8,0,0,1-11.1,3.2c-3.2.3-3.2,5.2,0,4.9A34.1,34.1,0,0,0,80,40.8c3.9-2.5,9.3-6.5,8.4-11.8-2-11.5-22.3-7.9-29.5-5.4-3,1.1-1.7,5.9,1.3,4.8Z"/><path class="b" d="M65.1,45.9C78.7,43.1,85,58.5,88.6,68.6a2.6,2.6,0,0,0,4.2,1.1l1-.8c2.6-2-1-5.5-3.5-3.5l-1,.8,4.2,1.1C88.8,54.2,80.6,37.6,63.8,41c-3.2.7-1.8,5.5,1.3,4.9Z"/><path class="b" d="M104.5,64.9a109.4,109.4,0,0,0,10.6-38.4c.3-3.2-4.7-3.2-5,0a100.3,100.3,0,0,1-10,35.9c-1.4,2.9,2.9,5.4,4.4,2.5Z"/><path class="b" d="M110.7,27.9c5.7,9.7,11.5,19.7,11.5,31.3,0,3.2,5,3.2,5,0,0-12.5-6-23.3-12.2-33.8-1.7-2.8-6-.2-4.3,2.5Z"/><path class="b" d="M108.6,45.7l21.3-1.6v-5l-2,.2c-3.1.5-3.2,5.5,0,5l2-.2c3.1-.4,3.2-5.3,0-5l-21.3,1.6c-3.1.3-3.2,5.3,0,5Z"/><path class="b" d="M150,55a144.4,144.4,0,0,1-2.2-31.5l-4.7,1.2a243.6,243.6,0,0,0,18.8,31.4,2.5,2.5,0,0,0,4.5-.6c3.1-11.2-3.1-22.9,1-33.8l-4.9-.7v1.9c.1,3.2,5,3.2,5,0V21c-.1-2.9-3.9-3.2-4.9-.6-4.2,11.1,2.1,22.6-1,33.8l4.6-.6a243.6,243.6,0,0,1-18.8-31.4c-1.1-2.3-4.5-1.1-4.6,1.3a150.1,150.1,0,0,0,2.3,32.8c.6,3.2,5.4,1.8,4.9-1.3Z"/><path class="b" d="M199.3,18c-13.7-1.4-26,10.1-24.3,24,.7,6.1,3.9,12.3,9.3,15.7s11.7.5,15.3-5c1.7-2.7-2.6-5.2-4.4-2.5s-4.3,5.5-8.4,3.1A13.6,13.6,0,0,1,182,48a17.3,17.3,0,0,1-1.8-12.2c1.9-8.8,10.6-13.7,19.1-12.8,3.2.4,3.1-4.6,0-5Z"/><path class="b" d="M206.8,60.3A278.9,278.9,0,0,1,217.6,22l-4.5.6c5.1,11.9,10.1,23.9,14.8,36l3.6-2.8-1.6-1.1c-2.7-1.7-5.2,2.6-2.5,4.3l1.6,1.1c1.7,1.1,4.5-.8,3.7-2.8q-7.3-18.7-15.3-37.2c-1-2.2-4-1.2-4.6.6A277.5,277.5,0,0,0,202,58.9c-.6,3.2,4.2,4.5,4.8,1.4Z"/><path class="b" d="M209.8,44a114.3,114.3,0,0,1,16.5,1.1c3.2.4,4.5-4.4,1.3-4.9A132,132,0,0,0,209.8,39c-3.2,0-3.2,5,0,5Z"/><path class="b" d="M244.2,56.5c-.5-6.3-.9-12.6-1.4-18.8l-.6-9.4c-.3-3.5-.9-7.4,3.8-7a69.5,69.5,0,0,1,10.3,2c1.1.4,3.9.9,4.6,1.7l.3,5.1a9.1,9.1,0,0,1-2.1,1.8c-5.2,3.8-11.6,5.1-17.9,4.8-2.7-.1-3.4,4.5-.6,4.9A51.5,51.5,0,0,1,253.4,45c3.7,1.6,13.4,5.5,12.4,10.8-.6,3.2,4.3,4.5,4.9,1.4,2.4-13.1-19.4-19.1-28.8-20.4l-.7,4.9c8.4.4,19.2-2,24.5-9.2s-2.2-12.4-8.9-14.2-18.3-5.4-19.8,3.3c-.9,5.1.5,11,.8,16.1s.9,12.5,1.5,18.8c.2,3.1,5.2,3.2,4.9,0Z"/><path class="b" d="M288,94.9l-1.6,52.4c-.1,4.8,7.4,4.8,7.5,0l1.6-52.4c.2-4.8-7.3-4.8-7.5,0Z"/><path class="b" d="M290.5,149.3a217.6,217.6,0,0,0,24.2,2.2c4.9.1,4.9-7.4,0-7.5a184.7,184.7,0,0,1-22.2-1.9c-4.7-.7-6.8,6.5-2,7.2Z"/><path class="b" d="M291.8,118l18.8.5c4.8.1,4.8-7.4,0-7.5l-18.8-.5c-4.8-.1-4.8,7.4,0,7.5Z"/><path class="b" d="M290.8,97.2l20.1,1.2c4.8.3,4.7-7.1,0-7.5h-1.8c-4.8-.4-4.7,7.1,0,7.5h1.8V90.9l-20.1-1.2c-4.8-.3-4.8,7.2,0,7.5Z"/><path class="b" d="M305.3,81.1l18.3-11.6c4-2.6.3-9.1-3.8-6.5L301.5,74.6c-4.1,2.6-.3,9.1,3.8,6.5Z"/><path class="b" d="M28.9,192.5a217.7,217.7,0,0,0,7.2,75.8l9.2-3.9-2.4-4.9c-2.7-5.9-11.3-.8-8.6,5l2.3,5c2.5,5.2,10.7,1.5,9.2-3.9a204.8,204.8,0,0,1-6.9-73.1c.6-6.4-9.4-6.3-10,0Z"/><path class="b" d="M6.2,197.7a199.5,199.5,0,0,1,75.7-6.8c5.3.6,6.4-6.9,2.6-9.3L81.9,180c-5.4-3.4-10.5,5.2-5,8.6l2.5,1.6,2.5-9.3a207.9,207.9,0,0,0-78.4,7.2c-6.1,1.8-3.5,11.4,2.7,9.6Z"/><path class="b" d="M91.8,186.4a382.9,382.9,0,0,1,.6,81.5c-.5,5.3,6.9,6.4,9.3,2.5l2.3-3.5c3.4-5.4-5.2-10.4-8.7-5l-2.2,3.5,9.3,2.5a389.5,389.5,0,0,0-.6-81.5c-.7-6.3-10.7-6.3-10,0Z"/><path class="b" d="M97.7,191.3a37.4,37.4,0,0,1,23.6-.4c5.5,1.8,13.6,5.9,12.9,12.9s-8.3,11.6-13.9,14.7a68.5,68.5,0,0,1-22.5,7.4c-6.3,1-3.6,10.6,2.7,9.6,16.3-2.5,46.1-13.5,43.6-34.7-1.1-9.1-9-15.1-17-18.3a46.6,46.6,0,0,0-32.1-.8c-6.1,2-3.5,11.6,2.7,9.6Z"/><path class="b" d="M98.2,234.1c8.6,1.2,16.6,3.8,22.5,10.3s8.7,14.1,11.7,21.7c2.4,5.9,12,3.3,9.7-2.7-3.7-9.2-7.6-18.6-14.3-26s-16.8-11.5-26.9-13c-6.3-.9-9,8.8-2.7,9.7Z"/><path class="b" d="M155.3,267.4c3-28.5,6.2-57.1,16.1-84.2h-9.6A573.8,573.8,0,0,1,188.3,265c1.5,6.2,11.1,3.6,9.6-2.7a556.3,556.3,0,0,0-26.5-81.7c-1.9-4.6-7.9-4.9-9.6,0-10.2,27.8-13.4,57.5-16.5,86.8-.6,6.4,9.4,6.3,10,0Z"/><path class="b" d="M157,235.4a143.2,143.2,0,0,1,25.9-5.2l-5-5v.5l2.5-4.3-.4.2c-5.6,3.2-.6,11.8,5,8.6,2-1.1,2.7-2.7,2.9-5a5,5,0,0,0-5-5,170.8,170.8,0,0,0-28.5,5.5c-6.2,1.8-3.6,11.5,2.6,9.7Z"/><path class="b" d="M219.6,183.4l1.3,86.8h10v-2.5c-.2-6.4-10.2-6.4-10,0v2.5c.2,6.4,10.1,6.5,10,0l-1.3-86.8c-.1-6.4-10-6.4-10,0Z"/><path class="b" d="M198.4,189.9a302.5,302.5,0,0,0,63.8-1.1c6.2-.8,6.3-10.8,0-10a309.4,309.4,0,0,1-63.8,1.2c-6.4-.6-6.4,9.4,0,9.9Z"/><path class="b" d="M265.4,268c4-27.2,8.2-54.6,19-80.1l-9.2,1.2c15.8,22.2,17.6,51.4,21.7,77.4,1,6.3,10.7,3.6,9.6-2.6-4.3-27-6.4-56.9-22.6-79.8-2.7-3.8-7.5-2.8-9.2,1.2-10.7,25.5-14.9,52.8-18.9,80-.9,6.3,8.7,9,9.6,2.7Z"/><path class="b" d="M263.8,243.7c10.1-1.9,20.2-3.4,30.4-4.3,6.3-.6,6.4-10.6,0-10a331.7,331.7,0,0,0-33,4.7c-6.3,1.3-3.7,10.9,2.6,9.6Z"/><path class="b" d="M320.9,176.8q-1,43.3-5.1,86.5c-.6,6.4,9.4,6.4,10,0q4.1-43.2,5.1-86.5c.2-6.4-9.8-6.4-10,0Z"/><path class="b" d="M325.2,182.3c12.1-1,31.5,2.3,28.1,19-2.7,13.5-17,19.2-28.8,22.5-6.2,1.8-3.6,11.4,2.6,9.6,16.8-4.7,34.8-14.2,36.5-33.6a24,24,0,0,0-10-21.4c-8.2-6.1-18.6-6.9-28.4-6.1-6.4.5-6.4,10.5,0,10Z"/><path class="b" d="M324.1,231.4c19.2,4.1,29,22.5,37.4,38.5l1.8-6.8-1.6.7c-5.9,2.5-.8,11.1,5,8.6l1.6-.7c2.6-1.1,2.9-4.7,1.8-6.8-9.6-18.4-21.5-38.4-43.4-43.1-6.2-1.3-8.9,8.3-2.6,9.6Z"/></svg>