<svg xmlns="http://www.w3.org/2000/svg" viewBox="0 0 263.7 303.7"><defs><style>.a{fill:#063f20;}.b{fill:#007f48;}</style></defs><title>cartaz-4</title><path class="a" d="M16.7,78.9c4.7-6.3,4.3-14.8,5.6-22.2a72.5,72.5,0,0,1,3.6-13.1c1.6-4,4-7.6,4.9-11.7.4-1.6-.9-4.7-2.8-3.2s-4.2,6.6-5.4,9.9a68.6,68.6,0,0,0-3.4,11.5C17.3,58.8,18,67.8,14.1,76c-.7,1.6.9,5.1,2.6,2.9Z"/><path class="a" d="M27.3,30.7c-.7,3.2.5,5.7,1.6,8.8s2.9,7.9,4.5,11.8c3.1,7.8,6,15.9,9.7,23.3,2.8,5.4,6.4-.9,5-4.6-2.9-7.8-6.6-15.5-9.9-23.1-1.6-3.5-3.1-7.1-4.7-10.6s-1.9-6.2-4.8-6.9c-.8-.2-1.3.6-1.4,1.3Z"/><path class="a" d="M20.1,66.8c3.8-.6,7.4-2,11.2-2.7A90.9,90.9,0,0,1,43,63c3.5-.2,2.8-5.9,1.1-7.6l-.2-.3a1.5,1.5,0,0,0-2.1.1c-.4.2-4.9.1-5.7.3a50.4,50.4,0,0,0-5.6,1.1c-4.1,1-8,2.2-11.5,4.6-1.5,1-1.2,5.9,1.1,5.6Z"/><path class="a" d="M97.9,26.5c-4.5-7.9-13.8-9.9-20-2.8S70,41.2,70.1,50.1,74.3,67.4,83.7,68s15.8-8.6,13.5-16.9c-.7-2.4-3.3-3.8-4.3-.8-1.9,5.1-5.2,9.6-11.3,7.5s-5.4-8.3-4.8-13.4,1.5-11.3,5.5-15.1,9-.4,13.9,2c2.5,1.3,2.2-3.7,1.7-4.8Z"/><path class="a" d="M104.8,22.3c-1.2,6.2-1,12.7-1.3,18.9s-.8,13.3-.4,19.9l4.6-4.2-.4-.3c-1.9-1.9-3.9.9-4.1,2.6v.7c-.3,1.8.1,5.1,2.3,5.7s3.6-1.5,3.7-3.4c.6-6.6.5-13.5.5-20.2s.4-13.3-.6-19.8c-.5-3.2-3.7-2.7-4.3.1Z"/><path class="a" d="M121.1,19.2c-3.4,5.6-3.4,13.8-3.6,20.3s-.3,15.9,2.5,22.4c1.9,4.3,5.2.8,5.3-2.4.2-6.6-1.5-13.4-1.6-20.2s1.2-12.8.3-19c-.2-1.5-1.9-2.7-2.9-1.1Z"/><path class="a" d="M119.9,61.3c6.2,2.2,14,2.1,20.5,2.3a2.4,2.4,0,0,0,2-1.3c1.1-2.2,1.4-3.1.4-5.3s-1.3-2.2-2.6-2.2c-6.5.1-14.2-.1-20.5,1.9-1.6.5-1.4,4.1.2,4.6Z"/><path class="a" d="M121.7,37.4a35,35,0,0,0,8.5,1.3c2.9.1,5.6.6,7.9-1.1s1.3-4.2-.1-5-5.1-.9-7.9-.6a36,36,0,0,0-8.5,1.9c-1.1.4-1.1,3.2.1,3.5Z"/><path class="a" d="M122.2,21.6c6.5,2.5,13.7,2.6,20.7,2.7l-1-8.4-3,2c-1.1.9-1,3.6.1,4.3a27,27,0,0,0,3.1,2c3.4,2,5.5-8.7.6-8.5-6.9.3-14.2.4-20.6,3-1,.4-.9,2.5.1,2.9Z"/><path class="a" d="M124.9,14.1c3.8-1.1,6.8-4.6,9.2-7.6l-4-.7c1,2.8,1.8,5.6,2.9,8.4s2.2,2.5,3.7,1.3,1.3-3.8.8-5.5-2.1-5.5-3.1-8.2-2.8-2.4-4-.7-4.8,5-7.2,7.6-1.2,6.3,1.7,5.4Z"/><path class="a" d="M152,22.5c-.5,6.7-.3,13.4-1,20.1s-2.1,13.4-3.1,20.1l5,.9a18.7,18.7,0,0,0-.3-3.4c-.2-1.7-1.9-2.7-3-1.2a5.2,5.2,0,0,0-1.1,1.9c-1.9,3.9,2.7,9.6,4.1,4.7a98.9,98.9,0,0,0,3.2-21.7c.5-7,.7-14.5-.6-21.5-.4-2.2-3.1-2.3-3.2.1Z"/><path class="a" d="M153.4,24.5c-.6,7.1,3.8,13.3,7.3,19.1,2.2,3.6,4.6,7.1,7,10.5s3.5,6.4,6.8,7,2.4-2,2.1-3.5c-1.1-5.6-6.4-10.3-9.6-14.9S158,31,156.6,24.5c-.4-2.2-2.9-2.4-3.2,0Z"/><path class="a" d="M175.9,57c2.4-5.1,2.6-11.5,3.5-17.1s1.8-12.5,2.6-18.8c.6-4.1-4.3-7.1-4.9-2-.9,6.7-1.8,13.3-2.5,20s-1.9,11.7-1,17.5c.2,1.5,1.7,1.7,2.3.4Z"/><path class="a" d="M209.8,22.6c-4.7-6.1-12.9-6.3-18.5-1.4s-5.4,16.2-3.8,24,5.9,17.4,15.1,17.9c6.9.4,14.1-7.8,9.7-14.3a1.8,1.8,0,0,0-2.7-.5c-1,1-1.3,2.4-2.3,3.5a6.3,6.3,0,0,1-6.9,1.2c-5.2-2.1-6.7-7.9-7.8-12.8s-1.9-10.3,2.2-13.8,9.3-1.9,13.5.6c2,1.2,2.3-3.4,1.5-4.4Z"/><path class="a" d="M216.6,20c-.7,6.5.8,13.3,1,19.9s-.9,13.5.4,19.9c.4,1.9,2.3,2.5,3.1.6,2.5-6.1,1.8-14.2,1.5-20.7s-.4-14.5-3.3-20.3c-.8-1.7-2.6-1.2-2.7.6Z"/><path class="a" d="M231.4,56.9c4.4-2.1,6-10.8,7.4-15.1,2.2-6.6,4.6-13.4,5.7-20.3.5-2.9-2.9-6.9-4.4-2.7-2.3,6.3-3.4,13.2-5.3,19.7s-4.9,11.6-4.4,17.3c0,.4.3,1.4,1,1.1Z"/><path class="a" d="M241.6,22.7c-1.2,1.7-.8,3.4-.4,5.3.9,3.5,2,7,2.9,10.6,1.7,6.8,2.6,13.9,4.9,20.5,1.3,4.1,5.1.8,4.9-2.2-.2-5.8-1.9-11.6-3.5-17.2s-3.3-11-5.9-16c-.5-.9-1.2-1.8-2.3-1.4l-.6.4Z"/><path class="a" d="M234.2,49.5c3.7,2.3,8.9,2.9,13.2,3s3-6.7-.1-7.2-9.3-1-13.2.6c-1.4.6-1,3,.1,3.6Z"/><path class="b" d="M11.6,120.7c2.9,8.2,16.3,12.2,19.5,1.8,1.5-5-1.4-8-4-11.9s-5.2-6.8-5.2-11.4c0-6.1,6.5-11.1,10.7-4.8,1.9,2.7,3.8-2.1,2.5-4-2.7-3.8-7.3-5.7-11.6-3.1s-5.3,8.5-5.1,13.2,2.9,8.8,6.8,12.6,5.7,10.3-1.4,11.4c-4.7.7-7.7-2.9-10.2-6.2-1.5-1.8-2.4,1.2-2,2.4Z"/><path class="b" d="M35.1,128c2.7-6,3.7-12.8,5.6-19.1S45.1,97.1,46,91c.1-.9-.9-3-1.8-1.5-3.2,5.3-4.6,12.2-6.4,18.1s-4.3,12.6-4.9,19.1c-.1,1.4,1.3,3.4,2.2,1.3Z"/><path class="b" d="M44.4,91.8c-.3,6,2.3,12.6,3.3,18.7s.8,12.8,2.9,18.5c.8,2.4,2.9,1,3.3-.7,1.5-6.4-.4-14.5-1.8-20.8s-2.4-13.2-6.2-17.2c-.9-.9-1.5.9-1.5,1.5Z"/><path class="b" d="M40.3,116c3.3-.5,8.5.3,10.8-2.6a2,2,0,0,0-.3-2.3c-1.5-1.1-3-.5-4.8,0s-4,1.4-6.1,1.9-.9,3.2.4,3Z"/><path class="b" d="M59,87.3c-1.4,5.4-1.3,11.4-1.4,17.1s-.3,12.6.8,18.7c.6,3.5,3.7,2,3.8-.9.2-5.9-.5-12-.6-17.9s.4-11.2-.2-16.6c-.2-1.4-2-2-2.4-.4Z"/><path class="b" d="M59.4,124.6c2.8,1.3,6.4.8,9.3.1s6.5-1.2,9.1-2.6c.7-.4.8-2.3-.2-2.2-3.3.2-6.3,1.3-9.6,1.4s-6-.1-8.6,1c-.9.4-.7,1.9,0,2.3Z"/><path class="b" d="M74.1,89.4a37.6,37.6,0,0,1,5.6,14.1c1.1,6.2,2.2,12.4,3.6,18.5,1,3.8,4.2,1.4,3.7-1.6-1.4-7.6-3.1-15.3-5.1-22.7-1.1-4-2.6-9.3-6.9-10.8-1.3-.5-1.3,1.8-.9,2.5Z"/><path class="b" d="M87.2,120.8a104,104,0,0,0,6.3-18.3c1.5-5.6,3.8-11.7,4-17.6,0-.5-.8-1.5-1.2-.6-2.7,5.2-3.4,11.7-5.2,17.3s-3.9,11.8-5.4,17.9c-.2.8.9,2.5,1.5,1.3Z"/><path class="b" d="M98.5,123.4c3.1-4.7,4.5-11.1,5.9-16.6s4-12.3,6-18.5c.4-1.5-1.3-3.8-2.1-1.7-2.1,6.1-3.7,12.3-6.2,18.3s-4.7,11.3-5.2,17.1c-.1.9.7,2.8,1.6,1.4Z"/><path class="b" d="M107.7,89.4c1.4,6.4,3.2,12.8,4.7,19.2s1.7,11.3,4.3,16.1c.6,1.1,1.9.1,1.9-.8.4-5.9-1.7-12-3.1-17.7A161,161,0,0,0,110,87.9c-.8-2.3-2.6,0-2.3,1.5Z"/><path class="b" d="M101.5,112.6a12.8,12.8,0,0,0,3.3,1.1,21.7,21.7,0,0,0,4.4-.3c2.5-.3,4.5-.3,6-2.4a1.8,1.8,0,0,0-.2-2.3c-2-1.3-4.1-.4-6.4-.1l-3.9.4a15.2,15.2,0,0,0-3.2,1.2c-.9.3-.8,2.1,0,2.4Z"/><path class="b" d="M152.9,115.4c.4-5.6-2.6-11.8-4.6-16.9-1.1-2.9-2.5-5.6-3.6-8.6s-1.5-4.3-3.3-6.1-1.2.6-1.2,1.1c0,5.5,2.9,11.7,4.6,16.9s3,11.6,7,14.6c.7.6,1.1-.5,1.1-1Z"/><path class="b" d="M151.4,115.6c3.9-1.4,6-7.6,7.4-11.2,2.5-6.5,4.1-13.3,5.9-20,.1-.4-.3-1.2-.6-.5-2.5,5.3-4.8,10.5-7.1,15.9s-5.3,9.2-6.6,14c-.1.6,0,2.1,1,1.8Z"/><path class="b" d="M169.8,81.6c-2.9,6-2.2,14.8-2.3,21.3a91.8,91.8,0,0,0,.7,11.7c.2,2.6.2,4.9,2.4,6.6a1.1,1.1,0,0,0,1.6-.4c1.2-2.1,1-3.9.8-6.3s-.9-7.8-1.1-11.7c-.4-6.9,1-14.1-.1-20.9-.2-1.3-1.4-1.5-2-.3Z"/><path class="b" d="M182,82.9c-3.1,4.9-2.5,12.7-2.6,18.4s-1.3,14.3,2.3,18.4c.5.6,1.3.8,1.7,0,2.4-4.8.7-11.4.6-16.6s1.5-13.5-.2-19.5c-.2-.8-1.1-1.8-1.8-.7Z"/><path class="b" d="M182.1,119.8c4.6,3.8,10.6,1.1,14.7-2.3s6.3-10.3,5.9-16a25.6,25.6,0,0,0-7.3-15.6c-3.9-4.1-10.7-8.7-16.5-6-1.2.5-1,2.8.1,3.3,4.1,1.9,8.1,2.8,11.8,5.8s6.1,6.1,7.3,10.2a14.6,14.6,0,0,1-3,14.4c-3.5,3.7-8.1,3-12.7,4-.9.2-1,1.7-.3,2.2Z"/><path class="b" d="M199.3,120.5c3.2-5.1,4.4-12,6.1-17.8s3.7-13.3,5.6-19.9c.6-1.9-1.7-5-2.5-2.2-2,6.5-4.1,13-6.1,19.6s-4.5,12.5-4.9,18.7c-.1.9.8,3.2,1.8,1.6Z"/><path class="b" d="M209,84c.9,5.9,3.2,11.4,4.4,17.2a86.4,86.4,0,0,1,1.5,18.3c0,4.3,4.5,4.2,4.6-.1a74.2,74.2,0,0,0-2.1-21c-1.4-5.5-3-11.7-7.1-15.9-.9-.9-1.4,1-1.3,1.5Z"/><path class="b" d="M204.4,108.9a22.7,22.7,0,0,0,9,.3,1.9,1.9,0,0,0,1.4-1.2,3.1,3.1,0,0,0-.1-2.5,1.7,1.7,0,0,0-1.4-1.2c-3-.1-6.2-.1-9,1-1.2.4-1.2,3.2.1,3.6Z"/><path class="b" d="M241.3,83.4c-3.4-4-9-7.5-14.3-4.5s-5.2,7.7-3.6,12c2.3,6.1,8.4,8,13.5,11,2.3,1.4,5.5,3.1,4,6.8-.5,1.1-2.4,2.4-3.3,3-3.7,2.7-9.3,4.4-12.4,0-.9-1.2-1.6.8-1.3,1.6,4.7,10.7,21.8,4.5,22.1-5.9.2-5.9-4.4-9.6-9.1-12.1-2.9-1.5-13.7-5.6-9.5-10.7s9.7.7,12.7,2.1,1.8-2.5,1.2-3.3Z"/><path class="b" d="M251.1,78.4c-.6,5.4-.8,11.7.3,17s1.3,8.3,2.6,12.1,3.1-.1,2.8-1.9-1-5.1-.4-7.5.8-3.2,1-5a66.8,66.8,0,0,0-.7-14.8c-.6-4.1-5.1-3.9-5.6.1Z"/><path class="b" d="M257.6,113.6v-.2c-.5-.9-1.4-2-2.5-1.5a4.2,4.2,0,0,0-1.9,4.1c0,1.6.7,3.7,2.4,4.2s2.7-1.2,2.9-2.6-.2-3.7-1.8-4.5h-.1l.6.4a1,1,0,0,1-.5-.4l.5.6.3.5.2,2.1-.4,1.1a2.1,2.1,0,0,0,.4-1.1,3.9,3.9,0,0,0,0-2.6Z"/><path class="a" d="M163.3,167.6h5a1.5,1.5,0,1,0,0-3h-5a1.5,1.5,0,1,0,0,3Z"/><path class="a" d="M174,165.5l3.9.2c2,.1,2-2.9,0-3l-3.9-.2c-1.9-.1-1.9,2.9,0,3Z"/><path class="a" d="M182.8,164.7l5.7.2a1.5,1.5,0,0,0,0-3l-5.7-.2a1.5,1.5,0,0,0,0,3Z"/><path class="a" d="M193,163.9h5.2l-.8-2.8-.5.4c-1.6,1.1-.1,3.7,1.5,2.6l.6-.4a1.5,1.5,0,0,0-.8-2.8H193a1.5,1.5,0,0,0,0,3Z"/><path class="a" d="M229.6,144.3a3.6,3.6,0,0,0-1.1-2.2,5.8,5.8,0,0,0-4.9-1.5,7.6,7.6,0,0,0-6.2,5.2,18.4,18.4,0,0,0-.3,7.4l-11.6,6.3c-4.5-4.6-8.5-8-11.4-10.5s-8.5-4.7-13.5-3.3l21.2,15.9-20.5,13.7a5.7,5.7,0,0,0,2.9,1.6c4.2,1,8.5-3.1,11.7-5.3l4.8-3.6,2.6-2a16,16,0,0,1,2.6-2.2l8.2,4.2s0,4.9,1.1,7.4,2.9,4.9,5.4,5.8,5.6-.8,6.4-3.4c1.8-6-4.8-9.7-9.1-12l-4.1-2.2-2.2-1.1c-.6-.3-1.8-.6-2.2-1.1s1-.4,1.5-.7l3-1.6,7.9-4.6,3.8-2.2a12.1,12.1,0,0,0,3-2C229.8,148.8,230,146,229.6,144.3Zm-12.4,25.3s5.3,2.5,6.1,4.7-.1,3.6-.8,3.9-3-.5-4.2-2.4-1.1-5.3-1.1-5.3Zm8-20.7c-1.5,1.7-4.7,2.7-4.7,2.7l-.9.3s.8-5.8,2.6-7.2,3.5-1.1,4-.4S226.6,147.3,225.2,148.9Z"/><path class="a" d="M10.4,194.5c.2-6.1.1-12.1.3-18.2s1.5-12.2.9-18.1c-.2-1.2-1.6-2.7-2.2-.8-1.8,5.2-1.6,11.5-1.9,17.1A192,192,0,0,0,7,194.6c.1,3.2,3.3,3,3.4-.1Z"/><path class="a" d="M11.2,160.6c1.6,5.6,4,10.6,6.4,15.9s4.7,10.8,8.3,14.9,3.7-1.8,3-3.7c-1.9-5-5-9.6-7.8-14.2s-5.3-9.6-8.6-14.1c-.8-1-1.6.5-1.3,1.2Z"/><path class="a" d="M28,191.2c2.9-3.9,2.9-8.6,2.8-13.2-.1-6.8-.8-13.3,1.3-19.9.7-2.1-1.8-5.2-2.7-2.3-1.5,5.1-1.6,10.1-1.6,15.4s-.6,12.6-1.1,18.9c0,.7.5,2,1.3,1.1Z"/><path class="a" d="M38.4,189.4c1.5-5.3,2-10.9,3.3-16.2s4.1-12.3,6.6-18.4c.5-1.2-.9-4.2-2-2.2-5.7,9.9-10.7,24.6-9.6,36.1.1,1,1.2,2.2,1.7.7Z"/><path class="a" d="M45.3,156.2c.3,6.1,2.4,12.3,3.4,18.4s.6,12,3.3,16.6c.7,1.1,1.9.5,2.3-.5,1.7-5.3-.3-12.6-1.5-17.9s-2.3-12.9-5.4-18.1c-.9-1.5-2.2.4-2.1,1.5Z"/><path class="a" d="M38.5,181.1c2.2.7,4.6.1,6.9-.3s4.5-.7,6.3-2.4.9-3.3-.5-3.8-4.2-.1-6.5.6-4.7,1.4-6.6,3-.7,2.6.4,2.9Z"/><path class="a" d="M41.2,145.9a9.2,9.2,0,0,1,8.1,0c1.9.9,3.7,1.8,5.8,1.4a7.2,7.2,0,0,0,5.5-8.1c-.1-.5-.5-1.2-1-1.1s-1.6.8-2.4,1.8c-2.1,2.7-4.3,2-7.1.8s-6.8-1.7-9.9.4c-1.5,1.1-1.4,5.7,1,4.8Z"/><path class="a" d="M58.6,170c-1.5,6.8,1.9,20.2,11.5,18.1s11.6-14.3,11-21.7S76.6,148.2,68.2,151s-12,14.2-8.5,21.1c.6,1.1,1.5.7,1.8-.4.9-4.4,1.5-9.2,5-12.4,5.9-5.3,9.9,2.3,10.5,7.6s-.9,12.3-5.4,14.9c-8,4.8-9.3-7.1-10.7-11.9-.5-1.6-1.9-1.6-2.3.1Z"/><path class="b" d="M4.5,208.1c12.1,0,23.3-6,35-8.5a94.9,94.9,0,0,1,39,0c2.7.6,3.1-4.9.8-5.3a100.4,100.4,0,0,0-39,0c-12.2,2.5-24,7.2-36.3,10-1.4.3-1.1,3.8.5,3.8Z"/><path class="a" d="M94.1,189.3c3.7-4.5,5.1-10.2,6.8-15.7s4.6-12.2,5.5-18.4c.2-1.1-1.3-4-2.4-1.9-2.6,4.8-3.9,10.7-5.6,15.9s-4.1,11.9-5.8,17.9c-.2.7.4,3.6,1.5,2.2Z"/><path class="a" d="M103.4,155.5c-.8,5.8,1.7,12.1,2.9,17.8s.6,12.4,4.3,15.8c.7.7,1.7-.1,1.9-.8,1.8-5.2-1.1-11.7-2.3-16.8s-1.7-12.7-5.2-16.7c-.7-.8-1.5-.2-1.6.7Z"/><path class="a" d="M97.2,179.8c3.4,1.1,7.2-.4,10.5-1.2,1.1-.3,1.4-2.1,1.4-2.9-.1-4.1-5-2-6.9-1.3a12.1,12.1,0,0,0-5.2,2.9c-.6.6-.7,2.2.2,2.5Z"/><path class="a" d="M114.9,168.6c-3.2,7.2-.7,18.3,8.5,19s14.5-11.7,13.9-20.2-3.6-22.2-14.9-16.9c-7.5,3.5-12.7,16.5-5.7,22.8,2,1.7,2.8-2,2.6-3.2-.4-3.3-1.5-6,.2-9.2a9.5,9.5,0,0,1,5.4-4.8c5.5-1.8,6.5,2,7.5,6s1.4,6.8.8,10.1-4.8,9.1-9.9,8.4-5.3-7-6-11.6c-.3-1.5-1.8-1.9-2.4-.4Z"/><path class="a" d="M152.1,150.1c-4.7-7.7-15.8-1.9-14.7,6.3.5,4.2,3.2,5.6,6.6,7.4a15.2,15.2,0,0,1,4.7,4c1.6,2.3,1.9,3.1.9,5.9s-1.7,3.5-5.1,3.6-3.3-.9-4.8-2.4-3,1.4-2.9,2.7c.8,12,18.4,5.4,18.8-3.9.2-5.1-2.7-10.3-6.3-13.7-.7-.7-7-4.1-7.1-4.7-.6-3.9,7.5-2.2,9.5-2.8s.8-1.8.4-2.4Z"/><path class="a" d="M71.5,209.4c-4.2-5.4-12.4-4.4-17.1-.1s-7.4,12.5-4.6,18.5,10.3,11.5,16.7,10.3c2.7-.5,5.5-2.2,6.3-4.9s.1-4.4-1.8-5.2a2,2,0,0,0-1.9.5c-4.9,4.8-16.8-1.3-16-8.2.3-3.4,3.8-6.7,6.7-7.9s6.7,0,10.3.9c2,.5,2.2-2.8,1.4-3.9Z"/><path class="a" d="M76.3,222.3c-4.4,5.9.8,14.6,7.2,16,9.5,1.9,14.2-7.9,14.2-15.8s-2.2-18.7-12.1-16.1c-8,2.1-10.8,12.3-9.1,19.5.5,2.3,3.2,2.6,3.4-.1s-.3-8.3,2.7-11.5a6.1,6.1,0,0,1,6.7-2c3,1.1,3.4,4.4,3.7,7.2.6,5.2-.4,11.9-6.9,12.4s-7.8-3.8-8.1-8.6c-.1-.9-.9-2.1-1.7-1Z"/><path class="a" d="M103.2,211h.5l-1.3-3.1c-1.9,3.9-1.8,8.9-2.2,13.3s-1,9.4-.7,14c.3,3,3.5,4.5,4.1.8s.8-10.1,1.1-15,1.1-8.6.2-12.7-3.6-.6-2.4,1.7l.3.7c.1.1.2.4.4.3Z"/><path class="a" d="M104.5,223.3c3,.2,6,3.5,7.5,5.8s2.8,4.8,4.5,7,3,1.3,3.9-.5a5.2,5.2,0,0,0-.9-5.7c-2.4-2.7-3.9-5.9-6.7-8.2s-5.3-2.6-8.6-1.5c-1.2.4-.9,3,.3,3.1Z"/><path class="a" d="M106.5,222c1.9,1.4,3.1,2.4,5.7,2a6,6,0,0,0,3.9-2.4c2.4-3.4,1.2-8.2-.6-11.6s-4.5-5.7-8.2-5.7a5.9,5.9,0,0,0-5.7,5.8c0,.5.3,1.5,1,1.5s2.4-.8,3.6-.9a5.6,5.6,0,0,1,4.9,1.7c1.1,1.1,2.9,3.7,1.5,5.1s-2.1.8-3.1,1.1a10.2,10.2,0,0,0-2.9,1.1c-.8.3-.7,1.9-.1,2.3Z"/><path class="a" d="M123.5,206.8c2.1,3,5.6,2.2,9,2.3s8.7,1.3,12-.7c1.7-1,1.6-4.2-.2-5.2-3.3-1.8-8.3-.6-12-.4s-6.9-.4-8.8,2.6a1.2,1.2,0,0,0,0,1.4Z"/><path class="a" d="M133.6,208.9c-1.8,4.8-1.2,10.8-2.1,15.8-.5,2.5-2.2,8.2,1.8,8.7,1.5.2,2.2-1.9,2.4-2.9,1.4-6,3.3-16.5-.8-21.9-.4-.6-1.1-.3-1.3.3Z"/><path class="a" d="M151.6,202.6c-1.9,4.1-1.1,9.2-1.3,13.6-.3,6-1.9,12.3-1.4,18.2.2,2.4,2.6,4.6,3.9,1.5,2.2-5.4,1.9-12.2,2-17.9s1-11.3-1.8-15.4a.8.8,0,0,0-1.4,0Z"/><path class="a" d="M152.4,234.6c2.6,1.4,5.2,1.6,8.2,1.8s5.2.8,7.6-.9,1.2-4-.1-4.8-4.9-1-7.7-.8-5.5.4-8.1,1.7a1.9,1.9,0,0,0,.1,3Z"/><path class="a" d="M154.5,217.6c2.5.3,4.9.7,7.4.9s4.8,1.2,6.8,0a2.9,2.9,0,0,0,.3-4.3c-2-1.8-4.7-1.3-7.2-1.2a29,29,0,0,0-7.7,1.4c-1.3.3-.9,3,.4,3.2Z"/><path class="a" d="M153.4,204.3c3.1.4,6.1,1.1,9.2,1.5s5.5,1.1,8.1.1,1.1-2.7.2-3.3c-4.6-3.3-12.4-1.5-17.5-.6-1,.2-1,2.1,0,2.3Z"/><path class="a" d="M172.9,223c1.5,5.3,4.3,10.6,10.3,11.6s8.6-2.4,9.7-7.2.2-10-2.9-13.5-4.1-1.9-6.4-3.4-2.4-1.7-.5-4.4l2.4-.2c2.8.1,4.9,1.9,6.7,3.7s3.8-3.6,1.9-5.3c-3.6-3.4-8.7-6.1-13.5-3.3s-4.8,6.8-3.4,10.6c2.1,5.7,9.6,3.6,11.6,9.2s-1.6,9.4-6.8,7.6c-3-1-5.6-4.6-8-6.7-.8-.7-1.3.8-1.1,1.3Z"/><path class="a" d="M221.4,231.3c1.3-4.6,2.5-8.3,2.9-13.2a68.4,68.4,0,0,0-.2-14.3c-.4-3.1-4-3-4.3.1-.8,8.9-.2,17.9-.2,26.7,0,1.1,1.4,2.2,1.8.7Z"/><path class="a" d="M222,205c1.3,6.6,4.4,13,7,19.2,1.6,3.9,3.2,10,8.1,10.2,1.7,0,2.1-2.3,2.1-3.4.6-10.4,3.1-20.7,3.1-31.2,0-2.9-3.1-3.8-3.8-.7-2.2,10.2-1.9,20.9-3.6,31.1l2.7-2.4c-4-1.6-5.7-9.5-7.4-13.1s-3.3-8.3-5.9-11.9c-1.4-1.8-2.6.9-2.3,2.2Z"/><path class="a" d="M254.3,198.3c-6.2,0-6.2,11-6.6,15.2s-2.8,8.1-4.4,12.4c-1.1,2.8-1.8,5.7.1,8.3a1.3,1.3,0,0,0,2,.4c2-1.4,2.2-4.3,3-6.3s2.6-5.4,3.3-8.4a43.1,43.1,0,0,0,.9-9.5c.1-3.8,1.4-6.6,2.5-10.1.2-.6.1-2-.8-2Z"/><path class="a" d="M254.8,199.8c-2.1,4.4.3,11.1,1,15.7.9,6.6,1.5,13.3,2.9,19.8.9,4.2,5.4,2.8,5-1.2-.6-6.6-2-13.2-3.2-19.7-.8-4.1-.7-12.5-4.4-15.2-.6-.4-1,0-1.3.6Z"/><path class="a" d="M247.9,224a34.2,34.2,0,0,0,7.7,1.7c2.4.2,5.2,1.1,7-.9a3,3,0,0,0,.2-3.7,4.1,4.1,0,0,0-2.2-1.7,25,25,0,0,0-4.7.2,31.1,31.1,0,0,0-8,1.3c-1.2.3-1,2.8,0,3.1Z"/><path class="a" d="M1.8,257.2c4.4.7,9,.2,13.5.2s7.6,1.2,10.4-1.6a2.3,2.3,0,0,0-.1-3c-2.8-3.1-7.4-2-11.4-1.9s-8.7,0-13,1.2c-2,.6-1.3,4.8.6,5.1Z"/><path d="M1.6,258.9c1.3,3.3.8,7,.7,10.4v12.5c-.1,3.9-.1,7.7-.1,11.6s-.4,6.5,1.4,9.5a1.4,1.4,0,0,0,2.5,0c2.2-3.4,1.4-7.7,1.3-11.6s-.1-10.2-.1-15.4S9,259.5,3.7,255.5c-2-1.5-2.6,2.2-2.1,3.4Z"/><path class="a" d="M2.7,302.1c3,.9,6.1.7,9.2.6a89.8,89.8,0,0,0,10.2-.9c2.8-.6,2.8-6.6-.2-6.7a69,69,0,0,0-10.2.8c-3.1.3-6.3.6-9.1,2-1.3.7-1.4,3.7.1,4.2Z"/><path class="a" d="M3.4,278.2c3,2.3,7.3,1.4,10.8,1.3s8.6.7,11.2-2.3a3,3,0,0,0-.1-3.9c-2.8-2.9-7.6-1.5-11.2-1.1s-8.3.6-10.8,3.5a1.8,1.8,0,0,0,.1,2.5Z"/><path class="a" d="M33.1,254c-2.1,2-1.9,4.9-2,7.7-.3,4.6-.3,9.2-.3,13.8v13.9c.1,3.8-.5,7.8,1.2,11.3.9,1.8,2.5,1.7,3.3-.1,1.6-3.4.9-7.6.9-11.3V276.4c.1-4.3.1-8.6.1-12.9s.5-6.7-1.6-9.2a1.1,1.1,0,0,0-1.6-.3Z"/><path class="a" d="M33.5,300.8c5.3,2.5,10.8-2.8,13.3-7a36.9,36.9,0,0,0,5-18.9c.2-10.2-8.2-27.6-21.2-21.8-1.7.7-1.5,4.6.5,4.7,10.8.8,17.4,7.7,16.4,18.9a31.3,31.3,0,0,1-3.8,12.6c-2.6,4.3-6.4,5.5-10.3,8.1-1,.7-1.1,2.8.1,3.4Z"/><path class="a" d="M56.8,253.7a134.4,134.4,0,0,0,1.9,30.4c1.3,6.6,5.2,15.8,13.1,16.3s10-7.9,10-13.9-.6-10.7-1-15.9-.5-10-2.3-14.6c-.4-1.1-1.5-.5-1.7.4-1.3,6.5-.2,13.6.4,20.2.3,5,2.2,20.2-7.6,15.6-6.7-3.1-6.6-13.1-7.1-19.3s-1-13.4-2.2-20c-.6-3.2-3.4-1.8-3.5.8Z"/><path class="a" d="M111.5,258.9c-2.4-3.5-4.2-6.6-8.6-7.9a8.9,8.9,0,0,0-8.6,1.6c-5.8,4.9-5.5,15.1-5.7,21.9S88,291.7,94,297s16.3,1.2,22.6-3.3c2.3-1.7.8-9.4-2.3-7.5s-9.6,6.8-15.2,4.8-5.2-9.8-5.2-14.8-.1-10.5,1.3-15.3c2.3-7.9,10.8-2.5,15.1.6,1.4,1,1.8-1.7,1.2-2.6Z"/><path class="a" d="M121.8,301.1c2.3-6.5,2.8-13.7,4.2-20.4.5-2.6,2.7-19.2,4.2-19.5s7.9,18,8.7,19.5c3.2,7,6.3,14.1,9.8,21,2.2,4.4,5.5-.7,4.1-3.9-3.9-8.7-8.3-17.3-12.6-25.9L134,260.1c-.7-1.4-1.9-5.5-4.1-5.6-4.2-.2-5.1,13.8-5.6,16.4-2,9.2-5.2,18.6-6.1,28-.2,2.2,2.4,5.8,3.6,2.2Z"/><path class="a" d="M123.5,291.9a58.2,58.2,0,0,0,11.8-1.1c3.5-.6,6.4-.5,8.4-3.6a3,3,0,0,0-.4-3.5c-2.7-2.2-5.6-.5-8.7.4a75.4,75.4,0,0,0-11.5,4.3c-1.2.6-1.2,3.5.4,3.5Z"/><path class="a" d="M177.7,253.8c-3.7-5.5-12.2-4.2-17.5-1.6s-9,10.9-9.5,17.6,1.4,15.3,6.3,21.1,13.1,9.1,19.6,5c2-1.2,2.6-7.9-.8-7.4s-9.3,1-13.3-2.2-6.7-9.4-6.8-14.9A16.3,16.3,0,0,1,162,258c5.2-3.8,9-1.4,14.4-.4,2,.4,2.1-2.6,1.3-3.8Z"/><path class="a" d="M183.1,298.2c6.2-.6,8.6-11.3,9.5-16.2,1.7-9,2.1-17.5,5.6-26.2.8-1.9-1-6.2-3.2-3.5-4.3,5.7-5.2,14.2-6,21.1a60.4,60.4,0,0,1-2.1,11.1c-1.2,3.8-3.8,7-5,10.8-.3.8-.2,3,1.2,2.9Z"/><path class="a" d="M197.3,254.8c-3.1,5.8-.2,14.8,1.6,20.6s5.6,16.6,11.5,20.7c2.8,2,3.8-3,3-4.8-2.9-6.3-7.4-11.6-9.7-18.4a59.8,59.8,0,0,1-2.6-10.3c-.5-2.7-.6-5.4-2-7.8a1,1,0,0,0-1.8,0Z"/><path class="a" d="M189.8,284.2c3,.3,5.8.7,8.8.8s5,.9,7.2-.8,1-3.5-.1-4.5-4.7-1.3-7.3-1.2a42.7,42.7,0,0,0-8.7,1.4c-1.8.4-1.9,4.2.1,4.3Z"/><path class="a" d="M188.5,245.2c4.4-1.8,8.6-1.4,13,.4s5.8.9,6.7-2.5c.4-1.4.5-3.7-.9-4.7a1.9,1.9,0,0,0-3,1.3,57,57,0,0,0-8.6-2.1,17.4,17.4,0,0,0-8.4,1.8c-2.3,1.1-1.6,6.9,1.2,5.8Z"/><path class="a" d="M227,247.6c-11.1,1.9-15.9,17.4-14,26.9s12.3,23.5,23.9,19.7c5.9-1.9,7.7-8.4,8.7-13.9a41.1,41.1,0,0,0-.6-19.1c-1.7-5.4-4.8-10.2-9.8-13.1S225,244,221,247.4c-1.4,1.2-1,4.5.9,4.8,3.4.5,6.6-.2,9.9,1.2a15.8,15.8,0,0,1,8.4,8.1c2.8,6,3.1,23.3-5.5,24.9s-15.4-7.2-16.7-14.2a18.2,18.2,0,0,1,2-12.3c2-3.6,5-5.8,7.7-8.7.7-.7,1-3.9-.7-3.6Z"/><path class="a" d="M255.5,250c-.4,5.7-.3,11.4-.7,17.2s-1.4,10.4,0,15.4c.4,1.5,1.7,2.6,2.9,1.1,3.2-4.2,3.2-10.3,3.5-15.4a95.4,95.4,0,0,0-.6-18.5c-.5-3.6-4.8-3.6-5.1.2Z"/><path class="a" d="M255.1,299l1.5.4h.5l.7.3c1.4.5,2.3-1,2.6-2.1a5.5,5.5,0,0,0,.1-2.2,3.9,3.9,0,0,0-1.1-2.1c-1.5-.9-2.8-1.4-4.5-.6a3.1,3.1,0,0,0-1.4,3.1c0,1.1.4,2.7,1.6,3.1Z"/></svg>