<svg xmlns="http://www.w3.org/2000/svg" viewBox="0 0 51.02 46.98"><defs><style>.a{fill:#fff;}.b{fill:#00427b;}.c{fill:#00803e;}</style></defs><title>unb</title><rect class="a" width="51.02" height="25.51"/><path class="b" d="M7.09,41.42V32.6h3.24v8.58c0,2.23,1,3.26,2.86,3.26S16,43.37,16,41.07V32.6h3.26v8.68c0,3.91-2.33,5.7-6.12,5.7C9.5,47,7.09,45.33,7.09,41.42Z"/><path class="b" d="M28.87,46.77V40.4c0-1.52-.43-2.29-1.69-2.29s-2,1.12-2,2.9v5.76H22V38.42c0-1.12,0-1.91-.06-2.52h3c0,.39.14,1.63.17,2.23a3.36,3.36,0,0,1,3.46-2.43c2.74,0,3.51,1.85,3.51,3.87v7.2Z"/><path class="b" d="M40.2,46.77H34.81V32.6h4.91c3.28,0,5.17,1.2,5.17,3.59a2.94,2.94,0,0,1-2.56,3.06c2.17.28,3.37,1.58,3.37,3.47C45.7,45.57,43.39,46.77,40.2,46.77Zm-.79-11.86H38v3.31h1.44c1.55,0,2.21-.51,2.21-1.67S40.93,34.91,39.41,34.91Zm.39,5.72H38v3.79H39.9c1.5,0,2.51-.49,2.51-2S41.24,40.63,39.8,40.63Z"/><path class="c" d="M43.16,9.28a45.34,45.34,0,0,1-8.43,4.77,17.42,17.42,0,0,1-4.82,1.31,30,30,0,0,1-3.69.23v9.92H51V3.59L43.16,9.28Z"/><path class="c" d="M7.87,9.28a44.94,44.94,0,0,0,8.42,4.77,17.52,17.52,0,0,0,4.82,1.31,30,30,0,0,0,3.69.23v9.92H0V3.59L7.87,9.28Z"/><path class="b" d="M26.22,0V14.17A29.31,29.31,0,0,0,29.74,14h0a16.3,16.3,0,0,0,4.43-1.21,43.91,43.91,0,0,0,8.16-4.62h0L51,1.84V0Z"/><path class="b" d="M24.8,0V14.17A29,29,0,0,1,21.29,14h0a16.11,16.11,0,0,1-4.43-1.21A43.59,43.59,0,0,1,8.7,8.13h0L0,1.84V0Z"/></svg>