<svg xmlns="http://www.w3.org/2000/svg" xmlns:xlink="http://www.w3.org/1999/xlink" viewBox="0 0 424.17 168"><defs><style>.cls-2,.cls-3,.cls-4,.cls-5,.cls-6{fill:#fff}</style><symbol id="Vermelho-2" data-name="Vermelho" viewBox="0 0 168 168"><path d="M88.15 168a4 4 0 0 1-.2-8 75.78 75.78 0 0 0 17.19-2.88 4 4 0 0 1 2.22 7.72 83.87 83.87 0 0 1-19 3.19zm57.48-29a4 4 0 0 1-2.55-.92 4 4 0 0 1-.53-5.66 76.81 76.81 0 0 0 11.53-78.31 4 4 0 1 1 7.37-3.11 84.87 84.87 0 0 1-12.74 86.56 4 4 0 0 1-3.08 1.44zM4 88a4 4 0 0 1-4-4A84.22 84.22 0 0 1 44.91 9.36a4.1 4.1 0 0 1 5.14 1 4 4 0 0 1-1.29 6A76.21 76.21 0 0 0 8 83.94 4 4 0 0 1 4 88zm42-19.23c-11.26.84-20.65 5.05-27.16 12.2-7.52 8.25-11.17 19.8-10 31.68A43.84 43.84 0 0 0 26 143.78a4 4 0 0 0 5.59-.85 4 4 0 0 0-.84-5.62c-7.73-5.73-12.93-15.24-13.92-25.44-.95-9.76 1.88-18.81 8-25.48 10.39-11.49 29.23-11.54 43.69-6.64a16 16 0 0 1 3.93-7.11A64.4 64.4 0 0 0 46 68.77zM118.7 10A42.35 42.35 0 0 0 92.42 0a4 4 0 0 0-.18 8 34.34 34.34 0 0 1 21.31 8.08C122.84 24 127 37.33 124 49.37c-2.55 10.17-12.15 21.39-26.35 26A16 16 0 0 1 100 83c14-4.73 27.85-15.88 31.82-31.69 3.72-14.93-1.54-31.55-13.12-41.31z" class="cls-2"/><path d="M84 152.27A67.41 67.41 0 0 1 57.83 147a4.15 4.15 0 0 1-2.58-4.57 4 4 0 0 1 5.48-2.92A59.48 59.48 0 0 0 84 144.23a59.92 59.92 0 0 0 38.31-13.87 4 4 0 0 1 6.45 2.06 3.9 3.9 0 0 1-1.29 4.08A67.93 67.93 0 0 1 84 152.27zm-60.24-42.73a4 4 0 0 1-3.76-2.66 68.35 68.35 0 0 1-3.55-15.25 4 4 0 1 1 7.95-.92 60.27 60.27 0 0 0 3.13 13.45 4 4 0 0 1-2.41 5.14 4 4 0 0 1-1.36.24zm121.75-3.95a4 4 0 0 1-1.11-.16 4 4 0 0 1-2.74-5 60.59 60.59 0 0 0 2.26-13.63 4 4 0 1 1 8 .4 68.68 68.68 0 0 1-2.56 15.45 4 4 0 0 1-3.85 2.94zm-15.82-62.86a4 4 0 0 1-2.85-1.2 59.7 59.7 0 0 0-19.65-13.39 4 4 0 0 1 3.09-7.41 67.66 67.66 0 0 1 22.27 15.17 4 4 0 0 1-.05 5.68 4 4 0 0 1-2.81 1.15zM86.27 26.82c-6-5-13.72-7.13-22.3-6.17a43.36 43.36 0 0 0-20.79 8.41 67.09 67.09 0 0 0-19.42 23.28A4 4 0 1 0 30.89 56 59 59 0 0 1 48 35.5c9.46-7.09 23.91-10.23 33.2-2.49 9.13 7.6 10.91 23.87 4.22 34.74A15.86 15.86 0 0 1 93 70.49c7.77-14.16 5.06-33.87-6.73-43.67z" class="cls-3"/><path d="M50.35 122.16a4 4 0 0 1-2.8-1.15A52 52 0 0 1 36 103.9a4 4 0 1 1 7.38-3.1 44 44 0 0 0 9.77 14.48 4 4 0 0 1 0 5.68 4 4 0 0 1-2.8 1.2zm70.57-3.58a4 4 0 0 1-2.56-.93 4 4 0 0 1-.52-5.66 44.47 44.47 0 0 0 6.72-45.39 4 4 0 1 1 7.37-3.12 52.54 52.54 0 0 1-7.93 53.65 4 4 0 0 1-3.08 1.45zM36 88a4 4 0 0 1-4-4.08 52.14 52.14 0 0 1 27.92-46.16 4 4 0 0 1 5.72 2.5 4.09 4.09 0 0 1-2.09 4.66A44.12 44.12 0 0 0 40 84a4 4 0 0 1-4 4zm64.27-45.62a4 4 0 0 1-1.35-.24 43.68 43.68 0 0 0-9.82-2.31 4 4 0 0 1 .91-8 51.66 51.66 0 0 1 11.61 2.73 4 4 0 0 1-1.35 7.8zm1.83 55.83c5.73 6.24 6.4 15.59 1.57 21.76-4.22 5.39-11.8 8.7-19.22 8.52a33.17 33.17 0 0 1-9.82-1.79 4 4 0 0 0-2.63 7.6 41.12 41.12 0 0 0 12.18 2.22h.88c9.61 0 19.29-4.49 24.86-11.6 7.24-9.24 6.39-23.07-2-32.18a29.32 29.32 0 0 0-8.23-6.26 16 16 0 0 1-3.3 7.33 21.28 21.28 0 0 1 5.71 4.4z" class="cls-4"/><path d="M102 114.32a4 4 0 0 1-2.22-7.32 28.22 28.22 0 0 0 11.86-18.75 4 4 0 1 1 7.9 1.27 36.29 36.29 0 0 1-15.25 24.12 4 4 0 0 1-2.29.68zM52 86h-.21A4 4 0 0 1 48 81.82a36.34 36.34 0 0 1 12.6-25.61 4 4 0 0 1 5.64.45 4 4 0 0 1-.45 5.66A28.26 28.26 0 0 0 56 82.24 4 4 0 0 1 52 86zm57.44-17.75a4 4 0 0 1-3.18-1.58A28.06 28.06 0 0 0 87 55.78a4 4 0 0 1 .84-8 36.09 36.09 0 0 1 24.79 14 4 4 0 0 1-.75 5.63 4 4 0 0 1-2.44.84zM69.5 90.51c-4 4.52-6.33 10.79-3.67 17.15C68.59 114.24 75.94 119 83.32 119a4 4 0 0 0 3.68-5.73 3.9 3.9 0 0 0-3.66-2.27 11.4 11.4 0 0 1-10.11-6.44c-1.21-2.88-.18-5.61 1.46-7.76a16.07 16.07 0 0 1-5.19-6.29z" class="cls-5"/><path d="M84 104a20 20 0 1 1 20-20 20 20 0 0 1-20 20zm0-32a12 12 0 1 0 12 12 12 12 0 0 0-12-12z" class="cls-6"/></symbol></defs><g id="Camada_2" data-name="Camada 2"><g id="Imagotipos"><g id="Vermelho"><path id="Texto" d="M195.61 52.57a1.11 1.11 0 0 1-.23.85 1.5 1.5 0 0 1-.92.2h-2a1.5 1.5 0 0 1-.92-.2 1.11 1.11 0 0 1-.23-.85v-20.7h-3.67a1.11 1.11 0 0 1-.85-.23 1.5 1.5 0 0 1-.2-.92v-1.58a1.5 1.5 0 0 1 .2-.92 1.11 1.11 0 0 1 .85-.23h6.81a1.51 1.51 0 0 1 .92.2 1.11 1.11 0 0 1 .23.85zm9.67-11.84a5.48 5.48 0 0 1-4-1.4 5.18 5.18 0 0 1-1.44-3.89v-2a5.69 5.69 0 0 1 9.43-4.07 5.18 5.18 0 0 1 1.44 3.89v2a5 5 0 0 1-5.44 5.47zm0-10.19a2.28 2.28 0 0 0-1.89.74 3.76 3.76 0 0 0-.59 2.36v1.44a3.76 3.76 0 0 0 .59 2.36 2.79 2.79 0 0 0 3.78 0 3.76 3.76 0 0 0 .59-2.36v-1.44a3.76 3.76 0 0 0-.59-2.36 2.29 2.29 0 0 0-1.89-.74zm29.64 15.52a1 1 0 0 1 .27-.72 1.53 1.53 0 0 1 .88-.18h2.16a1.51 1.51 0 0 1 .92.2 1 1 0 0 1 .23.77 9.48 9.48 0 0 1-.47 3.22 6.81 6.81 0 0 1-1.55 2.39q-2.38 2.45-7.2 2.45a9.69 9.69 0 0 1-5-1.24A7.84 7.84 0 0 1 222 49.3a8.55 8.55 0 0 1-.65-2.3 25 25 0 0 1-.18-3.38v-5.27a22 22 0 0 1 .2-3.24 12.16 12.16 0 0 1 .63-2.45 7.58 7.58 0 0 1 3.19-3.91 10.38 10.38 0 0 1 5.49-1.35q4.61 0 6.84 2.41a6.57 6.57 0 0 1 1.48 2.41 10 10 0 0 1 .43 3.13 1 1 0 0 1-.23.77 1.5 1.5 0 0 1-.92.2H236a1.53 1.53 0 0 1-.88-.18 1 1 0 0 1-.27-.72 4.58 4.58 0 0 0-1.08-3.24 4.73 4.73 0 0 0-3.35-1 4.27 4.27 0 0 0-3.71 1.49q-1.08 1.49-1.08 5.06v6q0 3.46 1.1 5a4.19 4.19 0 0 0 3.65 1.53 4.73 4.73 0 0 0 3.37-1 4.5 4.5 0 0 0 1.17-3.2zm17.27-18.65a10.73 10.73 0 0 1 5.38 1.24 7.51 7.51 0 0 1 3.22 3.65 8.61 8.61 0 0 1 .65 2.34 25.2 25.2 0 0 1 .18 3.35v5.26a22.59 22.59 0 0 1-.2 3.22 11.38 11.38 0 0 1-.63 2.47 7.9 7.9 0 0 1-3.22 3.92 10.15 10.15 0 0 1-5.38 1.33 10.72 10.72 0 0 1-5.38-1.24 7.5 7.5 0 0 1-3.22-3.65 8.56 8.56 0 0 1-.65-2.34 25.11 25.11 0 0 1-.18-3.35v-5.26a22.52 22.52 0 0 1 .2-3.22 11.36 11.36 0 0 1 .63-2.47 7.89 7.89 0 0 1 3.22-3.92 10.15 10.15 0 0 1 5.38-1.33zm0 3.85a4.45 4.45 0 0 0-3.8 1.51q-1.13 1.51-1.13 5v6q0 3.49 1.13 5a5.53 5.53 0 0 0 7.6 0q1.13-1.51 1.13-5v-6q0-3.49-1.13-5a4.45 4.45 0 0 0-3.8-1.51zM270 36.3v16.27a1.11 1.11 0 0 1-.23.85 1.5 1.5 0 0 1-.92.2h-2a1.5 1.5 0 0 1-.92-.2 1.11 1.11 0 0 1-.23-.85V29a1.11 1.11 0 0 1 .23-.85 1.5 1.5 0 0 1 .92-.2H269a2.24 2.24 0 0 1 1 .16 2 2 0 0 1 .67.85l8.61 16.31V29a1.11 1.11 0 0 1 .23-.85 1.5 1.5 0 0 1 .92-.2h2a1.51 1.51 0 0 1 .92.2 1.11 1.11 0 0 1 .23.85v23.57a1.11 1.11 0 0 1-.23.85 1.5 1.5 0 0 1-.92.2h-2.13a2.24 2.24 0 0 1-1-.16 2 2 0 0 1-.67-.85zm17.68 2.05a15.3 15.3 0 0 1 .83-5.69 7.69 7.69 0 0 1 3.37-3.92 11 11 0 0 1 5.56-1.33 13.08 13.08 0 0 1 3.47.45 8.28 8.28 0 0 1 2.86 1.39 6.7 6.7 0 0 1 1.94 2.39 7.77 7.77 0 0 1 .72 3.47.79.79 0 0 1-.25.68 1.63 1.63 0 0 1-.9.18h-2.23a1.53 1.53 0 0 1-.88-.18 1 1 0 0 1-.27-.72 3.89 3.89 0 0 0-1.3-3 5.56 5.56 0 0 0-3.46-.9 7.37 7.37 0 0 0-2.27.31 3.14 3.14 0 0 0-1.53 1.06 5 5 0 0 0-.88 2 14.52 14.52 0 0 0-.29 3.17v6q0 3.64 1.21 5.11a4.58 4.58 0 0 0 3.76 1.48 4.88 4.88 0 0 0 3.6-1.22Q302 48 302 45v-.68h-2.8a1.11 1.11 0 0 1-.85-.23 1.5 1.5 0 0 1-.2-.92v-1.58a1.5 1.5 0 0 1 .2-.92 1.11 1.11 0 0 1 .85-.23h6.09a1.5 1.5 0 0 1 .92.2 1.11 1.11 0 0 1 .23.85v4.07a9.85 9.85 0 0 1-.56 3.33 7.56 7.56 0 0 1-1.71 2.75 8 8 0 0 1-2.92 1.87 11.44 11.44 0 0 1-4.14.68 10.33 10.33 0 0 1-5.53-1.28 8 8 0 0 1-3.08-3.62 8.56 8.56 0 0 1-.65-2.32 25 25 0 0 1-.18-3.37zm27.15 5.26v9a1.18 1.18 0 0 1-.22.83 1.39 1.39 0 0 1-.94.22h-2a1.39 1.39 0 0 1-.94-.22 1.18 1.18 0 0 1-.22-.83V29a1.18 1.18 0 0 1 .22-.83 1.39 1.39 0 0 1 .94-.22h7.71q4.28 0 6.27 1.78t2 5.71v.68q0 5.47-4.36 6.91l5.37 9.5a1.14 1.14 0 0 1 .14.47q0 .58-.94.58h-2.7a1.52 1.52 0 0 1-.88-.2 2.73 2.73 0 0 1-.63-.85l-4.86-9zm0-3.74h4.5a4.15 4.15 0 0 0 3-.85 4 4 0 0 0 .86-2.9v-.5a4.28 4.28 0 0 0-.85-3 4.09 4.09 0 0 0-3-.86h-4.5zm33.27 12.59a1.5 1.5 0 0 1-.2.92 1.11 1.11 0 0 1-.85.23h-13.57a1.5 1.5 0 0 1-.92-.2 1.11 1.11 0 0 1-.23-.85V29a1.11 1.11 0 0 1 .23-.85 1.5 1.5 0 0 1 .92-.2h13.43a1.11 1.11 0 0 1 .85.23 1.51 1.51 0 0 1 .2.92v1.58a1.5 1.5 0 0 1-.2.92 1.11 1.11 0 0 1-.85.23h-10.19v6.67H346a1.11 1.11 0 0 1 .85.23 1.5 1.5 0 0 1 .2.92v1.58a1.5 1.5 0 0 1-.2.92 1.11 1.11 0 0 1-.85.23h-9.25v7.34h10.33a1.11 1.11 0 0 1 .85.23 1.51 1.51 0 0 1 .2.92zm7.52-5.11a3.64 3.64 0 0 0 1.4 2.32 5.2 5.2 0 0 0 3.06.77 5.25 5.25 0 0 0 3.28-.81 3.2 3.2 0 0 0 1-2.65 3.39 3.39 0 0 0-.83-2.36 5.92 5.92 0 0 0-2.66-1.49L357.06 42a8.31 8.31 0 0 1-4.06-2.6 6.25 6.25 0 0 1-1.42-4.1V35a7 7 0 0 1 2.29-5.58 9.63 9.63 0 0 1 6.5-2q4.54 0 6.73 2.41a6.12 6.12 0 0 1 1.49 4.17 1 1 0 0 1-.23.77 1.5 1.5 0 0 1-.92.2h-2.05a1.52 1.52 0 0 1-.9-.18 1.12 1.12 0 0 1-.29-.72q-.32-3-4.21-3t-4 3.56a4 4 0 0 0 .18 1.26 2.32 2.32 0 0 0 .61 1 4.43 4.43 0 0 0 1.13.76 12.56 12.56 0 0 0 1.75.67l3.82 1.19a7.75 7.75 0 0 1 4.09 2.61 7 7 0 0 1 1.35 4.34v.47a6.61 6.61 0 0 1-2.27 5.38 9.75 9.75 0 0 1-6.41 1.89q-4.9 0-7.17-2.27a6.82 6.82 0 0 1-1.39-2.09 6.15 6.15 0 0 1-.49-2.41 1 1 0 0 1 .23-.77 1.5 1.5 0 0 1 .92-.2h2a1.53 1.53 0 0 1 .88.18 1.19 1.19 0 0 1 .4.71zm20.8 0a3.64 3.64 0 0 0 1.4 2.32 5.2 5.2 0 0 0 3.06.77 5.25 5.25 0 0 0 3.28-.81 3.2 3.2 0 0 0 1-2.65 3.39 3.39 0 0 0-.83-2.36 5.92 5.92 0 0 0-2.66-1.49L377.86 42a8.31 8.31 0 0 1-4.09-2.56 6.25 6.25 0 0 1-1.42-4.1V35a7 7 0 0 1 2.29-5.58 9.63 9.63 0 0 1 6.5-2q4.54 0 6.73 2.41a6.12 6.12 0 0 1 1.51 4.17 1 1 0 0 1-.23.77 1.5 1.5 0 0 1-.92.2h-2.05a1.52 1.52 0 0 1-.9-.18 1.12 1.12 0 0 1-.29-.72q-.32-3-4.21-3t-4 3.56a4 4 0 0 0 .18 1.26 2.32 2.32 0 0 0 .61 1 4.43 4.43 0 0 0 1.13.76 12.56 12.56 0 0 0 1.75.67l3.82 1.19a7.75 7.75 0 0 1 4.09 2.61 7 7 0 0 1 1.35 4.34v.47a6.61 6.61 0 0 1-2.27 5.38 9.75 9.75 0 0 1-6.41 1.89q-4.9 0-7.17-2.27a6.82 6.82 0 0 1-1.39-2.09 6.15 6.15 0 0 1-.49-2.41 1 1 0 0 1 .23-.77 1.5 1.5 0 0 1 .92-.2h2a1.53 1.53 0 0 1 .88.18 1.19 1.19 0 0 1 .41.71zm26.08-19.94a10.73 10.73 0 0 1 5.38 1.24 7.51 7.51 0 0 1 3.22 3.65 8.61 8.61 0 0 1 .65 2.34 25.2 25.2 0 0 1 .18 3.35v5.26a22.59 22.59 0 0 1-.2 3.22 11.38 11.38 0 0 1-.63 2.47 7.9 7.9 0 0 1-3.22 3.92 10.15 10.15 0 0 1-5.38 1.33 10.72 10.72 0 0 1-5.38-1.24 7.5 7.5 0 0 1-3.22-3.65 8.56 8.56 0 0 1-.65-2.34 25.11 25.11 0 0 1-.18-3.35v-5.26a22.52 22.52 0 0 1 .2-3.22 11.36 11.36 0 0 1 .63-2.47 7.89 7.89 0 0 1 3.22-3.92 10.15 10.15 0 0 1 5.38-1.33zm0 3.85a4.45 4.45 0 0 0-3.8 1.51q-1.13 1.51-1.13 5v6q0 3.49 1.13 5a5.53 5.53 0 0 0 7.6 0q1.13-1.51 1.13-5v-6q0-3.49-1.13-5a4.45 4.45 0 0 0-3.8-1.51zM186.17 72.23a2 2 0 0 1-.07-.4q0-.65.79-.65h2.59a1.42 1.42 0 0 1 .9.2 1.91 1.91 0 0 1 .4.85l5.51 19.15 5.51-19.15a1.89 1.89 0 0 1 .4-.85 1.42 1.42 0 0 1 .9-.2h2.48q.79 0 .79.65a2 2 0 0 1-.07.4L199 96.17a.83.83 0 0 1-.4.54 2 2 0 0 1-.76.11h-3.2a2 2 0 0 1-.76-.11.82.82 0 0 1-.4-.54zm39.17 23.43a1.5 1.5 0 0 1-.2.92 1.11 1.11 0 0 1-.85.23h-13.56a1.5 1.5 0 0 1-.92-.2 1.11 1.11 0 0 1-.23-.85V72.23a1.11 1.11 0 0 1 .23-.85 1.5 1.5 0 0 1 .92-.2h13.43a1.11 1.11 0 0 1 .85.23 1.51 1.51 0 0 1 .2.92v1.58a1.5 1.5 0 0 1-.2.92 1.11 1.11 0 0 1-.85.23H214v6.64h9.25a1.11 1.11 0 0 1 .85.23 1.5 1.5 0 0 1 .2.92v1.58a1.5 1.5 0 0 1-.2.92 1.11 1.11 0 0 1-.85.23H214v7.34h10.3a1.11 1.11 0 0 1 .85.23 1.51 1.51 0 0 1 .2.92zm8.24-8.85v9a1.18 1.18 0 0 1-.22.83 1.39 1.39 0 0 1-.94.22h-2a1.39 1.39 0 0 1-.94-.22 1.18 1.18 0 0 1-.22-.83V72.23a1.18 1.18 0 0 1 .22-.83 1.39 1.39 0 0 1 .94-.22h7.71q4.28 0 6.27 1.78t2 5.71v.68q0 5.47-4.36 6.91l5.37 9.5a1.14 1.14 0 0 1 .14.47q0 .58-.94.58h-2.7a1.52 1.52 0 0 1-.88-.2 2.73 2.73 0 0 1-.63-.85l-4.86-9zm0-3.74h4.5a4.15 4.15 0 0 0 3-.85 4 4 0 0 0 .86-2.9v-.5a4.28 4.28 0 0 0-.85-3 4.09 4.09 0 0 0-3-.86h-4.5zm23.04-8h-6.3a1.11 1.11 0 0 1-.85-.23 1.5 1.5 0 0 1-.2-.92v-1.58a1.5 1.5 0 0 1 .2-.92 1.11 1.11 0 0 1 .85-.23h17a1.11 1.11 0 0 1 .85.23 1.51 1.51 0 0 1 .2.92v1.58a1.5 1.5 0 0 1-.2.92 1.11 1.11 0 0 1-.85.23H261v20.7a1.11 1.11 0 0 1-.23.85 1.5 1.5 0 0 1-.92.2h-2.09a1.5 1.5 0 0 1-.92-.2 1.11 1.11 0 0 1-.23-.85zm30.81 20.59a1.5 1.5 0 0 1-.2.92 1.11 1.11 0 0 1-.85.23h-13.57a1.5 1.5 0 0 1-.92-.2 1.11 1.11 0 0 1-.23-.85V72.23a1.11 1.11 0 0 1 .23-.85 1.5 1.5 0 0 1 .92-.2h13.43a1.11 1.11 0 0 1 .85.23 1.51 1.51 0 0 1 .2.92v1.58a1.5 1.5 0 0 1-.2.92 1.11 1.11 0 0 1-.85.23h-10.18v6.64h9.25a1.11 1.11 0 0 1 .85.23 1.5 1.5 0 0 1 .2.92v1.58a1.5 1.5 0 0 1-.2.92 1.11 1.11 0 0 1-.85.23h-9.25v7.34h10.33a1.11 1.11 0 0 1 .85.23 1.51 1.51 0 0 1 .2.92zm8.2-16.16v16.27a1.11 1.11 0 0 1-.23.85 1.5 1.5 0 0 1-.92.2h-2a1.5 1.5 0 0 1-.92-.2 1.11 1.11 0 0 1-.23-.85V72.23a1.11 1.11 0 0 1 .23-.85 1.5 1.5 0 0 1 .92-.2h2.09a2.24 2.24 0 0 1 1 .16 2 2 0 0 1 .67.85l8.61 16.31V72.23a1.11 1.11 0 0 1 .23-.85 1.5 1.5 0 0 1 .92-.2h2a1.51 1.51 0 0 1 .92.2 1.11 1.11 0 0 1 .23.85v23.54a1.11 1.11 0 0 1-.23.85 1.5 1.5 0 0 1-.92.2h-2.09a2.24 2.24 0 0 1-1-.16 2 2 0 0 1-.67-.85zm24.17-4.43h-6.3a1.11 1.11 0 0 1-.85-.23 1.5 1.5 0 0 1-.2-.92v-1.58a1.5 1.5 0 0 1 .2-.92 1.11 1.11 0 0 1 .85-.23h17a1.11 1.11 0 0 1 .85.23 1.51 1.51 0 0 1 .2.92v1.58a1.5 1.5 0 0 1-.2.92 1.11 1.11 0 0 1-.85.23h-6.3v20.7a1.11 1.11 0 0 1-.23.85 1.5 1.5 0 0 1-.92.2H321a1.5 1.5 0 0 1-.92-.2 1.11 1.11 0 0 1-.23-.85zm30.81 20.59a1.5 1.5 0 0 1-.2.92 1.11 1.11 0 0 1-.85.23H336a1.5 1.5 0 0 1-.92-.2 1.11 1.11 0 0 1-.23-.85V72.23a1.11 1.11 0 0 1 .23-.85 1.5 1.5 0 0 1 .92-.2h13.43a1.11 1.11 0 0 1 .85.23 1.51 1.51 0 0 1 .2.92v1.58a1.5 1.5 0 0 1-.2.92 1.11 1.11 0 0 1-.85.23h-10.2v6.64h9.25a1.11 1.11 0 0 1 .85.23 1.5 1.5 0 0 1 .2.92v1.58a1.5 1.5 0 0 1-.2.92 1.11 1.11 0 0 1-.85.23h-9.25v7.34h10.33a1.11 1.11 0 0 1 .85.23 1.51 1.51 0 0 1 .2.92zm7.53-5.11a3.64 3.64 0 0 0 1.4 2.32 5.2 5.2 0 0 0 3.06.77 5.25 5.25 0 0 0 3.28-.81 3.2 3.2 0 0 0 1-2.65 3.39 3.39 0 0 0-.83-2.36 5.92 5.92 0 0 0-2.66-1.49l-3.82-1.19a8.31 8.31 0 0 1-4.09-2.56 6.25 6.25 0 0 1-1.42-4.1v-.32a7 7 0 0 1 2.29-5.58 9.63 9.63 0 0 1 6.5-2q4.54 0 6.73 2.41a6.12 6.12 0 0 1 1.51 4.18 1 1 0 0 1-.23.77 1.5 1.5 0 0 1-.92.2h-2.04a1.52 1.52 0 0 1-.9-.14 1.12 1.12 0 0 1-.29-.72q-.32-3-4.21-3t-4 3.56a4 4 0 0 0 .18 1.26 2.32 2.32 0 0 0 .61 1 4.43 4.43 0 0 0 1.13.76 12.56 12.56 0 0 0 1.75.67L366 82.7a7.75 7.75 0 0 1 4.09 2.61 7 7 0 0 1 1.35 4.34v.47a6.61 6.61 0 0 1-2.27 5.38 9.75 9.75 0 0 1-6.41 1.89q-4.9 0-7.17-2.27a6.82 6.82 0 0 1-1.36-2.12 6.15 6.15 0 0 1-.49-2.41 1 1 0 0 1 .23-.77 1.5 1.5 0 0 1 .92-.2h2a1.53 1.53 0 0 1 .88.18 1.19 1.19 0 0 1 .37.75zm33.02-19.37a11.48 11.48 0 0 1 3.15.4 9.51 9.51 0 0 1 2.45 1.06 7.25 7.25 0 0 1 1.78 1.55 7.92 7.92 0 0 1 1.15 1.89 11.7 11.7 0 0 1 .63 2.18 17.92 17.92 0 0 1 .23 3.26v5.15a17.34 17.34 0 0 1-.23 3.2 10.84 10.84 0 0 1-.63 2.12 7.88 7.88 0 0 1-1.08 1.85 7.28 7.28 0 0 1-1.61 1.55 7.85 7.85 0 0 1-2.29 1 10.76 10.76 0 0 1-3 .38h-7.89a1.5 1.5 0 0 1-.92-.2 1.11 1.11 0 0 1-.23-.85V72.23a1.11 1.11 0 0 1 .23-.85 1.5 1.5 0 0 1 .92-.2zm-4.11 21.74h4a6.79 6.79 0 0 0 2.14-.31 3.48 3.48 0 0 0 1.55-1 4.76 4.76 0 0 0 1-1.93 11.8 11.8 0 0 0 .32-3v-5.34a11.07 11.07 0 0 0-.34-3 4.94 4.94 0 0 0-1-1.93 3.62 3.62 0 0 0-1.55-1 6.31 6.31 0 0 0-2.11-.32h-4zm37.05 2.85a2 2 0 0 1 .07.4q0 .65-.79.65h-2.52a1.33 1.33 0 0 1-.88-.2 2.34 2.34 0 0 1-.41-.85l-1.67-5.07h-9.43l-1.62 5.11a2.13 2.13 0 0 1-.41.83 1.43 1.43 0 0 1-.88.18h-2.38q-.79 0-.79-.65a2 2 0 0 1 .07-.4l8.1-23.94a.82.82 0 0 1 .4-.54 2 2 0 0 1 .76-.11h3.24a2 2 0 0 1 .76.11.82.82 0 0 1 .4.54zM409.66 87h7l-3.51-11zm-217.55 43.51V139a1.11 1.11 0 0 1-.23.85 1.5 1.5 0 0 1-.92.2h-2a1.5 1.5 0 0 1-.92-.2 1.11 1.11 0 0 1-.23-.85v-23.57a1.11 1.11 0 0 1 .23-.85 1.5 1.5 0 0 1 .92-.2h7.17a15.21 15.21 0 0 1 3.74.41 6.52 6.52 0 0 1 2.7 1.35 5.73 5.73 0 0 1 1.62 2.41 10.66 10.66 0 0 1 .54 3.64v.72q0 3.92-2.18 5.76t-6.43 1.84zm0-3.74h4a6.31 6.31 0 0 0 2.18-.31 2.82 2.82 0 0 0 1.24-.85 2.89 2.89 0 0 0 .58-1.26 7.71 7.71 0 0 0 .14-1.51v-.5a8.89 8.89 0 0 0-.14-1.66 3.18 3.18 0 0 0-.58-1.33 2.81 2.81 0 0 0-1.24-.9 6 6 0 0 0-2.18-.32h-4zm19.75 6.98a3.64 3.64 0 0 0 1.4 2.32 5.2 5.2 0 0 0 3.06.77 5.25 5.25 0 0 0 3.28-.81 3.2 3.2 0 0 0 1-2.65 3.39 3.39 0 0 0-.83-2.36 5.92 5.92 0 0 0-2.66-1.49l-3.82-1.19a8.31 8.31 0 0 1-4.09-2.56 6.25 6.25 0 0 1-1.42-4.1v-.32a7 7 0 0 1 2.29-5.58 9.63 9.63 0 0 1 6.5-2q4.54 0 6.73 2.41a6.12 6.12 0 0 1 1.51 4.18 1 1 0 0 1-.23.77 1.5 1.5 0 0 1-.92.2h-2.05a1.52 1.52 0 0 1-.9-.18 1.12 1.12 0 0 1-.29-.72q-.32-3-4.21-3t-4 3.56a4 4 0 0 0 .18 1.26 2.32 2.32 0 0 0 .61 1 4.43 4.43 0 0 0 1.13.76 12.56 12.56 0 0 0 1.75.67l3.82 1.19a7.75 7.75 0 0 1 4.09 2.61 7 7 0 0 1 1.35 4.34v.47a6.61 6.61 0 0 1-2.27 5.38 9.75 9.75 0 0 1-6.41 1.89q-4.9 0-7.17-2.27a6.82 6.82 0 0 1-1.39-2.09 6.15 6.15 0 0 1-.49-2.41 1 1 0 0 1 .23-.77 1.5 1.5 0 0 1 .92-.2h2a1.53 1.53 0 0 1 .88.18 1.19 1.19 0 0 1 .42.74zm21.35 5.25a1.11 1.11 0 0 1-.23.85 1.5 1.5 0 0 1-.92.2H230a1.5 1.5 0 0 1-.92-.2 1.11 1.11 0 0 1-.23-.85v-23.57a1.11 1.11 0 0 1 .23-.85 1.5 1.5 0 0 1 .92-.2h2.09a1.51 1.51 0 0 1 .92.2 1.11 1.11 0 0 1 .23.85zm17.92-6.54a1 1 0 0 1 .27-.72 1.53 1.53 0 0 1 .88-.18h2.16a1.51 1.51 0 0 1 .92.2 1 1 0 0 1 .23.77 9.48 9.48 0 0 1-.47 3.22 6.81 6.81 0 0 1-1.55 2.39q-2.38 2.45-7.2 2.45a9.69 9.69 0 0 1-5-1.24 7.84 7.84 0 0 1-3.17-3.65 8.55 8.55 0 0 1-.65-2.3 25 25 0 0 1-.18-3.38v-5.26a22 22 0 0 1 .2-3.24 12.16 12.16 0 0 1 .63-2.45 7.58 7.58 0 0 1 3.19-3.91 10.38 10.38 0 0 1 5.49-1.35q4.61 0 6.84 2.41a6.57 6.57 0 0 1 1.48 2.41 10 10 0 0 1 .43 3.13 1 1 0 0 1-.23.77 1.5 1.5 0 0 1-.92.2h-2.23a1.53 1.53 0 0 1-.88-.18 1 1 0 0 1-.27-.72 4.58 4.58 0 0 0-1.1-3.23 4.73 4.73 0 0 0-3.35-1 4.27 4.27 0 0 0-3.71 1.49q-1.08 1.49-1.08 5.06v6q0 3.46 1.1 5a4.19 4.19 0 0 0 3.65 1.53 4.73 4.73 0 0 0 3.37-1 4.5 4.5 0 0 0 1.15-3.22zm17.28-18.65a10.73 10.73 0 0 1 5.38 1.24 7.51 7.51 0 0 1 3.21 3.65 8.61 8.61 0 0 1 .65 2.34 25.2 25.2 0 0 1 .18 3.35v5.26a22.59 22.59 0 0 1-.2 3.22 11.38 11.38 0 0 1-.63 2.47 7.9 7.9 0 0 1-3.22 3.92 10.15 10.15 0 0 1-5.38 1.33 10.72 10.72 0 0 1-5.38-1.24 7.5 7.5 0 0 1-3.22-3.65 8.56 8.56 0 0 1-.65-2.34A25.11 25.11 0 0 1 259 130v-5.26a22.52 22.52 0 0 1 .2-3.22 11.36 11.36 0 0 1 .63-2.47 7.89 7.89 0 0 1 3.22-3.92 10.15 10.15 0 0 1 5.36-1.32zm0 3.85a4.45 4.45 0 0 0-3.8 1.51q-1.13 1.51-1.13 5v6q0 3.49 1.13 5a5.53 5.53 0 0 0 7.6 0q1.13-1.51 1.13-5v-6q0-3.49-1.13-5a4.45 4.45 0 0 0-3.8-1.51zm28.59 21.2a1.5 1.5 0 0 1-.2.92 1.11 1.11 0 0 1-.85.23h-12.83a1.5 1.5 0 0 1-.92-.2 1.11 1.11 0 0 1-.2-.81v-23.57a1.11 1.11 0 0 1 .23-.85 1.5 1.5 0 0 1 .92-.2h2.09a1.51 1.51 0 0 1 .92.2 1.11 1.11 0 0 1 .23.85v20.7h9.58a1.11 1.11 0 0 1 .85.23 1.5 1.5 0 0 1 .2.92zm12-25.05a10.73 10.73 0 0 1 5.38 1.24 7.51 7.51 0 0 1 3.22 3.65 8.61 8.61 0 0 1 .65 2.34 25.2 25.2 0 0 1 .18 3.35v5.26a22.59 22.59 0 0 1-.2 3.22 11.38 11.38 0 0 1-.63 2.47 7.9 7.9 0 0 1-3.22 3.92 10.15 10.15 0 0 1-5.38 1.33 10.72 10.72 0 0 1-5.38-1.24 7.5 7.5 0 0 1-3.22-3.65 8.56 8.56 0 0 1-.65-2.34 25.11 25.11 0 0 1-.18-3.35v-5.26a22.52 22.52 0 0 1 .2-3.22 11.36 11.36 0 0 1 .63-2.47 7.89 7.89 0 0 1 3.22-3.92 10.15 10.15 0 0 1 5.38-1.33zm0 3.85a4.45 4.45 0 0 0-3.8 1.51q-1.13 1.51-1.13 5v6q0 3.49 1.13 5a5.53 5.53 0 0 0 7.6 0q1.13-1.51 1.13-5v-6q0-3.49-1.13-5a4.45 4.45 0 0 0-3.8-1.51zm13 7.09a15.3 15.3 0 0 1 .83-5.69 7.69 7.69 0 0 1 3.37-3.92 11 11 0 0 1 5.56-1.33 13.08 13.08 0 0 1 3.47.45 8.28 8.28 0 0 1 2.86 1.39 6.7 6.7 0 0 1 1.94 2.39 7.77 7.77 0 0 1 .72 3.47.79.79 0 0 1-.25.68 1.63 1.63 0 0 1-.9.18h-2.2a1.53 1.53 0 0 1-.88-.18 1 1 0 0 1-.27-.72 3.89 3.89 0 0 0-1.3-3 5.56 5.56 0 0 0-3.46-.9 7.37 7.37 0 0 0-2.27.31 3.14 3.14 0 0 0-1.53 1.06 5 5 0 0 0-.88 2 14.52 14.52 0 0 0-.29 3.17v6q0 3.64 1.21 5.11a4.58 4.58 0 0 0 3.76 1.48 4.88 4.88 0 0 0 3.6-1.22q1.22-1.22 1.22-4.18v-.68h-2.77a1.11 1.11 0 0 1-.85-.23 1.5 1.5 0 0 1-.2-.92V128a1.5 1.5 0 0 1 .2-.92 1.11 1.11 0 0 1 .85-.23h6.09a1.5 1.5 0 0 1 .92.2 1.11 1.11 0 0 1 .23.85v4.1a9.85 9.85 0 0 1-.56 3.33 7.56 7.56 0 0 1-1.71 2.75 8 8 0 0 1-2.92 1.87 11.44 11.44 0 0 1-4.14.68 10.33 10.33 0 0 1-5.53-1.28 8 8 0 0 1-3.08-3.62 8.56 8.56 0 0 1-.65-2.32A25 25 0 0 1 322 130zM349.24 139a1.11 1.11 0 0 1-.23.85 1.5 1.5 0 0 1-.92.2H346a1.5 1.5 0 0 1-.92-.2 1.11 1.11 0 0 1-.23-.85v-23.57a1.11 1.11 0 0 1 .23-.85 1.5 1.5 0 0 1 .92-.2h2.09a1.51 1.51 0 0 1 .92.2 1.11 1.11 0 0 1 .23.85zm24.84 0a2 2 0 0 1 .07.4q0 .65-.79.65h-2.52a1.33 1.33 0 0 1-.88-.2 2.34 2.34 0 0 1-.41-.85l-1.66-5.08h-9.43l-1.63 5.08a2.13 2.13 0 0 1-.41.83 1.43 1.43 0 0 1-.88.18h-2.38q-.79 0-.79-.65a2 2 0 0 1 .07-.4l8.1-23.94a.82.82 0 0 1 .4-.54 2 2 0 0 1 .76-.11h3.24a2 2 0 0 1 .76.11.82.82 0 0 1 .4.54zm-14.44-8.82h7l-3.53-10.94z" class="cls-2"/><use id="Forma" width="168" height="168" xlink:href="#Vermelho-2"/></g></g></g></svg>