<svg xmlns="http://www.w3.org/2000/svg" viewBox="0 0 256 77.78"><defs><style>.cls-1{fill:#fff;}</style></defs><g id="Camada_2" data-name="Camada 2"><g id="Camada_1-2" data-name="Camada 1"><path class="cls-1" d="M1,13.69q1.35,3.08,5.38,3.07a6.26,6.26,0,0,0,3.36-.85,4.94,4.94,0,0,0,2-2.44,7.08,7.08,0,0,0,.4-1.54,14.72,14.72,0,0,0,.12-2V6.62a16.93,16.93,0,0,0-.11-2.1,5.11,5.11,0,0,0-.41-1.46Q10.45,0,6.42,0A6.29,6.29,0,0,0,3.07.84,5,5,0,0,0,1,3.29a7.53,7.53,0,0,0-.4,1.54,14.62,14.62,0,0,0-.12,2v3.29a17,17,0,0,0,.11,2.1A5,5,0,0,0,1,13.69Zm2.3-7.2a5.26,5.26,0,0,1,.71-3.13,2.77,2.77,0,0,1,2.37-.95,2.8,2.8,0,0,1,2.38.95,5.33,5.33,0,0,1,.71,3.13v3.78A5.33,5.33,0,0,1,8.8,13.4a2.8,2.8,0,0,1-2.38.95,2.77,2.77,0,0,1-2.37-.95,5.26,5.26,0,0,1-.71-3.13Z"/><path class="cls-1" d="M19.44,16.71a5.19,5.19,0,0,0,3.85-1.33,3.41,3.41,0,0,0,1-2.54.64.64,0,0,0-.15-.49.94.94,0,0,0-.57-.12H22.37a1,1,0,0,0-.53.1.53.53,0,0,0-.19.37A2.15,2.15,0,0,1,21,14a2.42,2.42,0,0,1-1.51.41,2,2,0,0,1-1.7-.71,4.15,4.15,0,0,1-.51-2.36V9.62a4.1,4.1,0,0,1,.53-2.38,2.07,2.07,0,0,1,1.77-.71A2.14,2.14,0,0,1,21,7a2.29,2.29,0,0,1,.66,1.34.53.53,0,0,0,.19.37,1,1,0,0,0,.53.1h1.17a.94.94,0,0,0,.57-.12.62.62,0,0,0,.15-.49,3.41,3.41,0,0,0-1-2.54,5.19,5.19,0,0,0-3.85-1.33A4.73,4.73,0,0,0,15.8,5.63,5.51,5.51,0,0,0,14.55,9.5v2.21a5.15,5.15,0,0,0,1.25,3.72A4.89,4.89,0,0,0,19.44,16.71Z"/><path class="cls-1" d="M30.21,16.71A4.29,4.29,0,0,0,32,16.34a3.68,3.68,0,0,0,1.35-1.05v.45a.68.68,0,0,0,.15.53.88.88,0,0,0,.57.13h1.2a.88.88,0,0,0,.57-.13.68.68,0,0,0,.15-.53V5.25a.68.68,0,0,0-.15-.53,1,1,0,0,0-.57-.13H34.06a1,1,0,0,0-.58.13.73.73,0,0,0-.14.53v6.6a2.66,2.66,0,0,1-.6,1.84,2.1,2.1,0,0,1-1.66.68,1.72,1.72,0,0,1-1.48-.55,2.67,2.67,0,0,1-.41-1.59v-7a.73.73,0,0,0-.14-.53,1,1,0,0,0-.58-.13H27.23a1,1,0,0,0-.57.13.68.68,0,0,0-.15.53v7.39a4.55,4.55,0,0,0,.91,3A3.43,3.43,0,0,0,30.21,16.71Z"/><path class="cls-1" d="M39.44,20.25h1.24a.85.85,0,0,0,.58-.14.72.72,0,0,0,.14-.51V15.27a3.83,3.83,0,0,0,2.88,1A4.42,4.42,0,0,0,47.73,15a5.51,5.51,0,0,0,1.19-3.8V9.05a4.57,4.57,0,0,0-1.35-3.51,5.33,5.33,0,0,0-3.78-1.26,4.84,4.84,0,0,0-3.87,1.4,5.89,5.89,0,0,0-1.2,4v10a.67.67,0,0,0,.15.51A.84.84,0,0,0,39.44,20.25ZM41.35,9.5a3.54,3.54,0,0,1,.59-2.25,2.25,2.25,0,0,1,1.85-.72,2.28,2.28,0,0,1,1.86.72,3.54,3.54,0,0,1,.59,2.25v1.42c0,2.06-.82,3.09-2.45,3.09s-2.44-1-2.44-3.11Z"/><path class="cls-1" d="M56.61,9,55.43,9a7.36,7.36,0,0,0-2.31.35,3.3,3.3,0,0,0-1.66,1.19,3.79,3.79,0,0,0-.62,2.31A3.44,3.44,0,0,0,52,15.73a5.68,5.68,0,0,0,3.53.89h.63a5.25,5.25,0,0,0,2.62-.54,3,3,0,0,0,1.32-1.43,4.61,4.61,0,0,0,.38-1.88V8.38a5.52,5.52,0,0,0-.4-2.23,2.75,2.75,0,0,0-1.41-1.4,6.69,6.69,0,0,0-2.76-.47,7,7,0,0,0-2.41.34A3.7,3.7,0,0,0,52,5.56a2.39,2.39,0,0,0-.7,1.65.48.48,0,0,0,.13.37.78.78,0,0,0,.5.12h1.46a1,1,0,0,0,.5-.08.61.61,0,0,0,.22-.34,1.23,1.23,0,0,1,.63-.74,2.75,2.75,0,0,1,1.15-.21,2,2,0,0,1,1.5.48,2.49,2.49,0,0,1,.48,1.75v.58Zm1.25,3.17A2.74,2.74,0,0,1,57.39,14a2,2,0,0,1-1.58.54h-.38A2.37,2.37,0,0,1,54,14.19a1.57,1.57,0,0,1-.52-1.35A1.64,1.64,0,0,1,54,11.46a2.59,2.59,0,0,1,1.59-.4l1,0c.37,0,.81.05,1.3.11Z"/><path class="cls-1" d="M66.81,16.67c0,.39.07.67.09.85s0,.31,0,.38a1.23,1.23,0,0,1-.23.86,1.1,1.1,0,0,1-.79.23H65a.61.61,0,0,0-.45.12.76.76,0,0,0-.11.51v.63a.8.8,0,0,0,.11.51.61.61,0,0,0,.45.12h1.31a3.07,3.07,0,0,0,2-.58A2,2,0,0,0,69,18.67c0-.24,0-.55,0-.93s-.07-.71-.12-1.12a4.58,4.58,0,0,0,2.62-1.24,3.44,3.44,0,0,0,1-2.54.64.64,0,0,0-.14-.49,1,1,0,0,0-.58-.12H70.52a1,1,0,0,0-.53.1.53.53,0,0,0-.19.37A2.1,2.1,0,0,1,69.1,14a2.4,2.4,0,0,1-1.51.41,2,2,0,0,1-1.7-.71,4.24,4.24,0,0,1-.5-2.36V9.62a4,4,0,0,1,.53-2.38,2.06,2.06,0,0,1,1.76-.71A2.19,2.19,0,0,1,69.15,7a2.35,2.35,0,0,1,.65,1.34.53.53,0,0,0,.19.37,1,1,0,0,0,.53.1h1.17a1,1,0,0,0,.58-.12.62.62,0,0,0,.14-.49,3.44,3.44,0,0,0-1-2.54,5.21,5.21,0,0,0-3.86-1.33A4.69,4.69,0,0,0,64,5.63,5.46,5.46,0,0,0,62.71,9.5v2.21A5.1,5.1,0,0,0,64,15.43,4.43,4.43,0,0,0,66.81,16.67Z"/><path class="cls-1" d="M83.45,14.65a4.61,4.61,0,0,0,.38-1.88V8.38a5.52,5.52,0,0,0-.4-2.23A2.75,2.75,0,0,0,82,4.75a6.69,6.69,0,0,0-2.76-.47,7,7,0,0,0-2.41.34,3.81,3.81,0,0,0-1.49.94,2.42,2.42,0,0,0-.69,1.65.48.48,0,0,0,.13.37.78.78,0,0,0,.5.12h1.46a1,1,0,0,0,.5-.08.61.61,0,0,0,.22-.34,1.23,1.23,0,0,1,.63-.74,2.75,2.75,0,0,1,1.15-.21,2,2,0,0,1,1.5.48,2.49,2.49,0,0,1,.48,1.75v.58L80,9,78.81,9a7.36,7.36,0,0,0-2.31.35,3.26,3.26,0,0,0-1.66,1.19,3.79,3.79,0,0,0-.62,2.31,3.41,3.41,0,0,0,1.13,2.87,5.68,5.68,0,0,0,3.53.89h.63a5.25,5.25,0,0,0,2.62-.54A3,3,0,0,0,83.45,14.65Zm-2.21-2.44A2.74,2.74,0,0,1,80.77,14a2,2,0,0,1-1.58.54h-.38a2.37,2.37,0,0,1-1.46-.38,1.57,1.57,0,0,1-.52-1.35,1.64,1.64,0,0,1,.53-1.38,2.59,2.59,0,0,1,1.59-.4l1,0c.37,0,.81.05,1.3.11Z"/><path class="cls-1" d="M75.91,3H77a.3.3,0,0,0,.34-.33v-.1c0-.33.12-.49.38-.49a1,1,0,0,1,.3,0l.28.09,1.15.41c.35.12.63.21.85.26a3,3,0,0,0,.69.08,1.89,1.89,0,0,0,1.46-.54A2.48,2.48,0,0,0,83,.68V.5c0-.23-.11-.34-.33-.34H81.51c-.22,0-.33.11-.33.34V.59c0,.33-.13.49-.39.49a1,1,0,0,1-.3,0L80.21,1,79.06.54c-.35-.12-.63-.21-.85-.26A3,3,0,0,0,77.53.2a1.93,1.93,0,0,0-1.47.53,2.47,2.47,0,0,0-.49,1.72v.19C75.57,2.86,75.68,3,75.91,3Z"/><path class="cls-1" d="M91.2,16.71A5.06,5.06,0,0,0,95,15.34a5.27,5.27,0,0,0,1.35-3.85V9.28A4.9,4.9,0,0,0,95,5.6,5.16,5.16,0,0,0,91.2,4.28a5,5,0,0,0-3.76,1.37A5.27,5.27,0,0,0,86.09,9.5v2.21a4.89,4.89,0,0,0,1.35,3.68A5.14,5.14,0,0,0,91.2,16.71ZM88.77,9.62c0-2,.81-3.07,2.43-3.07s2.43,1,2.43,3.07v1.75c0,2.05-.81,3.07-2.43,3.07s-2.43-1-2.43-3.07Z"/><path class="cls-1" d="M107.84,16.71a6.47,6.47,0,0,0,2.2-.35,4,4,0,0,0,1.63-1,3.34,3.34,0,0,0,.67-1,2.42,2.42,0,0,0,.28-1,.44.44,0,0,0-.16-.4.92.92,0,0,0-.54-.12h-1.4a.59.59,0,0,0-.61.39c-.23.78-.9,1.17-2,1.17a2.2,2.2,0,0,1-1.84-.71,4,4,0,0,1-.55-2.4v-.11h6.53a.88.88,0,0,0,.59-.14.74.74,0,0,0,.14-.52V9.5a5.48,5.48,0,0,0-1.25-3.89,5.63,5.63,0,0,0-7.38.1,5.78,5.78,0,0,0-1.31,4v1.76a5.31,5.31,0,0,0,1.31,3.85A4.89,4.89,0,0,0,107.84,16.71Zm-1.72-9.63a2.25,2.25,0,0,1,1.77-.64,1.92,1.92,0,0,1,1.64.67,3.33,3.33,0,0,1,.52,2.08h-4.53A3.38,3.38,0,0,1,106.12,7.08Z"/><path class="cls-1" d="M120.59,16.4h8.49a.68.68,0,0,0,.53-.15,1,1,0,0,0,.13-.57v-1a1,1,0,0,0-.13-.58.68.68,0,0,0-.53-.15h-6.46V9.37h5.79a.7.7,0,0,0,.53-.15.94.94,0,0,0,.12-.57v-1a1,1,0,0,0-.12-.58.75.75,0,0,0-.53-.14h-5.79V2.79H129a.73.73,0,0,0,.53-.14,1,1,0,0,0,.13-.58v-1a.93.93,0,0,0-.13-.57A.68.68,0,0,0,129,.36h-8.4a.94.94,0,0,0-.57.12.7.7,0,0,0-.15.53V15.74a.68.68,0,0,0,.15.53A.86.86,0,0,0,120.59,16.4Z"/><path class="cls-1" d="M133.14,16.4h1.24a.88.88,0,0,0,.57-.13.68.68,0,0,0,.15-.53V9.14a2.71,2.71,0,0,1,.58-1.84,2,2,0,0,1,1.58-.68,1.66,1.66,0,0,1,1.43.55,2.75,2.75,0,0,1,.39,1.59v7a.68.68,0,0,0,.15.53.88.88,0,0,0,.57.13H141a.9.9,0,0,0,.58-.13.73.73,0,0,0,.14-.53V9.14a2.71,2.71,0,0,1,.59-1.84,2,2,0,0,1,1.58-.68,1.68,1.68,0,0,1,1.43.55,2.75,2.75,0,0,1,.39,1.59v7a.68.68,0,0,0,.15.53.86.86,0,0,0,.57.13h1.24a.86.86,0,0,0,.57-.13.68.68,0,0,0,.15-.53V8.36a4.61,4.61,0,0,0-.89-3,3.28,3.28,0,0,0-2.71-1.09,4.9,4.9,0,0,0-2.12.43,3.48,3.48,0,0,0-1.46,1.21,3,3,0,0,0-1.2-1.21,3.77,3.77,0,0,0-1.89-.43,3.63,3.63,0,0,0-3.11,1.42V5.25a.73.73,0,0,0-.14-.53,1,1,0,0,0-.58-.13h-1.19a1,1,0,0,0-.58.13c-.1.08-.14.26-.14.53V15.74c0,.27,0,.45.14.53A.9.9,0,0,0,133.14,16.4Z"/><path class="cls-1" d="M156.46,9l-1.18,0a7.36,7.36,0,0,0-2.31.35,3.29,3.29,0,0,0-1.67,1.19,3.86,3.86,0,0,0-.62,2.31,3.41,3.41,0,0,0,1.14,2.87,5.65,5.65,0,0,0,3.52.89H156a5.28,5.28,0,0,0,2.62-.54,3.08,3.08,0,0,0,1.32-1.43,4.78,4.78,0,0,0,.38-1.88V8.38a5.52,5.52,0,0,0-.41-2.23,2.77,2.77,0,0,0-1.4-1.4,6.69,6.69,0,0,0-2.76-.47,7,7,0,0,0-2.41.34,3.74,3.74,0,0,0-1.49.94,2.44,2.44,0,0,0-.7,1.65.48.48,0,0,0,.14.37.74.74,0,0,0,.49.12h1.47a1,1,0,0,0,.49-.08.61.61,0,0,0,.23-.34,1.23,1.23,0,0,1,.63-.74,2.72,2.72,0,0,1,1.15-.21,2.08,2.08,0,0,1,1.5.48,2.49,2.49,0,0,1,.48,1.75v.58Zm1.25,3.17a2.8,2.8,0,0,1-.47,1.82,2,2,0,0,1-1.58.54h-.38a2.42,2.42,0,0,1-1.47-.38,1.6,1.6,0,0,1-.51-1.35,1.64,1.64,0,0,1,.52-1.38,2.63,2.63,0,0,1,1.59-.4l1,0c.38,0,.81.05,1.31.11Z"/><path class="cls-1" d="M169.94,8.76v7a.68.68,0,0,0,.15.53.86.86,0,0,0,.57.13h1.24a.86.86,0,0,0,.57-.13.68.68,0,0,0,.15-.53V8.36a4.51,4.51,0,0,0-.92-3,3.49,3.49,0,0,0-2.82-1.09,4.57,4.57,0,0,0-1.88.38,3.53,3.53,0,0,0-1.36,1.06V5.25a.68.68,0,0,0-.15-.53,1,1,0,0,0-.57-.13h-1.2a1,1,0,0,0-.57.13.68.68,0,0,0-.15.53V15.74a.68.68,0,0,0,.15.53.88.88,0,0,0,.57.13H165a.9.9,0,0,0,.58-.13.73.73,0,0,0,.14-.53V9.14a2.63,2.63,0,0,1,.62-1.84,2.19,2.19,0,0,1,1.7-.68,1.81,1.81,0,0,1,1.52.55A2.6,2.6,0,0,1,169.94,8.76Z"/><path class="cls-1" d="M179.87,16.71a5.19,5.19,0,0,0,3.85-1.33,3.41,3.41,0,0,0,1-2.54.68.68,0,0,0-.14-.49,1,1,0,0,0-.58-.12H182.8a1,1,0,0,0-.53.1.53.53,0,0,0-.19.37,2.1,2.1,0,0,1-.7,1.33,2.4,2.4,0,0,1-1.51.41,2,2,0,0,1-1.7-.71,4.15,4.15,0,0,1-.51-2.36V9.62a4.1,4.1,0,0,1,.53-2.38A2.09,2.09,0,0,1,180,6.53a2.19,2.19,0,0,1,1.47.42,2.35,2.35,0,0,1,.65,1.34.53.53,0,0,0,.19.37,1,1,0,0,0,.53.1H184a1,1,0,0,0,.58-.12.67.67,0,0,0,.14-.49,3.41,3.41,0,0,0-1-2.54,5.19,5.19,0,0,0-3.85-1.33,4.73,4.73,0,0,0-3.64,1.35A5.51,5.51,0,0,0,175,9.5v2.21a5.15,5.15,0,0,0,1.25,3.72A4.89,4.89,0,0,0,179.87,16.71Z"/><path class="cls-1" d="M188.41,3.24a1.69,1.69,0,0,0,1.14-.36,1.26,1.26,0,0,0,.41-1V1.42a1.24,1.24,0,0,0-.41-1,1.69,1.69,0,0,0-1.14-.35,1.65,1.65,0,0,0-1.12.35,1.24,1.24,0,0,0-.41,1v.47a1.26,1.26,0,0,0,.41,1A1.66,1.66,0,0,0,188.41,3.24Z"/><path class="cls-1" d="M187.78,4.59a1,1,0,0,0-.58.13.73.73,0,0,0-.14.53V15.74a.73.73,0,0,0,.14.53.9.9,0,0,0,.58.13H189a.88.88,0,0,0,.57-.13.68.68,0,0,0,.15-.53V5.25a.68.68,0,0,0-.15-.53,1,1,0,0,0-.57-.13Z"/><path class="cls-1" d="M193.16,20.25h1.24a.85.85,0,0,0,.58-.14.72.72,0,0,0,.14-.51V15.27a3.83,3.83,0,0,0,2.88,1A4.42,4.42,0,0,0,201.45,15a5.51,5.51,0,0,0,1.19-3.8V9.05a4.57,4.57,0,0,0-1.35-3.51,5.33,5.33,0,0,0-3.78-1.26,4.84,4.84,0,0,0-3.87,1.4,5.89,5.89,0,0,0-1.2,4v10a.67.67,0,0,0,.15.51A.84.84,0,0,0,193.16,20.25ZM195.07,9.5a3.54,3.54,0,0,1,.59-2.25,2.25,2.25,0,0,1,1.85-.72,2.28,2.28,0,0,1,1.86.72A3.54,3.54,0,0,1,200,9.5v1.42c0,2.06-.82,3.09-2.45,3.09s-2.44-1-2.44-3.11Z"/><path class="cls-1" d="M210.33,9l-1.18,0a7.36,7.36,0,0,0-2.31.35,3.3,3.3,0,0,0-1.66,1.19,3.79,3.79,0,0,0-.62,2.31,3.44,3.44,0,0,0,1.13,2.87,5.68,5.68,0,0,0,3.53.89h.63a5.25,5.25,0,0,0,2.62-.54,3,3,0,0,0,1.32-1.43,4.61,4.61,0,0,0,.38-1.88V8.38a5.52,5.52,0,0,0-.4-2.23,2.75,2.75,0,0,0-1.41-1.4,6.69,6.69,0,0,0-2.76-.47,7,7,0,0,0-2.41.34,3.7,3.7,0,0,0-1.48.94,2.39,2.39,0,0,0-.7,1.65.48.48,0,0,0,.13.37.78.78,0,0,0,.5.12h1.46a1,1,0,0,0,.5-.08.61.61,0,0,0,.22-.34,1.23,1.23,0,0,1,.63-.74,2.75,2.75,0,0,1,1.15-.21,2,2,0,0,1,1.5.48,2.49,2.49,0,0,1,.48,1.75v.58Zm1.25,3.17a2.74,2.74,0,0,1-.47,1.82,2,2,0,0,1-1.58.54h-.38a2.37,2.37,0,0,1-1.46-.38,1.57,1.57,0,0,1-.52-1.35,1.64,1.64,0,0,1,.53-1.38,2.59,2.59,0,0,1,1.59-.4l1,0c.37,0,.81.05,1.3.11Z"/><path class="cls-1" d="M220.53,16.67c0,.39.07.67.09.85s0,.31,0,.38a1.23,1.23,0,0,1-.23.86,1.1,1.1,0,0,1-.79.23h-.94a.61.61,0,0,0-.45.12.76.76,0,0,0-.11.51v.63a.8.8,0,0,0,.11.51.61.61,0,0,0,.45.12H220a3.07,3.07,0,0,0,2-.58,2,2,0,0,0,.71-1.63c0-.24,0-.55,0-.93s-.07-.71-.12-1.12a4.58,4.58,0,0,0,2.62-1.24,3.44,3.44,0,0,0,1-2.54.64.64,0,0,0-.14-.49,1,1,0,0,0-.58-.12h-1.17a1,1,0,0,0-.53.1.57.57,0,0,0-.19.37,2.1,2.1,0,0,1-.7,1.33,2.4,2.4,0,0,1-1.51.41,2,2,0,0,1-1.7-.71,4.24,4.24,0,0,1-.5-2.36V9.62a4,4,0,0,1,.53-2.38,2.06,2.06,0,0,1,1.76-.71,2.19,2.19,0,0,1,1.47.42,2.35,2.35,0,0,1,.65,1.34.57.57,0,0,0,.19.37,1,1,0,0,0,.53.1h1.17a1,1,0,0,0,.58-.12.62.62,0,0,0,.14-.49,3.44,3.44,0,0,0-1-2.54,5.21,5.21,0,0,0-3.86-1.33,4.69,4.69,0,0,0-3.63,1.35,5.46,5.46,0,0,0-1.25,3.87v2.21a5.1,5.1,0,0,0,1.25,3.72A4.43,4.43,0,0,0,220.53,16.67Z"/><path class="cls-1" d="M233.71,9l-1.18,0a7.36,7.36,0,0,0-2.31.35,3.26,3.26,0,0,0-1.66,1.19,3.79,3.79,0,0,0-.62,2.31,3.44,3.44,0,0,0,1.13,2.87,5.68,5.68,0,0,0,3.53.89h.63a5.25,5.25,0,0,0,2.62-.54,3,3,0,0,0,1.32-1.43,4.61,4.61,0,0,0,.38-1.88V8.38a5.52,5.52,0,0,0-.4-2.23,2.75,2.75,0,0,0-1.41-1.4A6.69,6.69,0,0,0,233,4.28a7,7,0,0,0-2.41.34,3.81,3.81,0,0,0-1.49.94,2.42,2.42,0,0,0-.69,1.65.48.48,0,0,0,.13.37.78.78,0,0,0,.5.12h1.46a1,1,0,0,0,.5-.08.61.61,0,0,0,.22-.34,1.23,1.23,0,0,1,.63-.74A2.75,2.75,0,0,1,233,6.33a2,2,0,0,1,1.5.48A2.49,2.49,0,0,1,235,8.56v.58ZM235,12.21a2.74,2.74,0,0,1-.47,1.82,2,2,0,0,1-1.58.54h-.38a2.37,2.37,0,0,1-1.46-.38,1.57,1.57,0,0,1-.52-1.35,1.64,1.64,0,0,1,.53-1.38,2.59,2.59,0,0,1,1.59-.4l1,0c.37,0,.81.05,1.3.11Z"/><path class="cls-1" d="M229.63,3h1.1a.3.3,0,0,0,.34-.33v-.1c0-.33.12-.49.38-.49a1,1,0,0,1,.3,0l.29.09,1.14.41c.35.12.63.21.85.26a3.1,3.1,0,0,0,.69.08,1.89,1.89,0,0,0,1.46-.54,2.48,2.48,0,0,0,.49-1.71V.5c0-.23-.11-.34-.33-.34h-1.11c-.22,0-.33.11-.33.34V.59c0,.33-.13.49-.39.49a1,1,0,0,1-.3,0L233.93,1,232.78.54c-.35-.12-.63-.21-.85-.26a3,3,0,0,0-.68-.08,1.93,1.93,0,0,0-1.47.53,2.47,2.47,0,0,0-.49,1.72v.19C229.29,2.86,229.4,3,229.63,3Z"/><path class="cls-1" d="M244.92,4.28a5,5,0,0,0-3.76,1.37,5.27,5.27,0,0,0-1.35,3.85v2.21a4.89,4.89,0,0,0,1.35,3.68,5.14,5.14,0,0,0,3.76,1.32,5,5,0,0,0,3.76-1.37A5.27,5.27,0,0,0,250,11.49V9.28a4.9,4.9,0,0,0-1.35-3.68A5.14,5.14,0,0,0,244.92,4.28Zm2.43,7.09c0,2.05-.81,3.07-2.43,3.07s-2.43-1-2.43-3.07V9.62c0-2,.81-3.07,2.43-3.07s2.43,1,2.43,3.07Z"/><path class="cls-1" d="M255.5,4.83a2.22,2.22,0,0,0-2.65,0,1.54,1.54,0,0,0-.5,1.21v.54a1.52,1.52,0,0,0,.5,1.2,2.22,2.22,0,0,0,2.65,0,1.52,1.52,0,0,0,.5-1.2V6A1.54,1.54,0,0,0,255.5,4.83Z"/><path class="cls-1" d="M254.18,12.82a1.89,1.89,0,0,0-1.33.44,1.52,1.52,0,0,0-.5,1.2V15a1.55,1.55,0,0,0,.5,1.21,2.26,2.26,0,0,0,2.65,0A1.55,1.55,0,0,0,256,15v-.54a1.52,1.52,0,0,0-.5-1.2A1.88,1.88,0,0,0,254.18,12.82Z"/><path class="cls-1" d="M10.13,28.49a6.29,6.29,0,0,0-4-1.1H1.62a1,1,0,0,0-.58.12A.73.73,0,0,0,.9,28V42.77A.73.73,0,0,0,1,43.3a1,1,0,0,0,.58.12H2.88a.92.92,0,0,0,.57-.12.68.68,0,0,0,.15-.53V37.48H6.1a6.08,6.08,0,0,0,4-1.15,4.46,4.46,0,0,0,1.36-3.6v-.45A4.65,4.65,0,0,0,10.13,28.49ZM8.69,32.68a4.33,4.33,0,0,1-.17,1.22,1.58,1.58,0,0,1-.72.9,3.39,3.39,0,0,1-1.7.34H3.6V29.73H6.1a3.27,3.27,0,0,1,1.7.35,1.59,1.59,0,0,1,.72,1,5,5,0,0,1,.17,1.34Z"/><path class="cls-1" d="M21.12,42.83a3,3,0,0,0,1.2-2.56v-.45c0-1.64-.93-2.7-2.8-3.2l-1.91-.49a4.67,4.67,0,0,1-1.49-.61,1,1,0,0,1-.4-.88,1.14,1.14,0,0,1,.47-1,2.27,2.27,0,0,1,1.31-.34c1.3,0,2,.41,2.14,1.22a.51.51,0,0,0,.18.36,1,1,0,0,0,.52.09h1.17a1.06,1.06,0,0,0,.57-.11.52.52,0,0,0,.15-.43,2.71,2.71,0,0,0-.84-2,5.28,5.28,0,0,0-3.73-1.12,5.25,5.25,0,0,0-3.3.92,3.11,3.11,0,0,0-1.19,2.59v.32q0,2.34,2.93,3.1l1.49.39a7.13,7.13,0,0,1,1.3.44,1.35,1.35,0,0,1,.62.5,1.47,1.47,0,0,1,.17.77,1.15,1.15,0,0,1-.45,1,2.71,2.71,0,0,1-1.51.32,2.79,2.79,0,0,1-1.48-.31,1.32,1.32,0,0,1-.61-1c-.05-.28-.25-.42-.61-.42h-1.4c-.4,0-.6.16-.6.49a2.86,2.86,0,0,0,.87,2.12,5.55,5.55,0,0,0,3.9,1.17A5.34,5.34,0,0,0,21.12,42.83Z"/><path class="cls-1" d="M26,30.27a1.69,1.69,0,0,0,1.14-.36,1.23,1.23,0,0,0,.42-1v-.47a1.25,1.25,0,0,0-.42-1A1.74,1.74,0,0,0,26,27.1a1.67,1.67,0,0,0-1.11.34,1.25,1.25,0,0,0-.42,1v.47a1.23,1.23,0,0,0,.42,1A1.63,1.63,0,0,0,26,30.27Z"/><path class="cls-1" d="M27.34,42.77V32.28a.68.68,0,0,0-.15-.53.86.86,0,0,0-.57-.13H25.38a.86.86,0,0,0-.57.13.68.68,0,0,0-.15.53V42.77a.68.68,0,0,0,.15.53.94.94,0,0,0,.57.12h1.24a.94.94,0,0,0,.57-.12A.68.68,0,0,0,27.34,42.77Z"/><path class="cls-1" d="M34.71,43.74a5.2,5.2,0,0,0,3.85-1.33,3.45,3.45,0,0,0,1-2.54.62.62,0,0,0-.15-.49,1,1,0,0,0-.58-.12H37.63a1,1,0,0,0-.53.1.57.57,0,0,0-.19.37,2.1,2.1,0,0,1-.7,1.33,2.37,2.37,0,0,1-1.5.41,1.94,1.94,0,0,1-1.7-.71,4.17,4.17,0,0,1-.51-2.36V36.65A4,4,0,0,1,33,34.27a2.07,2.07,0,0,1,1.77-.71,2.16,2.16,0,0,1,1.46.42,2.32,2.32,0,0,1,.65,1.34.57.57,0,0,0,.19.37,1,1,0,0,0,.53.1H38.8a1,1,0,0,0,.58-.12.64.64,0,0,0,.15-.49,3.45,3.45,0,0,0-1-2.54,5.2,5.2,0,0,0-3.85-1.33,4.7,4.7,0,0,0-3.64,1.35,5.46,5.46,0,0,0-1.25,3.87v2.21a5.1,5.1,0,0,0,1.25,3.72A4.86,4.86,0,0,0,34.71,43.74Z"/><path class="cls-1" d="M42.79,32.68a5.27,5.27,0,0,0-1.35,3.85v2.21a4.9,4.9,0,0,0,1.35,3.68,5.16,5.16,0,0,0,3.76,1.32,5,5,0,0,0,3.76-1.37,5.28,5.28,0,0,0,1.36-3.86v-2.2a4.89,4.89,0,0,0-1.36-3.68,5.14,5.14,0,0,0-3.76-1.32A5.06,5.06,0,0,0,42.79,32.68Zm6.2,4V38.4c0,2-.82,3.07-2.44,3.07s-2.43-1-2.43-3.07V36.65c0-2,.81-3.07,2.43-3.07S49,34.6,49,36.65Z"/><path class="cls-1" d="M56.1,43.42a1,1,0,0,0,.58-.12.73.73,0,0,0,.14-.53V28a.73.73,0,0,0-.14-.53,1,1,0,0,0-.58-.12H54.86a1,1,0,0,0-.57.12.68.68,0,0,0-.15.53V42.77a.68.68,0,0,0,.15.53,1,1,0,0,0,.57.12Z"/><path class="cls-1" d="M59.3,38.74a4.9,4.9,0,0,0,1.35,3.68,5.16,5.16,0,0,0,3.76,1.32,5,5,0,0,0,3.76-1.37,5.24,5.24,0,0,0,1.36-3.86v-2.2a4.85,4.85,0,0,0-1.36-3.68,5.14,5.14,0,0,0-3.76-1.32,5.06,5.06,0,0,0-3.76,1.37,5.27,5.27,0,0,0-1.35,3.85ZM62,36.65c0-2,.81-3.07,2.43-3.07s2.44,1,2.44,3.07V38.4c0,2-.82,3.07-2.44,3.07S62,40.44,62,38.4Z"/><path class="cls-1" d="M76.69,31.31a5.15,5.15,0,0,0-3.79,1.35,5.08,5.08,0,0,0-1.35,3.76v1.87a5.23,5.23,0,0,0,1.2,3.7,4.41,4.41,0,0,0,3.44,1.3,3.89,3.89,0,0,0,2.89-1V43.4A2.13,2.13,0,0,1,78.49,45a2.2,2.2,0,0,1-.79.44,3.25,3.25,0,0,1-1.12.17,2.93,2.93,0,0,1-1.11-.16,1.7,1.7,0,0,1-.7-.58,1.12,1.12,0,0,0-.31-.35.8.8,0,0,0-.38-.08H72.59c-.41,0-.61.14-.61.43a2.23,2.23,0,0,0,1.22,2,6.43,6.43,0,0,0,3.33.73,6.15,6.15,0,0,0,4-1.05,4.12,4.12,0,0,0,1.25-3.34V36a4.44,4.44,0,0,0-1.33-3.43A5.36,5.36,0,0,0,76.69,31.31Zm2.43,6.62c0,2.06-.81,3.08-2.43,3.08s-2.46-1-2.46-3.08v-1.4a3.48,3.48,0,0,1,.6-2.25,2.28,2.28,0,0,1,1.86-.72,2.23,2.23,0,0,1,1.83.72,3.48,3.48,0,0,1,.6,2.25Z"/><path class="cls-1" d="M85.18,31.62a.85.85,0,0,0-.57.13.68.68,0,0,0-.15.53V42.77a.68.68,0,0,0,.15.53.92.92,0,0,0,.57.12h1.24A1,1,0,0,0,87,43.3a.68.68,0,0,0,.15-.53V32.28a.68.68,0,0,0-.15-.53.88.88,0,0,0-.57-.13Z"/><path class="cls-1" d="M85.81,30.27A1.69,1.69,0,0,0,87,29.91a1.23,1.23,0,0,0,.41-1v-.47a1.24,1.24,0,0,0-.41-1,1.74,1.74,0,0,0-1.14-.34,1.66,1.66,0,0,0-1.11.34,1.25,1.25,0,0,0-.42,1v.47a1.23,1.23,0,0,0,.42,1A1.61,1.61,0,0,0,85.81,30.27Z"/><path class="cls-1" d="M92.14,31.65a3.74,3.74,0,0,0-1.49.94,2.44,2.44,0,0,0-.7,1.65.5.5,0,0,0,.14.37.74.74,0,0,0,.49.12h1.47a1.08,1.08,0,0,0,.49-.08.61.61,0,0,0,.23-.35,1.21,1.21,0,0,1,.63-.73,2.72,2.72,0,0,1,1.15-.21,2.08,2.08,0,0,1,1.5.48,2.48,2.48,0,0,1,.48,1.75v.58c-.39,0-.81-.08-1.25-.1L94.1,36a7.09,7.09,0,0,0-2.31.35,3.33,3.33,0,0,0-1.67,1.19,3.84,3.84,0,0,0-.62,2.31,3.41,3.41,0,0,0,1.14,2.87,5.73,5.73,0,0,0,3.53.89h.63a5.28,5.28,0,0,0,2.62-.54,3.08,3.08,0,0,0,1.32-1.43,4.78,4.78,0,0,0,.38-1.88V35.41a5.52,5.52,0,0,0-.4-2.23,2.75,2.75,0,0,0-1.41-1.4,6.53,6.53,0,0,0-2.76-.47A7,7,0,0,0,92.14,31.65Zm4.39,7.59a2.8,2.8,0,0,1-.47,1.82,2,2,0,0,1-1.58.54H94.1a2.5,2.5,0,0,1-1.47-.38,2.05,2.05,0,0,1,0-2.73,2.57,2.57,0,0,1,1.58-.4c.29,0,.62,0,1,0s.82,0,1.31.11Z"/><path class="cls-1" d="M107.18,32.74a5.77,5.77,0,0,0-1.3,4v1.76a5.32,5.32,0,0,0,1.3,3.85,4.93,4.93,0,0,0,3.7,1.35,6.66,6.66,0,0,0,2.19-.35,4.14,4.14,0,0,0,1.64-1,3.87,3.87,0,0,0,.66-1,2.31,2.31,0,0,0,.28-1,.49.49,0,0,0-.15-.41,1,1,0,0,0-.54-.11h-1.4a.58.58,0,0,0-.61.38c-.24.79-.91,1.18-2,1.18a2.2,2.2,0,0,1-1.84-.71,4,4,0,0,1-.55-2.4v-.12h6.53a.89.89,0,0,0,.59-.13.74.74,0,0,0,.13-.52V36.53a5.48,5.48,0,0,0-1.25-3.89,5.63,5.63,0,0,0-7.38.1Zm5.39,1.39a3.45,3.45,0,0,1,.52,2.09h-4.53a3.38,3.38,0,0,1,.6-2.11,2.18,2.18,0,0,1,1.76-.64A2,2,0,0,1,112.57,34.13Z"/><path class="cls-1" d="M132.17,43.28a.9.9,0,0,0,.13-.58v-1a.88.88,0,0,0-.13-.57c-.08-.1-.25-.15-.53-.15h-6V28a.73.73,0,0,0-.14-.53,1,1,0,0,0-.58-.12h-1.3a1,1,0,0,0-.58.12c-.1.08-.14.26-.14.53V42.77c0,.27,0,.45.14.53a1,1,0,0,0,.58.12h8C131.92,43.42,132.09,43.38,132.17,43.28Z"/><path class="cls-1" d="M141.08,42.32v.45a.68.68,0,0,0,.15.53,1,1,0,0,0,.57.12H143a1,1,0,0,0,.57-.12.68.68,0,0,0,.15-.53V32.28a.68.68,0,0,0-.15-.53.88.88,0,0,0-.57-.13h-1.24a.9.9,0,0,0-.58.13.73.73,0,0,0-.14.53v6.6a2.66,2.66,0,0,1-.6,1.84,2.1,2.1,0,0,1-1.66.68,1.74,1.74,0,0,1-1.48-.55,2.67,2.67,0,0,1-.41-1.59v-7a.73.73,0,0,0-.14-.53.9.9,0,0,0-.58-.13h-1.24a.88.88,0,0,0-.57.13.68.68,0,0,0-.15.53v7.38a4.58,4.58,0,0,0,.91,3,3.43,3.43,0,0,0,2.79,1.09,4.29,4.29,0,0,0,1.82-.37A3.68,3.68,0,0,0,141.08,42.32Z"/><path class="cls-1" d="M147.32,33.83v6.06a4.14,4.14,0,0,0,.74,2.58,3.29,3.29,0,0,0,2.73,1h1.26a.62.62,0,0,0,.46-.12.84.84,0,0,0,.1-.51v-1a.76.76,0,0,0-.11-.51.61.61,0,0,0-.45-.12h-.81a1.11,1.11,0,0,1-1-.4,2.11,2.11,0,0,1-.28-1.23V33.83h2.05a.61.61,0,0,0,.45-.12.8.8,0,0,0,.11-.51v-1a.75.75,0,0,0-.11-.5c-.07-.09-.22-.13-.45-.13H150V29a.66.66,0,0,0-.15-.52.85.85,0,0,0-.57-.13H148a.86.86,0,0,0-.57.13.66.66,0,0,0-.15.52v2.66h-1.19c-.23,0-.38,0-.45.13a.74.74,0,0,0-.12.5v1a.79.79,0,0,0,.12.51.61.61,0,0,0,.45.12Z"/><path class="cls-1" d="M163.47,41.68a4.78,4.78,0,0,0,.38-1.88V35.41a5.52,5.52,0,0,0-.4-2.23,2.75,2.75,0,0,0-1.41-1.4,6.53,6.53,0,0,0-2.76-.47,7,7,0,0,0-2.41.34,3.74,3.74,0,0,0-1.49.94,2.42,2.42,0,0,0-.69,1.65.49.49,0,0,0,.13.37.78.78,0,0,0,.5.12h1.46a1.13,1.13,0,0,0,.5-.08.6.6,0,0,0,.22-.35,1.21,1.21,0,0,1,.63-.73,2.72,2.72,0,0,1,1.15-.21,2,2,0,0,1,1.5.48,2.48,2.48,0,0,1,.48,1.75v.58c-.39,0-.8-.08-1.25-.1l-1.18,0a7.09,7.09,0,0,0-2.31.35,3.33,3.33,0,0,0-1.67,1.19,3.84,3.84,0,0,0-.61,2.31,3.41,3.41,0,0,0,1.13,2.87,5.75,5.75,0,0,0,3.53.89h.63a5.28,5.28,0,0,0,2.62-.54A3,3,0,0,0,163.47,41.68Zm-2.21-2.44a2.74,2.74,0,0,1-.47,1.82,2,2,0,0,1-1.58.54h-.38a2.44,2.44,0,0,1-1.46-.38,1.57,1.57,0,0,1-.52-1.35,1.61,1.61,0,0,1,.53-1.38,2.59,2.59,0,0,1,1.59-.4c.28,0,.61,0,1,0s.81,0,1.3.11Z"/><path class="cls-1" d="M181.8,32.73v-.45a4.65,4.65,0,0,0-1.35-3.79,6.29,6.29,0,0,0-4-1.1h-4.48a1,1,0,0,0-.58.12.73.73,0,0,0-.14.53V42.77a.73.73,0,0,0,.14.53,1,1,0,0,0,.58.12h1.26a.92.92,0,0,0,.57-.12.68.68,0,0,0,.15-.53V37.48h2.5a6.08,6.08,0,0,0,4-1.15A4.46,4.46,0,0,0,181.8,32.73Zm-2.79,0a4.33,4.33,0,0,1-.17,1.22,1.58,1.58,0,0,1-.72.9,3.39,3.39,0,0,1-1.7.34h-2.5V29.73h2.5a3.27,3.27,0,0,1,1.7.35,1.59,1.59,0,0,1,.72,1,5,5,0,0,1,.17,1.34Z"/><path class="cls-1" d="M183.58,38.74a4.9,4.9,0,0,0,1.35,3.68,5.19,5.19,0,0,0,3.77,1.32,5.06,5.06,0,0,0,3.76-1.37,5.28,5.28,0,0,0,1.35-3.86v-2.2a4.89,4.89,0,0,0-1.35-3.68,5.16,5.16,0,0,0-3.76-1.32,5.09,5.09,0,0,0-3.77,1.37,5.27,5.27,0,0,0-1.35,3.85Zm2.68-2.09c0-2,.81-3.07,2.44-3.07s2.43,1,2.43,3.07V38.4c0,2-.81,3.07-2.43,3.07s-2.44-1-2.44-3.07Z"/><path class="cls-1" d="M198.25,27.39H197a1,1,0,0,0-.58.12c-.1.08-.14.26-.14.53V42.77c0,.27,0,.45.14.53a1,1,0,0,0,.58.12h1.24a1,1,0,0,0,.57-.12.68.68,0,0,0,.15-.53V28a.68.68,0,0,0-.15-.53A1,1,0,0,0,198.25,27.39Z"/><path class="cls-1" d="M203.85,43.42a1,1,0,0,0,.58-.12c.1-.08.14-.26.14-.53V32.28c0-.27,0-.45-.14-.53a.9.9,0,0,0-.58-.13h-1.24a.88.88,0,0,0-.57.13.68.68,0,0,0-.15.53V42.77a.68.68,0,0,0,.15.53,1,1,0,0,0,.57.12Z"/><path class="cls-1" d="M205.45,27h-1.6a1,1,0,0,0-.58.12,2,2,0,0,0-.45.58l-1,1.76a1.22,1.22,0,0,0-.18.4c0,.18.15.27.43.27h1.35a1,1,0,0,0,.52-.1,2.67,2.67,0,0,0,.54-.62l1.24-1.73a.77.77,0,0,0,.18-.41C205.88,27.07,205.74,27,205.45,27Z"/><path class="cls-1" d="M212.91,33.83a.64.64,0,0,0,.45-.12.87.87,0,0,0,.11-.51v-1a.81.81,0,0,0-.11-.5.59.59,0,0,0-.45-.13h-2V29a.66.66,0,0,0-.15-.52.88.88,0,0,0-.57-.13H208.9a.9.9,0,0,0-.58.13.7.7,0,0,0-.14.52v2.66H207a.59.59,0,0,0-.45.13.81.81,0,0,0-.11.5v1a.87.87,0,0,0,.11.51.64.64,0,0,0,.45.12h1.2v6.06a4.14,4.14,0,0,0,.74,2.58,3.29,3.29,0,0,0,2.73,1h1.26a.62.62,0,0,0,.46-.12.84.84,0,0,0,.1-.51v-1a.83.83,0,0,0-.11-.51.64.64,0,0,0-.45-.12h-.81a1.11,1.11,0,0,1-1-.4,2.11,2.11,0,0,1-.28-1.23V33.83Z"/><path class="cls-1" d="M217,30.27a1.65,1.65,0,0,0,1.13-.36,1.23,1.23,0,0,0,.42-1v-.47a1.25,1.25,0,0,0-.42-1,2,2,0,0,0-2.25,0,1.24,1.24,0,0,0-.41,1v.47a1.23,1.23,0,0,0,.41,1A1.66,1.66,0,0,0,217,30.27Z"/><path class="cls-1" d="M216.38,31.62a.9.9,0,0,0-.58.13c-.1.08-.14.26-.14.53V42.77c0,.27,0,.45.14.53a1,1,0,0,0,.58.12h1.24a1,1,0,0,0,.57-.12.68.68,0,0,0,.15-.53V32.28a.68.68,0,0,0-.15-.53.88.88,0,0,0-.57-.13Z"/><path class="cls-1" d="M224,34.27a2.09,2.09,0,0,1,1.77-.71,2.19,2.19,0,0,1,1.47.42,2.32,2.32,0,0,1,.65,1.34.53.53,0,0,0,.19.37,1,1,0,0,0,.53.1h1.17a.92.92,0,0,0,.57-.12.64.64,0,0,0,.15-.49,3.41,3.41,0,0,0-1-2.54,5.19,5.19,0,0,0-3.85-1.33,4.73,4.73,0,0,0-3.64,1.35,5.51,5.51,0,0,0-1.25,3.87v2.21a5.15,5.15,0,0,0,1.25,3.72,4.89,4.89,0,0,0,3.64,1.28,5.19,5.19,0,0,0,3.85-1.33,3.41,3.41,0,0,0,1-2.54.62.62,0,0,0-.15-.49.92.92,0,0,0-.57-.12h-1.17a1,1,0,0,0-.53.1.53.53,0,0,0-.19.37,2.1,2.1,0,0,1-.7,1.33,2.42,2.42,0,0,1-1.51.41,2,2,0,0,1-1.7-.71,4.17,4.17,0,0,1-.51-2.36V36.65A4.08,4.08,0,0,1,224,34.27Z"/><path class="cls-1" d="M240.13,31.78a6.53,6.53,0,0,0-2.76-.47,7,7,0,0,0-2.41.34,3.74,3.74,0,0,0-1.49.94,2.44,2.44,0,0,0-.7,1.65.5.5,0,0,0,.14.37.74.74,0,0,0,.49.12h1.47a1.08,1.08,0,0,0,.49-.08.61.61,0,0,0,.23-.35,1.21,1.21,0,0,1,.63-.73,2.72,2.72,0,0,1,1.15-.21,2.08,2.08,0,0,1,1.5.48,2.48,2.48,0,0,1,.48,1.75v.58c-.39,0-.81-.08-1.25-.1l-1.18,0a7.09,7.09,0,0,0-2.31.35,3.33,3.33,0,0,0-1.67,1.19,3.84,3.84,0,0,0-.62,2.31,3.41,3.41,0,0,0,1.14,2.87,5.73,5.73,0,0,0,3.53.89h.63a5.28,5.28,0,0,0,2.62-.54,3.08,3.08,0,0,0,1.32-1.43,4.78,4.78,0,0,0,.38-1.88V35.41a5.35,5.35,0,0,0-.41-2.23A2.73,2.73,0,0,0,240.13,31.78Zm-.78,7.46a2.8,2.8,0,0,1-.47,1.82,2,2,0,0,1-1.58.54h-.38a2.5,2.5,0,0,1-1.47-.38,1.6,1.6,0,0,1-.51-1.35,1.64,1.64,0,0,1,.52-1.38,2.63,2.63,0,0,1,1.59-.4c.29,0,.62,0,1,0s.81,0,1.31.11Z"/><path class="cls-1" d="M4.72,64.09A.33.33,0,0,0,5,64a.43.43,0,0,0,.07-.28v-.52A.49.49,0,0,0,5,62.92c0-.05-.13-.07-.26-.07H1.46V62.8a1.49,1.49,0,0,1,.05-.36,1,1,0,0,1,.25-.37,2.89,2.89,0,0,1,.58-.43l.9-.54a7.58,7.58,0,0,0,.88-.6,3.42,3.42,0,0,0,.67-.76,1.89,1.89,0,0,0,.26-1v-.34a1.87,1.87,0,0,0-.63-1.52,2.69,2.69,0,0,0-1.8-.54,2.76,2.76,0,0,0-2,.71,1.68,1.68,0,0,0-.36.58,2,2,0,0,0-.14.71.39.39,0,0,0,.07.28.5.5,0,0,0,.29.06h.64a.44.44,0,0,0,.26-.05.26.26,0,0,0,.09-.18,1.19,1.19,0,0,1,.33-.75,1.19,1.19,0,0,1,.8-.22q1.08,0,1.08,1v.11a1.18,1.18,0,0,1-.35.89,3.72,3.72,0,0,1-.8.6l-1,.55a4,4,0,0,0-.77.59,2.39,2.39,0,0,0-.56.82A2.9,2.9,0,0,0,0,63.21v.55A.37.37,0,0,0,.07,64a.5.5,0,0,0,.29.06Z"/><path class="cls-1" d="M10.8,63.7a1.78,1.78,0,0,0,.73-1.52v-.31a1.74,1.74,0,0,0-.32-1,1.62,1.62,0,0,0-.93-.59,1.59,1.59,0,0,0,.77-.61,1.69,1.69,0,0,0,.27-1v-.28a1.81,1.81,0,0,0-.68-1.48,3,3,0,0,0-1.87-.54,3,3,0,0,0-1.88.54,1.77,1.77,0,0,0-.7,1.48v.28a1.68,1.68,0,0,0,.27,1,1.62,1.62,0,0,0,.78.62,1.6,1.6,0,0,0-.92.59,1.69,1.69,0,0,0-.33,1v.31a1.78,1.78,0,0,0,.74,1.52,3.39,3.39,0,0,0,2,.55A3.35,3.35,0,0,0,10.8,63.7ZM7.54,58.48a.94.94,0,0,1,.33-.77,1.33,1.33,0,0,1,.9-.28,1.31,1.31,0,0,1,.9.28,1,1,0,0,1,.32.77v.16a1,1,0,0,1-.32.79,1.36,1.36,0,0,1-.9.28,1.33,1.33,0,0,1-.9-.29,1,1,0,0,1-.33-.78ZM7.38,62v-.18a1,1,0,0,1,.37-.8,1.65,1.65,0,0,1,1-.28,1.6,1.6,0,0,1,1,.28,1,1,0,0,1,.37.8V62a1,1,0,0,1-.38.8,1.53,1.53,0,0,1-1,.3,1.59,1.59,0,0,1-1-.3A1,1,0,0,1,7.38,62Z"/><path class="cls-1" d="M19.46,56.52a3,3,0,0,0-1.75-.45H15.42a.48.48,0,0,0-.29.06c-.05,0-.07.13-.07.27v7.36a.37.37,0,0,0,.07.27.48.48,0,0,0,.29.06h2.46a2.68,2.68,0,0,0,1.64-.45,2.49,2.49,0,0,0,.86-1.06,3.1,3.1,0,0,0,.2-.67,5.28,5.28,0,0,0,.07-1V59.3a5.52,5.52,0,0,0-.07-1,3.2,3.2,0,0,0-.2-.68A2.48,2.48,0,0,0,19.46,56.52Zm-.21,4.39a3.11,3.11,0,0,1-.18,1.18,1.15,1.15,0,0,1-.53.61,2,2,0,0,1-.85.17H16.43V57.29h1.26a1.51,1.51,0,0,1,1.14.42,2.2,2.2,0,0,1,.42,1.54Z"/><path class="cls-1" d="M26.63,57.29a.35.35,0,0,0,.27-.08.46.46,0,0,0,.06-.28v-.5a.5.5,0,0,0-.06-.29s-.13-.07-.27-.07h-4.2a.44.44,0,0,0-.28.06.35.35,0,0,0-.08.27v7.36a.36.36,0,0,0,.08.27.44.44,0,0,0,.28.06h4.25a.33.33,0,0,0,.26-.08.44.44,0,0,0,.06-.28v-.5a.5.5,0,0,0-.06-.29.38.38,0,0,0-.26-.07H23.45v-2.3h2.89c.14,0,.22,0,.26-.07a.41.41,0,0,0,.07-.29v-.49a.42.42,0,0,0-.07-.29s-.12-.07-.26-.07H23.45V57.29Z"/><path class="cls-1" d="M34.36,56.27a.26.26,0,0,0-.13-.17.67.67,0,0,0-.23,0H33a.67.67,0,0,0-.23,0,.3.3,0,0,0-.13.17l-2.53,7.49a.37.37,0,0,0,0,.13c0,.13.08.2.25.2h.74a.41.41,0,0,0,.27-.06.51.51,0,0,0,.13-.26l.51-1.6h3l.52,1.59a.74.74,0,0,0,.13.27.41.41,0,0,0,.27.06h.79c.17,0,.25-.07.25-.2a1.05,1.05,0,0,0,0-.13Zm-2,4.73,1.09-3.42L34.54,61Z"/><path class="cls-1" d="M39.09,57.89a1,1,0,0,1,.5-.63,1.93,1.93,0,0,1,.89-.18,1.73,1.73,0,0,1,1.09.29,1.22,1.22,0,0,1,.4.92.28.28,0,0,0,.09.22.43.43,0,0,0,.27.06H43a.48.48,0,0,0,.28-.06.24.24,0,0,0,.08-.21A2.33,2.33,0,0,0,43,56.93a2.26,2.26,0,0,0-1-.79,3.76,3.76,0,0,0-1.41-.25,3.44,3.44,0,0,0-1.73.42,2.36,2.36,0,0,0-1.06,1.22,4.88,4.88,0,0,0-.26,1.78V61A7.59,7.59,0,0,0,37.58,62a2.53,2.53,0,0,0,.2.72,2.57,2.57,0,0,0,1,1.12,3.84,3.84,0,0,0,3.37,0,2.41,2.41,0,0,0,1-1,3.06,3.06,0,0,0,.31-1.36V60.29c0-.13,0-.22-.07-.26A.5.5,0,0,0,43,60h-1.9c-.14,0-.23,0-.27.07a.48.48,0,0,0-.06.29v.49a.5.5,0,0,0,.06.29s.13.07.27.07H42v.22a1.77,1.77,0,0,1-.38,1.3,1.5,1.5,0,0,1-1.13.39,1.42,1.42,0,0,1-1.17-.47,2.57,2.57,0,0,1-.38-1.6V59.13A3.77,3.77,0,0,1,39.09,57.89Z"/><path class="cls-1" d="M47.56,55.89a3.17,3.17,0,0,0-1.68.42,2.44,2.44,0,0,0-1,1.22,3.62,3.62,0,0,0-.2.77,7.41,7.41,0,0,0-.06,1V61a9.68,9.68,0,0,0,0,1,2.6,2.6,0,0,0,.21.73,2.64,2.64,0,0,0,2.69,1.53,3.11,3.11,0,0,0,1.67-.42,2.54,2.54,0,0,0,1-1.23,4.12,4.12,0,0,0,.2-.77,7.21,7.21,0,0,0,.06-1V59.2a7.43,7.43,0,0,0-.06-1.05,2.51,2.51,0,0,0-.2-.73A2.65,2.65,0,0,0,47.56,55.89ZM49.1,61a2.74,2.74,0,0,1-.35,1.57,1.74,1.74,0,0,1-2.38,0A2.65,2.65,0,0,1,46,61V59.13a2.6,2.6,0,0,1,.36-1.56,1.72,1.72,0,0,1,2.38,0,2.68,2.68,0,0,1,.35,1.56Z"/><path class="cls-1" d="M54.27,63.1a1.59,1.59,0,0,1-1-.25,1.16,1.16,0,0,1-.44-.72.45.45,0,0,0-.1-.23.6.6,0,0,0-.28,0h-.63a.5.5,0,0,0-.29.06.3.3,0,0,0-.07.24,2,2,0,0,0,.58,1.41,3.1,3.1,0,0,0,2.25.71,3.06,3.06,0,0,0,2-.59A2.1,2.1,0,0,0,57,62v-.14a2.18,2.18,0,0,0-.42-1.36,2.48,2.48,0,0,0-1.28-.82l-1.19-.37a2.18,2.18,0,0,1-.91-.44,1,1,0,0,1-.24-.7q0-1.11,1.23-1.11c.82,0,1.26.31,1.32.92a.42.42,0,0,0,.09.23.48.48,0,0,0,.28,0h.65a.46.46,0,0,0,.28-.06.3.3,0,0,0,.08-.24,1.91,1.91,0,0,0-.48-1.31,2.7,2.7,0,0,0-2.1-.75,3,3,0,0,0-2,.62,2.16,2.16,0,0,0-.72,1.74v.11A2,2,0,0,0,52,59.64a2.63,2.63,0,0,0,1.28.8l1.2.37a1.85,1.85,0,0,1,.83.47,1.08,1.08,0,0,1,.26.74,1,1,0,0,1-.32.82A1.62,1.62,0,0,1,54.27,63.1Z"/><path class="cls-1" d="M61.32,57.29h2a.33.33,0,0,0,.26-.08.45.45,0,0,0,.07-.28v-.5a.49.49,0,0,0-.07-.29s-.13-.07-.26-.07H58c-.13,0-.22,0-.26.07a.5.5,0,0,0-.06.29v.5a.46.46,0,0,0,.06.28.33.33,0,0,0,.26.08h2v6.47A.36.36,0,0,0,60,64a.46.46,0,0,0,.28.06H61a.5.5,0,0,0,.29-.06.42.42,0,0,0,.07-.27Z"/><path class="cls-1" d="M69.87,62.62a3.47,3.47,0,0,0,.19-.77,7.21,7.21,0,0,0,.06-1V59.2a7.65,7.65,0,0,0-.05-1.05,2.87,2.87,0,0,0-.2-.73,2.65,2.65,0,0,0-2.7-1.53,3.11,3.11,0,0,0-1.67.42,2.51,2.51,0,0,0-1,1.22,3.62,3.62,0,0,0-.19.77,6,6,0,0,0-.07,1V61a7.43,7.43,0,0,0,.06,1,3,3,0,0,0,.2.73,2.65,2.65,0,0,0,2.69,1.53,3.17,3.17,0,0,0,1.68-.42A2.54,2.54,0,0,0,69.87,62.62ZM68.72,61a2.65,2.65,0,0,1-.36,1.57,1.73,1.73,0,0,1-2.37,0A2.65,2.65,0,0,1,65.63,61V59.13A2.6,2.6,0,0,1,66,57.57a1.7,1.7,0,0,1,2.37,0,2.6,2.6,0,0,1,.36,1.56Z"/><path class="cls-1" d="M78.56,63.76a.74.74,0,0,0,.13.27.41.41,0,0,0,.27.06h.79c.17,0,.25-.07.25-.2a1.05,1.05,0,0,0,0-.13l-2.5-7.49a.26.26,0,0,0-.13-.17.67.67,0,0,0-.23,0h-1a.67.67,0,0,0-.23,0,.3.3,0,0,0-.13.17l-2.53,7.49a1.05,1.05,0,0,0,0,.13c0,.13.08.2.25.2h.74a.41.41,0,0,0,.27-.06.51.51,0,0,0,.13-.26l.51-1.6h3ZM75.46,61l1.09-3.42L77.66,61Z"/><path class="cls-1" d="M84.22,57.74v6a.36.36,0,0,0,.08.27.46.46,0,0,0,.28.06h.62a.48.48,0,0,0,.29-.06.37.37,0,0,0,.07-.27V56.85c0-.14,0-.23-.07-.27a.48.48,0,0,0-.29-.06H83.08c-.14,0-.23,0-.27.07a.5.5,0,0,0-.06.29v.5a.46.46,0,0,0,.06.28.35.35,0,0,0,.27.08Z"/><path class="cls-1" d="M95,57.6a2.48,2.48,0,0,0-.92-1.08,3,3,0,0,0-1.75-.45H90.05a.48.48,0,0,0-.29.06c-.05,0-.07.13-.07.27v7.36a.37.37,0,0,0,.07.27.48.48,0,0,0,.29.06h2.46a2.68,2.68,0,0,0,1.64-.45A2.49,2.49,0,0,0,95,62.58a3.79,3.79,0,0,0,.2-.67,5.28,5.28,0,0,0,.07-1V59.3a5.52,5.52,0,0,0-.07-1A3.91,3.91,0,0,0,95,57.6Zm-1.14,3.31a3.11,3.11,0,0,1-.18,1.18,1.14,1.14,0,0,1-.52.61,2,2,0,0,1-.85.17H91.06V57.29h1.26a1.51,1.51,0,0,1,1.14.42,2.2,2.2,0,0,1,.41,1.54Z"/><path class="cls-1" d="M101.31,62.87H98.08v-2.3H101c.13,0,.22,0,.26-.07a.41.41,0,0,0,.07-.29v-.49a.42.42,0,0,0-.07-.29s-.13-.07-.26-.07H98.08V57.29h3.18a.35.35,0,0,0,.27-.08.46.46,0,0,0,.06-.28v-.5a.5.5,0,0,0-.06-.29s-.13-.07-.27-.07h-4.2a.5.5,0,0,0-.29.06.4.4,0,0,0-.07.27v7.36a.42.42,0,0,0,.07.27.5.5,0,0,0,.29.06h4.25a.33.33,0,0,0,.26-.08.44.44,0,0,0,.06-.28v-.5a.5.5,0,0,0-.06-.29A.38.38,0,0,0,101.31,62.87Z"/><path class="cls-1" d="M107.65,63.1a1.57,1.57,0,0,1-1-.25,1.16,1.16,0,0,1-.44-.72.38.38,0,0,0-.11-.23.53.53,0,0,0-.27,0h-.63a.48.48,0,0,0-.29.06.3.3,0,0,0-.07.24,2,2,0,0,0,.58,1.41,3.81,3.81,0,0,0,4.25.12,2.1,2.1,0,0,0,.71-1.69v-.14a2.18,2.18,0,0,0-.42-1.36,2.52,2.52,0,0,0-1.28-.82l-1.2-.37a2.19,2.19,0,0,1-.9-.44,1,1,0,0,1-.25-.7c0-.74.42-1.11,1.24-1.11s1.25.31,1.32.92a.42.42,0,0,0,.09.23.48.48,0,0,0,.28,0h.64a.48.48,0,0,0,.29-.06.3.3,0,0,0,.08-.24,1.91,1.91,0,0,0-.48-1.31,2.72,2.72,0,0,0-2.1-.75,3,3,0,0,0-2,.62,2.16,2.16,0,0,0-.72,1.74v.11a2,2,0,0,0,.44,1.28,2.63,2.63,0,0,0,1.28.8l1.2.37a1.85,1.85,0,0,1,.83.47A1.08,1.08,0,0,1,109,62a1,1,0,0,1-.32.82A1.62,1.62,0,0,1,107.65,63.1Z"/><path class="cls-1" d="M116.27,62.87H113v-2.3h2.9c.13,0,.22,0,.26-.07a.48.48,0,0,0,.06-.29v-.49a.5.5,0,0,0-.06-.29s-.13-.07-.26-.07H113V57.29h3.19a.33.33,0,0,0,.26-.08.45.45,0,0,0,.07-.28v-.5a.49.49,0,0,0-.07-.29s-.13-.07-.26-.07H112a.5.5,0,0,0-.29.06s-.07.13-.07.27v7.36a.37.37,0,0,0,.07.27.5.5,0,0,0,.29.06h4.24a.35.35,0,0,0,.27-.08.44.44,0,0,0,.06-.28v-.5a.5.5,0,0,0-.06-.29A.4.4,0,0,0,116.27,62.87Z"/><path class="cls-1" d="M123.13,56.07h-5.31c-.14,0-.23,0-.27.07a.5.5,0,0,0-.06.29v.5a.46.46,0,0,0,.06.28.35.35,0,0,0,.27.08h2v6.47a.37.37,0,0,0,.07.27.5.5,0,0,0,.29.06h.65a.5.5,0,0,0,.29-.06.37.37,0,0,0,.07-.27V57.29h2a.35.35,0,0,0,.27-.08.46.46,0,0,0,.06-.28v-.5a.5.5,0,0,0-.06-.29S123.27,56.07,123.13,56.07Z"/><path class="cls-1" d="M129.16,64.09a.33.33,0,0,0,.26-.08.44.44,0,0,0,.06-.28v-.5a.5.5,0,0,0-.06-.29.38.38,0,0,0-.26-.07h-3.24v-2.3h2.9c.13,0,.22,0,.26-.07a.47.47,0,0,0,.07-.29v-.49a.49.49,0,0,0-.07-.29s-.13-.07-.26-.07h-2.9V57.29h3.19a.35.35,0,0,0,.27-.08.46.46,0,0,0,.06-.28v-.5a.5.5,0,0,0-.06-.29s-.13-.07-.27-.07h-4.2a.5.5,0,0,0-.29.06c-.05,0-.07.13-.07.27v7.36a.37.37,0,0,0,.07.27.5.5,0,0,0,.29.06Z"/><path class="cls-1" d="M137.27,56.07h-.66a.58.58,0,0,0-.31.06.51.51,0,0,0-.19.27l-1.85,4-1.84-4a.51.51,0,0,0-.19-.27.58.58,0,0,0-.31-.06h-.66a.44.44,0,0,0-.28.06.35.35,0,0,0-.08.27v7.36A.36.36,0,0,0,131,64a.44.44,0,0,0,.28.06h.62a.5.5,0,0,0,.29-.06.37.37,0,0,0,.07-.27v-5l1.24,2.69a1,1,0,0,0,.16.26.5.5,0,0,0,.3.07h.64a.5.5,0,0,0,.3-.07.77.77,0,0,0,.17-.26l1.24-2.69v5a.37.37,0,0,0,.07.27.48.48,0,0,0,.29.06h.62a.46.46,0,0,0,.28-.06.36.36,0,0,0,.08-.27V56.4a.35.35,0,0,0-.08-.27A.46.46,0,0,0,137.27,56.07Z"/><path class="cls-1" d="M144,63.57a2,2,0,0,0,.71-1.77v-.18a1.9,1.9,0,0,0-.34-1.14,1.54,1.54,0,0,0-.86-.62,1.35,1.35,0,0,0,.78-.56,1.75,1.75,0,0,0,.31-1.06V58.1a1.86,1.86,0,0,0-.62-1.51,2.78,2.78,0,0,0-1.82-.52h-2.59a.5.5,0,0,0-.29.06s-.07.13-.07.27v7.36a.37.37,0,0,0,.07.27.5.5,0,0,0,.29.06H142A3.48,3.48,0,0,0,144,63.57Zm-3.44-6.33H142c.81,0,1.21.33,1.21,1v.15a.88.88,0,0,1-.28.73,1.34,1.34,0,0,1-.84.22H140.6Zm0,3.21h1.59a1.12,1.12,0,0,1,.84.3,1.09,1.09,0,0,1,.29.81v.23a1,1,0,0,1-.34.87,1.59,1.59,0,0,1-1,.26H140.6Z"/><path class="cls-1" d="M147,64.09a.41.41,0,0,0,.29-.07.38.38,0,0,0,.07-.26V61h1.22l1.52,2.8a1,1,0,0,0,.21.27.49.49,0,0,0,.27.06h.84c.2,0,.29-.06.29-.18a.34.34,0,0,0,0-.15l-1.68-3a2,2,0,0,0,1.36-2.16v-.22a2.28,2.28,0,0,0-.62-1.78,2.9,2.9,0,0,0-2-.56h-2.41a.41.41,0,0,0-.29.07.38.38,0,0,0-.07.26v7.36a.38.38,0,0,0,.07.26.41.41,0,0,0,.29.07Zm.36-6.85h1.4a1.22,1.22,0,0,1,.93.28,1.3,1.3,0,0,1,.27.94v.15a1.25,1.25,0,0,1-.27.91,1.29,1.29,0,0,1-.93.27h-1.4Z"/><path class="cls-1" d="M157.33,63.85a2.54,2.54,0,0,0,1-1.23,3.47,3.47,0,0,0,.19-.77,5.84,5.84,0,0,0,.07-1V59.2a7.43,7.43,0,0,0-.06-1.05,2.87,2.87,0,0,0-.2-.73,2.65,2.65,0,0,0-2.69-1.53,3.15,3.15,0,0,0-1.68.42,2.51,2.51,0,0,0-1,1.22,3.62,3.62,0,0,0-.19.77,7.27,7.27,0,0,0-.07,1V61a7.43,7.43,0,0,0,.06,1,3,3,0,0,0,.2.73,2.65,2.65,0,0,0,2.7,1.53A3.11,3.11,0,0,0,157.33,63.85ZM154.11,61V59.13a2.6,2.6,0,0,1,.36-1.56,1.7,1.7,0,0,1,2.37,0,2.6,2.6,0,0,1,.36,1.56V61a2.65,2.65,0,0,1-.36,1.57,1.73,1.73,0,0,1-2.37,0A2.65,2.65,0,0,1,154.11,61Z"/><path class="cls-1" d="M167.6,57.6a2.52,2.52,0,0,0-.91-1.08,3.06,3.06,0,0,0-1.76-.45h-2.29a.48.48,0,0,0-.29.06s-.07.13-.07.27v7.36a.37.37,0,0,0,.07.27.48.48,0,0,0,.29.06h2.46a2.68,2.68,0,0,0,1.64-.45,2.49,2.49,0,0,0,.86-1.06,3.1,3.1,0,0,0,.2-.67,5.28,5.28,0,0,0,.07-1V59.3a5.52,5.52,0,0,0-.07-1A3.2,3.2,0,0,0,167.6,57.6Zm-1.13,3.31a3.11,3.11,0,0,1-.18,1.18,1.15,1.15,0,0,1-.53.61,2,2,0,0,1-.85.17h-1.26V57.29h1.26a1.55,1.55,0,0,1,1.15.42,2.26,2.26,0,0,1,.41,1.54Z"/><path class="cls-1" d="M173.85,57.29a.35.35,0,0,0,.27-.08.46.46,0,0,0,.06-.28v-.5a.5.5,0,0,0-.06-.29s-.13-.07-.27-.07h-4.2a.44.44,0,0,0-.28.06.35.35,0,0,0-.08.27v7.36a.36.36,0,0,0,.08.27.44.44,0,0,0,.28.06h4.25a.33.33,0,0,0,.26-.08.43.43,0,0,0,.07-.28v-.5a.49.49,0,0,0-.07-.29.38.38,0,0,0-.26-.07h-3.23v-2.3h2.89a.37.37,0,0,0,.27-.07.48.48,0,0,0,.06-.29v-.49a.5.5,0,0,0-.06-.29.37.37,0,0,0-.27-.07h-2.89V57.29Z"/><path class="cls-1" d="M180.1,56.36a2.76,2.76,0,0,0-2,.71,1.68,1.68,0,0,0-.36.58,2,2,0,0,0-.14.71.39.39,0,0,0,.07.28.5.5,0,0,0,.29.06h.64a.44.44,0,0,0,.26-.05.26.26,0,0,0,.09-.18,1,1,0,0,1,1.13-1q1.08,0,1.08,1v.11a1.18,1.18,0,0,1-.35.89,3.72,3.72,0,0,1-.8.6l-1,.55a4,4,0,0,0-.77.59,2.39,2.39,0,0,0-.56.82,2.9,2.9,0,0,0-.21,1.16v.55a.37.37,0,0,0,.07.27.5.5,0,0,0,.29.06h4.36a.33.33,0,0,0,.26-.08.43.43,0,0,0,.07-.28v-.52a.49.49,0,0,0-.07-.29c0-.05-.13-.07-.26-.07h-3.26V62.8a1.49,1.49,0,0,1,.05-.36,1,1,0,0,1,.25-.37,2.89,2.89,0,0,1,.58-.43l.9-.54a7.58,7.58,0,0,0,.88-.6,3.42,3.42,0,0,0,.67-.76,1.89,1.89,0,0,0,.26-1v-.34a1.87,1.87,0,0,0-.63-1.52A2.69,2.69,0,0,0,180.1,56.36Z"/><path class="cls-1" d="M186.28,56.36a2.43,2.43,0,0,0-2.5,1.57,2.66,2.66,0,0,0-.2.71,8.76,8.76,0,0,0-.05,1v1.46a8.18,8.18,0,0,0,.05,1,2.51,2.51,0,0,0,.2.69,2.8,2.8,0,0,0,5-.06A3.17,3.17,0,0,0,189,62a8.43,8.43,0,0,0,.05-1V59.52a8.18,8.18,0,0,0-.05-1,2.91,2.91,0,0,0-.19-.69A2.47,2.47,0,0,0,186.28,56.36Zm1.32,4.78a2.54,2.54,0,0,1-.29,1.44,1.49,1.49,0,0,1-2.07,0,2.54,2.54,0,0,1-.29-1.44V59.47a2.68,2.68,0,0,1,.29-1.44,1.49,1.49,0,0,1,2.07,0,2.68,2.68,0,0,1,.29,1.44Z"/><path class="cls-1" d="M192.18,56.52h-2.13c-.14,0-.23,0-.27.07a.5.5,0,0,0-.06.29v.5a.46.46,0,0,0,.06.28.35.35,0,0,0,.27.08h1.15v6a.37.37,0,0,0,.07.27.48.48,0,0,0,.29.06h.62a.46.46,0,0,0,.28-.06.36.36,0,0,0,.08-.27V56.85a.35.35,0,0,0-.08-.27A.46.46,0,0,0,192.18,56.52Z"/><path class="cls-1" d="M198.36,56.52h-4.44c-.13,0-.22,0-.26.07a.49.49,0,0,0-.07.29v.5a.45.45,0,0,0,.07.28.33.33,0,0,0,.26.08h3.37a1.87,1.87,0,0,1-.15.67,3.14,3.14,0,0,1-.52.77l-.43.5a7.49,7.49,0,0,0-.55.74,3.71,3.71,0,0,0-.42,1,5.53,5.53,0,0,0-.16,1.45v.89a.37.37,0,0,0,.07.27.5.5,0,0,0,.29.06h.63a.5.5,0,0,0,.29-.06.37.37,0,0,0,.07-.27V62.6a3.15,3.15,0,0,1,.23-1.28,4,4,0,0,1,.58-.93l.44-.51c.17-.21.33-.42.48-.64a3,3,0,0,0,.39-.75,2.87,2.87,0,0,0,.16-1v-.63a.49.49,0,0,0-.07-.29C198.58,56.54,198.49,56.52,198.36,56.52Z"/><path class="cls-1" d="M5.65,69.58H5a.44.44,0,0,0-.29.07.35.35,0,0,0-.07.26V74.8c0,1.15-.46,1.73-1.38,1.73H3.11c-.92,0-1.38-.58-1.38-1.73V69.91a.4.4,0,0,0-.07-.26.47.47,0,0,0-.29-.07H.71a.44.44,0,0,0-.29.07.35.35,0,0,0-.07.26v4.9A3.17,3.17,0,0,0,1.06,77a2.72,2.72,0,0,0,2.07.75h.09A2.74,2.74,0,0,0,5.3,77,3.17,3.17,0,0,0,6,74.81v-4.9a.4.4,0,0,0-.07-.26A.47.47,0,0,0,5.65,69.58Z"/><path class="cls-1" d="M12.75,69.58h-.62a.42.42,0,0,0-.29.07.37.37,0,0,0-.07.26V75L9.08,69.9a.71.71,0,0,0-.21-.27.76.76,0,0,0-.31,0H7.91a.42.42,0,0,0-.29.07s-.07.12-.07.26v7.37c0,.13,0,.22.07.26a.5.5,0,0,0,.29.06h.62a.5.5,0,0,0,.29-.06.38.38,0,0,0,.07-.26v-5.1l2.69,5.11a.53.53,0,0,0,.21.26.76.76,0,0,0,.31,0h.65a.5.5,0,0,0,.29-.06c.05,0,.07-.13.07-.26V69.91c0-.14,0-.22-.07-.26A.42.42,0,0,0,12.75,69.58Z"/><path class="cls-1" d="M15.75,69.58h-.66c-.14,0-.24,0-.28.07a.32.32,0,0,0-.08.26v7.37a.33.33,0,0,0,.08.26.44.44,0,0,0,.28.06h.66a.46.46,0,0,0,.28-.06.33.33,0,0,0,.08-.26V69.91a.32.32,0,0,0-.08-.26A.39.39,0,0,0,15.75,69.58Z"/><path class="cls-1" d="M23.21,69.58h-.77a.41.41,0,0,0-.29.07.62.62,0,0,0-.12.26l-1.72,6-1.73-6a.45.45,0,0,0-.12-.26c0-.05-.14-.07-.28-.07h-.81c-.17,0-.25.07-.25.21s0,.06,0,.12l2.29,7.49a.26.26,0,0,0,.12.17.74.74,0,0,0,.24,0h1a.7.7,0,0,0,.24,0,.26.26,0,0,0,.12-.17l2.29-7.49c0-.06,0-.1,0-.12S23.38,69.58,23.21,69.58Z"/><path class="cls-1" d="M29.08,76.39H25.85v-2.3h2.89A.35.35,0,0,0,29,74a.44.44,0,0,0,.06-.28v-.5a.5.5,0,0,0-.06-.29.4.4,0,0,0-.27-.07H25.85V70.8H29c.13,0,.22,0,.26-.07a.5.5,0,0,0,.06-.29v-.5a.46.46,0,0,0-.06-.28.33.33,0,0,0-.26-.08H24.83a.39.39,0,0,0-.28.07.32.32,0,0,0-.08.26v7.37a.33.33,0,0,0,.08.26.46.46,0,0,0,.28.06h4.25c.14,0,.22,0,.26-.07a.42.42,0,0,0,.07-.29v-.49a.41.41,0,0,0-.07-.29S29.22,76.39,29.08,76.39Z"/><path class="cls-1" d="M34.81,74.3a2,2,0,0,0,1.37-2.16v-.21a2.25,2.25,0,0,0-.63-1.78,2.84,2.84,0,0,0-1.95-.57H31.19a.5.5,0,0,0-.3.07.41.41,0,0,0-.06.26v7.37a.38.38,0,0,0,.06.25.44.44,0,0,0,.3.07h.63a.41.41,0,0,0,.29-.07.37.37,0,0,0,.07-.25V74.47H33.4l1.52,2.81a.89.89,0,0,0,.21.26.49.49,0,0,0,.27.06h.84q.3,0,.3-.18a.34.34,0,0,0,0-.14Zm0-2.17a1.24,1.24,0,0,1-.27.9,1.29,1.29,0,0,1-.93.27h-1.4V70.75h1.4a1.26,1.26,0,0,1,.93.28,1.32,1.32,0,0,1,.27.94Z"/><path class="cls-1" d="M41.25,73.19l-1.19-.37a2.37,2.37,0,0,1-.91-.45.93.93,0,0,1-.24-.69c0-.75.41-1.12,1.24-1.12s1.25.31,1.32.93a.3.3,0,0,0,.09.22.44.44,0,0,0,.28.06h.64a.5.5,0,0,0,.29-.06.34.34,0,0,0,.07-.25,1.92,1.92,0,0,0-.47-1.3,2.69,2.69,0,0,0-2.11-.76,3,3,0,0,0-2,.62,2.2,2.2,0,0,0-.72,1.75v.1A1.92,1.92,0,0,0,38,73.15a2.59,2.59,0,0,0,1.28.8l1.19.37a2,2,0,0,1,.84.47,1.07,1.07,0,0,1,.25.74,1,1,0,0,1-.31.82,1.64,1.64,0,0,1-1,.26,1.61,1.61,0,0,1-1-.24,1.14,1.14,0,0,1-.44-.73.32.32,0,0,0-.11-.22.46.46,0,0,0-.28-.06h-.63a.46.46,0,0,0-.28.06.3.3,0,0,0-.08.24A2,2,0,0,0,38,77.07a3,3,0,0,0,2.24.71,3.11,3.11,0,0,0,2-.59,2.06,2.06,0,0,0,.7-1.68v-.15A2.2,2.2,0,0,0,42.53,74,2.41,2.41,0,0,0,41.25,73.19Z"/><path class="cls-1" d="M45.22,69.58h-.66a.39.39,0,0,0-.28.07.32.32,0,0,0-.08.26v7.37a.33.33,0,0,0,.08.26.46.46,0,0,0,.28.06h.66a.5.5,0,0,0,.29-.06.38.38,0,0,0,.07-.26V69.91a.37.37,0,0,0-.07-.26A.42.42,0,0,0,45.22,69.58Z"/><path class="cls-1" d="M52.53,71.11A2.55,2.55,0,0,0,51.61,70a3,3,0,0,0-1.75-.45h-2.3a.42.42,0,0,0-.29.07c-.05,0-.07.12-.07.26v7.37c0,.13,0,.22.07.26a.5.5,0,0,0,.29.06H50a2.77,2.77,0,0,0,1.64-.44,2.59,2.59,0,0,0,.86-1.07,3.46,3.46,0,0,0,.19-.66,5.22,5.22,0,0,0,.08-1V72.82a5.38,5.38,0,0,0-.08-1A4,4,0,0,0,52.53,71.11Zm-1.14,3.32a3.14,3.14,0,0,1-.18,1.18,1.2,1.2,0,0,1-.52.6,1.84,1.84,0,0,1-.85.18H48.57V70.8h1.27a1.51,1.51,0,0,1,1.14.43,2.21,2.21,0,0,1,.41,1.53Z"/><path class="cls-1" d="M57.73,69.79a.26.26,0,0,0-.12-.17.55.55,0,0,0-.24,0h-1a.47.47,0,0,0-.23,0,.27.27,0,0,0-.13.17l-2.53,7.49c0,.06,0,.1,0,.12s.08.2.25.2h.74a.58.58,0,0,0,.28,0,.7.7,0,0,0,.12-.26l.51-1.6h2.95l.52,1.59a.68.68,0,0,0,.13.26.42.42,0,0,0,.28.06H60c.17,0,.25-.07.25-.2s0-.06,0-.12Zm-2,4.73,1.1-3.43,1.1,3.43Z"/><path class="cls-1" d="M66.59,71.11A2.48,2.48,0,0,0,65.67,70a3,3,0,0,0-1.75-.45H61.63a.41.41,0,0,0-.29.07.32.32,0,0,0-.08.26v7.37a.33.33,0,0,0,.08.26.48.48,0,0,0,.29.06h2.46a2.75,2.75,0,0,0,1.64-.44,2.51,2.51,0,0,0,.86-1.07,3.44,3.44,0,0,0,.2-.66,5.35,5.35,0,0,0,.07-1V72.82a5.52,5.52,0,0,0-.07-1A4,4,0,0,0,66.59,71.11Zm-1.14,3.32a3.14,3.14,0,0,1-.18,1.18,1.15,1.15,0,0,1-.52.6,1.81,1.81,0,0,1-.85.18H62.64V70.8H63.9a1.48,1.48,0,0,1,1.14.43,2.16,2.16,0,0,1,.41,1.53Z"/><path class="cls-1" d="M72.89,76.39H69.65v-2.3h2.9a.33.33,0,0,0,.26-.08.43.43,0,0,0,.07-.28v-.5a.49.49,0,0,0-.07-.29.38.38,0,0,0-.26-.07h-2.9V70.8h3.19a.37.37,0,0,0,.27-.07.5.5,0,0,0,.06-.29v-.5a.46.46,0,0,0-.06-.28.36.36,0,0,0-.27-.08h-4.2a.42.42,0,0,0-.29.07s-.07.12-.07.26v7.37c0,.13,0,.22.07.26a.5.5,0,0,0,.29.06h4.25c.13,0,.22,0,.26-.07a.5.5,0,0,0,.06-.29v-.49a.48.48,0,0,0-.06-.29S73,76.39,72.89,76.39Z"/><path class="cls-1" d="M81.42,69.58H77.25a.41.41,0,0,0-.29.07.32.32,0,0,0-.08.26v7.37a.33.33,0,0,0,.08.26.48.48,0,0,0,.29.06h.65a.5.5,0,0,0,.29-.06.38.38,0,0,0,.07-.26V74h2.87a.36.36,0,0,0,.27-.08.44.44,0,0,0,.06-.28v-.5a.5.5,0,0,0-.06-.29.42.42,0,0,0-.27-.07H78.26v-2h3.16c.14,0,.23,0,.27-.07a.5.5,0,0,0,.06-.29v-.5a.46.46,0,0,0-.06-.28A.35.35,0,0,0,81.42,69.58Z"/><path class="cls-1" d="M87.56,76.39H84.33v-2.3h2.89a.35.35,0,0,0,.27-.08.44.44,0,0,0,.06-.28v-.5a.5.5,0,0,0-.06-.29.4.4,0,0,0-.27-.07H84.33V70.8h3.19c.13,0,.22,0,.26-.07a.5.5,0,0,0,.06-.29v-.5a.46.46,0,0,0-.06-.28.33.33,0,0,0-.26-.08H83.31a.39.39,0,0,0-.28.07.32.32,0,0,0-.08.26v7.37a.33.33,0,0,0,.08.26.46.46,0,0,0,.28.06h4.25a.37.37,0,0,0,.27-.07.5.5,0,0,0,.06-.29v-.49a.48.48,0,0,0-.06-.29A.37.37,0,0,0,87.56,76.39Z"/><path class="cls-1" d="M94.63,71.11A2.48,2.48,0,0,0,93.71,70,3,3,0,0,0,92,69.58H89.67a.41.41,0,0,0-.29.07s-.07.12-.07.26v7.37c0,.13,0,.22.07.26a.48.48,0,0,0,.29.06h2.46a2.75,2.75,0,0,0,1.64-.44,2.51,2.51,0,0,0,.86-1.07,3.44,3.44,0,0,0,.2-.66,5.35,5.35,0,0,0,.07-1V72.82a5.52,5.52,0,0,0-.07-1A4,4,0,0,0,94.63,71.11Zm-1.14,3.32a3.39,3.39,0,0,1-.17,1.18,1.21,1.21,0,0,1-.53.6,1.81,1.81,0,0,1-.85.18H90.68V70.8h1.26a1.48,1.48,0,0,1,1.14.43,2.16,2.16,0,0,1,.41,1.53Z"/><path class="cls-1" d="M100.93,76.39H97.7v-2.3h2.89a.33.33,0,0,0,.26-.08c.05,0,.07-.14.07-.28v-.5a.42.42,0,0,0-.07-.29.38.38,0,0,0-.26-.07H97.7V70.8h3.18c.14,0,.23,0,.27-.07a.5.5,0,0,0,.06-.29v-.5a.46.46,0,0,0-.06-.28.35.35,0,0,0-.27-.08h-4.2a.42.42,0,0,0-.29.07.37.37,0,0,0-.07.26v7.37a.38.38,0,0,0,.07.26.5.5,0,0,0,.29.06h4.25c.13,0,.22,0,.26-.07a.5.5,0,0,0,.06-.29v-.49a.48.48,0,0,0-.06-.29S101.06,76.39,100.93,76.39Z"/><path class="cls-1" d="M106.66,74.3A2,2,0,0,0,108,72.14v-.21a2.29,2.29,0,0,0-.62-1.78,2.85,2.85,0,0,0-2-.57H103a.47.47,0,0,0-.29.07.4.4,0,0,0-.07.26v7.37a.37.37,0,0,0,.07.25.41.41,0,0,0,.29.07h.63a.44.44,0,0,0,.3-.07.38.38,0,0,0,.06-.25V74.47h1.23l1.52,2.81a.89.89,0,0,0,.21.26.49.49,0,0,0,.27.06h.84c.2,0,.29-.06.29-.18a.3.3,0,0,0,0-.14Zm0-2.17a1.24,1.24,0,0,1-.27.9,1.29,1.29,0,0,1-.93.27H104V70.75h1.41a1.26,1.26,0,0,1,.93.28,1.32,1.32,0,0,1,.27.94Z"/><path class="cls-1" d="M113.26,69.79a.26.26,0,0,0-.12-.17.55.55,0,0,0-.24,0h-1a.49.49,0,0,0-.24,0,.26.26,0,0,0-.12.17L109,77.28c0,.06,0,.1,0,.12s.08.2.25.2H110a.58.58,0,0,0,.28,0,.86.86,0,0,0,.13-.26l.5-1.6h2.95l.52,1.59a.86.86,0,0,0,.13.26.42.42,0,0,0,.28.06h.78c.17,0,.25-.07.25-.2s0-.06,0-.12Zm-2,4.73,1.1-3.43,1.1,3.43Z"/><path class="cls-1" d="M121.16,76.39h-3V69.91a.37.37,0,0,0-.07-.26.42.42,0,0,0-.29-.07h-.65a.41.41,0,0,0-.29.07c-.05,0-.07.12-.07.26v7.37c0,.13,0,.22.07.26a.48.48,0,0,0,.29.06h4c.14,0,.23,0,.27-.07a.5.5,0,0,0,.06-.29v-.49a.48.48,0,0,0-.06-.29S121.3,76.39,121.16,76.39Z"/><path class="cls-1" d="M130.16,71.11a2.52,2.52,0,0,0-.91-1.08,3.06,3.06,0,0,0-1.76-.45H125.2a.41.41,0,0,0-.29.07s-.07.12-.07.26v7.37c0,.13,0,.22.07.26a.48.48,0,0,0,.29.06h2.46a2.75,2.75,0,0,0,1.64-.44,2.51,2.51,0,0,0,.86-1.07,2.85,2.85,0,0,0,.2-.66,5.35,5.35,0,0,0,.07-1V72.82a5.52,5.52,0,0,0-.07-1A3.29,3.29,0,0,0,130.16,71.11ZM129,74.43a3.14,3.14,0,0,1-.18,1.18,1.17,1.17,0,0,1-.53.6,1.81,1.81,0,0,1-.85.18h-1.26V70.8h1.26a1.48,1.48,0,0,1,1.14.43,2.15,2.15,0,0,1,.42,1.53Z"/><path class="cls-1" d="M136.46,76.39h-3.23v-2.3h2.89a.32.32,0,0,0,.26-.08c.05,0,.07-.14.07-.28v-.5a.42.42,0,0,0-.07-.29.37.37,0,0,0-.26-.07h-2.89V70.8h3.18c.14,0,.23,0,.27-.07a.5.5,0,0,0,.06-.29v-.5a.46.46,0,0,0-.06-.28.35.35,0,0,0-.27-.08h-4.2c-.14,0-.24,0-.28.07a.32.32,0,0,0-.08.26v7.37a.33.33,0,0,0,.08.26.44.44,0,0,0,.28.06h4.25c.13,0,.22,0,.26-.07a.5.5,0,0,0,.06-.29v-.49a.48.48,0,0,0-.06-.29S136.59,76.39,136.46,76.39Z"/><path class="cls-1" d="M143.87,73.19l-1.2-.37a2.31,2.31,0,0,1-.9-.45.93.93,0,0,1-.24-.69c0-.75.41-1.12,1.23-1.12s1.25.31,1.32.93a.41.41,0,0,0,.09.22.46.46,0,0,0,.28.06h.65a.46.46,0,0,0,.28-.06.34.34,0,0,0,.08-.25,1.88,1.88,0,0,0-.48-1.3,2.69,2.69,0,0,0-2.1-.76,3,3,0,0,0-2,.62,2.2,2.2,0,0,0-.72,1.75v.1a2,2,0,0,0,.44,1.28,2.63,2.63,0,0,0,1.28.8l1.2.37a1.85,1.85,0,0,1,.83.47,1.08,1.08,0,0,1,.26.74,1,1,0,0,1-.32.82,1.62,1.62,0,0,1-1,.26,1.66,1.66,0,0,1-1-.24,1.18,1.18,0,0,1-.44-.73.32.32,0,0,0-.11-.22.43.43,0,0,0-.27-.06h-.63a.5.5,0,0,0-.29.06.3.3,0,0,0-.07.24,2,2,0,0,0,.58,1.41,3.81,3.81,0,0,0,4.25.12,2.06,2.06,0,0,0,.71-1.68v-.15a2.2,2.2,0,0,0-.42-1.36A2.45,2.45,0,0,0,143.87,73.19Z"/><path class="cls-1" d="M150.5,69.79a.26.26,0,0,0-.12-.17.52.52,0,0,0-.24,0h-1a.49.49,0,0,0-.24,0,.26.26,0,0,0-.12.17l-2.54,7.49c0,.06,0,.1,0,.12s.08.2.25.2h.74a.55.55,0,0,0,.28,0,.86.86,0,0,0,.13-.26l.5-1.6h2.95l.52,1.59a.86.86,0,0,0,.13.26.44.44,0,0,0,.28.06h.79c.16,0,.24-.07.24-.2a.35.35,0,0,0,0-.12Zm-2,4.73,1.09-3.43,1.1,3.43Z"/><path class="cls-1" d="M150.82,67.51a.15.15,0,0,0-.17.17v.06q0,.27-.21.27l-.16,0-.15,0-.64-.23-.46-.13a2.19,2.19,0,0,0-.36,0,.93.93,0,0,0-.74.28,1.35,1.35,0,0,0-.24.9v.09c0,.11.05.17.16.17h.58a.15.15,0,0,0,.17-.17v-.06c0-.18.07-.27.2-.27l.15,0,.14,0,.68.22a4.42,4.42,0,0,0,.45.13,1.37,1.37,0,0,0,.36,0,.91.91,0,0,0,.73-.28,1.33,1.33,0,0,0,.25-.9v-.09a.15.15,0,0,0-.17-.17Z"/><path class="cls-1" d="M159.31,70.93a2.65,2.65,0,0,0-2.69-1.53,3.09,3.09,0,0,0-1.68.43,2.47,2.47,0,0,0-1,1.22,3.47,3.47,0,0,0-.19.77,7.31,7.31,0,0,0-.06,1v1.64a7.65,7.65,0,0,0,.05,1,2.87,2.87,0,0,0,.2.73,2.65,2.65,0,0,0,2.7,1.53,3.11,3.11,0,0,0,1.67-.42,2.51,2.51,0,0,0,1-1.22,3.62,3.62,0,0,0,.19-.77,6,6,0,0,0,.07-1V72.71a7.63,7.63,0,0,0-.06-1A3.12,3.12,0,0,0,159.31,70.93Zm-1.15,3.61a2.6,2.6,0,0,1-.36,1.56,1.7,1.7,0,0,1-2.37,0,2.6,2.6,0,0,1-.36-1.56V72.65a2.65,2.65,0,0,1,.36-1.57,1.73,1.73,0,0,1,2.37,0,2.65,2.65,0,0,1,.36,1.57Z"/><path class="cls-1" d="M167.46,69.58h-.65a.41.41,0,0,0-.29.07c-.05,0-.07.12-.07.26v4.72a4.86,4.86,0,0,1-.11,1.14,1,1,0,0,1-.38.59,1.44,1.44,0,0,1-.75.17,1.08,1.08,0,0,1-.84-.3,1.38,1.38,0,0,1-.29-.84.3.3,0,0,0-.08-.22.46.46,0,0,0-.28-.06h-.65a.5.5,0,0,0-.29.06.34.34,0,0,0-.07.25,2.42,2.42,0,0,0,.32,1.31,1.9,1.9,0,0,0,.89.79,3,3,0,0,0,1.3.26,3,3,0,0,0,1.46-.3,1.92,1.92,0,0,0,.83-.84,2.24,2.24,0,0,0,.24-.73,4.87,4.87,0,0,0,.07-.89V69.91c0-.14,0-.22-.07-.26A.42.42,0,0,0,167.46,69.58Z"/><path class="cls-1" d="M174.8,70.93a2.64,2.64,0,0,0-2.69-1.53,3.09,3.09,0,0,0-1.68.43,2.5,2.5,0,0,0-1,1.22,3.47,3.47,0,0,0-.2.77,7.31,7.31,0,0,0-.06,1v1.64a7.43,7.43,0,0,0,.06,1,2.23,2.23,0,0,0,.2.73,2.65,2.65,0,0,0,2.69,1.53,3.17,3.17,0,0,0,1.68-.42,2.49,2.49,0,0,0,1-1.22,3.62,3.62,0,0,0,.2-.77,7.41,7.41,0,0,0,.06-1V72.71a10,10,0,0,0-.05-1A2.7,2.7,0,0,0,174.8,70.93Zm-1.15,3.61a2.6,2.6,0,0,1-.35,1.56,1.72,1.72,0,0,1-2.38,0,2.68,2.68,0,0,1-.35-1.56V72.65a2.74,2.74,0,0,1,.35-1.57,1.74,1.74,0,0,1,2.38,0,2.66,2.66,0,0,1,.35,1.57Z"/><path class="cls-1" d="M180,69.79a.26.26,0,0,0-.12-.17.49.49,0,0,0-.24,0h-1a.52.52,0,0,0-.24,0,.26.26,0,0,0-.12.17l-2.53,7.49a.49.49,0,0,0,0,.12c0,.13.09.2.25.2h.74a.52.52,0,0,0,.28,0,.68.68,0,0,0,.13-.26l.51-1.6h2.95l.52,1.59a.7.7,0,0,0,.12.26.46.46,0,0,0,.28.06h.79c.16,0,.25-.07.25-.2a.49.49,0,0,0,0-.12Zm-2,4.73,1.09-3.43,1.1,3.43Z"/><path class="cls-1" d="M177.35,69h.57a.15.15,0,0,0,.17-.17v-.06c0-.18.07-.27.2-.27l.16,0,.14,0,.67.22a4.42,4.42,0,0,0,.45.13,1.47,1.47,0,0,0,.36,0,.93.93,0,0,0,.74-.28,1.38,1.38,0,0,0,.24-.9v-.09a.15.15,0,0,0-.17-.17h-.57a.15.15,0,0,0-.17.17v.06c0,.18-.07.27-.2.27l-.17,0-.15,0-.64-.23-.46-.13a2,2,0,0,0-.36,0,.91.91,0,0,0-.73.28,1.29,1.29,0,0,0-.25.9v.09A.15.15,0,0,0,177.35,69Z"/><path class="cls-1" d="M188.8,70.93a2.65,2.65,0,0,0-2.69-1.53,3.09,3.09,0,0,0-1.68.43,2.45,2.45,0,0,0-1,1.22,3.47,3.47,0,0,0-.2.77,7.31,7.31,0,0,0-.06,1v1.64a7.43,7.43,0,0,0,.06,1,2.23,2.23,0,0,0,.2.73,2.65,2.65,0,0,0,2.69,1.53,3.17,3.17,0,0,0,1.68-.42,2.49,2.49,0,0,0,1-1.22,3.62,3.62,0,0,0,.2-.77,7.41,7.41,0,0,0,.06-1V72.71a7.63,7.63,0,0,0-.06-1A2.38,2.38,0,0,0,188.8,70.93Zm-1.15,3.61a2.68,2.68,0,0,1-.35,1.56,1.72,1.72,0,0,1-2.38,0,2.6,2.6,0,0,1-.35-1.56V72.65a2.66,2.66,0,0,1,.35-1.57,1.74,1.74,0,0,1,2.38,0,2.74,2.74,0,0,1,.35,1.57Z"/><path class="cls-1" d="M198.06,71.11a2.55,2.55,0,0,0-.92-1.08,3,3,0,0,0-1.75-.45h-2.3a.42.42,0,0,0-.29.07.37.37,0,0,0-.07.26v7.37a.38.38,0,0,0,.07.26.5.5,0,0,0,.29.06h2.47a2.77,2.77,0,0,0,1.64-.44,2.59,2.59,0,0,0,.86-1.07,2.86,2.86,0,0,0,.19-.66,5.22,5.22,0,0,0,.08-1V72.82a5.38,5.38,0,0,0-.08-1A3.3,3.3,0,0,0,198.06,71.11Zm-1.14,3.32a3.14,3.14,0,0,1-.18,1.18,1.15,1.15,0,0,1-.52.6,1.84,1.84,0,0,1-.85.18H194.1V70.8h1.27a1.49,1.49,0,0,1,1.14.43,2.21,2.21,0,0,1,.41,1.53Z"/><path class="cls-1" d="M204.35,76.39h-3.23v-2.3H204a.35.35,0,0,0,.27-.08.44.44,0,0,0,.06-.28v-.5a.5.5,0,0,0-.06-.29.4.4,0,0,0-.27-.07h-2.89V70.8h3.19c.13,0,.22,0,.26-.07a.5.5,0,0,0,.06-.29v-.5a.46.46,0,0,0-.06-.28.33.33,0,0,0-.26-.08h-4.2a.41.41,0,0,0-.29.07s-.07.12-.07.26v7.37c0,.13,0,.22.07.26a.48.48,0,0,0,.29.06h4.24c.14,0,.23,0,.27-.07a.5.5,0,0,0,.06-.29v-.49a.48.48,0,0,0-.06-.29S204.49,76.39,204.35,76.39Z"/><path class="cls-1" d="M210.47,76.39h-3V69.91c0-.14,0-.22-.07-.26a.42.42,0,0,0-.29-.07h-.65a.42.42,0,0,0-.29.07s-.07.12-.07.26v7.37c0,.13,0,.22.07.26a.5.5,0,0,0,.29.06h4c.13,0,.22,0,.26-.07a.5.5,0,0,0,.06-.29v-.49a.48.48,0,0,0-.06-.29S210.6,76.39,210.47,76.39Z"/><path class="cls-1" d="M213.88,73.91H211a.37.37,0,0,0-.27.07.5.5,0,0,0-.06.29v.62a.44.44,0,0,0,.06.28.36.36,0,0,0,.27.08h2.86a.32.32,0,0,0,.26-.08c.05,0,.07-.14.07-.28v-.62a.42.42,0,0,0-.07-.29S214,73.91,213.88,73.91Z"/><path class="cls-1" d="M219.43,74.3a2,2,0,0,0,1.36-2.16v-.21a2.25,2.25,0,0,0-.62-1.78,2.84,2.84,0,0,0-1.95-.57h-2.41a.5.5,0,0,0-.3.07.41.41,0,0,0-.06.26v7.37a.38.38,0,0,0,.06.25.44.44,0,0,0,.3.07h.63a.41.41,0,0,0,.29-.07.37.37,0,0,0,.07-.25V74.47H218l1.52,2.81a.89.89,0,0,0,.21.26.49.49,0,0,0,.27.06h.84c.2,0,.29-.06.29-.18a.3.3,0,0,0,0-.14Zm0-2.17a1.24,1.24,0,0,1-.27.9,1.29,1.29,0,0,1-.93.27h-1.4V70.75h1.4a1.26,1.26,0,0,1,.93.28,1.32,1.32,0,0,1,.27.94Z"/><path class="cls-1" d="M227,76.39h-3.23v-2.3h2.9a.33.33,0,0,0,.26-.08.44.44,0,0,0,.06-.28v-.5a.5.5,0,0,0-.06-.29.38.38,0,0,0-.26-.07h-2.9V70.8h3.19c.13,0,.22,0,.26-.07a.42.42,0,0,0,.07-.29v-.5a.39.39,0,0,0-.07-.28.33.33,0,0,0-.26-.08h-4.2a.42.42,0,0,0-.29.07s-.07.12-.07.26v7.37c0,.13,0,.22.07.26a.5.5,0,0,0,.29.06H227c.14,0,.23,0,.27-.07a.5.5,0,0,0,.06-.29v-.49a.48.48,0,0,0-.06-.29S227.09,76.39,227,76.39Z"/><path class="cls-1" d="M229.71,69.58h-.65a.42.42,0,0,0-.29.07c-.05,0-.07.12-.07.26v7.37c0,.13,0,.22.07.26a.5.5,0,0,0,.29.06h.65a.48.48,0,0,0,.29-.06c.05,0,.07-.13.07-.26V69.91c0-.14,0-.22-.07-.26A.41.41,0,0,0,229.71,69.58Z"/></g></g></svg>