<?xml version="1.0" encoding="utf-8"?>
<!-- Generator: Adobe Illustrator 25.2.3, SVG Export Plug-In . SVG Version: 6.00 Build 0)  -->
<svg version="1.1" id="Camada_1" xmlns="http://www.w3.org/2000/svg" xmlns:xlink="http://www.w3.org/1999/xlink" x="0px" y="0px"
	 viewBox="0 0 256 47.7" style="enable-background:new 0 0 256 47.7;" xml:space="preserve">
<style type="text/css">
	.st0{fill:#FFFFFF;}
</style>
<g>
	<path class="st0" d="M0.5,13.7c0.9,2.1,2.7,3.1,5.4,3.1c1.2,0,2.3-0.3,3.4-0.9c0.9-0.6,1.6-1.4,2-2.4c0.2-0.5,0.3-1,0.4-1.5
		c0.1-0.7,0.1-1.3,0.1-2V6.6c0-0.7,0-1.4-0.1-2.1c-0.1-0.5-0.2-1-0.4-1.5C10.4,1,8.6,0,6,0C4.8,0,3.6,0.3,2.6,0.8
		C1.7,1.4,0.9,2.3,0.5,3.3c-0.2,0.5-0.3,1-0.4,1.5C0,5.5,0,6.2,0,6.8v3.3c0,0.7,0,1.4,0.1,2.1C0.2,12.8,0.3,13.3,0.5,13.7z M2.8,6.5
		C2.7,5.4,3,4.3,3.5,3.4c0.6-0.7,1.5-1,2.4-1c0.9-0.1,1.8,0.3,2.4,1c0.6,0.9,0.8,2,0.7,3.1v3.8c0.1,1.1-0.1,2.2-0.7,3.1
		c-0.6,0.7-1.5,1-2.4,1c-0.9,0.1-1.8-0.3-2.4-1c-0.6-0.9-0.8-2-0.7-3.1L2.8,6.5z"/>
	<path class="st0" d="M19,16.7c1.4,0.1,2.8-0.4,3.9-1.3c0.7-0.7,1-1.6,1-2.5c0-0.2,0-0.4-0.2-0.5c-0.2-0.1-0.4-0.1-0.6-0.1h-1.2
		c-0.2,0-0.4,0-0.5,0.1c-0.1,0.1-0.2,0.2-0.2,0.4c-0.1,0.5-0.3,1-0.7,1.3c-0.4,0.3-1,0.4-1.5,0.4c-0.6,0.1-1.3-0.2-1.7-0.7
		c-0.4-0.7-0.6-1.5-0.5-2.4V9.6c-0.1-0.8,0.1-1.7,0.5-2.4c0.4-0.5,1.1-0.8,1.8-0.7c0.5,0,1,0.1,1.4,0.5c0.4,0.4,0.6,0.8,0.7,1.3
		c0,0.1,0.1,0.3,0.2,0.4c0.2,0.1,0.3,0.1,0.5,0.1h1.2c0.2,0,0.4,0,0.6-0.1c0.1-0.1,0.2-0.3,0.2-0.5c0-1-0.3-1.9-1-2.5
		c-1.1-1-2.4-1.4-3.9-1.3c-1.3-0.1-2.7,0.4-3.6,1.3c-0.9,1.1-1.3,2.5-1.3,3.9v2.2c-0.1,1.4,0.4,2.7,1.3,3.7
		C16.3,16.4,17.7,16.8,19,16.7z"/>
	<path class="st0" d="M29.8,16.7c0.6,0,1.2-0.1,1.8-0.4c0.5-0.2,1-0.6,1.4-1.1v0.5c0,0.2,0,0.4,0.2,0.5c0.2,0.1,0.4,0.2,0.6,0.1h1.2
		c0.2,0,0.4,0,0.6-0.1c0.1-0.1,0.2-0.3,0.2-0.5V5.3c0-0.2,0-0.4-0.2-0.5c-0.2-0.1-0.4-0.1-0.6-0.1h-1.2c-0.2,0-0.4,0-0.6,0.1
		c-0.1,0.2-0.2,0.3-0.1,0.5v6.6c0,0.7-0.2,1.3-0.6,1.8c-0.4,0.5-1,0.7-1.7,0.7c-0.6,0.1-1.1-0.1-1.5-0.6c-0.3-0.5-0.4-1-0.4-1.6v-7
		c0-0.2,0-0.4-0.1-0.5c-0.2-0.1-0.4-0.1-0.6-0.1h-1.2c-0.2,0-0.4,0-0.6,0.1c-0.1,0.1-0.2,0.3-0.2,0.5v7.4c-0.1,1.1,0.3,2.1,0.9,3
		C27.7,16.4,28.7,16.8,29.8,16.7z"/>
	<path class="st0" d="M39,20.3h1.2c0.2,0,0.4,0,0.6-0.1C41,20,41,19.8,41,19.6v-4.3c0.8,0.7,1.8,1.1,2.9,1c1.3,0.1,2.5-0.4,3.5-1.3
		c0.9-1.1,1.3-2.4,1.2-3.8V9.1c0.1-1.3-0.4-2.6-1.4-3.5c-1.1-0.9-2.4-1.3-3.8-1.3c-1.4-0.1-2.9,0.4-3.9,1.4c-0.9,1.1-1.3,2.6-1.2,4
		v10c0,0.2,0,0.4,0.2,0.5C38.6,20.3,38.8,20.3,39,20.3z M40.9,9.5c-0.1-0.8,0.1-1.6,0.6-2.3c0.5-0.5,1.2-0.8,1.9-0.7
		c0.7-0.1,1.4,0.2,1.9,0.7c0.4,0.7,0.7,1.5,0.6,2.3v1.4c0,2.1-0.8,3.1-2.5,3.1c-1.6,0-2.4-1-2.4-3.1V9.5z"/>
	<path class="st0" d="M56.2,9h-1.2c-0.8,0-1.6,0.1-2.3,0.4c-0.7,0.2-1.2,0.6-1.7,1.2c-0.5,0.7-0.7,1.5-0.6,2.3
		c-0.1,1.1,0.3,2.2,1.2,2.9c1,0.7,2.3,1,3.5,0.9h0.6c0.9,0,1.8-0.1,2.6-0.5c0.6-0.3,1.1-0.8,1.3-1.4c0.3-0.6,0.4-1.2,0.4-1.9V8.4
		c0-0.8-0.1-1.5-0.4-2.2c-0.3-0.6-0.8-1.1-1.4-1.4c-0.9-0.4-1.8-0.5-2.8-0.5c-0.8,0-1.6,0.1-2.4,0.3c-0.6,0.2-1.1,0.5-1.5,0.9
		c-0.4,0.4-0.7,1-0.7,1.7c0,0.1,0,0.3,0.1,0.4c0.1,0.1,0.3,0.1,0.5,0.1H53c0.2,0,0.3,0,0.5-0.1c0.1-0.1,0.2-0.2,0.2-0.3
		c0.1-0.3,0.3-0.6,0.6-0.7c0.4-0.2,0.8-0.2,1.2-0.2c0.5-0.1,1.1,0.1,1.5,0.5c0.4,0.5,0.5,1.1,0.5,1.8v0.6L56.2,9z M57.5,12.2
		c0.1,0.6-0.1,1.3-0.5,1.8c-0.4,0.4-1,0.6-1.6,0.5h-0.4c-0.5,0-1-0.1-1.4-0.4c-0.4-0.3-0.6-0.8-0.5-1.4c-0.1-0.5,0.1-1,0.5-1.4
		c0.5-0.3,1-0.4,1.6-0.4h1c0.4,0,0.8,0.1,1.3,0.1L57.5,12.2z"/>
	<path class="st0" d="M66.5,16.7c0,0.4,0.1,0.7,0.1,0.9c0,0.2,0,0.3,0,0.4c0,0.3,0,0.6-0.2,0.9c-0.2,0.2-0.5,0.3-0.8,0.2h-0.9
		c-0.2,0-0.3,0-0.5,0.1c-0.1,0.2-0.1,0.3-0.1,0.5v0.6c0,0.2,0,0.4,0.1,0.5c0.1,0.1,0.3,0.1,0.5,0.1H66c0.7,0,1.4-0.2,2-0.6
		c0.5-0.4,0.7-1,0.7-1.6c0-0.2,0-0.6,0-0.9c0-0.4-0.1-0.7-0.1-1.1c1-0.1,1.9-0.6,2.6-1.2c0.7-0.7,1-1.6,1-2.5c0-0.2,0-0.4-0.1-0.5
		c-0.2-0.1-0.4-0.1-0.6-0.1h-1.3c-0.2,0-0.4,0-0.5,0.1c-0.1,0.1-0.2,0.2-0.2,0.4c-0.1,0.5-0.3,1-0.7,1.3c-0.4,0.3-1,0.4-1.5,0.4
		c-0.6,0.1-1.3-0.2-1.7-0.7C65.1,13,65,12.2,65,11.4V9.6C65,8.8,65.1,8,65.6,7.3c0.4-0.5,1.1-0.8,1.8-0.7c0.5,0,1.1,0.1,1.5,0.5
		c0.4,0.4,0.6,0.8,0.7,1.3c0,0.1,0.1,0.3,0.2,0.4c0.2,0.1,0.3,0.1,0.5,0.1h1.2c0.2,0,0.4,0,0.6-0.1c0.1-0.1,0.2-0.3,0.1-0.5
		c0-1-0.3-1.9-1-2.5c-1.1-1-2.5-1.4-3.9-1.3c-1.3-0.1-2.6,0.4-3.6,1.3c-0.9,1.1-1.4,2.5-1.3,3.9v2.2c-0.1,1.4,0.4,2.7,1.3,3.7
		C64.4,16.2,65.4,16.6,66.5,16.7z"/>
	<path class="st0" d="M83.1,14.7c0.3-0.6,0.4-1.2,0.4-1.9V8.4c0-0.8-0.1-1.5-0.4-2.2c-0.3-0.6-0.8-1.1-1.4-1.4
		c-0.9-0.4-1.8-0.5-2.8-0.5c-0.8,0-1.6,0.1-2.4,0.3c-0.6,0.2-1.1,0.5-1.5,0.9c-0.4,0.4-0.7,1-0.7,1.7c0,0.1,0,0.3,0.1,0.4
		c0.1,0.1,0.3,0.1,0.5,0.1h1.5c0.2,0,0.3,0,0.5-0.1c0.1-0.1,0.2-0.2,0.2-0.3c0.1-0.3,0.3-0.6,0.6-0.7c0.4-0.2,0.8-0.2,1.2-0.2
		c0.5-0.1,1.1,0.1,1.5,0.5C80.8,7.3,81,8,80.9,8.6v0.6L79.7,9h-1.2c-0.8,0-1.6,0.1-2.3,0.4c-0.7,0.2-1.3,0.6-1.7,1.2
		c-0.5,0.7-0.7,1.5-0.6,2.3C73.8,14,74.2,15,75,15.8c1,0.7,2.3,1,3.5,0.9h0.6c0.9,0,1.8-0.1,2.6-0.5C82.4,15.8,82.9,15.3,83.1,14.7z
		 M80.9,12.2c0.1,0.6-0.1,1.3-0.5,1.8c-0.4,0.4-1,0.6-1.6,0.5h-0.4c-0.5,0-1-0.1-1.5-0.4c-0.4-0.3-0.6-0.8-0.5-1.4
		c-0.1-0.5,0.1-1,0.5-1.4c0.5-0.3,1-0.4,1.6-0.4h1c0.4,0,0.8,0.1,1.3,0.1L80.9,12.2z"/>
	<path class="st0" d="M75.6,3h1.1C76.8,3,77,2.9,77,2.8c0,0,0,0,0-0.1V2.6c0-0.3,0.1-0.5,0.4-0.5c0.1,0,0.2,0,0.3,0L78,2.2l1.2,0.4
		c0.4,0.1,0.6,0.2,0.9,0.3c0.2,0.1,0.5,0.1,0.7,0.1c0.5,0,1.1-0.2,1.5-0.5c0.4-0.5,0.6-1.1,0.6-1.7V0.5c0-0.2-0.1-0.3-0.3-0.3h-1.2
		c-0.2,0-0.3,0.1-0.3,0.3v0.1c0,0.3-0.1,0.5-0.4,0.5c-0.1,0-0.2,0-0.3,0L79.9,1l-1.2-0.5c-0.4-0.1-0.6-0.2-0.9-0.3
		c-0.2-0.1-0.5-0.1-0.7-0.1c-0.5,0-1.1,0.2-1.5,0.5c-0.4,0.5-0.5,1.1-0.5,1.7v0.2C75.2,2.9,75.3,3,75.6,3z"/>
	<path class="st0" d="M90.9,16.7c1.4,0.1,2.8-0.4,3.8-1.4c1-1.1,1.4-2.4,1.4-3.9V9.3c0.1-1.4-0.4-2.7-1.4-3.7
		c-1-0.9-2.4-1.4-3.8-1.3c-1.4-0.1-2.8,0.4-3.8,1.4c-1,1.1-1.4,2.4-1.4,3.9v2.2c-0.1,1.4,0.4,2.7,1.4,3.7
		C88.2,16.4,89.5,16.8,90.9,16.7z M88.5,9.6c0-2,0.8-3.1,2.4-3.1s2.4,1,2.4,3.1v1.8c0,2.1-0.8,3.1-2.4,3.1s-2.4-1-2.4-3.1V9.6z"/>
	<path class="st0" d="M107.6,16.7c0.7,0,1.5-0.1,2.2-0.4c0.6-0.2,1.2-0.5,1.6-1c0.3-0.3,0.5-0.6,0.7-1c0.2-0.3,0.3-0.7,0.3-1
		c0-0.2,0-0.3-0.2-0.4c-0.2-0.1-0.4-0.1-0.5-0.1h-1.4c-0.3,0-0.5,0.1-0.6,0.4c-0.2,0.8-0.9,1.2-2,1.2c-0.7,0.1-1.4-0.2-1.8-0.7
		c-0.4-0.7-0.6-1.6-0.6-2.4v-0.1h6.5c0.2,0,0.4,0,0.6-0.1c0.1-0.1,0.2-0.3,0.1-0.5v-1c0.1-1.4-0.3-2.8-1.3-3.9
		c-2.1-1.8-5.3-1.8-7.4,0.1c-0.9,1.1-1.4,2.6-1.3,4v1.8c-0.1,1.4,0.4,2.8,1.3,3.9C104.8,16.3,106.2,16.8,107.6,16.7z M105.8,7.1
		c0.5-0.5,1.1-0.7,1.8-0.6c0.6-0.1,1.2,0.2,1.6,0.7c0.4,0.6,0.6,1.4,0.5,2.1h-4.5C105.2,8.5,105.4,7.7,105.8,7.1z"/>
	<path class="st0" d="M120.3,16.4h8.5c0.2,0,0.4,0,0.5-0.2c0.1-0.2,0.1-0.4,0.1-0.6v-1c0-0.2,0-0.4-0.1-0.6
		c-0.1-0.1-0.3-0.2-0.5-0.2h-6.5V9.4h5.8c0.2,0,0.4,0,0.5-0.2c0.1-0.2,0.1-0.4,0.1-0.6v-1c0-0.2,0-0.4-0.1-0.6
		c-0.2-0.1-0.3-0.2-0.5-0.1h-5.8V2.8h6.4c0.2,0,0.4,0,0.5-0.1c0.1-0.2,0.1-0.4,0.1-0.6v-1c0-0.2,0-0.4-0.1-0.6
		c-0.1-0.1-0.3-0.2-0.5-0.1h-8.4c-0.2,0-0.4,0-0.6,0.1c-0.1,0.1-0.2,0.3-0.2,0.5v14.8c0,0.2,0,0.4,0.2,0.5
		C119.9,16.4,120.1,16.5,120.3,16.4z"/>
	<path class="st0" d="M132.9,16.4h1.2c0.2,0,0.4,0,0.6-0.1c0.1-0.1,0.2-0.3,0.2-0.5V9.2c0-0.7,0.2-1.3,0.6-1.8
		c0.4-0.5,1-0.7,1.6-0.7c0.5-0.1,1.1,0.1,1.4,0.6c0.3,0.5,0.4,1,0.4,1.6v7c0,0.2,0,0.4,0.2,0.5c0.2,0.1,0.4,0.2,0.6,0.1h1.2
		c0.2,0,0.4,0,0.6-0.1c0.1-0.2,0.2-0.3,0.1-0.5V9.2c0-0.7,0.2-1.3,0.6-1.8c0.4-0.5,1-0.7,1.6-0.7c0.5-0.1,1.1,0.1,1.4,0.6
		c0.3,0.5,0.4,1,0.4,1.6v7c0,0.2,0,0.4,0.2,0.5c0.2,0.1,0.4,0.2,0.6,0.1h1.2c0.2,0,0.4,0,0.6-0.1c0.1-0.1,0.2-0.3,0.2-0.5V8.4
		c0.1-1.1-0.3-2.1-0.9-3c-0.7-0.8-1.7-1.2-2.7-1.1c-0.7,0-1.5,0.1-2.1,0.4c-0.6,0.3-1.1,0.7-1.5,1.2c-0.3-0.5-0.7-0.9-1.2-1.2
		c-0.6-0.3-1.2-0.5-1.9-0.4c-1.2-0.1-2.4,0.5-3.1,1.4V5.3c0-0.2,0-0.4-0.1-0.5c-0.2-0.1-0.4-0.1-0.6-0.1h-1.2c-0.2,0-0.4,0-0.6,0.1
		c-0.1,0.1-0.1,0.3-0.1,0.5v10.5c0,0.3,0,0.5,0.1,0.5C132.5,16.4,132.7,16.5,132.9,16.4z"/>
	<path class="st0" d="M156.3,9h-1.2c-0.8,0-1.6,0.1-2.3,0.4c-0.7,0.2-1.3,0.6-1.7,1.2c-0.4,0.7-0.7,1.5-0.6,2.3
		c-0.1,1.1,0.3,2.2,1.1,2.9c1,0.7,2.3,1,3.5,0.9h0.7c0.9,0,1.8-0.1,2.6-0.5c0.6-0.3,1-0.8,1.3-1.4c0.3-0.6,0.4-1.2,0.4-1.9V8.4
		c0-0.8-0.1-1.5-0.4-2.2c-0.3-0.6-0.8-1.1-1.4-1.4c-0.9-0.4-1.8-0.5-2.8-0.5c-0.8,0-1.6,0.1-2.4,0.3c-0.6,0.2-1.1,0.5-1.5,0.9
		c-0.4,0.4-0.7,1-0.7,1.7c0,0.1,0,0.3,0.1,0.4c0.1,0.1,0.3,0.1,0.5,0.1h1.5c0.2,0,0.3,0,0.5-0.1c0.1-0.1,0.2-0.2,0.2-0.3
		c0.1-0.3,0.3-0.6,0.6-0.7c0.4-0.2,0.8-0.2,1.2-0.2c0.5,0,1.1,0.1,1.5,0.5c0.4,0.5,0.5,1.1,0.5,1.8v0.6L156.3,9z M157.5,12.2
		c0.1,0.6-0.1,1.3-0.5,1.8c-0.4,0.4-1,0.6-1.6,0.5h-0.4c-0.5,0-1-0.1-1.5-0.4c-0.4-0.3-0.6-0.8-0.5-1.4c-0.1-0.5,0.1-1,0.5-1.4
		c0.5-0.3,1-0.4,1.6-0.4h1c0.4,0,0.8,0.1,1.3,0.1L157.5,12.2z"/>
	<path class="st0" d="M169.8,8.8v7c0,0.2,0,0.4,0.2,0.5c0.2,0.1,0.4,0.2,0.6,0.1h1.2c0.2,0,0.4,0,0.6-0.1c0.1-0.1,0.2-0.3,0.2-0.5
		V8.4c0.1-1.1-0.3-2.1-0.9-3c-0.7-0.8-1.8-1.2-2.8-1.1c-0.6,0-1.3,0.1-1.9,0.4c-0.5,0.2-1,0.6-1.4,1.1V5.3c0-0.2,0-0.4-0.2-0.5
		c-0.2-0.1-0.4-0.1-0.6-0.1h-1.2c-0.2,0-0.4,0-0.6,0.1c-0.1,0.1-0.2,0.3-0.2,0.5v10.5c0,0.2,0,0.4,0.2,0.5c0.2,0.1,0.4,0.2,0.6,0.1
		h1.3c0.2,0,0.4,0,0.6-0.1c0.1-0.2,0.2-0.3,0.1-0.5V9.2c0-0.7,0.2-1.3,0.6-1.8c0.4-0.5,1.1-0.7,1.7-0.7c0.6-0.1,1.1,0.1,1.5,0.6
		C169.7,7.7,169.8,8.2,169.8,8.8z"/>
	<path class="st0" d="M179.7,16.7c1.4,0.1,2.8-0.4,3.9-1.3c0.7-0.7,1-1.6,1-2.5c0-0.2,0-0.4-0.1-0.5c-0.2-0.1-0.4-0.1-0.6-0.1h-1.2
		c-0.2,0-0.4,0-0.5,0.1c-0.1,0.1-0.2,0.2-0.2,0.4c-0.1,0.5-0.3,1-0.7,1.3c-0.4,0.3-1,0.4-1.5,0.4c-0.6,0.1-1.3-0.2-1.7-0.7
		c-0.4-0.7-0.6-1.5-0.5-2.4V9.6c-0.1-0.8,0.1-1.7,0.5-2.4c0.5-0.5,1.1-0.8,1.8-0.7c0.5,0,1,0.1,1.5,0.4c0.4,0.4,0.6,0.8,0.7,1.3
		c0,0.1,0.1,0.3,0.2,0.4c0.2,0.1,0.3,0.1,0.5,0.1h1.2c0.2,0,0.4,0,0.6-0.1c0.1-0.1,0.2-0.3,0.1-0.5c0-1-0.3-1.9-1-2.5
		c-1.1-1-2.4-1.4-3.9-1.3c-1.4-0.1-2.7,0.4-3.6,1.4c-0.9,1.1-1.3,2.5-1.2,3.9v2.2c-0.1,1.4,0.4,2.7,1.3,3.7
		C177.1,16.4,178.4,16.8,179.7,16.7z"/>
	<path class="st0" d="M188.3,3.2c0.4,0,0.8-0.1,1.1-0.4c0.3-0.3,0.4-0.6,0.4-1V1.4c0-0.4-0.1-0.7-0.4-1c-0.3-0.3-0.7-0.4-1.1-0.4
		c-0.4,0-0.8,0.1-1.1,0.4c-0.3,0.3-0.4,0.6-0.4,1v0.5c0,0.4,0.1,0.7,0.4,1C187.5,3.1,187.9,3.3,188.3,3.2z"/>
	<path class="st0" d="M187.7,4.6c-0.2,0-0.4,0-0.6,0.1c-0.1,0.2-0.2,0.3-0.1,0.5v10.5c0,0.2,0,0.4,0.1,0.5c0.2,0.1,0.4,0.2,0.6,0.1
		h1.2c0.2,0,0.4,0,0.6-0.1c0.1-0.1,0.2-0.3,0.2-0.5V5.3c0-0.2,0-0.4-0.2-0.5c-0.2-0.1-0.4-0.1-0.6-0.1H187.7z"/>
	<path class="st0" d="M193,20.3h1.2c0.2,0,0.4,0,0.6-0.1c0.1-0.1,0.2-0.3,0.1-0.5v-4.3c0.8,0.7,1.8,1.1,2.9,1
		c1.3,0.1,2.5-0.4,3.5-1.3c0.9-1.1,1.3-2.4,1.2-3.8V9.1c0.1-1.3-0.4-2.6-1.4-3.5c-1.1-0.9-2.4-1.3-3.8-1.3c-1.4-0.1-2.9,0.4-3.9,1.4
		c-0.9,1.1-1.3,2.6-1.2,4v10c0,0.2,0,0.4,0.2,0.5C192.6,20.3,192.8,20.3,193,20.3z M195,9.5c-0.1-0.8,0.1-1.6,0.6-2.3
		c0.5-0.5,1.2-0.8,1.9-0.7c0.7-0.1,1.4,0.2,1.9,0.7c0.5,0.7,0.7,1.5,0.6,2.3v1.4c0,2.1-0.8,3.1-2.5,3.1c-1.6,0-2.4-1-2.4-3.1
		L195,9.5z"/>
	<path class="st0" d="M210.2,9h-1.2c-0.8,0-1.6,0.1-2.3,0.4c-0.7,0.2-1.2,0.6-1.7,1.2c-0.5,0.7-0.7,1.5-0.6,2.3
		c-0.1,1.1,0.3,2.1,1.1,2.9c1,0.7,2.3,1,3.5,0.9h0.6c0.9,0,1.8-0.1,2.6-0.5c0.6-0.3,1.1-0.8,1.3-1.4c0.3-0.6,0.4-1.2,0.4-1.9V8.4
		c0-0.8-0.1-1.5-0.4-2.2c-0.3-0.6-0.8-1.1-1.4-1.4c-0.9-0.4-1.8-0.5-2.8-0.5c-0.8,0-1.6,0.1-2.4,0.3c-0.6,0.2-1.1,0.5-1.5,0.9
		c-0.4,0.4-0.7,1-0.7,1.7c0,0.1,0,0.3,0.1,0.4c0.1,0.1,0.3,0.1,0.5,0.1h1.5c0.2,0,0.3,0,0.5-0.1c0.1-0.1,0.2-0.2,0.2-0.3
		c0.1-0.3,0.3-0.6,0.6-0.7c0.4-0.2,0.8-0.2,1.2-0.2c0.5-0.1,1.1,0.1,1.5,0.5c0.4,0.5,0.5,1.1,0.5,1.8v0.6L210.2,9z M211.5,12.2
		c0.1,0.6-0.1,1.3-0.5,1.8c-0.4,0.4-1,0.6-1.6,0.5h-0.4c-0.5,0-1-0.1-1.5-0.4c-0.4-0.3-0.6-0.8-0.5-1.4c-0.1-0.5,0.1-1,0.5-1.4
		c0.5-0.3,1-0.4,1.6-0.4h1c0.4,0,0.8,0.1,1.3,0.1L211.5,12.2z"/>
	<path class="st0" d="M220.5,16.7c0,0.4,0.1,0.7,0.1,0.9c0,0.2,0,0.3,0,0.4c0,0.3,0,0.6-0.2,0.9c-0.2,0.2-0.5,0.3-0.8,0.2h-0.9
		c-0.2,0-0.3,0-0.5,0.1c-0.1,0.2-0.1,0.3-0.1,0.5v0.6c0,0.2,0,0.4,0.1,0.5c0.1,0.1,0.3,0.1,0.5,0.1h1.3c0.7,0,1.4-0.2,2-0.6
		c0.5-0.4,0.7-1,0.7-1.6c0-0.2,0-0.6,0-0.9c0-0.4-0.1-0.7-0.1-1.1c1-0.1,1.9-0.6,2.6-1.2c0.7-0.7,1-1.6,1-2.5c0-0.2,0-0.4-0.1-0.5
		c-0.2-0.1-0.4-0.1-0.6-0.1h-1.2c-0.2,0-0.4,0-0.5,0.1c-0.1,0.1-0.2,0.2-0.2,0.4c-0.1,0.5-0.3,1-0.7,1.3c-0.4,0.3-1,0.4-1.5,0.4
		c-0.6,0.1-1.3-0.2-1.7-0.7c-0.4-0.7-0.6-1.5-0.5-2.4V9.6c-0.1-0.8,0.1-1.7,0.5-2.4c0.4-0.5,1.1-0.8,1.8-0.7c0.5,0,1,0.1,1.5,0.4
		c0.4,0.4,0.6,0.8,0.7,1.3c0,0.1,0.1,0.3,0.2,0.4c0.2,0.1,0.3,0.1,0.5,0.1h1.2c0.2,0,0.4,0,0.6-0.1c0.1-0.1,0.2-0.3,0.1-0.5
		c0-1-0.3-1.9-1-2.5c-1.1-1-2.5-1.4-3.9-1.3c-1.4-0.1-2.7,0.4-3.6,1.4c-0.9,1.1-1.3,2.5-1.3,3.9v2.2c-0.1,1.4,0.4,2.7,1.3,3.7
		C218.4,16.2,219.4,16.6,220.5,16.7z"/>
	<path class="st0" d="M233.7,9h-1.2c-0.8,0-1.6,0.1-2.3,0.4c-0.7,0.2-1.3,0.6-1.7,1.2c-0.5,0.7-0.7,1.5-0.6,2.3
		c-0.1,1.1,0.3,2.1,1.1,2.9c1,0.7,2.3,1,3.5,0.9h0.6c0.9,0,1.8-0.1,2.6-0.5c0.6-0.3,1.1-0.8,1.3-1.4c0.3-0.6,0.4-1.2,0.4-1.9V8.4
		c0-0.8-0.1-1.5-0.4-2.2c-0.3-0.6-0.8-1.1-1.4-1.4c-0.9-0.3-1.8-0.5-2.7-0.5c-0.8,0-1.6,0.1-2.4,0.3c-0.6,0.2-1.1,0.5-1.5,0.9
		c-0.4,0.4-0.7,1-0.7,1.7c0,0.1,0,0.3,0.1,0.4c0.1,0.1,0.3,0.1,0.5,0.1h1.5c0.2,0,0.3,0,0.5-0.1c0.1-0.1,0.2-0.2,0.2-0.3
		c0.1-0.3,0.3-0.6,0.6-0.7c0.4-0.2,0.8-0.2,1.2-0.2c0.5-0.1,1.1,0.1,1.5,0.5c0.4,0.5,0.6,1.1,0.5,1.8v0.6L233.7,9z M235,12.2
		c0.1,0.6-0.1,1.3-0.5,1.8c-0.4,0.4-1,0.6-1.6,0.5h-0.4c-0.5,0-1-0.1-1.5-0.4c-0.4-0.3-0.6-0.8-0.5-1.4c-0.1-0.5,0.1-1,0.5-1.4
		c0.5-0.3,1-0.4,1.6-0.4h1c0.4,0,0.8,0.1,1.3,0.1L235,12.2z"/>
	<path class="st0" d="M229.6,3h1.1c0.2,0,0.3-0.1,0.3-0.3c0,0,0,0,0-0.1V2.6c0-0.3,0.1-0.5,0.4-0.5c0.1,0,0.2,0,0.3,0l0.3,0.1
		l1.1,0.4c0.4,0.1,0.6,0.2,0.9,0.3c0.2,0.1,0.5,0.1,0.7,0.1c0.5,0,1.1-0.2,1.5-0.5c0.4-0.5,0.5-1.1,0.5-1.7V0.5
		c0-0.2-0.1-0.3-0.3-0.3h-1.1c-0.2,0-0.3,0.1-0.3,0.3v0.1c0,0.3-0.1,0.5-0.4,0.5c-0.1,0-0.2,0-0.3,0L233.9,1l-1.2-0.5
		c-0.4-0.1-0.6-0.2-0.9-0.3c-0.2-0.1-0.5-0.1-0.7-0.1c-0.5,0-1.1,0.2-1.5,0.5c-0.4,0.5-0.5,1.1-0.5,1.7v0.2
		C229.2,2.9,229.3,3,229.6,3z"/>
	<path class="st0" d="M244.9,4.3c-1.4-0.1-2.8,0.4-3.8,1.4c-1,1.1-1.4,2.4-1.4,3.9v2.2c-0.1,1.4,0.4,2.7,1.4,3.7
		c1,0.9,2.4,1.4,3.8,1.3c1.4,0.1,2.8-0.4,3.8-1.4c0.9-1.1,1.4-2.4,1.3-3.9V9.3c0.1-1.4-0.4-2.7-1.4-3.7
		C247.6,4.7,246.3,4.2,244.9,4.3z M247.3,11.4c0,2.1-0.8,3.1-2.4,3.1c-1.6,0-2.4-1-2.4-3.1V9.6c0-2,0.8-3.1,2.4-3.1
		c1.6,0,2.4,1,2.4,3.1V11.4z"/>
	<path class="st0" d="M255.5,4.8c-0.8-0.6-1.9-0.6-2.7,0c-0.3,0.3-0.5,0.8-0.5,1.2v0.5c0,0.5,0.2,0.9,0.5,1.2c0.8,0.6,1.9,0.6,2.7,0
		c0.3-0.3,0.5-0.7,0.5-1.2V6C256,5.6,255.8,5.1,255.5,4.8z"/>
	<path class="st0" d="M254.2,12.8c-0.5,0-1,0.1-1.3,0.4c-0.3,0.3-0.5,0.7-0.5,1.2V15c0,0.5,0.2,0.9,0.5,1.2c0.8,0.6,1.9,0.6,2.7,0
		c0.3-0.3,0.5-0.8,0.5-1.2v-0.5c0-0.5-0.2-0.9-0.5-1.2C255.1,13,254.7,12.8,254.2,12.8z"/>
	<path class="st0" d="M9.7,28.5c-1.2-0.8-2.6-1.2-4-1.1H1.1c-0.2,0-0.4,0-0.6,0.1c-0.1,0.1-0.2,0.3-0.1,0.5v14.8
		c0,0.2,0,0.4,0.1,0.5c0.2,0.1,0.4,0.1,0.6,0.1h1.3c0.2,0,0.4,0,0.6-0.1c0.1-0.1,0.2-0.3,0.2-0.5v-5.3h2.5c1.4,0.1,2.8-0.3,4-1.2
		c1-0.9,1.5-2.3,1.4-3.6v-0.5C11.2,30.9,10.7,29.5,9.7,28.5z M8.2,32.7c0,0.4-0.1,0.8-0.2,1.2c-0.1,0.4-0.4,0.7-0.7,0.9
		c-0.5,0.3-1.1,0.4-1.7,0.3H3.1v-5.4h2.5c0.6,0,1.2,0.1,1.7,0.4c0.4,0.2,0.6,0.6,0.7,1c0.1,0.4,0.2,0.9,0.2,1.3L8.2,32.7z"/>
	<path class="st0" d="M20.7,42.9c0.8-0.6,1.3-1.6,1.2-2.6v-0.5c0-1.6-0.9-2.7-2.8-3.2l-1.9-0.5c-0.5-0.1-1-0.3-1.5-0.6
		c-0.3-0.2-0.4-0.5-0.4-0.9c0-0.4,0.2-0.8,0.5-1c0.4-0.2,0.9-0.4,1.3-0.3c1.3,0,2,0.4,2.1,1.2c0,0.1,0.1,0.3,0.2,0.4
		c0.2,0.1,0.3,0.1,0.5,0.1h1.2c0.2,0,0.4,0,0.6-0.1c0.1-0.1,0.2-0.3,0.2-0.4c0-0.8-0.3-1.5-0.8-2c-1.1-0.8-2.4-1.2-3.7-1.1
		c-1.2-0.1-2.3,0.3-3.3,0.9c-0.8,0.6-1.2,1.6-1.2,2.6v0.3c0,1.6,1,2.6,2.9,3.1l1.5,0.4c0.4,0.1,0.9,0.3,1.3,0.4
		c0.3,0.1,0.5,0.3,0.6,0.5c0.1,0.2,0.2,0.5,0.2,0.8c0,0.4-0.1,0.8-0.5,1c-0.5,0.3-1,0.4-1.5,0.3c-0.5,0-1-0.1-1.5-0.3
		c-0.3-0.2-0.6-0.6-0.6-1c-0.1-0.3-0.3-0.4-0.6-0.4h-1.4c-0.4,0-0.6,0.2-0.6,0.5c0,0.8,0.3,1.6,0.9,2.1c1.1,0.9,2.5,1.3,3.9,1.2
		C18.5,43.9,19.7,43.6,20.7,42.9z"/>
	<path class="st0" d="M25.6,30.3c0.4,0,0.8-0.1,1.1-0.4c0.3-0.3,0.4-0.6,0.4-1v-0.5c0-0.4-0.1-0.7-0.4-1c-0.3-0.2-0.7-0.4-1.1-0.3
		c-0.4,0-0.8,0.1-1.1,0.3c-0.3,0.3-0.4,0.6-0.4,1V29c0,0.4,0.1,0.8,0.4,1C24.8,30.2,25.2,30.4,25.6,30.3z"/>
	<path class="st0" d="M26.9,42.9V32.3c0-0.2,0-0.4-0.2-0.5c-0.2-0.1-0.4-0.2-0.6-0.1h-1.2c-0.2,0-0.4,0-0.6,0.1
		c-0.1,0.1-0.2,0.3-0.2,0.5v10.5c0,0.2,0,0.4,0.2,0.5c0.2,0.1,0.4,0.1,0.6,0.1h1.2c0.2,0,0.4,0,0.6-0.1C26.9,43.2,26.9,43,26.9,42.9
		z"/>
	<path class="st0" d="M34.3,43.8c1.4,0.1,2.8-0.4,3.9-1.3c0.7-0.7,1-1.6,1-2.5c0-0.2,0-0.4-0.2-0.5c-0.2-0.1-0.4-0.1-0.6-0.1h-1.2
		c-0.2,0-0.4,0-0.5,0.1c-0.1,0.1-0.2,0.2-0.2,0.4c-0.1,0.5-0.3,1-0.7,1.3c-0.4,0.3-1,0.4-1.5,0.4c-0.7,0.1-1.3-0.2-1.7-0.7
		c-0.4-0.7-0.6-1.5-0.5-2.4v-1.8c-0.1-0.8,0.1-1.7,0.5-2.4c0.4-0.5,1.1-0.8,1.8-0.7c0.5,0,1,0.1,1.5,0.4c0.4,0.4,0.6,0.8,0.7,1.3
		c0,0.1,0.1,0.3,0.2,0.4c0.2,0.1,0.3,0.1,0.5,0.1h1.2c0.2,0,0.4,0,0.6-0.1c0.1-0.1,0.2-0.3,0.2-0.5c0-0.9-0.3-1.9-1-2.5
		c-1.1-1-2.4-1.4-3.9-1.3c-1.4-0.1-2.7,0.4-3.6,1.4c-0.9,1.1-1.3,2.5-1.3,3.9v2.2c-0.1,1.4,0.4,2.7,1.3,3.7
		C31.6,43.5,32.9,43.9,34.3,43.8z"/>
	<path class="st0" d="M42.4,32.7c-1,1.1-1.4,2.4-1.4,3.9v2.2c-0.1,1.4,0.4,2.7,1.4,3.7c1,0.9,2.4,1.4,3.8,1.3
		c1.4,0.1,2.8-0.4,3.8-1.4c1-1.1,1.4-2.4,1.4-3.9v-2.2c0.1-1.4-0.4-2.7-1.4-3.7c-1-0.9-2.4-1.4-3.8-1.3
		C44.8,31.3,43.4,31.8,42.4,32.7z M48.6,36.8v1.7c0,2-0.8,3.1-2.4,3.1s-2.4-1-2.4-3.1v-1.8c0-2,0.8-3.1,2.4-3.1S48.6,34.7,48.6,36.8
		L48.6,36.8z"/>
	<path class="st0" d="M55.7,43.5c0.2,0,0.4,0,0.6-0.1c0.1-0.2,0.2-0.3,0.1-0.5V28.1c0-0.2,0-0.4-0.1-0.5c-0.2-0.1-0.4-0.1-0.6-0.1
		h-1.2c-0.2,0-0.4,0-0.6,0.1c-0.1,0.1-0.2,0.3-0.2,0.5v14.8c0,0.2,0,0.4,0.2,0.5c0.2,0.1,0.4,0.1,0.6,0.1H55.7z"/>
	<path class="st0" d="M58.9,38.8c-0.1,1.4,0.4,2.7,1.4,3.7c1,0.9,2.4,1.4,3.8,1.3c1.4,0.1,2.8-0.4,3.8-1.4c1-1.1,1.5-2.4,1.4-3.9
		v-2.2c0.1-1.4-0.4-2.7-1.4-3.7c-1-0.9-2.4-1.4-3.8-1.3c-1.4-0.1-2.8,0.4-3.8,1.4c-1,1.1-1.4,2.4-1.4,3.9V38.8z M61.6,36.7
		c0-2,0.8-3.1,2.4-3.1c1.6,0,2.4,1,2.4,3.1v1.8c0,2-0.8,3.1-2.4,3.1c-1.6,0-2.4-1-2.4-3.1V36.7z"/>
	<path class="st0" d="M76.4,31.4c-1.4-0.1-2.8,0.4-3.8,1.4c-0.9,1-1.4,2.4-1.4,3.8v1.9c-0.1,1.3,0.3,2.7,1.2,3.7
		c0.9,0.9,2.2,1.4,3.4,1.3c1.1,0.1,2.1-0.3,2.9-1v1.1c0,0.6-0.2,1.2-0.6,1.6c-0.2,0.2-0.5,0.4-0.8,0.4c-0.4,0.1-0.7,0.2-1.1,0.2
		c-0.4,0-0.8,0-1.1-0.2c-0.3-0.1-0.5-0.3-0.7-0.6c-0.1-0.1-0.2-0.3-0.3-0.4c-0.1-0.1-0.2-0.1-0.4-0.1h-1.5c-0.4,0-0.6,0.1-0.6,0.4
		c0,0.8,0.5,1.6,1.2,2c1,0.5,2.2,0.8,3.3,0.7c1.4,0.1,2.8-0.2,4-1.1c0.9-0.9,1.4-2.1,1.3-3.3v-7.2c0.1-1.3-0.4-2.5-1.3-3.4
		C79.1,31.7,77.7,31.3,76.4,31.4z M78.8,38c0,2.1-0.8,3.1-2.4,3.1c-1.6,0-2.5-1-2.5-3.1v-1.4c-0.1-0.8,0.1-1.6,0.6-2.3
		c0.5-0.5,1.2-0.8,1.9-0.7c0.7-0.1,1.4,0.2,1.8,0.7c0.5,0.7,0.7,1.5,0.6,2.3V38z"/>
	<path class="st0" d="M84.9,31.7c-0.2,0-0.4,0-0.6,0.1c-0.1,0.1-0.2,0.3-0.2,0.5v10.5c0,0.2,0,0.4,0.2,0.5c0.2,0.1,0.4,0.1,0.6,0.1
		h1.2c0.2,0,0.4,0,0.6-0.1c0.1-0.1,0.2-0.3,0.2-0.5V32.3c0-0.2,0-0.4-0.2-0.5c-0.2-0.1-0.4-0.2-0.6-0.1L84.9,31.7z"/>
	<path class="st0" d="M85.5,30.3c0.4,0,0.9-0.1,1.2-0.4c0.3-0.3,0.4-0.6,0.4-1v-0.5c0-0.4-0.1-0.7-0.4-1c-0.3-0.2-0.7-0.4-1.1-0.3
		c-0.4,0-0.8,0.1-1.1,0.3c-0.3,0.3-0.4,0.6-0.4,1V29c0,0.4,0.1,0.8,0.4,1C84.7,30.2,85.1,30.3,85.5,30.3z"/>
	<path class="st0" d="M91.8,31.7c-0.6,0.2-1.1,0.5-1.5,0.9c-0.4,0.4-0.7,1-0.7,1.7c0,0.1,0,0.3,0.1,0.4c0.1,0.1,0.3,0.1,0.5,0.1h1.5
		c0.2,0,0.3,0,0.5-0.1c0.1-0.1,0.2-0.2,0.2-0.4c0.1-0.3,0.3-0.6,0.6-0.7c0.4-0.2,0.8-0.2,1.2-0.2c0.5,0,1.1,0.1,1.5,0.5
		c0.4,0.5,0.5,1.1,0.5,1.8v0.6c-0.4,0-0.8-0.1-1.3-0.1l-1.2-0.1c-0.8,0-1.6,0.1-2.3,0.4c-0.7,0.2-1.3,0.6-1.7,1.2
		c-0.4,0.7-0.7,1.5-0.6,2.3c-0.1,1.1,0.3,2.2,1.1,2.9c1.1,0.7,2.3,1,3.5,0.9h0.6c0.9,0,1.8-0.1,2.6-0.5c0.6-0.3,1-0.8,1.3-1.4
		c0.3-0.6,0.4-1.2,0.4-1.9v-4.4c0-0.8-0.1-1.5-0.4-2.2c-0.3-0.6-0.8-1.1-1.4-1.4c-0.9-0.4-1.8-0.5-2.8-0.5
		C93.4,31.3,92.6,31.5,91.8,31.7z M96.2,39.3c0.1,0.6-0.1,1.3-0.5,1.8c-0.4,0.4-1,0.6-1.6,0.5h-0.4c-0.5,0-1-0.1-1.5-0.4
		c-0.7-0.8-0.7-2,0-2.7c0.5-0.3,1-0.4,1.6-0.4c0.3,0,0.6,0,1,0s0.8,0,1.3,0.1L96.2,39.3z"/>
	<path class="st0" d="M106.9,32.8c-0.9,1.1-1.4,2.6-1.3,4v1.8c-0.1,1.4,0.4,2.8,1.3,3.9c1,0.9,2.3,1.4,3.7,1.4
		c0.7,0,1.5-0.1,2.2-0.4c0.6-0.2,1.2-0.5,1.6-1c0.3-0.3,0.5-0.6,0.7-1c0.2-0.3,0.3-0.7,0.3-1c0-0.2,0-0.3-0.2-0.4
		c-0.2-0.1-0.4-0.1-0.5-0.1h-1.4c-0.3,0-0.5,0.1-0.6,0.4c-0.2,0.8-0.9,1.2-2,1.2c-0.7,0.1-1.4-0.2-1.8-0.7c-0.4-0.7-0.6-1.6-0.6-2.4
		v-0.1h6.5c0.2,0,0.4,0,0.6-0.1c0.1-0.2,0.2-0.3,0.1-0.5v-1c0.1-1.4-0.3-2.8-1.3-3.9C112.1,30.9,109,30.9,106.9,32.8z M112.3,34.2
		c0.4,0.6,0.6,1.4,0.5,2.1h-4.5c0-0.8,0.2-1.5,0.6-2.1c0.5-0.5,1.1-0.7,1.8-0.6C111.3,33.5,111.9,33.7,112.3,34.2z"/>
	<path class="st0" d="M131.9,43.4c0.1-0.2,0.2-0.4,0.1-0.6v-1c0-0.2,0-0.4-0.1-0.6c-0.1-0.1-0.3-0.2-0.5-0.2h-6v-13
		c0-0.2,0-0.4-0.1-0.5c-0.2-0.1-0.4-0.1-0.6-0.1h-1.3c-0.2,0-0.4,0-0.6,0.1c-0.1,0.1-0.1,0.3-0.1,0.5v14.8c0,0.3,0,0.5,0.1,0.5
		c0.2,0.1,0.4,0.1,0.6,0.1h8C131.7,43.5,131.9,43.5,131.9,43.4z"/>
	<path class="st0" d="M140.9,42.4v0.5c0,0.2,0,0.4,0.2,0.5c0.2,0.1,0.4,0.1,0.6,0.1h1.2c0.2,0,0.4,0,0.6-0.1
		c0.1-0.1,0.2-0.3,0.2-0.5V32.3c0-0.2,0-0.4-0.2-0.5c-0.2-0.1-0.4-0.2-0.6-0.1h-1.2c-0.2,0-0.4,0-0.6,0.1c-0.1,0.2-0.2,0.3-0.1,0.5
		V39c0,0.7-0.2,1.3-0.6,1.8c-0.4,0.5-1,0.7-1.7,0.7c-0.6,0.1-1.1-0.1-1.5-0.6c-0.3-0.5-0.4-1-0.4-1.6v-7c0-0.2,0-0.4-0.1-0.5
		c-0.2-0.1-0.4-0.2-0.6-0.1h-1.2c-0.2,0-0.4,0-0.6,0.1c-0.1,0.1-0.2,0.3-0.2,0.5v7.4c-0.1,1.1,0.3,2.1,0.9,3
		c0.7,0.8,1.7,1.2,2.8,1.1c0.6,0,1.2-0.1,1.8-0.4C140,43.2,140.5,42.9,140.9,42.4z"/>
	<path class="st0" d="M147.1,33.9V40c0,0.9,0.2,1.8,0.7,2.6c0.7,0.7,1.7,1.1,2.7,1h1.3c0.2,0,0.3,0,0.5-0.1c0.1-0.2,0.1-0.3,0.1-0.5
		v-1c0-0.2,0-0.4-0.1-0.5c-0.1-0.1-0.3-0.1-0.5-0.1H151c-0.4,0-0.8-0.1-1-0.4c-0.2-0.4-0.3-0.8-0.3-1.2v-5.8h2.1
		c0.2,0,0.3,0,0.5-0.1c0.1-0.2,0.1-0.3,0.1-0.5v-1c0-0.2,0-0.4-0.1-0.5c-0.1-0.1-0.2-0.1-0.5-0.1h-2v-2.6c0-0.2,0-0.4-0.2-0.5
		c-0.2-0.1-0.4-0.2-0.6-0.1h-1.3c-0.2,0-0.4,0-0.6,0.1c-0.1,0.1-0.2,0.3-0.2,0.5v2.7h-1.2c-0.2,0-0.4,0-0.5,0.1
		c-0.1,0.1-0.1,0.3-0.1,0.5v1c0,0.2,0,0.4,0.1,0.5c0.1,0.1,0.3,0.1,0.5,0.1L147.1,33.9z"/>
	<path class="st0" d="M163.3,41.8c0.3-0.6,0.4-1.2,0.4-1.9v-4.4c0-0.8-0.1-1.5-0.4-2.2c-0.3-0.6-0.8-1.1-1.4-1.4
		c-0.9-0.4-1.8-0.5-2.8-0.5c-0.8,0-1.6,0.1-2.4,0.3c-0.6,0.2-1.1,0.5-1.5,0.9c-0.4,0.4-0.7,1-0.7,1.7c0,0.1,0,0.3,0.1,0.4
		c0.1,0.1,0.3,0.1,0.5,0.1h1.5c0.2,0,0.3,0,0.5-0.1c0.1-0.1,0.2-0.2,0.2-0.4c0.1-0.3,0.3-0.6,0.6-0.7c0.4-0.2,0.8-0.2,1.2-0.2
		c0.5-0.1,1.1,0.1,1.5,0.5c0.4,0.5,0.5,1.1,0.5,1.8v0.6c-0.4,0-0.8-0.1-1.3-0.1h-1.2c-0.8,0-1.6,0.1-2.3,0.4
		c-0.7,0.2-1.3,0.6-1.7,1.2c-0.4,0.7-0.7,1.5-0.6,2.3c-0.1,1.1,0.3,2.2,1.1,2.9c1.1,0.7,2.3,1,3.5,0.9h0.6c0.9,0,1.8-0.1,2.6-0.5
		C162.6,42.9,163,42.4,163.3,41.8z M161.1,39.3c0.1,0.6-0.1,1.3-0.5,1.8c-0.4,0.4-1,0.6-1.6,0.5h-0.4c-0.5,0-1-0.1-1.5-0.4
		c-0.4-0.3-0.6-0.8-0.5-1.4c-0.1-0.5,0.1-1,0.5-1.4c0.5-0.3,1-0.4,1.6-0.4c0.3,0,0.6,0,1,0c0.4,0,0.8,0,1.3,0.1L161.1,39.3z"/>
	<path class="st0" d="M181.7,32.8v-0.5c0.1-1.4-0.3-2.8-1.4-3.8c-1.2-0.8-2.6-1.2-4-1.1h-4.5c-0.2,0-0.4,0-0.6,0.1
		c-0.1,0.2-0.2,0.3-0.1,0.5v14.8c0,0.2,0,0.4,0.1,0.5c0.2,0.1,0.4,0.1,0.6,0.1h1.3c0.2,0,0.4,0,0.6-0.1c0.1-0.1,0.2-0.3,0.2-0.5
		v-5.3h2.5c1.4,0.1,2.8-0.3,4-1.2C181.3,35.5,181.8,34.1,181.7,32.8z M178.9,32.8c0,0.4-0.1,0.8-0.2,1.2c-0.1,0.4-0.4,0.7-0.7,0.9
		c-0.5,0.3-1.1,0.4-1.7,0.3h-2.5v-5.5h2.5c0.6,0,1.2,0.1,1.7,0.4c0.4,0.2,0.6,0.6,0.7,1c0.1,0.4,0.2,0.9,0.2,1.3V32.8z"/>
	<path class="st0" d="M183.4,38.8c-0.1,1.4,0.4,2.7,1.4,3.7c1,0.9,2.4,1.4,3.8,1.3c1.4,0.1,2.8-0.4,3.8-1.4c1-1.1,1.4-2.4,1.4-3.9
		v-2.2c0.1-1.4-0.4-2.7-1.4-3.7c-1-0.9-2.4-1.4-3.8-1.3c-1.4-0.1-2.8,0.4-3.8,1.4c-1,1.1-1.4,2.4-1.4,3.9V38.8z M186.1,36.7
		c0-2,0.8-3.1,2.4-3.1c1.6,0,2.4,1,2.4,3.1v1.8c0,2-0.8,3.1-2.4,3.1c-1.6,0-2.4-1-2.4-3.1V36.7z"/>
	<path class="st0" d="M198.1,27.4h-1.3c-0.2,0-0.4,0-0.6,0.1c-0.1,0.1-0.1,0.3-0.1,0.5v14.8c0,0.3,0,0.5,0.1,0.5
		c0.2,0.1,0.4,0.1,0.6,0.1h1.2c0.2,0,0.4,0,0.6-0.1c0.1-0.1,0.2-0.3,0.2-0.5V28.1c0-0.2,0-0.4-0.2-0.5
		C198.5,27.4,198.3,27.4,198.1,27.4z"/>
	<path class="st0" d="M203.8,43.5c0.2,0,0.4,0,0.6-0.1c0.1-0.1,0.1-0.3,0.1-0.5V32.3c0-0.3,0-0.5-0.1-0.5c-0.2-0.1-0.4-0.2-0.6-0.1
		h-1.2c-0.2,0-0.4,0-0.6,0.1c-0.1,0.1-0.2,0.3-0.2,0.5v10.5c0,0.2,0,0.4,0.2,0.5c0.2,0.1,0.4,0.1,0.6,0.1H203.8z"/>
	<path class="st0" d="M205.4,27.1h-1.6c-0.2,0-0.4,0-0.6,0.1c-0.2,0.2-0.3,0.4-0.5,0.6l-1,1.8c-0.1,0.1-0.1,0.3-0.2,0.4
		c0,0.2,0.2,0.3,0.4,0.3h1.4c0.2,0,0.4,0,0.5-0.1c0.2-0.2,0.4-0.4,0.5-0.6l1.2-1.7c0.1-0.1,0.2-0.3,0.2-0.4
		C205.8,27.1,205.6,27.1,205.4,27.1z"/>
	<path class="st0" d="M212.8,33.9c0.2,0,0.3,0,0.5-0.1c0.1-0.2,0.1-0.3,0.1-0.5v-1c0-0.2,0-0.4-0.1-0.5c-0.1-0.1-0.3-0.2-0.5-0.1h-2
		v-2.6c0-0.2,0-0.4-0.2-0.5c-0.2-0.1-0.4-0.2-0.6-0.1h-1.3c-0.2,0-0.4,0-0.6,0.1c-0.1,0.1-0.2,0.3-0.1,0.5v2.7h-1.2
		c-0.2,0-0.3,0-0.5,0.1c-0.1,0.2-0.1,0.3-0.1,0.5v1c0,0.2,0,0.4,0.1,0.5c0.1,0.1,0.3,0.1,0.5,0.1h1.2v6.1c0,0.9,0.2,1.8,0.7,2.6
		c0.7,0.7,1.7,1.1,2.7,1h1.3c0.2,0,0.3,0,0.5-0.1c0.1-0.2,0.1-0.3,0.1-0.5v-1c0-0.2,0-0.4-0.1-0.5c-0.1-0.1-0.3-0.1-0.5-0.1H212
		c-0.4,0-0.8-0.1-1-0.4c-0.2-0.4-0.3-0.8-0.3-1.2v-5.9H212.8z"/>
	<path class="st0" d="M216.9,30.3c0.4,0,0.8-0.1,1.1-0.4c0.3-0.3,0.4-0.6,0.4-1v-0.5c0-0.4-0.1-0.7-0.4-1c-0.7-0.5-1.6-0.5-2.3,0
		c-0.3,0.3-0.4,0.6-0.4,1V29c0,0.4,0.1,0.7,0.4,1C216.1,30.2,216.5,30.4,216.9,30.3z"/>
	<path class="st0" d="M216.3,31.7c-0.2,0-0.4,0-0.6,0.1c-0.1,0.1-0.1,0.3-0.1,0.5v10.5c0,0.3,0,0.5,0.1,0.5c0.2,0.1,0.4,0.1,0.6,0.1
		h1.2c0.2,0,0.4,0,0.6-0.1c0.1-0.1,0.2-0.3,0.2-0.5V32.3c0-0.2,0-0.4-0.2-0.5c-0.2-0.1-0.4-0.2-0.6-0.1L216.3,31.7z"/>
	<path class="st0" d="M223.9,34.3c0.4-0.5,1.1-0.8,1.8-0.7c0.5,0,1,0.1,1.5,0.4c0.4,0.4,0.6,0.8,0.7,1.3c0,0.1,0.1,0.3,0.2,0.4
		c0.2,0.1,0.3,0.1,0.5,0.1h1.2c0.2,0,0.4,0,0.6-0.1c0.1-0.1,0.2-0.3,0.2-0.5c0-1-0.3-1.9-1-2.5c-1.1-1-2.4-1.4-3.9-1.3
		c-1.4-0.1-2.7,0.4-3.6,1.4c-0.9,1.1-1.3,2.5-1.3,3.9v2.2c-0.1,1.4,0.4,2.7,1.3,3.7c1,0.9,2.3,1.4,3.6,1.3c1.4,0.1,2.8-0.4,3.9-1.3
		c0.7-0.7,1-1.6,1-2.5c0-0.2,0-0.4-0.2-0.5c-0.2-0.1-0.4-0.1-0.6-0.1h-1.2c-0.2,0-0.4,0-0.5,0.1c-0.1,0.1-0.2,0.2-0.2,0.4
		c-0.1,0.5-0.3,1-0.7,1.3c-0.4,0.3-1,0.4-1.5,0.4c-0.6,0.1-1.3-0.2-1.7-0.7c-0.4-0.7-0.6-1.5-0.5-2.4v-1.8
		C223.3,35.9,223.5,35.1,223.9,34.3z"/>
	<path class="st0" d="M240.1,31.8c-0.9-0.4-1.8-0.5-2.8-0.5c-0.8,0-1.6,0.1-2.4,0.3c-0.6,0.2-1.1,0.5-1.5,0.9
		c-0.4,0.4-0.7,1-0.7,1.7c0,0.1,0,0.3,0.1,0.4c0.1,0.1,0.3,0.1,0.5,0.1h1.5c0.2,0,0.3,0,0.5-0.1c0.1-0.1,0.2-0.2,0.2-0.4
		c0.1-0.3,0.3-0.6,0.6-0.7c0.4-0.2,0.8-0.2,1.2-0.2c0.5,0,1.1,0.1,1.5,0.5c0.4,0.5,0.5,1.1,0.5,1.8v0.6c-0.4,0-0.8-0.1-1.3-0.1h-1.2
		c-0.8,0-1.6,0.1-2.3,0.4c-0.7,0.2-1.3,0.6-1.7,1.2c-0.4,0.7-0.7,1.5-0.6,2.3c-0.1,1.1,0.3,2.2,1.1,2.9c1.1,0.7,2.3,1,3.5,0.9h0.6
		c0.9,0,1.8-0.1,2.6-0.5c0.6-0.3,1-0.8,1.3-1.4c0.3-0.6,0.4-1.2,0.4-1.9v-4.4c0-0.8-0.1-1.5-0.4-2.2
		C241.2,32.6,240.7,32.1,240.1,31.8z M239.3,39.3c0.1,0.6-0.1,1.3-0.5,1.8c-0.4,0.4-1,0.6-1.6,0.5h-0.4c-0.5,0-1-0.1-1.5-0.4
		c-0.4-0.3-0.6-0.8-0.5-1.4c-0.1-0.5,0.1-1,0.5-1.4c0.5-0.3,1-0.4,1.6-0.4c0.3,0,0.6,0,1,0c0.4,0,0.8,0,1.3,0.1L239.3,39.3z"/>
</g>
</svg>
