<svg xmlns="http://www.w3.org/2000/svg" viewBox="0 0 256 70.27"><defs><style>.cls-1{fill:#fff;}</style></defs><g id="Camada_2" data-name="Camada 2"><g id="Camada_1-2" data-name="Camada 1"><path class="cls-1" d="M9.89,10.08V6.55A2.63,2.63,0,0,0,7.14,3.8H0v14H2.79V12.84H7.14A2.63,2.63,0,0,0,9.89,10.08ZM7.1,9.54a.6.6,0,0,1-.66.66H2.79V6.44H6.44a.6.6,0,0,1,.66.66Z"/><path class="cls-1" d="M14.93,12.59h2.25l2.25,5.17h3l-2.33-5.29A2.6,2.6,0,0,0,22,9.83V6.55A2.63,2.63,0,0,0,19.25,3.8H12.14v14h2.79Zm0-6.15h3.63a.6.6,0,0,1,.66.66V9.33a.6.6,0,0,1-.66.66H14.93Z"/><path class="cls-1" d="M27.16,17.84h4.68a2.62,2.62,0,0,0,2.75-2.75V6.48a2.63,2.63,0,0,0-2.75-2.76H27.16a2.63,2.63,0,0,0-2.75,2.76v8.61A2.62,2.62,0,0,0,27.16,17.84ZM27.2,7a.6.6,0,0,1,.66-.66h3.28A.59.59,0,0,1,31.8,7v7.52a.59.59,0,0,1-.66.66H27.86a.6.6,0,0,1-.66-.66Z"/><polygon class="cls-1" points="39.69 17.76 42.48 17.76 42.48 6.4 46.13 6.4 46.13 3.8 36.05 3.8 36.05 6.4 39.69 6.4 39.69 17.76"/><path class="cls-1" d="M48.53,17.76l.93-3.14H54l.91,3.14h3l-4.5-14H50.14l-4.5,14Zm3.22-10.9L53.23,12h-3Z"/><path class="cls-1" d="M61.89,17.84h4.6a2.62,2.62,0,0,0,2.75-2.75V10H63.89v2.52h2.56v2.07a.59.59,0,0,1-.66.66h-3.2a.59.59,0,0,1-.66-.66V7a.59.59,0,0,1,.66-.66h3.2a.59.59,0,0,1,.66.66V8.3h2.79V6.48a2.63,2.63,0,0,0-2.75-2.76h-4.6a2.63,2.63,0,0,0-2.75,2.76v8.61A2.62,2.62,0,0,0,61.89,17.84Z"/><path class="cls-1" d="M74.34,17.84H79a2.63,2.63,0,0,0,2.76-2.75V6.48A2.64,2.64,0,0,0,79,3.72H74.34a2.63,2.63,0,0,0-2.75,2.76v8.61A2.62,2.62,0,0,0,74.34,17.84ZM74.38,7A.59.59,0,0,1,75,6.36h3.28A.59.59,0,0,1,79,7v7.52a.59.59,0,0,1-.65.66H75a.59.59,0,0,1-.66-.66Z"/><polygon class="cls-1" points="87.12 8.24 92.26 17.76 95.26 17.76 95.26 3.8 92.64 3.8 92.64 13.32 87.51 3.8 84.5 3.8 84.5 17.76 87.12 17.76 87.12 8.24"/><rect class="cls-1" x="98.32" y="3.8" width="2.79" height="13.96"/><path class="cls-1" d="M106.55,17.84h4.34a2.62,2.62,0,0,0,2.75-2.75V12.57c0-1.56-1.28-2.47-2.79-2.8L107.24,9c-.42-.1-.66-.23-.66-.66V7a.6.6,0,0,1,.66-.66H110a.6.6,0,0,1,.66.66V8.11h2.71V6.48a2.63,2.63,0,0,0-2.75-2.76h-4.11a2.64,2.64,0,0,0-2.76,2.76V8.84c0,1.55,1.28,2.47,2.79,2.8l3.61.77c.43.1.66.23.66.66v1.47a.59.59,0,0,1-.66.66h-3a.59.59,0,0,1-.66-.66V13.3h-2.72v1.79A2.63,2.63,0,0,0,106.55,17.84Z"/><polygon class="cls-1" points="118.94 8.46 121.96 15.53 123.98 15.53 127 8.46 127 17.76 129.64 17.76 129.64 3.8 126.58 3.8 122.97 11.98 119.36 3.8 116.3 3.8 116.3 17.76 118.94 17.76 118.94 8.46"/><path class="cls-1" d="M135.13,17.84h4.67a2.62,2.62,0,0,0,2.75-2.75V6.48a2.63,2.63,0,0,0-2.75-2.76h-4.67a2.64,2.64,0,0,0-2.76,2.76v8.61A2.63,2.63,0,0,0,135.13,17.84Zm0-10.82a.59.59,0,0,1,.65-.66h3.28a.59.59,0,0,1,.66.66v7.52a.59.59,0,0,1-.66.66h-3.28a.59.59,0,0,1-.65-.66Z"/><polygon class="cls-1" points="159.54 15.13 153.2 15.13 153.2 11.95 158.34 11.95 158.34 9.31 153.2 9.31 153.2 6.44 159.54 6.44 159.54 3.8 150.41 3.8 150.41 17.76 159.54 17.76 159.54 15.13"/><polygon class="cls-1" points="173.09 17.76 177.34 3.8 174.24 3.8 171.46 14.41 168.77 3.8 165.59 3.8 169.83 17.76 173.09 17.76"/><rect class="cls-1" x="179.22" y="3.8" width="2.79" height="13.96"/><polygon class="cls-1" points="191.4 17.76 195.64 3.8 192.54 3.8 189.77 14.41 187.07 3.8 183.89 3.8 188.14 17.76 191.4 17.76"/><polygon class="cls-1" points="202.1 1.18 203.75 2.52 205.98 2.52 203.26 0 200.93 0 198.22 2.52 200.45 2.52 202.1 1.18"/><polygon class="cls-1" points="206.66 15.13 200.31 15.13 200.31 11.95 205.45 11.95 205.45 9.31 200.31 9.31 200.31 6.44 206.66 6.44 206.66 3.8 197.52 3.8 197.52 17.76 206.66 17.76 206.66 15.13"/><polygon class="cls-1" points="211.73 8.24 216.87 17.76 219.88 17.76 219.88 3.8 217.26 3.8 217.26 13.32 212.12 3.8 209.12 3.8 209.12 17.76 211.73 17.76 211.73 8.24"/><path class="cls-1" d="M225.37,17.84h4.42a2.62,2.62,0,0,0,2.75-2.75V12.84h-2.79v1.7a.6.6,0,0,1-.66.66h-3a.6.6,0,0,1-.66-.66V7a.6.6,0,0,1,.66-.66h3a.6.6,0,0,1,.66.66V8.73h2.79V6.48a2.63,2.63,0,0,0-2.75-2.76h-4.42a2.64,2.64,0,0,0-2.76,2.76v8.61A2.63,2.63,0,0,0,225.37,17.84Z"/><rect class="cls-1" x="235.02" y="3.8" width="2.79" height="13.96"/><path class="cls-1" d="M248.9,17.76h3l-4.5-14h-3.26l-4.5,14h2.89l.93-3.14H248ZM244.25,12l1.51-5.12L247.24,12Z"/><rect class="cls-1" x="253.28" y="7.29" width="2.72" height="2.83"/><rect class="cls-1" x="253.28" y="14.93" width="2.72" height="2.83"/><polygon class="cls-1" points="2.85 41.03 5.64 41.03 5.64 35.33 10.78 35.33 10.78 32.69 5.64 32.69 5.64 29.71 11.98 29.71 11.98 27.07 2.85 27.07 2.85 41.03"/><path class="cls-1" d="M23.79,38.36V29.74A2.62,2.62,0,0,0,21,27H16.37a2.63,2.63,0,0,0-2.76,2.75v8.62a2.63,2.63,0,0,0,2.76,2.75H21A2.62,2.62,0,0,0,23.79,38.36ZM21,37.81a.59.59,0,0,1-.66.66H17.06a.59.59,0,0,1-.65-.66V30.29a.59.59,0,0,1,.65-.66h3.28a.59.59,0,0,1,.66.66Z"/><path class="cls-1" d="M36.4,33.1V29.82a2.63,2.63,0,0,0-2.76-2.75H26.53V41h2.79V35.85h2.25L33.82,41h3L34.5,35.74A2.6,2.6,0,0,0,36.4,33.1Zm-2.8-.5a.59.59,0,0,1-.66.65H29.32V29.71h3.62a.59.59,0,0,1,.66.66Z"/><polygon class="cls-1" points="52.47 41.03 52.47 27.07 49.41 27.07 45.8 35.25 42.19 27.07 39.13 27.07 39.13 41.03 41.77 41.03 41.77 31.72 44.79 38.8 46.81 38.8 49.83 31.72 49.83 41.03 52.47 41.03"/><path class="cls-1" d="M57.2,41l.93-3.14h4.52L63.56,41h3l-4.5-14H58.81l-4.5,14Zm3.22-10.9,1.47,5.12h-3Z"/><path class="cls-1" d="M67.81,29.74v8.62a2.62,2.62,0,0,0,2.75,2.75h1.49l-.93,2h2.19c.2,0,.24.11.24.31v.19c0,.19,0,.31-.24.31H70.77l1,1.12h1.81c1,0,1.63-.46,1.63-1.43v-.19c0-1-.66-1.44-1.63-1.44H73l.45-.89H75a2.63,2.63,0,0,0,2.76-2.75V36.11h-2.8v1.7a.59.59,0,0,1-.66.66h-3a.59.59,0,0,1-.66-.66V30.29a.59.59,0,0,1,.66-.66h3a.59.59,0,0,1,.66.66V32h2.8V29.74A2.63,2.63,0,0,0,75,27H70.56A2.62,2.62,0,0,0,67.81,29.74Z"/><path class="cls-1" d="M83.57,25l2.87.78c.58.15,1,0,1.13-.51L88,23.4H86.71l-.37.76-2.83-.74c-.62-.15-1,0-1.14.53L82,25.79h1.24Z"/><path class="cls-1" d="M82.66,37.89h4.52L88.09,41h3l-4.49-14H83.34l-4.5,14h2.89ZM85,30.13l1.47,5.12h-3Z"/><path class="cls-1" d="M95.09,27a2.63,2.63,0,0,0-2.76,2.75v8.62a2.63,2.63,0,0,0,2.76,2.75h4.67a2.62,2.62,0,0,0,2.75-2.75V29.74A2.62,2.62,0,0,0,99.76,27Zm4.63,10.82a.59.59,0,0,1-.66.66H95.79a.59.59,0,0,1-.66-.66V30.29a.59.59,0,0,1,.66-.66h3.27a.59.59,0,0,1,.66.66Z"/><polygon class="cls-1" points="119.5 29.71 119.5 27.07 110.37 27.07 110.37 41.03 119.5 41.03 119.5 38.39 113.16 38.39 113.16 35.21 118.3 35.21 118.3 32.58 113.16 32.58 113.16 29.71 119.5 29.71"/><polygon class="cls-1" points="125.03 27.07 121.96 27.07 121.96 41.03 124.6 41.03 124.6 31.72 127.62 38.8 129.64 38.8 132.66 31.72 132.66 41.03 135.3 41.03 135.3 27.07 132.24 27.07 128.63 35.25 125.03 27.07"/><polygon class="cls-1" points="150.89 33.82 148.49 29.01 146.55 27.07 146.35 27.26 150.15 35.5 150.89 33.82"/><polygon class="cls-1" points="149.15 38.8 151.09 40.74 153.1 40.74 154.3 37.93 154.3 31.28 150.97 38.61 149.34 38.61 149.15 38.8"/><polygon class="cls-1" points="148.06 42.97 148.06 36.03 145.93 31 145.93 40.84 143.68 40.84 143.48 41.03 145.42 42.97 148.06 42.97"/><polygon class="cls-1" points="158.76 29.01 156.82 27.07 156.63 27.26 156.63 40.84 154.38 40.84 154.19 41.03 156.13 42.97 158.76 42.97 158.76 29.01"/><path class="cls-1" d="M162.81,38.67h1.48V32.23a.59.59,0,0,1,.66-.66h2.19V30.09a.6.6,0,0,0-.66-.66h-3.67a.59.59,0,0,0-.65.66V38A.59.59,0,0,0,162.81,38.67Z"/><path class="cls-1" d="M171.68,31.68a2.52,2.52,0,0,0-.58-1.78l-2-2a3.55,3.55,0,0,1,.4,1.8v8.62A2.32,2.32,0,0,1,167,40.91h-4.67a2.69,2.69,0,0,1-1.8-.4l1.57,1.57a2.79,2.79,0,0,0,2.17,1h4.67a2.64,2.64,0,0,0,2.76-2.76Z"/><polygon class="cls-1" points="174.24 27.07 174.04 27.26 176.8 37.91 176.99 37.91 177.73 35.1 176.18 29.01 174.24 27.07"/><polygon class="cls-1" points="175.3 41.03 177.24 42.97 180.5 42.97 184.75 29.01 182.81 27.07 182.61 27.17 178.46 40.84 175.5 40.84 175.3 41.03"/><polygon class="cls-1" points="189.42 29.01 187.48 27.07 187.28 27.26 187.28 40.84 184.88 40.84 184.69 41.03 186.63 42.97 189.42 42.97 189.42 29.01"/><polygon class="cls-1" points="197.95 33.82 195.54 29.01 193.61 27.07 193.41 27.26 197.21 35.5 197.95 33.82"/><polygon class="cls-1" points="203.69 40.84 201.44 40.84 201.25 41.03 203.19 42.97 205.82 42.97 205.82 29.01 203.88 27.07 203.69 27.26 203.69 40.84"/><polygon class="cls-1" points="192.99 40.84 190.74 40.84 190.54 41.03 192.48 42.97 195.12 42.97 195.12 36.03 192.99 31 192.99 40.84"/><polygon class="cls-1" points="201.36 37.93 201.36 31.28 198.03 38.61 196.4 38.61 196.2 38.8 198.14 40.74 200.16 40.74 201.36 37.93"/><polygon class="cls-1" points="214.68 35.02 209.54 35.02 209.54 38.59 211.68 38.59 211.68 37.15 216.82 37.15 216.82 34.52 214.88 32.58 214.68 32.77 214.68 35.02"/><polygon class="cls-1" points="218.02 42.97 218.02 40.33 216.08 38.39 215.89 38.59 215.89 40.84 207.14 40.84 206.94 41.03 208.88 42.97 218.02 42.97"/><polygon class="cls-1" points="218.02 29.01 216.08 27.07 215.89 27.26 215.89 29.51 209.54 29.51 209.54 32.77 211.68 32.77 211.68 31.64 218.02 31.64 218.02 29.01"/><polygon class="cls-1" points="226.8 36.8 226.8 35.16 223.49 29.01 221.55 27.07 221.35 27.26 226.57 36.8 226.8 36.8"/><polygon class="cls-1" points="229.11 27.26 229.11 40.84 226.49 40.84 226.3 41.03 228.24 42.97 231.24 42.97 231.24 29.01 229.3 27.07 229.11 27.26"/><polygon class="cls-1" points="218.54 41.03 220.48 42.97 223.1 42.97 223.1 34.86 220.97 30.91 220.97 40.84 218.73 40.84 218.54 41.03"/><polygon class="cls-1" points="235.16 31.61 235.16 29.47 231.51 29.47 231.32 29.67 233.26 31.61 235.16 31.61"/><polygon class="cls-1" points="241.21 27.26 241.21 29.47 237.56 29.47 237.56 40.84 235.16 40.84 234.96 41.03 236.9 42.97 239.7 42.97 239.7 31.61 243.34 31.61 243.34 29.01 241.4 27.07 241.21 27.26"/><path class="cls-1" d="M246.11,29.43a.6.6,0,0,0-.66.66V38a.6.6,0,0,0,.66.66h1.48V32.23a.59.59,0,0,1,.66-.66h2.19V30.09a.6.6,0,0,0-.66-.66Z"/><path class="cls-1" d="M252.43,27.94a3.5,3.5,0,0,1,.41,1.8v8.62a2.32,2.32,0,0,1-2.56,2.55h-4.67a2.69,2.69,0,0,1-1.8-.4l1.57,1.57a2.79,2.79,0,0,0,2.17,1h4.67A2.64,2.64,0,0,0,255,40.29V31.68a2.48,2.48,0,0,0-.59-1.78Z"/><path class="cls-1" d="M63.84,54.27l-1.67.59c-.74.25-1.4.62-1.4,1.39V58.6h4.87V57.28H62.17v-.72c0-.25.13-.3.39-.39l1.66-.58c.74-.25,1.4-.62,1.4-1.39V53a1.39,1.39,0,0,0-1.4-1.39h-2A1.39,1.39,0,0,0,60.85,53v.76h1.36v-.45a.34.34,0,0,1,.38-.38h1.25a.34.34,0,0,1,.38.38v.61C64.22,54.14,64.09,54.19,63.84,54.27Z"/><path class="cls-1" d="M71.62,57.26V53a1.31,1.31,0,0,0-1.38-1.37H68.06A1.31,1.31,0,0,0,66.69,53v4.31a1.32,1.32,0,0,0,1.37,1.38h2.18A1.32,1.32,0,0,0,71.62,57.26ZM70.22,57a.3.3,0,0,1-.33.33H68.41a.3.3,0,0,1-.33-.33V53.23a.3.3,0,0,1,.33-.33h1.48a.29.29,0,0,1,.33.33Z"/><path class="cls-1" d="M77,51.62l-2.25,7h1.45L76.67,57h2.26l.46,1.57h1.5l-2.25-7Zm0,4.09.76-2.56.73,2.56Z"/><path class="cls-1" d="M85.38,56.56c0-.25.13-.3.38-.39l1.67-.58c.74-.25,1.4-.62,1.4-1.39V53a1.39,1.39,0,0,0-1.4-1.39h-2A1.39,1.39,0,0,0,84.06,53v.76h1.36v-.45a.34.34,0,0,1,.38-.38H87a.34.34,0,0,1,.39.38v.61c0,.25-.13.3-.39.38l-1.66.59c-.74.25-1.4.62-1.4,1.39V58.6h4.87V57.28H85.38Z"/><path class="cls-1" d="M92.72,58.6h1.35V57.2h1V56h-1V51.62H92.89l-3.66,4.53.29,1.05h3.2ZM90.93,56l1.79-2.28V56Z"/><path class="cls-1" d="M102.24,51.62H98.6v7h3.64a1.31,1.31,0,0,0,1.37-1.38V53A1.31,1.31,0,0,0,102.24,51.62Zm0,5.33a.3.3,0,0,1-.33.33H100V52.94h1.89a.3.3,0,0,1,.33.33Z"/><polygon class="cls-1" points="104.98 58.6 109.55 58.6 109.55 57.28 106.38 57.28 106.38 55.69 108.94 55.69 108.94 54.37 106.38 54.37 106.38 52.94 109.55 52.94 109.55 51.62 104.98 51.62 104.98 58.6"/><path class="cls-1" d="M114.55,51.58A1.31,1.31,0,0,0,113.17,53v4.31a1.32,1.32,0,0,0,1.38,1.38h2.34a1.32,1.32,0,0,0,1.37-1.38V53a1.31,1.31,0,0,0-1.37-1.37ZM116.87,57a.3.3,0,0,1-.33.33H114.9a.3.3,0,0,1-.33-.33V53.23a.29.29,0,0,1,.33-.33h1.64a.3.3,0,0,1,.33.33Z"/><path class="cls-1" d="M119.52,51.62v5.64a1.32,1.32,0,0,0,1.38,1.38h2.23a1.32,1.32,0,0,0,1.38-1.38V51.62h-1.4V57a.3.3,0,0,1-.33.33h-1.53a.3.3,0,0,1-.33-.33V51.62Z"/><polygon class="cls-1" points="130.45 51.62 125.41 51.62 125.41 52.92 127.23 52.92 127.23 58.6 128.63 58.6 128.63 52.92 130.45 52.92 130.45 51.62"/><path class="cls-1" d="M134.94,57a.3.3,0,0,1-.33.33h-1.53a.3.3,0,0,1-.33-.33V51.62h-1.4v5.64a1.32,1.32,0,0,0,1.38,1.38H135a1.32,1.32,0,0,0,1.37-1.38V51.62h-1.39Z"/><path class="cls-1" d="M142.05,55a1.13,1.13,0,0,0,.61-1.05V53a1.31,1.31,0,0,0-1.37-1.37h-3.53v7h3.61a1.31,1.31,0,0,0,1.37-1.38V56.08A1.12,1.12,0,0,0,142.05,55Zm-2.9-2.11h1.79a.3.3,0,0,1,.33.33v.83c0,.27-.08.33-.33.33h-1.79Zm2.2,4a.3.3,0,0,1-.33.33h-1.87V55.65h1.75c.27,0,.45,0,.45.31Z"/><path class="cls-1" d="M149,54.63V53a1.31,1.31,0,0,0-1.37-1.37h-3.56v7h1.4V56h1.12l1.13,2.59h1.5L148,56A1.29,1.29,0,0,0,149,54.63Zm-1.39-.25a.3.3,0,0,1-.33.33h-1.81V52.94h1.81a.3.3,0,0,1,.33.33Z"/><path class="cls-1" d="M153.9,58.64a1.32,1.32,0,0,0,1.38-1.38V53a1.32,1.32,0,0,0-1.38-1.37h-2.34A1.31,1.31,0,0,0,150.19,53v4.31a1.32,1.32,0,0,0,1.37,1.38Zm-2.32-5.41a.3.3,0,0,1,.33-.33h1.64a.3.3,0,0,1,.33.33V57a.3.3,0,0,1-.33.33h-1.64a.3.3,0,0,1-.33-.33Z"/><path class="cls-1" d="M164.22,57.22V53a1.32,1.32,0,0,0-1.38-1.37H159.2v7h3.64A1.32,1.32,0,0,0,164.22,57.22Zm-1.4-.27a.3.3,0,0,1-.33.33H160.6V52.94h1.89a.3.3,0,0,1,.33.33Z"/><polygon class="cls-1" points="165.58 58.6 170.15 58.6 170.15 57.28 166.98 57.28 166.98 55.69 169.55 55.69 169.55 54.37 166.98 54.37 166.98 52.94 170.15 52.94 170.15 51.62 165.58 51.62 165.58 58.6"/><path class="cls-1" d="M176.79,54.27l-1.67.59c-.74.25-1.4.62-1.4,1.39V58.6h4.87V57.28h-3.47v-.72c0-.25.14-.3.39-.39l1.67-.58c.73-.25,1.39-.62,1.39-1.39V53a1.39,1.39,0,0,0-1.39-1.39h-2A1.39,1.39,0,0,0,173.8,53v.76h1.36v-.45a.35.35,0,0,1,.39-.38h1.24a.35.35,0,0,1,.39.38v.61C177.18,54.14,177,54.19,176.79,54.27Z"/><path class="cls-1" d="M184.57,57.26V53a1.31,1.31,0,0,0-1.37-1.37H181A1.31,1.31,0,0,0,179.64,53v4.31A1.32,1.32,0,0,0,181,58.64h2.18A1.32,1.32,0,0,0,184.57,57.26ZM183.18,57a.3.3,0,0,1-.33.33h-1.49A.3.3,0,0,1,181,57V53.23a.3.3,0,0,1,.33-.33h1.49a.3.3,0,0,1,.33.33Z"/><polygon class="cls-1" points="188.2 51.62 187.09 51.62 185.53 52.35 185.53 53.52 186.8 53.07 186.8 58.6 188.2 58.6 188.2 51.62"/><path class="cls-1" d="M193.19,58.64a1.39,1.39,0,0,0,1.4-1.4V56.08a1.13,1.13,0,0,0-.69-1,1.13,1.13,0,0,0,.61-1.05V53a1.39,1.39,0,0,0-1.4-1.39h-2a1.39,1.39,0,0,0-1.4,1.39v1a1.15,1.15,0,0,0,.61,1.05,1.13,1.13,0,0,0-.69,1v1.16a1.39,1.39,0,0,0,1.4,1.4Zm-2.05-5.37a.34.34,0,0,1,.38-.39h1.21a.34.34,0,0,1,.38.39V54c0,.31-.11.39-.38.39h-1.21c-.27,0-.38-.08-.38-.39ZM191.06,56c0-.29.19-.39.46-.39h1.21c.27,0,.46.1.46.39V57a.35.35,0,0,1-.39.39h-1.35a.35.35,0,0,1-.39-.39Z"/><path class="cls-1" d="M25.07,68.62a.3.3,0,0,1-.33.33H23.21a.29.29,0,0,1-.33-.33V63.25h-1.4v5.64a1.31,1.31,0,0,0,1.38,1.38h2.23a1.31,1.31,0,0,0,1.37-1.38V63.25H25.07Z"/><polygon class="cls-1" points="31.96 68.01 29.39 63.25 27.89 63.25 27.89 70.23 29.2 70.23 29.2 65.47 31.77 70.23 33.27 70.23 33.27 63.25 31.96 63.25 31.96 68.01"/><rect class="cls-1" x="34.8" y="63.25" width="1.4" height="6.98"/><polygon class="cls-1" points="40.08 68.55 38.73 63.25 37.14 63.25 39.26 70.23 40.89 70.23 43.01 63.25 41.46 63.25 40.08 68.55"/><polygon class="cls-1" points="43.95 70.23 48.52 70.23 48.52 68.91 45.35 68.91 45.35 67.32 47.92 67.32 47.92 66 45.35 66 45.35 64.57 48.52 64.57 48.52 63.25 43.95 63.25 43.95 70.23"/><path class="cls-1" d="M54.69,66.27V64.63a1.32,1.32,0,0,0-1.38-1.38H49.75v7h1.4V67.64h1.12l1.13,2.59h1.5l-1.16-2.65A1.29,1.29,0,0,0,54.69,66.27ZM53.29,66a.3.3,0,0,1-.33.33H51.15V64.57H53a.3.3,0,0,1,.33.33Z"/><path class="cls-1" d="M59.39,66.24l-1.8-.39c-.22,0-.33-.12-.33-.33v-.66a.3.3,0,0,1,.33-.33H59a.3.3,0,0,1,.33.33v.54h1.36v-.81a1.31,1.31,0,0,0-1.38-1.38h-2a1.31,1.31,0,0,0-1.38,1.38v1.18c0,.78.64,1.23,1.4,1.4l1.8.39c.21,0,.33.11.33.33v.73a.3.3,0,0,1-.33.33H57.55a.29.29,0,0,1-.33-.33V68H55.86v.89a1.31,1.31,0,0,0,1.38,1.38h2.17a1.31,1.31,0,0,0,1.37-1.38V67.63C60.78,66.86,60.14,66.4,59.39,66.24Z"/><rect class="cls-1" x="62.11" y="63.25" width="1.4" height="6.98"/><path class="cls-1" d="M68.68,63.25H65v7h3.64a1.31,1.31,0,0,0,1.37-1.38V64.63A1.31,1.31,0,0,0,68.68,63.25Zm0,5.33a.3.3,0,0,1-.33.33H66.44V64.57h1.89a.3.3,0,0,1,.33.33Z"/><path class="cls-1" d="M72.92,63.25l-2.25,7h1.45l.46-1.57h2.26l.46,1.57h1.5l-2.25-7Zm0,4.09.76-2.56.73,2.56Z"/><path class="cls-1" d="M81.36,63.25H77.72v7h3.64a1.31,1.31,0,0,0,1.37-1.38V64.63A1.31,1.31,0,0,0,81.36,63.25Zm0,5.33a.3.3,0,0,1-.33.33H79.12V64.57H81a.3.3,0,0,1,.33.33Z"/><polygon class="cls-1" points="84.1 70.23 88.67 70.23 88.67 68.91 85.5 68.91 85.5 67.32 88.07 67.32 88.07 66 85.5 66 85.5 64.57 88.67 64.57 88.67 63.25 84.1 63.25 84.1 70.23"/><polygon class="cls-1" points="92.46 70.23 93.85 70.23 93.85 67.38 96.42 67.38 96.42 66.06 93.85 66.06 93.85 64.57 97.02 64.57 97.02 63.25 92.46 63.25 92.46 70.23"/><polygon class="cls-1" points="98.08 70.23 102.65 70.23 102.65 68.91 99.48 68.91 99.48 67.32 102.05 67.32 102.05 66 99.48 66 99.48 64.57 102.65 64.57 102.65 63.25 98.08 63.25 98.08 70.23"/><path class="cls-1" d="M107.51,63.25h-3.63v7h3.63a1.31,1.31,0,0,0,1.38-1.38V64.63A1.31,1.31,0,0,0,107.51,63.25Zm0,5.33a.29.29,0,0,1-.33.33h-1.89V64.57h1.89a.3.3,0,0,1,.33.33Z"/><polygon class="cls-1" points="110.26 70.23 114.82 70.23 114.82 68.91 111.65 68.91 111.65 67.32 114.22 67.32 114.22 66 111.65 66 111.65 64.57 114.82 64.57 114.82 63.25 110.26 63.25 110.26 70.23"/><path class="cls-1" d="M121,66.27V64.63a1.31,1.31,0,0,0-1.38-1.38h-3.56v7h1.4V67.64h1.12l1.13,2.59h1.5L120,67.58A1.29,1.29,0,0,0,121,66.27Zm-1.4-.26a.29.29,0,0,1-.33.33h-1.81V64.57h1.81a.3.3,0,0,1,.33.33Z"/><path class="cls-1" d="M124,63.25l-2.25,7h1.45l.46-1.57h2.26l.46,1.57h1.5l-2.25-7Zm.05,4.09.76-2.56.74,2.56Z"/><polygon class="cls-1" points="130.19 63.25 128.79 63.25 128.79 70.23 133.12 70.23 133.12 68.91 130.19 68.91 130.19 63.25"/><path class="cls-1" d="M140.16,63.25h-3.64v7h3.64a1.31,1.31,0,0,0,1.37-1.38V64.63A1.31,1.31,0,0,0,140.16,63.25Zm0,5.33a.3.3,0,0,1-.33.33h-1.89V64.57h1.89a.3.3,0,0,1,.33.33Z"/><polygon class="cls-1" points="142.9 70.23 147.47 70.23 147.47 68.91 144.29 68.91 144.29 67.32 146.86 67.32 146.86 66 144.29 66 144.29 64.57 147.47 64.57 147.47 63.25 142.9 63.25 142.9 70.23"/><path class="cls-1" d="M154.59,66.24l-1.8-.39c-.22,0-.33-.12-.33-.33v-.66a.3.3,0,0,1,.33-.33h1.39a.3.3,0,0,1,.33.33v.54h1.36v-.81a1.31,1.31,0,0,0-1.38-1.38h-2.05a1.31,1.31,0,0,0-1.38,1.38v1.18c0,.78.64,1.23,1.4,1.4l1.8.39c.21,0,.33.11.33.33v.73a.3.3,0,0,1-.33.33h-1.51a.29.29,0,0,1-.33-.33V68h-1.36v.89a1.31,1.31,0,0,0,1.38,1.38h2.17A1.32,1.32,0,0,0,156,68.89V67.63C156,66.86,155.35,66.4,154.59,66.24Z"/><path class="cls-1" d="M158.35,61.69l-.19.92h.62l.17-.4,1.44.39c.29.08.5,0,.56-.25l.21-.93h-.64l-.18.38-1.42-.37C158.61,61.35,158.41,61.42,158.35,61.69Z"/><path class="cls-1" d="M158.84,63.25l-2.25,7H158l.47-1.57h2.26l.45,1.57h1.51l-2.25-7Zm0,4.09.76-2.56.74,2.56Z"/><path class="cls-1" d="M167.05,63.21h-2.34a1.32,1.32,0,0,0-1.38,1.38v4.3a1.32,1.32,0,0,0,1.38,1.38h2.34a1.32,1.32,0,0,0,1.38-1.38v-4.3A1.32,1.32,0,0,0,167.05,63.21Zm0,5.41a.3.3,0,0,1-.33.33h-1.64a.3.3,0,0,1-.33-.33V64.86a.3.3,0,0,1,.33-.33h1.64a.3.3,0,0,1,.33.33Z"/><path class="cls-1" d="M175,68.62a.3.3,0,0,1-.33.33H173.3a.3.3,0,0,1-.33-.33V67.36h-1.4v1.53A1.32,1.32,0,0,0,173,70.27h2a1.32,1.32,0,0,0,1.38-1.38V63.25H175Z"/><path class="cls-1" d="M181.33,63.21H179a1.32,1.32,0,0,0-1.38,1.38v4.3A1.32,1.32,0,0,0,179,70.27h2.34a1.32,1.32,0,0,0,1.38-1.38v-4.3A1.32,1.32,0,0,0,181.33,63.21Zm0,5.41A.3.3,0,0,1,181,69h-1.64a.3.3,0,0,1-.33-.33V64.86a.3.3,0,0,1,.33-.33H181a.3.3,0,0,1,.33.33Z"/><path class="cls-1" d="M185.66,61.43c-.31-.08-.51,0-.57.26l-.19.92h.62l.17-.4,1.44.39c.29.08.5,0,.56-.25l.21-.93h-.64l-.18.38Z"/><path class="cls-1" d="M185.57,63.25l-2.24,7h1.44l.46-1.57h2.26l.46,1.57h1.5l-2.25-7Zm.05,4.09.76-2.56.74,2.56Z"/><path class="cls-1" d="M193.79,63.21h-2.34a1.31,1.31,0,0,0-1.38,1.38v4.3a1.31,1.31,0,0,0,1.38,1.38h2.34a1.31,1.31,0,0,0,1.37-1.38v-4.3A1.31,1.31,0,0,0,193.79,63.21Zm0,5.41a.3.3,0,0,1-.33.33H191.8a.29.29,0,0,1-.33-.33V64.86a.3.3,0,0,1,.33-.33h1.64a.3.3,0,0,1,.33.33Z"/><path class="cls-1" d="M202.72,63.25h-3.63v7h3.63a1.31,1.31,0,0,0,1.38-1.38V64.63A1.31,1.31,0,0,0,202.72,63.25Zm0,5.33a.29.29,0,0,1-.32.33h-1.9V64.57h1.9a.29.29,0,0,1,.32.33Z"/><polygon class="cls-1" points="205.47 70.23 210.03 70.23 210.03 68.91 206.86 68.91 206.86 67.32 209.43 67.32 209.43 66 206.86 66 206.86 64.57 210.03 64.57 210.03 63.25 205.47 63.25 205.47 70.23"/><polygon class="cls-1" points="212.66 63.25 211.26 63.25 211.26 70.23 215.59 70.23 215.59 68.91 212.66 68.91 212.66 63.25"/><rect class="cls-1" x="215.5" y="66.41" width="3.49" height="1.26"/><path class="cls-1" d="M225.19,66.27V64.63a1.31,1.31,0,0,0-1.38-1.38h-3.56v7h1.4V67.64h1.12l1.13,2.59h1.5l-1.16-2.65A1.29,1.29,0,0,0,225.19,66.27Zm-1.4-.26a.3.3,0,0,1-.33.33h-1.81V64.57h1.81a.3.3,0,0,1,.33.33Z"/><polygon class="cls-1" points="226.55 70.23 231.12 70.23 231.12 68.91 227.95 68.91 227.95 67.32 230.52 67.32 230.52 66 227.95 66 227.95 64.57 231.12 64.57 231.12 63.25 226.55 63.25 226.55 70.23"/><rect class="cls-1" x="232.35" y="63.25" width="1.4" height="6.98"/></g></g></svg>