<svg xmlns="http://www.w3.org/2000/svg" viewBox="0 0 255.92 50.19"><path d="M55.61,2V3.75a6.77,6.77,0,0,0-3.93-1.34c-1.8,0-3.46.91-3.46,2.82,0,1.66,1.27,2.45,3.77,3.59s4.48,2.32,4.48,4.89c0,3.09-2.54,4.8-5.39,4.8a7.62,7.62,0,0,1-4.59-1.59V15a6.56,6.56,0,0,0,4.62,2c1.93,0,3.77-1.09,3.77-3.13,0-1.73-1.27-2.57-3.84-3.75s-4.41-2.19-4.41-4.76C46.63,2.41,49,.89,51.72.89A7.66,7.66,0,0,1,55.61,2Z" style="fill:#323232"/><path d="M58.9,12.05a6,6,0,0,1,6-6.34c3.41,0,5.93,2.73,5.93,6.34s-2.52,6.34-5.93,6.34S58.9,15.69,58.9,12.05Zm10.35,0c0-3.09-2.14-4.87-4.39-4.87S60.45,9,60.45,12.05a4.51,4.51,0,0,0,4.41,4.87C67.11,16.92,69.25,15.14,69.25,12.05Z" style="fill:#323232"/><path d="M75.61,8.23A4.88,4.88,0,0,1,80,5.71c2.89,0,5.57,2.43,5.57,6.34s-2.7,6.34-5.59,6.34a5,5,0,0,1-4.46-2.63l-.2,2.38H74.06V0h1.55Zm0,3.8c0,2.91,1.87,4.89,4.21,4.89S84,15,84,12.05s-1.87-4.87-4.23-4.87S75.56,9.16,75.56,12Z" style="fill:#323232"/><path d="M88.84,6h1.22l.19,2h0a4,4,0,0,1,3.55-2.11,5.86,5.86,0,0,1,.77,0v1.5a4.11,4.11,0,0,0-.8-.07,3.31,3.31,0,0,0-3.41,3.54v7.3H88.84Z" style="fill:#323232"/><path d="M106.61,12.62h-9.3a4.36,4.36,0,0,0,4.48,4.32A6.18,6.18,0,0,0,106,15.21v1.73a6.75,6.75,0,0,1-4.27,1.45c-3.62,0-6-2.5-6-6.29,0-4,2.73-6.39,5.77-6.39,2.82,0,5.12,2.09,5.12,6.09C106.66,12.12,106.63,12.37,106.61,12.62Zm-1.45-1.34c-.07-2.87-1.82-4.14-3.64-4.14a4.31,4.31,0,0,0-4.18,4.14Z" style="fill:#323232"/><path d="M115,6.07h1L120,17h0l4-10.94h1L120.5,18.14h-1Z" style="fill:#323232"/><path d="M127.65,1.68a.77.77,0,0,1,1.53,0,.77.77,0,0,1-1.53,0Zm.28,4.39h.95V18.14h-.95Z" style="fill:#323232"/><path d="M131.88,6.07h1l4,10.94h0l4-10.94h1l-4.45,12.07h-1Z" style="fill:#323232"/><path d="M154.07,12.44H144.5c.16,3.11,2.11,5,4.84,5a6.22,6.22,0,0,0,4.3-1.75V16.8a6.74,6.74,0,0,1-4.34,1.55c-3.39,0-5.76-2.41-5.76-6.21s2.69-6.27,5.6-6.27c2.68,0,5,2,5,6A4.1,4.1,0,0,1,154.07,12.44Zm-.91-.87c0-3.27-2-4.79-4-4.79a4.76,4.76,0,0,0-4.62,4.79ZM146.84,4h-1L148.7.32h.78L152.36,4h-1l-2.25-2.91Z" style="fill:#323232"/><path d="M166.59,10.12v8h-1V10.5c0-2.43-1.25-3.68-3.44-3.68a3.52,3.52,0,0,0-3.73,3.57v7.75h-.95V6.07h.75l.11,2.14h0a4.26,4.26,0,0,1,3.93-2.34A4,4,0,0,1,166.59,10.12Z" style="fill:#323232"/><path d="M175.73,17.44a5.56,5.56,0,0,0,3.25-1v1.07a6.32,6.32,0,0,1-3.25.84,5.92,5.92,0,0,1-5.85-6.25A6,6,0,0,1,179,6.73V7.8a5.37,5.37,0,0,0-3.3-1,5,5,0,0,0-4.84,5.3A5,5,0,0,0,175.73,17.44Z" style="fill:#323232"/><path d="M182.13,1.68a.77.77,0,0,1,1.53,0,.77.77,0,0,1-1.53,0Zm.28,4.39h1V18.14h-1Z" style="fill:#323232"/><path d="M186.88,12.12c0-3.87,2.66-6.25,5.51-6.25a5.07,5.07,0,0,1,4.75,3.22l.13-3H198V18.14h-.75l-.13-3a5,5,0,0,1-4.73,3.23C189.54,18.35,186.88,16,186.88,12.12Zm10.24,0c0-3.23-2.12-5.3-4.64-5.3s-4.64,2-4.64,5.32,2.16,5.32,4.66,5.32S197.12,15.37,197.12,12.1Z" style="fill:#323232"/><path d="M209.07,6.91V8a5.5,5.5,0,0,0-3.46-1.2c-1.79,0-3,.88-3,2.23s1.28,1.91,3.19,2.52,3.84,1.27,3.84,3.43c0,2-1.64,3.37-4.09,3.37a6.4,6.4,0,0,1-4.07-1.43V15.73a5.8,5.8,0,0,0,4.07,1.71c1.91,0,3.14-1,3.14-2.43s-1.37-2-3.3-2.69-3.73-1.25-3.73-3.23,1.61-3.22,4-3.22A6,6,0,0,1,209.07,6.91Z" style="fill:#323232"/><path d="M0,39.32C0,35.41,2.68,33,5.57,33a5,5,0,0,1,4.48,2.64l.2-2.39H11.5V45.42H10.25L10.05,43a5,5,0,0,1-4.48,2.64C2.68,45.67,0,43.21,0,39.32Zm10,0c0-2.86-1.88-4.84-4.23-4.84s-4.22,1.93-4.22,4.86,1.86,4.87,4.22,4.87S10,42.21,10,39.3Z" style="fill:#323232"/><path d="M17.55,33.23h3.57v1.39H17.55v6.64a2.54,2.54,0,0,0,2.77,2.88A6.1,6.1,0,0,0,21.41,44v1.39a8.23,8.23,0,0,1-1.29.11A3.85,3.85,0,0,1,16,41.32v-6.7H14.16V33.23h1.89V30.37h1.5Z" style="fill:#323232"/><path d="M24,33.23h1.23l.18,2h0A4,4,0,0,1,29,33.09c.3,0,.55,0,.78,0v1.5a5.18,5.18,0,0,0-.8-.07,3.32,3.32,0,0,0-3.41,3.55v7.3H24Z" style="fill:#323232"/><path d="M30.93,39.32c0-3.91,2.68-6.34,5.57-6.34A5,5,0,0,1,41,35.62l.21-2.39h1.25V45.42H41.19L41,43a5,5,0,0,1-4.48,2.64C33.61,45.67,30.93,43.21,30.93,39.32Zm10,0c0-2.86-1.89-4.84-4.23-4.84s-4.23,1.93-4.23,4.86,1.86,4.87,4.23,4.87S40.94,42.21,40.94,39.3Z" style="fill:#323232"/><path d="M45.12,33.23h1.63l3.64,10.39h.07l3.61-10.39h1.62L51.25,45.42h-1.7Z" style="fill:#323232"/><path d="M68,39.89h-9.3a4.36,4.36,0,0,0,4.48,4.32,6.18,6.18,0,0,0,4.21-1.73v1.73a6.77,6.77,0,0,1-4.28,1.46c-3.61,0-6-2.5-6-6.3,0-4,2.72-6.39,5.77-6.39,2.82,0,5.11,2.09,5.11,6.09C68.07,39.39,68.05,39.64,68,39.89Zm-1.46-1.34c-.06-2.86-1.82-4.14-3.63-4.14a4.33,4.33,0,0,0-4.19,4.14Z" style="fill:#323232"/><path d="M78.48,34.05v1.7a5.47,5.47,0,0,0-3.61-1.31c-1.68,0-2.64.77-2.64,1.88,0,1.28,1.16,1.69,2.91,2.23s4,1.14,4,3.57c0,2.16-1.69,3.55-4.35,3.55a6.44,6.44,0,0,1-4.16-1.44V42.39a5.71,5.71,0,0,0,4.14,1.82c1.8,0,2.84-.86,2.84-2.07s-1.25-1.79-3.07-2.36c-2-.64-3.81-1.23-3.81-3.34S72.32,33,74.89,33A6.09,6.09,0,0,1,78.48,34.05Z" style="fill:#323232"/><path d="M89.46,34.05v1.7a5.47,5.47,0,0,0-3.61-1.31c-1.69,0-2.64.77-2.64,1.88,0,1.28,1.16,1.69,2.91,2.23s4,1.14,4,3.57c0,2.16-1.69,3.55-4.35,3.55a6.42,6.42,0,0,1-4.16-1.44V42.39a5.69,5.69,0,0,0,4.14,1.82c1.8,0,2.84-.86,2.84-2.07s-1.25-1.79-3.07-2.36c-2-.64-3.82-1.23-3.82-3.34S83.3,33,85.87,33A6.11,6.11,0,0,1,89.46,34.05Z" style="fill:#323232"/><path d="M92.44,39.32C92.44,35.41,95.12,33,98,33a5,5,0,0,1,4.48,2.64l.2-2.39h1.25V45.42h-1.25l-.2-2.39A5,5,0,0,1,98,45.67C95.12,45.67,92.44,43.21,92.44,39.32Zm10,0c0-2.86-1.89-4.84-4.23-4.84S94,36.39,94,39.32s1.87,4.87,4.23,4.87S102.44,42.21,102.44,39.3Z" style="fill:#323232"/><path d="M107.21,39.32c0-3.91,2.68-6.34,5.57-6.34a5,5,0,0,1,4.39,2.5V27.27h1.55V45.42h-1.26l-.2-2.39a5,5,0,0,1-4.48,2.64C109.89,45.67,107.21,43.21,107.21,39.32Zm10,0c0-2.86-1.88-4.84-4.22-4.84s-4.23,1.93-4.23,4.86,1.86,4.87,4.23,4.87S117.21,42.21,117.21,39.3Z" style="fill:#323232"/><path d="M122,39.32c0-3.91,2.68-6.34,5.57-6.34A5,5,0,0,1,132,35.62l.21-2.39h1.25V45.42h-1.25L132,43a5,5,0,0,1-4.48,2.64C124.64,45.67,122,43.21,122,39.32Zm10,0c0-2.86-1.89-4.84-4.23-4.84s-4.23,1.93-4.23,4.86,1.86,4.87,4.23,4.87S132,42.21,132,39.3Z" style="fill:#323232"/><path d="M144.72,34.05v1.7a5.5,5.5,0,0,0-3.62-1.31c-1.68,0-2.64.77-2.64,1.88,0,1.28,1.16,1.69,2.91,2.23s4,1.14,4,3.57c0,2.16-1.68,3.55-4.34,3.55a6.42,6.42,0,0,1-4.16-1.44V42.39A5.67,5.67,0,0,0,141,44.21c1.79,0,2.84-.86,2.84-2.07s-1.25-1.79-3.07-2.36c-2.05-.64-3.82-1.23-3.82-3.34s1.64-3.46,4.2-3.46A6.12,6.12,0,0,1,144.72,34.05Z" style="fill:#323232"/><path d="M154.9,33.23h1.22l.21,2.39A5,5,0,0,1,160.78,33c2.91,0,5.6,2.46,5.6,6.32s-2.69,6.37-5.6,6.37a5,5,0,0,1-4.34-2.5v7H154.9Zm9.93,6.07c0-2.89-1.86-4.84-4.23-4.84s-4.2,2-4.2,4.86,1.86,4.87,4.2,4.87S164.83,42.26,164.83,39.3Z" style="fill:#323232"/><path d="M179.72,39.89h-9.3a4.36,4.36,0,0,0,4.48,4.32,6.18,6.18,0,0,0,4.21-1.73v1.73a6.77,6.77,0,0,1-4.28,1.46c-3.61,0-6-2.5-6-6.3,0-4,2.72-6.39,5.77-6.39,2.82,0,5.11,2.09,5.11,6.09C179.76,39.39,179.74,39.64,179.72,39.89Zm-1.45-1.34c-.07-2.86-1.82-4.14-3.64-4.14a4.33,4.33,0,0,0-4.19,4.14Z" style="fill:#323232"/><path d="M183,27.27h1.55V45.42H183Z" style="fill:#323232"/><path d="M187.92,39.32a6,6,0,0,1,6-6.34c3.41,0,5.93,2.73,5.93,6.34s-2.52,6.35-5.93,6.35S187.92,43,187.92,39.32Zm10.35,0c0-3.09-2.14-4.86-4.39-4.86s-4.41,1.77-4.41,4.86,2.16,4.87,4.41,4.87S198.27,42.41,198.27,39.32Z" style="fill:#323232"/><path d="M207.56,33.23h1.63l3.64,10.39h.07l3.61-10.39h1.62L213.7,45.42H212Z" style="fill:#323232"/><path d="M225,26.93,222,30.68h-1.39l2.68-3.75Zm-4.21,6.3h1.55V45.42h-1.55Z" style="fill:#323232"/><path d="M226.54,33.23h1.22l.18,2h0a4,4,0,0,1,3.54-2.12c.3,0,.55,0,.78,0v1.5a5.18,5.18,0,0,0-.8-.07,3.32,3.32,0,0,0-3.41,3.55v7.3h-1.54Z" style="fill:#323232"/><path d="M234.58,40.82V33.23h1.55v7.66a3,3,0,0,0,3.2,3.3,3.09,3.09,0,0,0,3.32-3.32V33.23h1.55v7.59a4.57,4.57,0,0,1-4.87,4.85A4.49,4.49,0,0,1,234.58,40.82Z" style="fill:#323232"/><path d="M255.31,34.05v1.7a5.47,5.47,0,0,0-3.61-1.31c-1.69,0-2.64.77-2.64,1.88,0,1.28,1.16,1.69,2.91,2.23s3.95,1.14,3.95,3.57c0,2.16-1.68,3.55-4.34,3.55a6.42,6.42,0,0,1-4.16-1.44V42.39a5.69,5.69,0,0,0,4.14,1.82c1.8,0,2.84-.86,2.84-2.07s-1.25-1.79-3.07-2.36c-2-.64-3.82-1.23-3.82-3.34S249.15,33,251.72,33A6.11,6.11,0,0,1,255.31,34.05Z" style="fill:#323232"/></svg>