<svg xmlns="http://www.w3.org/2000/svg" viewBox="0 0 257 116">
  <path fill="#707070" d="M58 116C26 116 0 90 0 58S26 0 58 0s58 26 58 58-26 58-58 58zm-1-84c-2.2 0-4 1.8-4 4v28c-7.7 0-14-6.3-14-14V33c0-2.2-1.8-4-4-4h-2c-2.2 0-4 1.8-4 4v17c0 13.3 10.7 24 24 24v9c0 2.2 1.8 4 4 4h2c2.2 0 4-1.8 4-4v-9c13.3 0 24-10.7 24-24V33c0-2.2-1.8-4-4-4h-2c-2.2 0-4 1.8-4 4v17c0 7.7-6.3 14-14 14V36c0-2.2-1.8-4-4-4h-2zm10.6 71.9l-1.2.9c.6.8 1.4 1.3 2.6 1.3.8 0 1.6-.3 2.2-.9.6-.5 1-1.3 1-2.3V96h-1.5v6.7c0 .3-.1.6-.2.8-.1.2-.2.4-.4.6-.4.3-.7.4-1.1.4-.3 0-.6-.1-.8-.2-.3-.1-.5-.2-.6-.4zm-8.1-.3l-1 1.1c1.1.9 2.3 1.4 3.8 1.4 2.3 0 3.4-1 3.5-2.9 0-.7-.2-1.3-.7-1.9-.4-.5-1.1-.9-2.1-1-.5-.1-.8-.1-1.1-.2-.5-.1-.8-.3-1.1-.5-.2-.2-.3-.5-.3-.8 0-.5.2-.8.5-1.1.3-.2.7-.3 1.2-.3.9 0 1.7.3 2.5.8l.8-1.2c-.9-.7-2-1-3.2-1-1 0-1.8.3-2.4.8-.6.5-.9 1.2-.9 2.1 0 .7.2 1.3.7 1.8.4.5 1.1.8 2 1 .5.1.9.1 1.3.2.9.2 1.3.6 1.3 1.3 0 .9-.7 1.4-2 1.4-1.1 0-2-.4-2.8-1zm-7.6 2.4h1.5v-4.3h4.1v-1.3h-4.1v-2.9h4.9V96h-6.4v10zm-9-3.4c0 1 .4 1.9 1 2.5.7.6 1.5 1 2.5 1s1.9-.3 2.5-1c.7-.6 1-1.4 1-2.5V96h-1.5v6.4c0 .7-.2 1.2-.6 1.6-.4.4-.9.6-1.5.6s-1.1-.2-1.4-.6c-.4-.4-.6-.9-.6-1.6V96h-1.5v6.6zM66.6 22H68v-1.4h-1.4V22zm-2.5 0h1.6L62 12h-1.3l-3.6 10h1.6l.8-2.2h3.8l.8 2.2zM60 18.4l1.4-4.4 1.4 4.4H60zM54.8 22h1.4v-1.4h-1.4V22zm-2.6-2.8c-.4.9-1.1 1.4-1.9 1.4-.4 0-.7-.1-.9-.2-.3-.1-.5-.3-.6-.5-.2-.2-.3-.5-.4-.8-.1-.3-.1-1-.1-2s0-1.6.1-2c.1-.3.2-.6.4-.8.2-.2.4-.4.6-.5.3-.1.6-.2.9-.2.5 0 .9.1 1.2.4.3.3.5.6.7 1h1.6c-.2-.8-.5-1.5-1.1-2.1-.7-.7-1.5-.9-2.4-.9-.8 0-1.4.2-2 .6-.5.4-.9.8-1.2 1.2-.2.2-.3.6-.3 1-.1.4-.1 1.2-.1 2.3 0 1.1 0 1.9.1 2.3 0 .2.1.4.1.5.1.1.1.3.2.4.2.5.6.9 1.2 1.2.5.4 1.2.6 2 .6.9 0 1.6-.2 2.2-.7.6-.5 1-1.2 1.3-2.1h-1.6z"/>
  <g fill="#707070">
    <path d="M135.7 18.4c-.3 1.2-.8 2.1-1.6 2.7-.8.6-1.7.9-2.8.9-1 0-1.8-.3-2.4-.7-.7-.5-1.1-1-1.4-1.6-.1-.2-.2-.4-.2-.6-.1-.2-.1-.4-.2-.7-.1-.5-.1-1.5-.1-3s0-2.5.1-3 .2-.9.4-1.2c.3-.6.8-1.1 1.4-1.6.7-.5 1.5-.7 2.4-.7 1.2 0 2.2.4 2.9 1.1.8.7 1.2 1.6 1.4 2.7h-2c-.2-.5-.4-1-.8-1.3-.4-.3-.9-.5-1.5-.5-.4 0-.8.1-1.1.3-.3.2-.6.4-.8.7-.2.3-.4.6-.5 1.1-.1.5-.1 1.3-.1 2.6s0 2.1.1 2.6c.1.4.2.8.5 1.1.2.3.5.5.8.6.3.2.7.3 1.1.3 1.1 0 1.8-.6 2.4-1.8h2z"/>
    <path d="M137.3 9.2h7.9V11h-6v3.7h5.2v1.7h-5.2v3.8h6V22h-7.9V9.2z"/>
    <path d="M147.3 9.2h1.8l5.6 9.1V9.2h1.9V22h-1.8l-5.6-9.1V22h-1.9V9.2z"/>
    <path d="M161.8 10.9h-3.4V9.2h8.7v1.7h-3.4V22h-1.9V10.9z"/>
    <path d="M168.6 9.2h4.8c1 0 1.9.3 2.5.8.8.6 1.2 1.5 1.2 2.7 0 1.7-.8 2.9-2.4 3.6l2.9 5.7h-2.2l-2.6-5.5h-2.4V22h-1.9V9.2zm1.9 5.6h2.9c.7 0 1.2-.2 1.6-.6.3-.4.5-.9.5-1.4 0-.7-.2-1.2-.6-1.5-.3-.3-.8-.4-1.4-.4h-3v3.9z"/>
    <path d="M179.2 15.6c0-1.5 0-2.5.1-3s.2-.9.4-1.2c.3-.6.8-1.1 1.4-1.6.7-.5 1.5-.7 2.4-.7 1 0 1.8.3 2.5.7.7.5 1.1 1 1.4 1.6.2.3.4.7.4 1.2.1.5.1 1.5.1 3s0 2.5-.1 3-.2.9-.4 1.2c-.3.6-.8 1.1-1.4 1.6-.7.5-1.5.7-2.5.7s-1.8-.3-2.4-.7c-.7-.5-1.1-1-1.4-1.6-.1-.2-.2-.4-.2-.6-.1-.2-.1-.4-.2-.7-.1-.5-.1-1.4-.1-2.9zm1.9 0c0 1.3 0 2.1.1 2.6.1.4.2.8.5 1.1.2.3.5.5.8.6.3.2.7.3 1.1.3.4 0 .8-.1 1.2-.3.3-.2.6-.4.8-.6.2-.3.4-.6.5-1.1.1-.4.1-1.3.1-2.6s0-2.1-.1-2.6c-.1-.4-.3-.8-.5-1.1-.2-.3-.4-.5-.8-.7-.3-.2-.7-.3-1.2-.3-.4 0-.8.1-1.1.3-.3.2-.6.4-.8.7-.2.3-.4.6-.5 1.1-.1.5-.1 1.3-.1 2.6z"/>
    <path d="M133.7 40.1H129l-1 2.9h-2l4.5-12.8h1.6l4.5 12.8h-2l-.9-2.9zm-.6-1.7l-1.8-5.6-1.8 5.6h3.6z"/>
    <path d="M146.3 39.4c-.3 1.2-.8 2.1-1.6 2.7-.8.6-1.7.9-2.8.9-1 0-1.8-.3-2.4-.7-.7-.5-1.1-1-1.4-1.6-.1-.2-.2-.4-.2-.6-.1-.2-.1-.4-.2-.7-.1-.5-.1-1.5-.1-3s0-2.5.1-3 .2-.9.4-1.2c.3-.6.8-1.1 1.4-1.6.7-.5 1.5-.7 2.4-.7 1.2 0 2.2.4 2.9 1.1.8.7 1.2 1.6 1.4 2.7h-2c-.2-.5-.4-1-.8-1.3-.4-.3-.9-.5-1.5-.5-.4 0-.8.1-1.1.3-.3.2-.6.4-.8.7-.2.3-.4.6-.5 1.1-.1.5-.1 1.3-.1 2.6s0 2.1.1 2.6c.1.4.2.8.5 1.1.2.3.5.5.8.6.3.2.7.3 1.1.3 1.1 0 1.8-.6 2.4-1.8h2z"/>
    <path d="M154.3 40.1h-4.7l-1 2.9h-2l4.5-12.8h1.6l4.5 12.8h-2l-.9-2.9zm-.5-1.7l-1.8-5.6-1.8 5.6h3.6z"/>
    <path d="M159 30.2h4.3c1.7 0 2.9.7 3.8 2.2.3.5.5 1 .6 1.5.1.5.1 1.4.1 2.7 0 1.4 0 2.3-.1 2.9 0 .3-.1.5-.2.7-.1.2-.2.4-.3.7-.4.6-.9 1.1-1.5 1.5-.6.4-1.4.6-2.4.6H159V30.2zm1.8 11h2.2c1.1 0 1.8-.4 2.3-1.1.2-.3.3-.6.4-1 .1-.4.1-1.2.1-2.3 0-1.1 0-1.9-.1-2.4s-.2-.9-.5-1.2c-.5-.7-1.3-1.1-2.2-1.1h-2.2v9.1z"/>
    <path d="M170.3 30.2h7.9V32h-6.1v3.7h5.2v1.7h-5.2v3.8h6.1V43h-7.9V30.2zm4.2-2.2l-1.2 1.5h-1.7l1.8-2.6h2l1.9 2.6h-1.7l-1.1-1.5z"/>
    <path d="M180.3 30.2h1.8l3.6 8.4 3.5-8.4h1.8V43h-2v-8l-2.6 6.2h-1.6l-2.6-6.2v8h-1.9V30.2z"/>
    <path d="M193.9 30.2h1.9V43h-1.9V30.2z"/>
    <path d="M207 39.4c-.3 1.2-.8 2.1-1.6 2.7-.8.6-1.7.9-2.8.9-1 0-1.8-.3-2.4-.7-.7-.5-1.1-1-1.4-1.6-.1-.2-.2-.4-.2-.6-.1-.2-.1-.4-.2-.7-.1-.5-.1-1.5-.1-3s0-2.5.1-3 .2-.9.4-1.2c.3-.6.8-1.1 1.4-1.6.7-.5 1.5-.7 2.4-.7 1.2 0 2.2.4 2.9 1.1.8.7 1.2 1.6 1.4 2.7h-2c-.2-.5-.4-1-.8-1.3-.4-.3-.9-.5-1.5-.5-.4 0-.8.1-1.1.3-.3.2-.6.4-.8.7-.2.3-.4.6-.5 1.1-.1.5-.1 1.3-.1 2.6s0 2.1.1 2.6c.1.4.2.8.5 1.1.2.3.5.5.8.6.3.2.7.3 1.1.3 1.1 0 1.8-.6 2.4-1.8h2z"/>
    <path d="M208.2 36.6c0-1.5 0-2.5.1-3s.2-.9.4-1.2c.3-.6.8-1.1 1.4-1.6.7-.5 1.5-.7 2.4-.7 1 0 1.8.3 2.5.7.7.5 1.1 1 1.4 1.6.2.3.4.7.4 1.2.1.5.1 1.5.1 3s0 2.5-.1 3-.2.9-.4 1.2c-.3.6-.8 1.1-1.4 1.6-.7.5-1.5.7-2.5.7s-1.8-.3-2.4-.7c-.7-.5-1.1-1-1.4-1.6-.1-.2-.2-.4-.2-.6-.1-.2-.1-.4-.2-.7-.1-.5-.1-1.4-.1-2.9zm1.8 0c0 1.3 0 2.1.1 2.6.1.4.2.8.5 1.1.2.3.5.5.8.6.3.2.7.3 1.1.3.4 0 .8-.1 1.2-.3.3-.2.6-.4.8-.6.2-.3.4-.6.5-1.1.1-.4.1-1.3.1-2.6s0-2.1-.1-2.6c-.1-.4-.3-.8-.5-1.1-.2-.3-.4-.5-.8-.7-.3-.2-.7-.3-1.2-.3-.4 0-.8.1-1.1.3-.3.2-.6.4-.8.7-.2.3-.4.6-.5 1.1 0 .5-.1 1.3-.1 2.6z"/>
    <path d="M223.9 30.2h4.3c1.7 0 2.9.7 3.8 2.2.3.5.5 1 .6 1.5.1.5.1 1.4.1 2.7 0 1.4 0 2.3-.1 2.9 0 .3-.1.5-.2.7-.1.2-.2.4-.3.7-.4.6-.9 1.1-1.5 1.5-.6.4-1.4.6-2.4.6H224V30.2zm1.9 11h2.2c1.1 0 1.8-.4 2.3-1.1.2-.3.3-.6.4-1 .1-.4.1-1.2.1-2.3 0-1.1 0-1.9-.1-2.4s-.2-.9-.5-1.2c-.5-.7-1.3-1.1-2.2-1.1h-2.2v9.1z"/>
    <path d="M235.2 30.2h7.9V32H237v3.7h5.2v1.7H237v3.8h6.1V43h-7.9V30.2z"/>
    <path d="M127.3 51.2h4.5c.5 0 1 0 1.4.1.5.1.9.4 1.4.8.4.3.7.7 1 1.2.3.5.4 1.1.4 1.8 0 .9-.3 1.8-1 2.6s-1.6 1.2-2.9 1.3h-2.9v5h-1.9V51.2zm1.9 6h2.8c.7 0 1.2-.2 1.6-.7.3-.4.5-.9.5-1.4 0-.4-.1-.8-.2-1.1-.1-.3-.3-.5-.6-.6-.4-.3-.8-.4-1.3-.4h-2.7v4.2z"/>
    <path d="M138.1 60.9c1 .8 2.2 1.3 3.5 1.3 1.6 0 2.4-.6 2.5-1.8 0-1-.5-1.5-1.6-1.7-.5-.1-1-.1-1.6-.2-1.1-.2-1.9-.6-2.4-1.2-.6-.7-.9-1.4-.9-2.4 0-1.1.4-2 1.1-2.7.7-.7 1.7-1 3-1 1.5 0 2.9.5 4 1.3l-1 1.6c-.9-.6-2-1-3.1-1-.6 0-1.1.1-1.4.4-.4.3-.6.8-.6 1.4 0 .4.1.7.4 1 .3.3.7.5 1.3.6.3.1.8.1 1.4.2 1.2.2 2 .6 2.6 1.3.6.7.8 1.5.8 2.4-.1 2.5-1.5 3.7-4.4 3.7-1.8 0-3.4-.6-4.7-1.7l1.1-1.5z"/>
    <path d="M148.3 51.2h1.9V64h-1.9V51.2z"/>
    <path d="M161.3 60.4c-.3 1.2-.8 2.1-1.6 2.7-.8.6-1.7.9-2.8.9-1 0-1.8-.3-2.4-.7-.7-.5-1.1-1-1.4-1.6-.1-.2-.2-.4-.2-.6-.1-.2-.1-.4-.2-.7-.1-.5-.1-1.5-.1-3s0-2.5.1-3 .2-.9.4-1.2c.3-.6.8-1.1 1.4-1.6.7-.5 1.5-.7 2.4-.7 1.2 0 2.2.4 2.9 1.1.8.7 1.2 1.6 1.4 2.7h-2c-.2-.5-.4-1-.8-1.3-.4-.3-.9-.5-1.5-.5-.4 0-.8.1-1.1.3-.3.2-.6.4-.8.7-.2.3-.4.6-.5 1.1-.1.5-.1 1.3-.1 2.6s0 2.1.1 2.6c.1.4.2.8.5 1.1.2.3.5.5.8.6.3.2.7.3 1.1.3 1.1 0 1.8-.6 2.4-1.8h2z"/>
    <path d="M162.5 57.6c0-1.5 0-2.5.1-3s.2-.9.4-1.2c.3-.6.8-1.1 1.4-1.6.7-.5 1.5-.7 2.4-.7 1 0 1.8.3 2.5.7.7.5 1.1 1 1.4 1.6.2.3.4.7.4 1.2.1.5.1 1.5.1 3s0 2.5-.1 3-.2.9-.4 1.2c-.3.6-.8 1.1-1.4 1.6-.7.5-1.5.7-2.5.7s-1.8-.3-2.4-.7c-.7-.5-1.1-1-1.4-1.6-.1-.2-.2-.4-.2-.6-.1-.2-.1-.4-.2-.7 0-.5-.1-1.4-.1-2.9zm1.9 0c0 1.3 0 2.1.1 2.6.1.4.2.8.5 1.1.2.3.5.5.8.6.3.2.7.3 1.1.3.4 0 .8-.1 1.2-.3.3-.2.6-.4.8-.6.2-.3.4-.6.5-1.1.1-.4.1-1.3.1-2.6s0-2.1-.1-2.6c-.1-.4-.3-.8-.5-1.1-.2-.3-.4-.5-.8-.7-.3-.2-.7-.3-1.2-.3-.4 0-.8.1-1.1.3-.3.2-.6.4-.8.7-.2.3-.4.6-.5 1.1 0 .5-.1 1.3-.1 2.6z"/>
    <path d="M173.9 51.2h1.9v11h6V64h-7.9V51.2z"/>
    <path d="M183.5 57.6c0-1.5 0-2.5.1-3s.2-.9.4-1.2c.3-.6.8-1.1 1.4-1.6.7-.5 1.5-.7 2.4-.7 1 0 1.8.3 2.5.7.7.5 1.1 1 1.4 1.6.2.3.4.7.4 1.2.1.5.1 1.5.1 3s0 2.5-.1 3-.2.9-.4 1.2c-.3.6-.8 1.1-1.4 1.6-.7.5-1.5.7-2.5.7s-1.8-.3-2.4-.7c-.7-.5-1.1-1-1.4-1.6-.1-.2-.2-.4-.2-.6-.1-.2-.1-.4-.2-.7 0-.5-.1-1.4-.1-2.9zm1.9 0c0 1.3 0 2.1.1 2.6.1.4.2.8.5 1.1.2.3.5.5.8.6.3.2.7.3 1.1.3.4 0 .8-.1 1.2-.3.3-.2.6-.4.8-.6.2-.3.4-.6.5-1.1.1-.4.1-1.3.1-2.6s0-2.1-.1-2.6c-.1-.4-.3-.8-.5-1.1-.2-.3-.4-.5-.8-.7-.3-.2-.7-.3-1.2-.3-.4 0-.8.1-1.1.3-.3.2-.6.4-.8.7-.2.3-.4.6-.5 1.1-.1.5-.1 1.3-.1 2.6z"/>
    <path d="M198.9 57h4.4v2.6c0 1.3-.4 2.4-1.3 3.2-.8.9-1.9 1.3-3.1 1.3-1 0-1.8-.3-2.4-.7-.7-.5-1.1-1-1.4-1.6-.1-.2-.2-.4-.2-.6-.1-.2-.1-.4-.2-.7-.1-.5-.1-1.5-.1-3s0-2.5.1-3 .2-.9.4-1.2c.3-.6.8-1.1 1.4-1.6.7-.5 1.5-.7 2.4-.7 1.2 0 2.2.4 2.9 1.1.8.7 1.2 1.6 1.4 2.7h-2c-.2-.5-.4-1-.8-1.3-.4-.3-.9-.5-1.5-.5-.4 0-.8.1-1.1.3-.3.2-.6.4-.8.7-.2.3-.4.6-.5 1.1-.1.5-.1 1.3-.1 2.6s0 2.1.1 2.6c.1.4.2.8.5 1.1.2.3.5.5.8.6.3.2.7.3 1.1.3.7 0 1.3-.3 1.8-.8s.7-1.1.7-1.9v-.7h-2.5V57z"/>
    <path d="M205.9 51.2h1.9V64h-1.9V51.2z"/>
    <path d="M216.9 61.1h-4.7l-1 2.9h-2l4.5-12.8h1.6l4.5 12.8h-2l-.9-2.9zm-.5-1.7l-1.8-5.6-1.8 5.6h3.6z"/>
  </g>
  <g fill="#707070">
    <path d="M126.6 73.5l1.8-1.3v3.2h-1.8v-1.9zm2.8 0l1.8-1.3v3.2h-1.8v-1.9z"/>
    <path d="M138.7 82.1H134l-1 2.9h-2l4.5-12.8h1.6l4.5 12.8h-2l-.9-2.9zm-.6-1.7l-1.8-5.6-1.8 5.6h3.6z"/>
    <path d="M143.3 72.2h1.8l5.6 9.1v-9.1h1.9V85h-1.8l-5.6-9.1V85h-1.9V72.2z"/>
    <path d="M162 82.1h-4.7l-1 2.9h-2l4.5-12.8h1.6l4.5 12.8h-2l-.9-2.9zm-.6-1.7l-1.8-5.6-1.8 5.6h3.6z"/>
    <path d="M170.9 72.2h4.8c1 0 1.9.3 2.5.8.8.6 1.2 1.5 1.2 2.7 0 1.7-.8 2.9-2.4 3.6l3 5.7h-2.2l-2.6-5.5h-2.4V85h-1.9V72.2zm1.9 5.6h2.9c.7 0 1.2-.2 1.6-.6.3-.4.5-.9.5-1.4 0-.7-.2-1.2-.6-1.5-.3-.3-.8-.4-1.4-.4h-3v3.9z"/>
    <path d="M181.9 72.2h7.9V74h-6.1v3.7h5.2v1.7h-5.2v3.8h6.1V85h-7.9V72.2z"/>
    <path d="M195.9 78h4.4v2.6c0 1.3-.4 2.4-1.3 3.2-.8.9-1.9 1.3-3.1 1.3-1 0-1.8-.3-2.4-.7-.7-.5-1.1-1-1.4-1.6-.1-.2-.2-.4-.2-.6-.1-.2-.1-.4-.2-.7-.1-.5-.1-1.5-.1-3s0-2.5.1-3 .2-.9.4-1.2c.3-.6.8-1.1 1.4-1.6.7-.5 1.5-.7 2.4-.7 1.2 0 2.2.4 2.9 1.1.8.7 1.2 1.6 1.4 2.7h-2c-.2-.5-.4-1-.8-1.3-.4-.3-.9-.5-1.5-.5-.4 0-.8.1-1.1.3-.3.2-.6.4-.8.7-.2.3-.4.6-.5 1.1-.1.5-.1 1.3-.1 2.6s0 2.1.1 2.6c.1.4.2.8.5 1.1.2.3.5.5.8.6.3.2.7.3 1.1.3.7 0 1.3-.3 1.8-.8s.7-1.1.7-1.9v-.7h-2.5V78z"/>
    <path d="M202.9 72.2h1.9V85h-1.9V72.2z"/>
    <path d="M207.5 72.2h1.8l5.6 9.1v-9.1h1.9V85H215l-5.6-9.1V85h-1.9V72.2z"/>
    <path d="M226.2 82.1h-4.7l-1 2.9h-2l4.5-12.8h1.6l4.5 12.8h-2l-.9-2.9zm-.6-1.7l-1.8-5.6-1.8 5.6h3.6z"/>
    <path d="M127.3 93.2h7.9V95h-6.1v3.8h5.2v1.7h-5.2v5.5h-1.9V93.2z"/>
    <path d="M137 93.2h7.9V95h-6.1v3.7h5.2v1.7h-5.2v3.8h6.1v1.8H137V93.2z"/>
    <path d="M147 93.2h1.9v11h6v1.8H147V93.2z"/>
    <path d="M157 93.2h1.9V106H157V93.2z"/>
    <path d="M161.6 93.2h4.5c.5 0 1 0 1.4.1.5.1.9.4 1.4.8.4.3.7.7 1 1.2.3.5.4 1.1.4 1.8 0 .9-.3 1.8-1 2.6s-1.6 1.2-2.9 1.3h-2.9v5h-1.9V93.2zm1.9 6h2.8c.7 0 1.2-.2 1.6-.7.3-.4.5-.9.5-1.4 0-.4-.1-.8-.2-1.1-.1-.3-.3-.5-.6-.6-.4-.3-.8-.4-1.3-.4h-2.7v4.2z"/>
    <path d="M172.3 93.2h7.9V95h-6.1v3.7h5.2v1.7h-5.2v3.8h6.1v1.8h-7.9V93.2z"/>
    <path d="M185.9 104.4l5.6-9.5h-5.6v-1.7h7.9v1.5l-5.8 9.5h5.8v1.8h-7.9v-1.6z"/>
    <path d="M196 93.2h1.9V106H196V93.2z"/>
    <path d="M200.6 93.2h1.9v11h6v1.8h-7.9V93.2z"/>
    <path d="M210.6 93.2h1.9v11h6.1v1.8h-7.9V93.2z"/>
    <path d="M220.6 93.2h7.9V95h-6v3.7h5.2v1.7h-5.2v3.8h6v1.8h-7.9V93.2z"/>
    <path d="M230.7 93.2h4.8c1 0 1.9.3 2.5.8.8.6 1.2 1.5 1.2 2.7 0 1.7-.8 2.9-2.4 3.6l2.9 5.7h-2.2l-2.6-5.5h-2.4v5.5h-1.9V93.2zm1.8 5.6h2.9c.7 0 1.2-.2 1.6-.6.3-.4.5-.9.5-1.4 0-.7-.2-1.2-.6-1.5-.3-.3-.8-.4-1.4-.4h-3v3.9z"/>
    <path d="M241 93.2h1.8V95l-1.8 1.3v-3.1zm2.8 0h1.8V95l-1.8 1.3v-3.1z"/>
  </g>
</svg>
