<svg xmlns="http://www.w3.org/2000/svg" id="Camada_1" data-name="Camada 1" viewBox="0 0 128 128"><defs><style>.cls-1{fill:none;}</style></defs><g id="Branco"><g id="Vermelho"><circle cx="64" cy="64" r="6.64" class="cls-1"/><path d="M78.19 55.28a2.21 2.21 0 0 1-1.76-.87A15.55 15.55 0 0 0 71.08 50a20.38 20.38 0 0 1-1.27 4.62 11.14 11.14 0 0 1 3.77 3.88 23.91 23.91 0 0 0 5.9-3.62 2.2 2.2 0 0 1-1.29.4z" class="cls-1"/><path d="M75.7 104.47a42 42 0 0 1-9.52 1.6 2.22 2.22 0 0 0 .11 4.45h.11a46.44 46.44 0 0 0 10.52-1.76 2.22 2.22 0 0 0-1.23-4.28zm31.19-58.74a2.22 2.22 0 1 0-4.08 1.73 42.53 42.53 0 0 1-6.38 43.37 2.23 2.23 0 0 0 .28 3.17 2.21 2.21 0 0 0 3.12-.29 47 47 0 0 0 7.06-47.93zm-62.4-19.16a2.23 2.23 0 0 0 .72-3.35 2.27 2.27 0 0 0-2.85-.56A46.64 46.64 0 0 0 17.49 64a2.22 2.22 0 0 0 2.21 2.21A2.23 2.23 0 0 0 21.92 64a42.2 42.2 0 0 1 22.57-37.43zm40.63 63.11a33.18 33.18 0 0 1-21.21 7.68A32.93 32.93 0 0 1 51 94.75a2.22 2.22 0 0 0-3 1.62 2.3 2.3 0 0 0 1.43 2.53 37.33 37.33 0 0 0 14.49 2.9A37.62 37.62 0 0 0 88 93.08a2.16 2.16 0 0 0 .71-2.26 2.23 2.23 0 0 0-3.59-1.14z"/><path d="M97.36 75.87a2.21 2.21 0 0 0 2.74-1.52 38 38 0 0 0 1.42-8.55 2.22 2.22 0 1 0-4.42-.22 33.55 33.55 0 0 1-1.25 7.55 2.23 2.23 0 0 0 1.51 2.74zM41.51 73.3a2.22 2.22 0 1 0-4.09 1.7 28.79 28.79 0 0 0 6.39 9.47 2.21 2.21 0 0 0 3.13 0 2.23 2.23 0 0 0 0-3.15 24.35 24.35 0 0 1-5.43-8.02z"/><path d="M88.26 51.3a21.22 21.22 0 0 0 2.2-5.39 22.34 22.34 0 0 0 .65-5.91 2.22 2.22 0 0 0-.19-2.52A22.87 22.87 0 0 0 83.21 23a23.45 23.45 0 0 0-14.55-5.52 2.22 2.22 0 0 0-.1 4.45 19 19 0 0 1 11.8 4.48 17.62 17.62 0 0 1 4.57 6.06A37.47 37.47 0 0 0 78.46 29a2.22 2.22 0 0 0-1.71 4.1 33 33 0 0 1 9.93 6.48 18.11 18.11 0 0 1-.51 5.28 19.88 19.88 0 0 1-6.47 9.85 2.22 2.22 0 0 0 .26-3 20 20 0 0 0-8.67-6.5 21 21 0 0 0-1-5c.66.18 1.31.37 1.94.6a2.21 2.21 0 0 0 2.83-1.34 2.23 2.23 0 0 0-1.33-2.85 28.59 28.59 0 0 0-6-1.44 15.36 15.36 0 0 0-2.63-2.86 16 16 0 0 0-12.35-3.42 24 24 0 0 0-11.45 4.68 37.15 37.15 0 0 0-10.75 12.89 2.22 2.22 0 1 0 3.95 2A32.68 32.68 0 0 1 44 37.14c5.24-3.93 13.24-5.66 18.39-1.38a13.38 13.38 0 0 1 4.3 8.24l-.47-.07a2.22 2.22 0 0 0-.47 4.42c.35 0 .7.11 1.05.17a16.08 16.08 0 0 1-1.16 4.52A10.9 10.9 0 0 0 55.43 57a37 37 0 0 0-4.66-1.06A15.53 15.53 0 0 1 54 52a2.23 2.23 0 0 0 .25-3.14 2.21 2.21 0 0 0-3.12-.25A20 20 0 0 0 46 55.5c-1 0-2 0-3 .07-.65 0-1.28.13-1.91.22a24.39 24.39 0 0 1 11.58-13.43 2.26 2.26 0 0 0 1.16-2.58 2.22 2.22 0 0 0-3.17-1.39A28.81 28.81 0 0 0 36.08 57a20 20 0 0 0-8.16 5.33 22.74 22.74 0 0 0-5.55 17.54 24.28 24.28 0 0 0 9.49 17.23 2.21 2.21 0 0 0 3.1-.47 2.23 2.23 0 0 0-.47-3.11 20.09 20.09 0 0 1-7.71-14.09 19.64 19.64 0 0 1 .5-6.75 37.69 37.69 0 0 0 1.18 4 2.22 2.22 0 1 0 4.17-1.51 33.37 33.37 0 0 1-1.73-7.45 2.21 2.21 0 0 0-.61-1.28c.29-.38.58-.75.9-1.11a14.93 14.93 0 0 1 4.08-3.12c0 .58-.06 1.16-.07 1.75a2.23 2.23 0 0 0 2.21 2.26A2.21 2.21 0 0 0 39.64 64a24.79 24.79 0 0 1 .25-3.48 24.16 24.16 0 0 1 4.68-.52 19.82 19.82 0 0 0-.38 2.84 2.22 2.22 0 0 0 2.1 2.34h.12A2.22 2.22 0 0 0 48.62 63a15.45 15.45 0 0 1 .38-2.82 32.7 32.7 0 0 1 4.3.85 10.91 10.91 0 0 0 1.21 8.72A8.29 8.29 0 0 0 54 77.1a10.82 10.82 0 0 0 9.68 6.29 2.24 2.24 0 0 0 2-3.18 2.16 2.16 0 0 0-2-1.27 6.31 6.31 0 0 1-5.6-3.57 3.62 3.62 0 0 1-.21-2.13 11 11 0 0 0 14.88-2.53A11.8 11.8 0 0 1 74 71.87a10.11 10.11 0 0 1 1.61 2.36 15.49 15.49 0 0 1-2.8 2.49 2.23 2.23 0 0 0 1.25 4.06 2.2 2.2 0 0 0 1.25-.39c.45-.31.88-.65 1.3-1a8.48 8.48 0 0 1-1.74 4.51 13.42 13.42 0 0 1-10.64 4.72 18.37 18.37 0 0 1-5.44-1 2.22 2.22 0 0 0-1.43 4.21 22.77 22.77 0 0 0 6.74 1.23h.49a17.88 17.88 0 0 0 13.76-6.42A13.41 13.41 0 0 0 80.62 75a20 20 0 0 0 3.16-8 2.22 2.22 0 1 0-4.37-.7 15.43 15.43 0 0 1-1.12 3.75 14.45 14.45 0 0 0-1-1.24 16.21 16.21 0 0 0-2.53-2.22 10.46 10.46 0 0 0 .24-4 28.83 28.83 0 0 0 11.4-8.55 2.2 2.2 0 0 0 .08.28 24.63 24.63 0 0 1-3.74 25.18 2.23 2.23 0 0 0 .26 3.13 2.21 2.21 0 0 0 3.12-.29 29.09 29.09 0 0 0 4.4-29.71 2.21 2.21 0 0 0-2.26-1.33zM64 70.64A6.64 6.64 0 1 1 70.64 64 6.65 6.65 0 0 1 64 70.64zm5.81-16.05A20.38 20.38 0 0 0 71.08 50a15.55 15.55 0 0 1 5.35 4.43 2.2 2.2 0 0 0 3.05.45 23.91 23.91 0 0 1-5.9 3.62 11.14 11.14 0 0 0-3.77-3.91z"/></g></g></svg>